G04 (created by PCBNEW (2013-02-09 BZR 3938)-testing) date Sun 10 Feb 2013 01:21:16 PM CET*
%MOIN*%
G04 Gerber Fmt 3.4, Leading zero omitted, Abs format*
%FSLAX34Y34*%
G01*
G70*
G90*
G04 APERTURE LIST*
%ADD10C,2.3622e-06*%
%ADD11C,0.015*%
%ADD12R,0.0649606X0.0649606*%
%ADD13C,0.0649606*%
%ADD14R,0.04X0.04*%
%ADD15R,0.062X0.09*%
%ADD16O,0.062X0.09*%
G04 APERTURE END LIST*
G54D10*
G54D11*
X58500Y-29800D02*
X41700Y-29800D01*
X41700Y-17400D02*
X58500Y-17400D01*
X58500Y-29800D02*
X58500Y-17400D01*
X41700Y-17400D02*
X41700Y-29800D01*
G54D12*
X44300Y-20100D03*
G54D13*
X44300Y-21100D03*
X44300Y-22100D03*
X44300Y-23100D03*
X44300Y-24100D03*
X44300Y-25100D03*
X44300Y-26100D03*
X44300Y-27100D03*
G54D12*
X43300Y-20100D03*
G54D13*
X43300Y-21100D03*
X43300Y-22100D03*
X43300Y-23100D03*
X43300Y-24100D03*
X43300Y-25100D03*
X43300Y-26100D03*
X43300Y-27100D03*
G54D12*
X53300Y-20100D03*
G54D13*
X52300Y-20100D03*
X51300Y-20100D03*
X50300Y-20100D03*
X49300Y-20100D03*
X48300Y-20100D03*
X47300Y-20100D03*
X46300Y-20100D03*
G54D12*
X53300Y-27100D03*
G54D13*
X52300Y-27100D03*
X51300Y-27100D03*
X50300Y-27100D03*
X49300Y-27100D03*
X48300Y-27100D03*
X47300Y-27100D03*
X46300Y-27100D03*
G54D14*
X55625Y-21400D03*
X56175Y-21400D03*
G54D13*
X55550Y-23600D03*
X57550Y-22600D03*
X57550Y-24600D03*
G54D15*
X54100Y-22100D03*
G54D16*
X53100Y-22100D03*
X52100Y-22100D03*
X51100Y-22100D03*
X50100Y-22100D03*
X49100Y-22100D03*
X48100Y-22100D03*
X47100Y-22100D03*
X47100Y-25100D03*
X48100Y-25100D03*
X49100Y-25100D03*
X50100Y-25100D03*
X51100Y-25100D03*
X52100Y-25100D03*
X53100Y-25100D03*
X54100Y-25100D03*
M02*
