G04 (created by PCBNEW (2013-02-09 BZR 3938)-testing) date Sun 10 Feb 2013 01:21:16 PM CET*
%MOIN*%
G04 Gerber Fmt 3.4, Leading zero omitted, Abs format*
%FSLAX34Y34*%
G01*
G70*
G90*
G04 APERTURE LIST*
%ADD10C,2.3622e-06*%
%ADD11C,0.015*%
%ADD12R,0.0649606X0.0649606*%
%ADD13C,0.0649606*%
%ADD14R,0.0511X0.059*%
%ADD15R,0.0629X0.0708*%
%ADD16R,0.062X0.09*%
%ADD17O,0.062X0.09*%
%ADD18C,0.008*%
%ADD19C,0.02*%
%ADD20C,0.08*%
G04 APERTURE END LIST*
G54D10*
G54D11*
X58500Y-29800D02*
X41700Y-29800D01*
X41700Y-17400D02*
X58500Y-17400D01*
X58500Y-29800D02*
X58500Y-17400D01*
X41700Y-17400D02*
X41700Y-29800D01*
G54D12*
X44300Y-20100D03*
G54D13*
X44300Y-21100D03*
X44300Y-22100D03*
X44300Y-23100D03*
X44300Y-24100D03*
X44300Y-25100D03*
X44300Y-26100D03*
X44300Y-27100D03*
G54D12*
X43300Y-20100D03*
G54D13*
X43300Y-21100D03*
X43300Y-22100D03*
X43300Y-23100D03*
X43300Y-24100D03*
X43300Y-25100D03*
X43300Y-26100D03*
X43300Y-27100D03*
G54D12*
X53300Y-20100D03*
G54D13*
X52300Y-20100D03*
X51300Y-20100D03*
X50300Y-20100D03*
X49300Y-20100D03*
X48300Y-20100D03*
X47300Y-20100D03*
X46300Y-20100D03*
G54D12*
X53300Y-27100D03*
G54D13*
X52300Y-27100D03*
X51300Y-27100D03*
X50300Y-27100D03*
X49300Y-27100D03*
X48300Y-27100D03*
X47300Y-27100D03*
X46300Y-27100D03*
G54D14*
X56174Y-25900D03*
X55426Y-25900D03*
G54D15*
X55249Y-27300D03*
X56351Y-27300D03*
G54D14*
X55426Y-28400D03*
X56174Y-28400D03*
G54D13*
X55550Y-23600D03*
X57550Y-22600D03*
X57550Y-24600D03*
G54D16*
X54100Y-22100D03*
G54D17*
X53100Y-22100D03*
X52100Y-22100D03*
X51100Y-22100D03*
X50100Y-22100D03*
X49100Y-22100D03*
X48100Y-22100D03*
X47100Y-22100D03*
X47100Y-25100D03*
X48100Y-25100D03*
X49100Y-25100D03*
X50100Y-25100D03*
X51100Y-25100D03*
X52100Y-25100D03*
X53100Y-25100D03*
X54100Y-25100D03*
G54D18*
X50300Y-20100D02*
X50300Y-20700D01*
X51100Y-21500D02*
X51100Y-22100D01*
X50300Y-20700D02*
X51100Y-21500D01*
X51100Y-22100D02*
X51100Y-22200D01*
X51600Y-25800D02*
X50300Y-27100D01*
X51600Y-22700D02*
X51600Y-25800D01*
X51100Y-22200D02*
X51600Y-22700D01*
X50600Y-22600D02*
X50600Y-24600D01*
X49300Y-20200D02*
X50600Y-21500D01*
X50600Y-21500D02*
X50600Y-22600D01*
X49300Y-20100D02*
X49300Y-20200D01*
X50600Y-24600D02*
X51100Y-25100D01*
X51100Y-25100D02*
X51100Y-25100D01*
X51100Y-25100D02*
X51100Y-25300D01*
X51100Y-25300D02*
X49300Y-27100D01*
G54D19*
X50100Y-22100D02*
X48700Y-20700D01*
X44900Y-20700D02*
X44300Y-20100D01*
X48700Y-20700D02*
X44900Y-20700D01*
X49100Y-22100D02*
X48000Y-21000D01*
X44200Y-21000D02*
X44300Y-21100D01*
X48000Y-21000D02*
X44200Y-21000D01*
X48100Y-22100D02*
X47300Y-21300D01*
X45100Y-21300D02*
X44300Y-22100D01*
X47300Y-21300D02*
X45100Y-21300D01*
X47100Y-22100D02*
X45300Y-22100D01*
X45300Y-22100D02*
X44300Y-23100D01*
X47100Y-25100D02*
X45300Y-25100D01*
X45300Y-25100D02*
X44300Y-24100D01*
X48100Y-25100D02*
X47300Y-25900D01*
X45100Y-25900D02*
X44300Y-25100D01*
X47300Y-25900D02*
X45100Y-25900D01*
X49100Y-25100D02*
X48000Y-26200D01*
X44200Y-26200D02*
X44300Y-26100D01*
X48000Y-26200D02*
X44200Y-26200D01*
X50100Y-25100D02*
X48700Y-26500D01*
X44900Y-26500D02*
X44300Y-27100D01*
X48700Y-26500D02*
X44900Y-26500D01*
G54D18*
X53100Y-22100D02*
X53100Y-21900D01*
X53100Y-21900D02*
X51300Y-20100D01*
X52100Y-22100D02*
X52100Y-21900D01*
X51800Y-19600D02*
X52300Y-20100D01*
X51000Y-19600D02*
X51800Y-19600D01*
X50800Y-19800D02*
X51000Y-19600D01*
X50800Y-20600D02*
X50800Y-19800D01*
X52100Y-21900D02*
X50800Y-20600D01*
X52600Y-26200D02*
X52600Y-22600D01*
X52300Y-26500D02*
X52600Y-26200D01*
X52300Y-27100D02*
X52300Y-26500D01*
X52600Y-22600D02*
X52100Y-22100D01*
X52100Y-25100D02*
X52100Y-26300D01*
X52100Y-26300D02*
X51300Y-27100D01*
G54D20*
X43300Y-21100D02*
X43300Y-20100D01*
X43300Y-22100D02*
X43300Y-21100D01*
X43300Y-23100D02*
X43300Y-22100D01*
X43300Y-24100D02*
X43300Y-23100D01*
X43300Y-25100D02*
X43300Y-24100D01*
X43300Y-26100D02*
X43300Y-25100D01*
X43300Y-27100D02*
X43300Y-26100D01*
X47300Y-27100D02*
X47300Y-28200D01*
X43300Y-28200D02*
X43300Y-27100D01*
X47300Y-28200D02*
X43300Y-28200D01*
X47300Y-20100D02*
X47300Y-19000D01*
X47300Y-19000D02*
X43300Y-19000D01*
X43300Y-19000D02*
X43300Y-20100D01*
G54D19*
X56351Y-27300D02*
X56351Y-27149D01*
X57550Y-25950D02*
X57550Y-24600D01*
X56351Y-27149D02*
X57550Y-25950D01*
X56174Y-28400D02*
X56174Y-27477D01*
X56174Y-27477D02*
X56351Y-27300D01*
G54D18*
X57550Y-22600D02*
X57550Y-22850D01*
X56174Y-24226D02*
X56174Y-25900D01*
X57550Y-22850D02*
X56174Y-24226D01*
X53100Y-25100D02*
X53100Y-25550D01*
X53450Y-25900D02*
X55426Y-25900D01*
X53100Y-25550D02*
X53450Y-25900D01*
G54D19*
X53300Y-20100D02*
X53800Y-20100D01*
X54900Y-24300D02*
X54100Y-25100D01*
X54900Y-21200D02*
X54900Y-24300D01*
X53800Y-20100D02*
X54900Y-21200D01*
X55249Y-27300D02*
X55249Y-28223D01*
X55249Y-28223D02*
X55426Y-28400D01*
X53300Y-27100D02*
X55049Y-27100D01*
X55049Y-27100D02*
X55249Y-27300D01*
G54D10*
G36*
X46760Y-19806D02*
X46698Y-19786D01*
X46384Y-20100D01*
X46390Y-20105D01*
X46305Y-20190D01*
X46300Y-20184D01*
X46294Y-20190D01*
X46215Y-20111D01*
X46209Y-20105D01*
X46215Y-20100D01*
X45901Y-19786D01*
X45808Y-19816D01*
X45762Y-19917D01*
X45737Y-20025D01*
X45733Y-20136D01*
X45751Y-20245D01*
X45790Y-20349D01*
X45808Y-20383D01*
X45901Y-20413D01*
X45856Y-20458D01*
X45857Y-20460D01*
X44999Y-20460D01*
X44764Y-20225D01*
X44764Y-19761D01*
X44759Y-19734D01*
X44749Y-19709D01*
X44733Y-19686D01*
X44714Y-19666D01*
X44691Y-19651D01*
X44666Y-19640D01*
X44639Y-19635D01*
X44612Y-19635D01*
X43961Y-19635D01*
X43934Y-19640D01*
X43909Y-19650D01*
X43886Y-19666D01*
X43866Y-19685D01*
X43851Y-19708D01*
X43840Y-19733D01*
X43840Y-19737D01*
X43840Y-19540D01*
X46224Y-19540D01*
X46154Y-19551D01*
X46050Y-19590D01*
X46016Y-19608D01*
X45986Y-19701D01*
X46300Y-20015D01*
X46613Y-19701D01*
X46583Y-19608D01*
X46482Y-19562D01*
X46385Y-19540D01*
X46760Y-19540D01*
X46760Y-19806D01*
X46760Y-19806D01*
G37*
G54D18*
X46760Y-19806D02*
X46698Y-19786D01*
X46384Y-20100D01*
X46390Y-20105D01*
X46305Y-20190D01*
X46300Y-20184D01*
X46294Y-20190D01*
X46215Y-20111D01*
X46209Y-20105D01*
X46215Y-20100D01*
X45901Y-19786D01*
X45808Y-19816D01*
X45762Y-19917D01*
X45737Y-20025D01*
X45733Y-20136D01*
X45751Y-20245D01*
X45790Y-20349D01*
X45808Y-20383D01*
X45901Y-20413D01*
X45856Y-20458D01*
X45857Y-20460D01*
X44999Y-20460D01*
X44764Y-20225D01*
X44764Y-19761D01*
X44759Y-19734D01*
X44749Y-19709D01*
X44733Y-19686D01*
X44714Y-19666D01*
X44691Y-19651D01*
X44666Y-19640D01*
X44639Y-19635D01*
X44612Y-19635D01*
X43961Y-19635D01*
X43934Y-19640D01*
X43909Y-19650D01*
X43886Y-19666D01*
X43866Y-19685D01*
X43851Y-19708D01*
X43840Y-19733D01*
X43840Y-19737D01*
X43840Y-19540D01*
X46224Y-19540D01*
X46154Y-19551D01*
X46050Y-19590D01*
X46016Y-19608D01*
X45986Y-19701D01*
X46300Y-20015D01*
X46613Y-19701D01*
X46583Y-19608D01*
X46482Y-19562D01*
X46385Y-19540D01*
X46760Y-19540D01*
X46760Y-19806D01*
G54D10*
G36*
X46760Y-27660D02*
X46375Y-27660D01*
X46445Y-27648D01*
X46549Y-27609D01*
X46583Y-27591D01*
X46613Y-27498D01*
X46300Y-27184D01*
X46215Y-27269D01*
X45986Y-27498D01*
X46016Y-27591D01*
X46117Y-27637D01*
X46214Y-27660D01*
X43840Y-27660D01*
X43840Y-27168D01*
X43851Y-27228D01*
X43884Y-27313D01*
X43933Y-27390D01*
X43997Y-27455D01*
X44072Y-27507D01*
X44155Y-27544D01*
X44244Y-27563D01*
X44335Y-27565D01*
X44425Y-27549D01*
X44510Y-27516D01*
X44587Y-27468D01*
X44653Y-27405D01*
X44706Y-27330D01*
X44743Y-27247D01*
X44763Y-27158D01*
X44764Y-27054D01*
X44751Y-26987D01*
X44999Y-26740D01*
X45857Y-26740D01*
X45856Y-26741D01*
X45901Y-26786D01*
X45808Y-26816D01*
X45762Y-26917D01*
X45737Y-27025D01*
X45733Y-27136D01*
X45751Y-27245D01*
X45790Y-27349D01*
X45808Y-27383D01*
X45901Y-27413D01*
X46215Y-27100D01*
X46209Y-27094D01*
X46294Y-27009D01*
X46300Y-27015D01*
X46305Y-27009D01*
X46390Y-27094D01*
X46384Y-27100D01*
X46698Y-27413D01*
X46760Y-27393D01*
X46760Y-27660D01*
X46760Y-27660D01*
G37*
G54D18*
X46760Y-27660D02*
X46375Y-27660D01*
X46445Y-27648D01*
X46549Y-27609D01*
X46583Y-27591D01*
X46613Y-27498D01*
X46300Y-27184D01*
X46215Y-27269D01*
X45986Y-27498D01*
X46016Y-27591D01*
X46117Y-27637D01*
X46214Y-27660D01*
X43840Y-27660D01*
X43840Y-27168D01*
X43851Y-27228D01*
X43884Y-27313D01*
X43933Y-27390D01*
X43997Y-27455D01*
X44072Y-27507D01*
X44155Y-27544D01*
X44244Y-27563D01*
X44335Y-27565D01*
X44425Y-27549D01*
X44510Y-27516D01*
X44587Y-27468D01*
X44653Y-27405D01*
X44706Y-27330D01*
X44743Y-27247D01*
X44763Y-27158D01*
X44764Y-27054D01*
X44751Y-26987D01*
X44999Y-26740D01*
X45857Y-26740D01*
X45856Y-26741D01*
X45901Y-26786D01*
X45808Y-26816D01*
X45762Y-26917D01*
X45737Y-27025D01*
X45733Y-27136D01*
X45751Y-27245D01*
X45790Y-27349D01*
X45808Y-27383D01*
X45901Y-27413D01*
X46215Y-27100D01*
X46209Y-27094D01*
X46294Y-27009D01*
X46300Y-27015D01*
X46305Y-27009D01*
X46390Y-27094D01*
X46384Y-27100D01*
X46698Y-27413D01*
X46760Y-27393D01*
X46760Y-27660D01*
G54D10*
G36*
X58260Y-29560D02*
X58014Y-29560D01*
X58014Y-24554D01*
X58014Y-22554D01*
X57997Y-22465D01*
X57962Y-22380D01*
X57911Y-22304D01*
X57847Y-22240D01*
X57772Y-22189D01*
X57688Y-22153D01*
X57598Y-22135D01*
X57507Y-22134D01*
X57418Y-22151D01*
X57333Y-22186D01*
X57257Y-22236D01*
X57192Y-22299D01*
X57140Y-22374D01*
X57104Y-22458D01*
X57085Y-22547D01*
X57084Y-22639D01*
X57101Y-22728D01*
X57134Y-22813D01*
X57183Y-22890D01*
X57219Y-22926D01*
X56046Y-24098D01*
X56036Y-24111D01*
X56025Y-24124D01*
X56025Y-24125D01*
X56024Y-24125D01*
X56016Y-24140D01*
X56014Y-24143D01*
X56014Y-23554D01*
X55997Y-23465D01*
X55962Y-23380D01*
X55911Y-23304D01*
X55847Y-23240D01*
X55772Y-23189D01*
X55688Y-23153D01*
X55598Y-23135D01*
X55507Y-23134D01*
X55418Y-23151D01*
X55333Y-23186D01*
X55257Y-23236D01*
X55192Y-23299D01*
X55140Y-23374D01*
X55140Y-23376D01*
X55140Y-21200D01*
X55137Y-21177D01*
X55135Y-21155D01*
X55135Y-21154D01*
X55135Y-21153D01*
X55129Y-21132D01*
X55122Y-21110D01*
X55122Y-21109D01*
X55121Y-21108D01*
X55111Y-21088D01*
X55101Y-21069D01*
X55100Y-21068D01*
X55099Y-21067D01*
X55085Y-21050D01*
X55072Y-21032D01*
X55070Y-21030D01*
X55070Y-21030D01*
X55070Y-21030D01*
X55069Y-21030D01*
X53969Y-19930D01*
X53952Y-19916D01*
X53935Y-19901D01*
X53934Y-19901D01*
X53933Y-19900D01*
X53913Y-19890D01*
X53894Y-19879D01*
X53893Y-19879D01*
X53892Y-19878D01*
X53871Y-19871D01*
X53849Y-19865D01*
X53848Y-19865D01*
X53847Y-19864D01*
X53825Y-19862D01*
X53803Y-19860D01*
X53800Y-19860D01*
X53800Y-19860D01*
X53800Y-19860D01*
X53800Y-19860D01*
X53764Y-19860D01*
X53764Y-19761D01*
X53759Y-19734D01*
X53749Y-19709D01*
X53733Y-19686D01*
X53714Y-19666D01*
X53691Y-19651D01*
X53666Y-19640D01*
X53639Y-19635D01*
X53612Y-19635D01*
X52961Y-19635D01*
X52934Y-19640D01*
X52909Y-19650D01*
X52886Y-19666D01*
X52866Y-19685D01*
X52851Y-19708D01*
X52840Y-19733D01*
X52835Y-19760D01*
X52835Y-19787D01*
X52835Y-20438D01*
X52840Y-20465D01*
X52850Y-20490D01*
X52866Y-20513D01*
X52885Y-20533D01*
X52908Y-20548D01*
X52933Y-20559D01*
X52960Y-20564D01*
X52987Y-20564D01*
X53638Y-20564D01*
X53665Y-20559D01*
X53690Y-20549D01*
X53713Y-20533D01*
X53733Y-20514D01*
X53748Y-20491D01*
X53759Y-20466D01*
X53764Y-20439D01*
X53764Y-20412D01*
X53764Y-20404D01*
X54660Y-21299D01*
X54660Y-24200D01*
X54650Y-24210D01*
X54650Y-22528D01*
X54650Y-21671D01*
X54649Y-21624D01*
X54640Y-21578D01*
X54622Y-21535D01*
X54595Y-21496D01*
X54562Y-21463D01*
X54523Y-21437D01*
X54479Y-21419D01*
X54433Y-21409D01*
X54220Y-21410D01*
X54160Y-21470D01*
X54160Y-22040D01*
X54590Y-22040D01*
X54650Y-21980D01*
X54650Y-21671D01*
X54650Y-22528D01*
X54650Y-22220D01*
X54590Y-22160D01*
X54160Y-22160D01*
X54160Y-22730D01*
X54220Y-22790D01*
X54433Y-22790D01*
X54479Y-22780D01*
X54523Y-22762D01*
X54562Y-22736D01*
X54595Y-22703D01*
X54622Y-22664D01*
X54640Y-22621D01*
X54649Y-22575D01*
X54650Y-22528D01*
X54650Y-24210D01*
X54302Y-24557D01*
X54274Y-24542D01*
X54190Y-24516D01*
X54103Y-24507D01*
X54015Y-24515D01*
X53931Y-24539D01*
X53853Y-24580D01*
X53785Y-24635D01*
X53728Y-24702D01*
X53686Y-24779D01*
X53659Y-24863D01*
X53650Y-24950D01*
X53650Y-24957D01*
X53650Y-25242D01*
X53658Y-25330D01*
X53683Y-25414D01*
X53725Y-25491D01*
X53780Y-25559D01*
X53848Y-25615D01*
X53925Y-25657D01*
X54009Y-25683D01*
X54096Y-25692D01*
X54184Y-25684D01*
X54268Y-25660D01*
X54346Y-25619D01*
X54414Y-25564D01*
X54471Y-25497D01*
X54513Y-25420D01*
X54540Y-25336D01*
X54549Y-25249D01*
X54550Y-25242D01*
X54550Y-24989D01*
X55069Y-24469D01*
X55083Y-24452D01*
X55098Y-24435D01*
X55098Y-24434D01*
X55099Y-24433D01*
X55109Y-24413D01*
X55120Y-24394D01*
X55120Y-24393D01*
X55121Y-24392D01*
X55128Y-24371D01*
X55134Y-24349D01*
X55134Y-24348D01*
X55135Y-24347D01*
X55137Y-24325D01*
X55139Y-24303D01*
X55139Y-24300D01*
X55139Y-24300D01*
X55139Y-24300D01*
X55140Y-24300D01*
X55140Y-23821D01*
X55183Y-23890D01*
X55247Y-23955D01*
X55322Y-24007D01*
X55405Y-24044D01*
X55494Y-24063D01*
X55585Y-24065D01*
X55675Y-24049D01*
X55760Y-24016D01*
X55837Y-23968D01*
X55903Y-23905D01*
X55956Y-23830D01*
X55993Y-23747D01*
X56013Y-23658D01*
X56014Y-23554D01*
X56014Y-24143D01*
X56008Y-24155D01*
X56008Y-24155D01*
X56007Y-24156D01*
X56002Y-24172D01*
X55997Y-24188D01*
X55997Y-24189D01*
X55997Y-24190D01*
X55995Y-24207D01*
X55994Y-24223D01*
X55994Y-24225D01*
X55994Y-24225D01*
X55994Y-24225D01*
X55994Y-24226D01*
X55994Y-25464D01*
X55904Y-25464D01*
X55877Y-25470D01*
X55852Y-25480D01*
X55829Y-25495D01*
X55810Y-25515D01*
X55799Y-25530D01*
X55790Y-25516D01*
X55771Y-25496D01*
X55748Y-25481D01*
X55723Y-25470D01*
X55696Y-25465D01*
X55668Y-25464D01*
X55156Y-25464D01*
X55129Y-25470D01*
X55104Y-25480D01*
X55081Y-25495D01*
X55062Y-25515D01*
X55046Y-25538D01*
X55036Y-25563D01*
X55030Y-25590D01*
X55030Y-25617D01*
X55030Y-25720D01*
X53524Y-25720D01*
X53389Y-25584D01*
X53414Y-25564D01*
X53471Y-25497D01*
X53513Y-25420D01*
X53540Y-25336D01*
X53549Y-25249D01*
X53550Y-25242D01*
X53550Y-24957D01*
X53541Y-24869D01*
X53516Y-24785D01*
X53474Y-24708D01*
X53419Y-24640D01*
X53351Y-24584D01*
X53274Y-24542D01*
X53190Y-24516D01*
X53103Y-24507D01*
X53015Y-24515D01*
X52931Y-24539D01*
X52853Y-24580D01*
X52785Y-24635D01*
X52780Y-24641D01*
X52780Y-22600D01*
X52778Y-22583D01*
X52776Y-22566D01*
X52776Y-22565D01*
X52776Y-22565D01*
X52771Y-22549D01*
X52771Y-22548D01*
X52780Y-22559D01*
X52848Y-22615D01*
X52925Y-22657D01*
X53009Y-22683D01*
X53096Y-22692D01*
X53184Y-22684D01*
X53268Y-22660D01*
X53346Y-22619D01*
X53414Y-22564D01*
X53471Y-22497D01*
X53513Y-22420D01*
X53540Y-22336D01*
X53549Y-22249D01*
X53549Y-22244D01*
X53549Y-22528D01*
X53550Y-22575D01*
X53559Y-22621D01*
X53577Y-22664D01*
X53604Y-22703D01*
X53637Y-22736D01*
X53676Y-22762D01*
X53720Y-22780D01*
X53766Y-22790D01*
X53980Y-22790D01*
X54040Y-22730D01*
X54040Y-22160D01*
X53610Y-22160D01*
X53550Y-22220D01*
X53550Y-21980D01*
X53610Y-22040D01*
X54040Y-22040D01*
X54040Y-21470D01*
X53980Y-21410D01*
X53766Y-21409D01*
X53720Y-21419D01*
X53676Y-21437D01*
X53637Y-21463D01*
X53604Y-21496D01*
X53577Y-21535D01*
X53559Y-21578D01*
X53550Y-21624D01*
X53549Y-21671D01*
X53549Y-21957D01*
X53541Y-21869D01*
X53516Y-21785D01*
X53474Y-21708D01*
X53419Y-21640D01*
X53351Y-21584D01*
X53274Y-21542D01*
X53190Y-21516D01*
X53103Y-21507D01*
X53015Y-21515D01*
X52980Y-21525D01*
X51730Y-20275D01*
X51743Y-20247D01*
X51763Y-20158D01*
X51764Y-20054D01*
X51747Y-19965D01*
X51712Y-19880D01*
X51661Y-19804D01*
X51637Y-19780D01*
X51725Y-19780D01*
X51869Y-19924D01*
X51854Y-19958D01*
X51835Y-20047D01*
X51834Y-20139D01*
X51851Y-20228D01*
X51884Y-20313D01*
X51933Y-20390D01*
X51997Y-20455D01*
X52072Y-20507D01*
X52155Y-20544D01*
X52244Y-20563D01*
X52335Y-20565D01*
X52425Y-20549D01*
X52510Y-20516D01*
X52587Y-20468D01*
X52653Y-20405D01*
X52706Y-20330D01*
X52743Y-20247D01*
X52763Y-20158D01*
X52764Y-20054D01*
X52747Y-19965D01*
X52712Y-19880D01*
X52661Y-19804D01*
X52597Y-19740D01*
X52522Y-19689D01*
X52438Y-19653D01*
X52348Y-19635D01*
X52257Y-19634D01*
X52168Y-19651D01*
X52124Y-19669D01*
X51927Y-19472D01*
X51914Y-19462D01*
X51901Y-19451D01*
X51900Y-19451D01*
X51900Y-19450D01*
X51885Y-19442D01*
X51870Y-19434D01*
X51870Y-19434D01*
X51869Y-19433D01*
X51853Y-19428D01*
X51837Y-19423D01*
X51836Y-19423D01*
X51835Y-19423D01*
X51818Y-19421D01*
X51802Y-19420D01*
X51800Y-19420D01*
X51800Y-19420D01*
X51800Y-19420D01*
X51800Y-19420D01*
X51000Y-19420D01*
X50983Y-19421D01*
X50966Y-19423D01*
X50965Y-19423D01*
X50965Y-19423D01*
X50949Y-19428D01*
X50933Y-19432D01*
X50932Y-19433D01*
X50931Y-19433D01*
X50916Y-19441D01*
X50901Y-19449D01*
X50901Y-19449D01*
X50900Y-19450D01*
X50887Y-19460D01*
X50874Y-19470D01*
X50873Y-19472D01*
X50873Y-19472D01*
X50873Y-19472D01*
X50872Y-19472D01*
X50672Y-19672D01*
X50662Y-19685D01*
X50651Y-19698D01*
X50651Y-19699D01*
X50650Y-19699D01*
X50642Y-19714D01*
X50634Y-19729D01*
X50634Y-19729D01*
X50633Y-19730D01*
X50628Y-19746D01*
X50623Y-19762D01*
X50623Y-19763D01*
X50623Y-19764D01*
X50623Y-19765D01*
X50597Y-19740D01*
X50522Y-19689D01*
X50438Y-19653D01*
X50348Y-19635D01*
X50257Y-19634D01*
X50168Y-19651D01*
X50083Y-19686D01*
X50007Y-19736D01*
X49942Y-19799D01*
X49890Y-19874D01*
X49854Y-19958D01*
X49835Y-20047D01*
X49834Y-20139D01*
X49851Y-20228D01*
X49884Y-20313D01*
X49933Y-20390D01*
X49997Y-20455D01*
X50072Y-20507D01*
X50120Y-20528D01*
X50120Y-20700D01*
X50121Y-20716D01*
X50123Y-20733D01*
X50123Y-20734D01*
X50123Y-20734D01*
X50128Y-20750D01*
X50132Y-20766D01*
X50133Y-20767D01*
X50133Y-20768D01*
X50141Y-20783D01*
X50145Y-20790D01*
X49697Y-20342D01*
X49706Y-20330D01*
X49743Y-20247D01*
X49763Y-20158D01*
X49764Y-20054D01*
X49747Y-19965D01*
X49712Y-19880D01*
X49661Y-19804D01*
X49597Y-19740D01*
X49522Y-19689D01*
X49438Y-19653D01*
X49348Y-19635D01*
X49257Y-19634D01*
X49168Y-19651D01*
X49083Y-19686D01*
X49007Y-19736D01*
X48942Y-19799D01*
X48890Y-19874D01*
X48854Y-19958D01*
X48835Y-20047D01*
X48834Y-20139D01*
X48851Y-20228D01*
X48884Y-20313D01*
X48933Y-20390D01*
X48997Y-20455D01*
X49072Y-20507D01*
X49155Y-20544D01*
X49244Y-20563D01*
X49335Y-20565D01*
X49399Y-20554D01*
X50420Y-21574D01*
X50420Y-21640D01*
X50419Y-21640D01*
X50351Y-21584D01*
X50274Y-21542D01*
X50190Y-21516D01*
X50103Y-21507D01*
X50015Y-21515D01*
X49931Y-21539D01*
X49897Y-21557D01*
X48869Y-20530D01*
X48852Y-20516D01*
X48835Y-20501D01*
X48834Y-20501D01*
X48833Y-20500D01*
X48813Y-20490D01*
X48794Y-20479D01*
X48793Y-20479D01*
X48792Y-20478D01*
X48771Y-20471D01*
X48749Y-20465D01*
X48748Y-20465D01*
X48747Y-20464D01*
X48725Y-20462D01*
X48703Y-20460D01*
X48700Y-20460D01*
X48700Y-20460D01*
X48700Y-20460D01*
X48700Y-20460D01*
X48595Y-20460D01*
X48653Y-20405D01*
X48706Y-20330D01*
X48743Y-20247D01*
X48763Y-20158D01*
X48764Y-20054D01*
X48747Y-19965D01*
X48712Y-19880D01*
X48661Y-19804D01*
X48597Y-19740D01*
X48522Y-19689D01*
X48438Y-19653D01*
X48348Y-19635D01*
X48257Y-19634D01*
X48168Y-19651D01*
X48083Y-19686D01*
X48007Y-19736D01*
X47942Y-19799D01*
X47890Y-19874D01*
X47854Y-19958D01*
X47840Y-20028D01*
X47840Y-19000D01*
X47835Y-18949D01*
X47830Y-18898D01*
X47829Y-18896D01*
X47829Y-18895D01*
X47815Y-18846D01*
X47800Y-18797D01*
X47799Y-18796D01*
X47799Y-18794D01*
X47775Y-18749D01*
X47751Y-18704D01*
X47750Y-18702D01*
X47749Y-18701D01*
X47717Y-18661D01*
X47685Y-18622D01*
X47684Y-18620D01*
X47683Y-18619D01*
X47644Y-18587D01*
X47605Y-18554D01*
X47603Y-18553D01*
X47601Y-18552D01*
X47557Y-18528D01*
X47512Y-18503D01*
X47510Y-18503D01*
X47509Y-18502D01*
X47460Y-18487D01*
X47412Y-18471D01*
X47410Y-18471D01*
X47408Y-18471D01*
X47358Y-18465D01*
X47307Y-18460D01*
X47303Y-18460D01*
X47303Y-18460D01*
X47303Y-18460D01*
X47300Y-18460D01*
X43300Y-18460D01*
X43249Y-18464D01*
X43198Y-18469D01*
X43196Y-18470D01*
X43195Y-18470D01*
X43146Y-18484D01*
X43097Y-18499D01*
X43096Y-18500D01*
X43094Y-18500D01*
X43049Y-18524D01*
X43004Y-18548D01*
X43002Y-18549D01*
X43001Y-18550D01*
X42961Y-18582D01*
X42922Y-18614D01*
X42920Y-18615D01*
X42919Y-18616D01*
X42887Y-18655D01*
X42854Y-18694D01*
X42853Y-18696D01*
X42852Y-18698D01*
X42828Y-18742D01*
X42803Y-18787D01*
X42803Y-18789D01*
X42802Y-18790D01*
X42787Y-18839D01*
X42771Y-18887D01*
X42771Y-18889D01*
X42771Y-18891D01*
X42765Y-18941D01*
X42760Y-18992D01*
X42760Y-18996D01*
X42760Y-18996D01*
X42760Y-18996D01*
X42760Y-19000D01*
X42760Y-20100D01*
X42760Y-21100D01*
X42760Y-22100D01*
X42760Y-23100D01*
X42760Y-24100D01*
X42760Y-25100D01*
X42760Y-26100D01*
X42760Y-27100D01*
X42760Y-28200D01*
X42764Y-28250D01*
X42769Y-28301D01*
X42770Y-28303D01*
X42770Y-28304D01*
X42784Y-28353D01*
X42799Y-28402D01*
X42800Y-28403D01*
X42800Y-28405D01*
X42824Y-28450D01*
X42848Y-28495D01*
X42849Y-28497D01*
X42850Y-28498D01*
X42882Y-28538D01*
X42914Y-28577D01*
X42915Y-28579D01*
X42916Y-28580D01*
X42955Y-28612D01*
X42994Y-28645D01*
X42996Y-28646D01*
X42998Y-28647D01*
X43042Y-28671D01*
X43087Y-28696D01*
X43089Y-28696D01*
X43090Y-28697D01*
X43139Y-28712D01*
X43187Y-28728D01*
X43189Y-28728D01*
X43191Y-28728D01*
X43241Y-28734D01*
X43292Y-28739D01*
X43296Y-28739D01*
X43296Y-28739D01*
X43296Y-28739D01*
X43300Y-28740D01*
X47300Y-28740D01*
X47350Y-28735D01*
X47401Y-28730D01*
X47403Y-28729D01*
X47404Y-28729D01*
X47453Y-28715D01*
X47502Y-28700D01*
X47503Y-28699D01*
X47505Y-28699D01*
X47550Y-28675D01*
X47595Y-28651D01*
X47597Y-28650D01*
X47598Y-28649D01*
X47638Y-28617D01*
X47677Y-28585D01*
X47679Y-28584D01*
X47680Y-28583D01*
X47712Y-28544D01*
X47745Y-28505D01*
X47746Y-28503D01*
X47747Y-28501D01*
X47771Y-28457D01*
X47796Y-28412D01*
X47796Y-28410D01*
X47797Y-28409D01*
X47812Y-28360D01*
X47828Y-28312D01*
X47828Y-28310D01*
X47828Y-28308D01*
X47834Y-28258D01*
X47839Y-28207D01*
X47839Y-28203D01*
X47839Y-28203D01*
X47839Y-28203D01*
X47840Y-28200D01*
X47840Y-27168D01*
X47851Y-27228D01*
X47884Y-27313D01*
X47933Y-27390D01*
X47997Y-27455D01*
X48072Y-27507D01*
X48155Y-27544D01*
X48244Y-27563D01*
X48335Y-27565D01*
X48425Y-27549D01*
X48510Y-27516D01*
X48587Y-27468D01*
X48653Y-27405D01*
X48706Y-27330D01*
X48743Y-27247D01*
X48763Y-27158D01*
X48764Y-27054D01*
X48747Y-26965D01*
X48712Y-26880D01*
X48661Y-26804D01*
X48597Y-26740D01*
X48597Y-26740D01*
X48700Y-26740D01*
X48722Y-26737D01*
X48744Y-26735D01*
X48745Y-26735D01*
X48746Y-26735D01*
X48767Y-26729D01*
X48789Y-26722D01*
X48790Y-26722D01*
X48791Y-26721D01*
X48811Y-26711D01*
X48830Y-26701D01*
X48831Y-26700D01*
X48832Y-26699D01*
X48849Y-26685D01*
X48867Y-26672D01*
X48869Y-26670D01*
X48869Y-26670D01*
X48869Y-26670D01*
X48869Y-26669D01*
X49897Y-25642D01*
X49925Y-25657D01*
X50009Y-25683D01*
X50096Y-25692D01*
X50184Y-25684D01*
X50268Y-25660D01*
X50346Y-25619D01*
X50414Y-25564D01*
X50471Y-25497D01*
X50513Y-25420D01*
X50540Y-25336D01*
X50549Y-25249D01*
X50550Y-25242D01*
X50550Y-24957D01*
X50541Y-24869D01*
X50516Y-24785D01*
X50498Y-24753D01*
X50654Y-24909D01*
X50650Y-24950D01*
X50650Y-24957D01*
X50650Y-25242D01*
X50658Y-25330D01*
X50683Y-25414D01*
X50700Y-25445D01*
X49475Y-26669D01*
X49438Y-26653D01*
X49348Y-26635D01*
X49257Y-26634D01*
X49168Y-26651D01*
X49083Y-26686D01*
X49007Y-26736D01*
X48942Y-26799D01*
X48890Y-26874D01*
X48854Y-26958D01*
X48835Y-27047D01*
X48834Y-27139D01*
X48851Y-27228D01*
X48884Y-27313D01*
X48933Y-27390D01*
X48997Y-27455D01*
X49072Y-27507D01*
X49155Y-27544D01*
X49244Y-27563D01*
X49335Y-27565D01*
X49425Y-27549D01*
X49510Y-27516D01*
X49587Y-27468D01*
X49653Y-27405D01*
X49706Y-27330D01*
X49743Y-27247D01*
X49763Y-27158D01*
X49764Y-27054D01*
X49747Y-26965D01*
X49730Y-26924D01*
X50980Y-25674D01*
X51009Y-25683D01*
X51096Y-25692D01*
X51184Y-25684D01*
X51268Y-25660D01*
X51346Y-25619D01*
X51414Y-25564D01*
X51420Y-25558D01*
X51420Y-25725D01*
X50475Y-26669D01*
X50438Y-26653D01*
X50348Y-26635D01*
X50257Y-26634D01*
X50168Y-26651D01*
X50083Y-26686D01*
X50007Y-26736D01*
X49942Y-26799D01*
X49890Y-26874D01*
X49854Y-26958D01*
X49835Y-27047D01*
X49834Y-27139D01*
X49851Y-27228D01*
X49884Y-27313D01*
X49933Y-27390D01*
X49997Y-27455D01*
X50072Y-27507D01*
X50155Y-27544D01*
X50244Y-27563D01*
X50335Y-27565D01*
X50425Y-27549D01*
X50510Y-27516D01*
X50587Y-27468D01*
X50653Y-27405D01*
X50706Y-27330D01*
X50743Y-27247D01*
X50763Y-27158D01*
X50764Y-27054D01*
X50747Y-26965D01*
X50730Y-26924D01*
X51727Y-25927D01*
X51737Y-25914D01*
X51748Y-25901D01*
X51748Y-25900D01*
X51749Y-25900D01*
X51757Y-25885D01*
X51765Y-25870D01*
X51765Y-25870D01*
X51766Y-25869D01*
X51771Y-25853D01*
X51776Y-25837D01*
X51776Y-25836D01*
X51776Y-25835D01*
X51778Y-25819D01*
X51779Y-25802D01*
X51779Y-25800D01*
X51779Y-25800D01*
X51779Y-25800D01*
X51780Y-25800D01*
X51780Y-25559D01*
X51780Y-25559D01*
X51848Y-25615D01*
X51920Y-25654D01*
X51920Y-26225D01*
X51475Y-26669D01*
X51438Y-26653D01*
X51348Y-26635D01*
X51257Y-26634D01*
X51168Y-26651D01*
X51083Y-26686D01*
X51007Y-26736D01*
X50942Y-26799D01*
X50890Y-26874D01*
X50854Y-26958D01*
X50835Y-27047D01*
X50834Y-27139D01*
X50851Y-27228D01*
X50884Y-27313D01*
X50933Y-27390D01*
X50997Y-27455D01*
X51072Y-27507D01*
X51155Y-27544D01*
X51244Y-27563D01*
X51335Y-27565D01*
X51425Y-27549D01*
X51510Y-27516D01*
X51587Y-27468D01*
X51653Y-27405D01*
X51706Y-27330D01*
X51743Y-27247D01*
X51763Y-27158D01*
X51764Y-27054D01*
X51747Y-26965D01*
X51730Y-26924D01*
X52120Y-26534D01*
X52120Y-26671D01*
X52083Y-26686D01*
X52007Y-26736D01*
X51942Y-26799D01*
X51890Y-26874D01*
X51854Y-26958D01*
X51835Y-27047D01*
X51834Y-27139D01*
X51851Y-27228D01*
X51884Y-27313D01*
X51933Y-27390D01*
X51997Y-27455D01*
X52072Y-27507D01*
X52155Y-27544D01*
X52244Y-27563D01*
X52335Y-27565D01*
X52425Y-27549D01*
X52510Y-27516D01*
X52587Y-27468D01*
X52653Y-27405D01*
X52706Y-27330D01*
X52743Y-27247D01*
X52763Y-27158D01*
X52764Y-27054D01*
X52747Y-26965D01*
X52712Y-26880D01*
X52661Y-26804D01*
X52597Y-26740D01*
X52522Y-26689D01*
X52480Y-26671D01*
X52480Y-26574D01*
X52727Y-26327D01*
X52737Y-26314D01*
X52748Y-26301D01*
X52748Y-26300D01*
X52749Y-26300D01*
X52757Y-26285D01*
X52765Y-26270D01*
X52765Y-26270D01*
X52766Y-26269D01*
X52771Y-26253D01*
X52776Y-26237D01*
X52776Y-26236D01*
X52776Y-26235D01*
X52778Y-26219D01*
X52779Y-26202D01*
X52779Y-26200D01*
X52779Y-26200D01*
X52779Y-26200D01*
X52780Y-26200D01*
X52780Y-25559D01*
X52780Y-25559D01*
X52848Y-25615D01*
X52925Y-25657D01*
X52966Y-25670D01*
X52970Y-25675D01*
X52972Y-25676D01*
X52972Y-25676D01*
X52972Y-25676D01*
X52972Y-25677D01*
X53322Y-26027D01*
X53335Y-26037D01*
X53348Y-26048D01*
X53349Y-26048D01*
X53349Y-26049D01*
X53364Y-26057D01*
X53379Y-26065D01*
X53379Y-26065D01*
X53380Y-26066D01*
X53396Y-26071D01*
X53412Y-26076D01*
X53413Y-26076D01*
X53414Y-26076D01*
X53430Y-26078D01*
X53447Y-26079D01*
X53449Y-26079D01*
X53449Y-26079D01*
X53449Y-26079D01*
X53450Y-26080D01*
X55030Y-26080D01*
X55030Y-26208D01*
X55035Y-26235D01*
X55046Y-26261D01*
X55061Y-26283D01*
X55080Y-26303D01*
X55103Y-26318D01*
X55128Y-26329D01*
X55155Y-26334D01*
X55183Y-26335D01*
X55695Y-26335D01*
X55722Y-26329D01*
X55747Y-26319D01*
X55770Y-26304D01*
X55789Y-26284D01*
X55800Y-26269D01*
X55809Y-26283D01*
X55828Y-26303D01*
X55851Y-26318D01*
X55876Y-26329D01*
X55903Y-26334D01*
X55931Y-26335D01*
X56443Y-26335D01*
X56470Y-26329D01*
X56495Y-26319D01*
X56518Y-26304D01*
X56537Y-26284D01*
X56553Y-26261D01*
X56563Y-26236D01*
X56569Y-26209D01*
X56569Y-26182D01*
X56569Y-25591D01*
X56564Y-25564D01*
X56553Y-25538D01*
X56538Y-25516D01*
X56519Y-25496D01*
X56496Y-25481D01*
X56471Y-25470D01*
X56444Y-25465D01*
X56416Y-25464D01*
X56354Y-25464D01*
X56354Y-24300D01*
X57589Y-23065D01*
X57675Y-23049D01*
X57760Y-23016D01*
X57837Y-22968D01*
X57903Y-22905D01*
X57956Y-22830D01*
X57993Y-22747D01*
X58013Y-22658D01*
X58014Y-22554D01*
X58014Y-24554D01*
X57997Y-24465D01*
X57962Y-24380D01*
X57911Y-24304D01*
X57847Y-24240D01*
X57772Y-24189D01*
X57688Y-24153D01*
X57598Y-24135D01*
X57507Y-24134D01*
X57418Y-24151D01*
X57333Y-24186D01*
X57257Y-24236D01*
X57192Y-24299D01*
X57140Y-24374D01*
X57104Y-24458D01*
X57085Y-24547D01*
X57084Y-24639D01*
X57101Y-24728D01*
X57134Y-24813D01*
X57183Y-24890D01*
X57247Y-24955D01*
X57310Y-24999D01*
X57310Y-25850D01*
X56354Y-26805D01*
X56022Y-26805D01*
X55995Y-26811D01*
X55970Y-26821D01*
X55947Y-26836D01*
X55928Y-26856D01*
X55912Y-26879D01*
X55902Y-26904D01*
X55896Y-26931D01*
X55896Y-26958D01*
X55896Y-27667D01*
X55901Y-27694D01*
X55912Y-27720D01*
X55927Y-27742D01*
X55934Y-27749D01*
X55934Y-27964D01*
X55904Y-27964D01*
X55877Y-27970D01*
X55852Y-27980D01*
X55829Y-27995D01*
X55810Y-28015D01*
X55799Y-28030D01*
X55790Y-28016D01*
X55771Y-27996D01*
X55748Y-27981D01*
X55723Y-27970D01*
X55696Y-27965D01*
X55668Y-27964D01*
X55489Y-27964D01*
X55489Y-27794D01*
X55577Y-27794D01*
X55604Y-27788D01*
X55629Y-27778D01*
X55652Y-27763D01*
X55671Y-27743D01*
X55687Y-27720D01*
X55697Y-27695D01*
X55703Y-27668D01*
X55703Y-27641D01*
X55703Y-26932D01*
X55698Y-26905D01*
X55687Y-26879D01*
X55672Y-26857D01*
X55653Y-26837D01*
X55630Y-26822D01*
X55605Y-26811D01*
X55578Y-26806D01*
X55550Y-26805D01*
X54920Y-26805D01*
X54893Y-26811D01*
X54868Y-26821D01*
X54845Y-26836D01*
X54826Y-26856D01*
X54823Y-26860D01*
X53764Y-26860D01*
X53764Y-26761D01*
X53759Y-26734D01*
X53749Y-26709D01*
X53733Y-26686D01*
X53714Y-26666D01*
X53691Y-26651D01*
X53666Y-26640D01*
X53639Y-26635D01*
X53612Y-26635D01*
X52961Y-26635D01*
X52934Y-26640D01*
X52909Y-26650D01*
X52886Y-26666D01*
X52866Y-26685D01*
X52851Y-26708D01*
X52840Y-26733D01*
X52835Y-26760D01*
X52835Y-26787D01*
X52835Y-27438D01*
X52840Y-27465D01*
X52850Y-27490D01*
X52866Y-27513D01*
X52885Y-27533D01*
X52908Y-27548D01*
X52933Y-27559D01*
X52960Y-27564D01*
X52987Y-27564D01*
X53638Y-27564D01*
X53665Y-27559D01*
X53690Y-27549D01*
X53713Y-27533D01*
X53733Y-27514D01*
X53748Y-27491D01*
X53759Y-27466D01*
X53764Y-27439D01*
X53764Y-27412D01*
X53764Y-27340D01*
X54794Y-27340D01*
X54794Y-27667D01*
X54799Y-27694D01*
X54810Y-27720D01*
X54825Y-27742D01*
X54844Y-27762D01*
X54867Y-27777D01*
X54892Y-27788D01*
X54919Y-27793D01*
X54947Y-27794D01*
X55009Y-27794D01*
X55009Y-28223D01*
X55011Y-28245D01*
X55013Y-28267D01*
X55013Y-28268D01*
X55013Y-28269D01*
X55019Y-28290D01*
X55026Y-28312D01*
X55026Y-28313D01*
X55027Y-28314D01*
X55030Y-28320D01*
X55030Y-28708D01*
X55035Y-28735D01*
X55046Y-28761D01*
X55061Y-28783D01*
X55080Y-28803D01*
X55103Y-28818D01*
X55128Y-28829D01*
X55155Y-28834D01*
X55183Y-28835D01*
X55695Y-28835D01*
X55722Y-28829D01*
X55747Y-28819D01*
X55770Y-28804D01*
X55789Y-28784D01*
X55800Y-28769D01*
X55809Y-28783D01*
X55828Y-28803D01*
X55851Y-28818D01*
X55876Y-28829D01*
X55903Y-28834D01*
X55931Y-28835D01*
X56443Y-28835D01*
X56470Y-28829D01*
X56495Y-28819D01*
X56518Y-28804D01*
X56537Y-28784D01*
X56553Y-28761D01*
X56563Y-28736D01*
X56569Y-28709D01*
X56569Y-28682D01*
X56569Y-28091D01*
X56564Y-28064D01*
X56553Y-28038D01*
X56538Y-28016D01*
X56519Y-27996D01*
X56496Y-27981D01*
X56471Y-27970D01*
X56444Y-27965D01*
X56416Y-27964D01*
X56414Y-27964D01*
X56414Y-27794D01*
X56679Y-27794D01*
X56706Y-27788D01*
X56731Y-27778D01*
X56754Y-27763D01*
X56773Y-27743D01*
X56789Y-27720D01*
X56799Y-27695D01*
X56805Y-27668D01*
X56805Y-27641D01*
X56805Y-27033D01*
X57719Y-26119D01*
X57733Y-26102D01*
X57748Y-26085D01*
X57748Y-26084D01*
X57749Y-26083D01*
X57759Y-26063D01*
X57770Y-26044D01*
X57770Y-26043D01*
X57771Y-26042D01*
X57778Y-26021D01*
X57784Y-25999D01*
X57784Y-25998D01*
X57785Y-25997D01*
X57787Y-25975D01*
X57789Y-25953D01*
X57789Y-25950D01*
X57789Y-25950D01*
X57789Y-25950D01*
X57790Y-25950D01*
X57790Y-24998D01*
X57837Y-24968D01*
X57903Y-24905D01*
X57956Y-24830D01*
X57993Y-24747D01*
X58013Y-24658D01*
X58014Y-24554D01*
X58014Y-29560D01*
X41940Y-29560D01*
X41940Y-17640D01*
X58260Y-17640D01*
X58260Y-29560D01*
X58260Y-29560D01*
G37*
G54D18*
X58260Y-29560D02*
X58014Y-29560D01*
X58014Y-24554D01*
X58014Y-22554D01*
X57997Y-22465D01*
X57962Y-22380D01*
X57911Y-22304D01*
X57847Y-22240D01*
X57772Y-22189D01*
X57688Y-22153D01*
X57598Y-22135D01*
X57507Y-22134D01*
X57418Y-22151D01*
X57333Y-22186D01*
X57257Y-22236D01*
X57192Y-22299D01*
X57140Y-22374D01*
X57104Y-22458D01*
X57085Y-22547D01*
X57084Y-22639D01*
X57101Y-22728D01*
X57134Y-22813D01*
X57183Y-22890D01*
X57219Y-22926D01*
X56046Y-24098D01*
X56036Y-24111D01*
X56025Y-24124D01*
X56025Y-24125D01*
X56024Y-24125D01*
X56016Y-24140D01*
X56014Y-24143D01*
X56014Y-23554D01*
X55997Y-23465D01*
X55962Y-23380D01*
X55911Y-23304D01*
X55847Y-23240D01*
X55772Y-23189D01*
X55688Y-23153D01*
X55598Y-23135D01*
X55507Y-23134D01*
X55418Y-23151D01*
X55333Y-23186D01*
X55257Y-23236D01*
X55192Y-23299D01*
X55140Y-23374D01*
X55140Y-23376D01*
X55140Y-21200D01*
X55137Y-21177D01*
X55135Y-21155D01*
X55135Y-21154D01*
X55135Y-21153D01*
X55129Y-21132D01*
X55122Y-21110D01*
X55122Y-21109D01*
X55121Y-21108D01*
X55111Y-21088D01*
X55101Y-21069D01*
X55100Y-21068D01*
X55099Y-21067D01*
X55085Y-21050D01*
X55072Y-21032D01*
X55070Y-21030D01*
X55070Y-21030D01*
X55070Y-21030D01*
X55069Y-21030D01*
X53969Y-19930D01*
X53952Y-19916D01*
X53935Y-19901D01*
X53934Y-19901D01*
X53933Y-19900D01*
X53913Y-19890D01*
X53894Y-19879D01*
X53893Y-19879D01*
X53892Y-19878D01*
X53871Y-19871D01*
X53849Y-19865D01*
X53848Y-19865D01*
X53847Y-19864D01*
X53825Y-19862D01*
X53803Y-19860D01*
X53800Y-19860D01*
X53800Y-19860D01*
X53800Y-19860D01*
X53800Y-19860D01*
X53764Y-19860D01*
X53764Y-19761D01*
X53759Y-19734D01*
X53749Y-19709D01*
X53733Y-19686D01*
X53714Y-19666D01*
X53691Y-19651D01*
X53666Y-19640D01*
X53639Y-19635D01*
X53612Y-19635D01*
X52961Y-19635D01*
X52934Y-19640D01*
X52909Y-19650D01*
X52886Y-19666D01*
X52866Y-19685D01*
X52851Y-19708D01*
X52840Y-19733D01*
X52835Y-19760D01*
X52835Y-19787D01*
X52835Y-20438D01*
X52840Y-20465D01*
X52850Y-20490D01*
X52866Y-20513D01*
X52885Y-20533D01*
X52908Y-20548D01*
X52933Y-20559D01*
X52960Y-20564D01*
X52987Y-20564D01*
X53638Y-20564D01*
X53665Y-20559D01*
X53690Y-20549D01*
X53713Y-20533D01*
X53733Y-20514D01*
X53748Y-20491D01*
X53759Y-20466D01*
X53764Y-20439D01*
X53764Y-20412D01*
X53764Y-20404D01*
X54660Y-21299D01*
X54660Y-24200D01*
X54650Y-24210D01*
X54650Y-22528D01*
X54650Y-21671D01*
X54649Y-21624D01*
X54640Y-21578D01*
X54622Y-21535D01*
X54595Y-21496D01*
X54562Y-21463D01*
X54523Y-21437D01*
X54479Y-21419D01*
X54433Y-21409D01*
X54220Y-21410D01*
X54160Y-21470D01*
X54160Y-22040D01*
X54590Y-22040D01*
X54650Y-21980D01*
X54650Y-21671D01*
X54650Y-22528D01*
X54650Y-22220D01*
X54590Y-22160D01*
X54160Y-22160D01*
X54160Y-22730D01*
X54220Y-22790D01*
X54433Y-22790D01*
X54479Y-22780D01*
X54523Y-22762D01*
X54562Y-22736D01*
X54595Y-22703D01*
X54622Y-22664D01*
X54640Y-22621D01*
X54649Y-22575D01*
X54650Y-22528D01*
X54650Y-24210D01*
X54302Y-24557D01*
X54274Y-24542D01*
X54190Y-24516D01*
X54103Y-24507D01*
X54015Y-24515D01*
X53931Y-24539D01*
X53853Y-24580D01*
X53785Y-24635D01*
X53728Y-24702D01*
X53686Y-24779D01*
X53659Y-24863D01*
X53650Y-24950D01*
X53650Y-24957D01*
X53650Y-25242D01*
X53658Y-25330D01*
X53683Y-25414D01*
X53725Y-25491D01*
X53780Y-25559D01*
X53848Y-25615D01*
X53925Y-25657D01*
X54009Y-25683D01*
X54096Y-25692D01*
X54184Y-25684D01*
X54268Y-25660D01*
X54346Y-25619D01*
X54414Y-25564D01*
X54471Y-25497D01*
X54513Y-25420D01*
X54540Y-25336D01*
X54549Y-25249D01*
X54550Y-25242D01*
X54550Y-24989D01*
X55069Y-24469D01*
X55083Y-24452D01*
X55098Y-24435D01*
X55098Y-24434D01*
X55099Y-24433D01*
X55109Y-24413D01*
X55120Y-24394D01*
X55120Y-24393D01*
X55121Y-24392D01*
X55128Y-24371D01*
X55134Y-24349D01*
X55134Y-24348D01*
X55135Y-24347D01*
X55137Y-24325D01*
X55139Y-24303D01*
X55139Y-24300D01*
X55139Y-24300D01*
X55139Y-24300D01*
X55140Y-24300D01*
X55140Y-23821D01*
X55183Y-23890D01*
X55247Y-23955D01*
X55322Y-24007D01*
X55405Y-24044D01*
X55494Y-24063D01*
X55585Y-24065D01*
X55675Y-24049D01*
X55760Y-24016D01*
X55837Y-23968D01*
X55903Y-23905D01*
X55956Y-23830D01*
X55993Y-23747D01*
X56013Y-23658D01*
X56014Y-23554D01*
X56014Y-24143D01*
X56008Y-24155D01*
X56008Y-24155D01*
X56007Y-24156D01*
X56002Y-24172D01*
X55997Y-24188D01*
X55997Y-24189D01*
X55997Y-24190D01*
X55995Y-24207D01*
X55994Y-24223D01*
X55994Y-24225D01*
X55994Y-24225D01*
X55994Y-24225D01*
X55994Y-24226D01*
X55994Y-25464D01*
X55904Y-25464D01*
X55877Y-25470D01*
X55852Y-25480D01*
X55829Y-25495D01*
X55810Y-25515D01*
X55799Y-25530D01*
X55790Y-25516D01*
X55771Y-25496D01*
X55748Y-25481D01*
X55723Y-25470D01*
X55696Y-25465D01*
X55668Y-25464D01*
X55156Y-25464D01*
X55129Y-25470D01*
X55104Y-25480D01*
X55081Y-25495D01*
X55062Y-25515D01*
X55046Y-25538D01*
X55036Y-25563D01*
X55030Y-25590D01*
X55030Y-25617D01*
X55030Y-25720D01*
X53524Y-25720D01*
X53389Y-25584D01*
X53414Y-25564D01*
X53471Y-25497D01*
X53513Y-25420D01*
X53540Y-25336D01*
X53549Y-25249D01*
X53550Y-25242D01*
X53550Y-24957D01*
X53541Y-24869D01*
X53516Y-24785D01*
X53474Y-24708D01*
X53419Y-24640D01*
X53351Y-24584D01*
X53274Y-24542D01*
X53190Y-24516D01*
X53103Y-24507D01*
X53015Y-24515D01*
X52931Y-24539D01*
X52853Y-24580D01*
X52785Y-24635D01*
X52780Y-24641D01*
X52780Y-22600D01*
X52778Y-22583D01*
X52776Y-22566D01*
X52776Y-22565D01*
X52776Y-22565D01*
X52771Y-22549D01*
X52771Y-22548D01*
X52780Y-22559D01*
X52848Y-22615D01*
X52925Y-22657D01*
X53009Y-22683D01*
X53096Y-22692D01*
X53184Y-22684D01*
X53268Y-22660D01*
X53346Y-22619D01*
X53414Y-22564D01*
X53471Y-22497D01*
X53513Y-22420D01*
X53540Y-22336D01*
X53549Y-22249D01*
X53549Y-22244D01*
X53549Y-22528D01*
X53550Y-22575D01*
X53559Y-22621D01*
X53577Y-22664D01*
X53604Y-22703D01*
X53637Y-22736D01*
X53676Y-22762D01*
X53720Y-22780D01*
X53766Y-22790D01*
X53980Y-22790D01*
X54040Y-22730D01*
X54040Y-22160D01*
X53610Y-22160D01*
X53550Y-22220D01*
X53550Y-21980D01*
X53610Y-22040D01*
X54040Y-22040D01*
X54040Y-21470D01*
X53980Y-21410D01*
X53766Y-21409D01*
X53720Y-21419D01*
X53676Y-21437D01*
X53637Y-21463D01*
X53604Y-21496D01*
X53577Y-21535D01*
X53559Y-21578D01*
X53550Y-21624D01*
X53549Y-21671D01*
X53549Y-21957D01*
X53541Y-21869D01*
X53516Y-21785D01*
X53474Y-21708D01*
X53419Y-21640D01*
X53351Y-21584D01*
X53274Y-21542D01*
X53190Y-21516D01*
X53103Y-21507D01*
X53015Y-21515D01*
X52980Y-21525D01*
X51730Y-20275D01*
X51743Y-20247D01*
X51763Y-20158D01*
X51764Y-20054D01*
X51747Y-19965D01*
X51712Y-19880D01*
X51661Y-19804D01*
X51637Y-19780D01*
X51725Y-19780D01*
X51869Y-19924D01*
X51854Y-19958D01*
X51835Y-20047D01*
X51834Y-20139D01*
X51851Y-20228D01*
X51884Y-20313D01*
X51933Y-20390D01*
X51997Y-20455D01*
X52072Y-20507D01*
X52155Y-20544D01*
X52244Y-20563D01*
X52335Y-20565D01*
X52425Y-20549D01*
X52510Y-20516D01*
X52587Y-20468D01*
X52653Y-20405D01*
X52706Y-20330D01*
X52743Y-20247D01*
X52763Y-20158D01*
X52764Y-20054D01*
X52747Y-19965D01*
X52712Y-19880D01*
X52661Y-19804D01*
X52597Y-19740D01*
X52522Y-19689D01*
X52438Y-19653D01*
X52348Y-19635D01*
X52257Y-19634D01*
X52168Y-19651D01*
X52124Y-19669D01*
X51927Y-19472D01*
X51914Y-19462D01*
X51901Y-19451D01*
X51900Y-19451D01*
X51900Y-19450D01*
X51885Y-19442D01*
X51870Y-19434D01*
X51870Y-19434D01*
X51869Y-19433D01*
X51853Y-19428D01*
X51837Y-19423D01*
X51836Y-19423D01*
X51835Y-19423D01*
X51818Y-19421D01*
X51802Y-19420D01*
X51800Y-19420D01*
X51800Y-19420D01*
X51800Y-19420D01*
X51800Y-19420D01*
X51000Y-19420D01*
X50983Y-19421D01*
X50966Y-19423D01*
X50965Y-19423D01*
X50965Y-19423D01*
X50949Y-19428D01*
X50933Y-19432D01*
X50932Y-19433D01*
X50931Y-19433D01*
X50916Y-19441D01*
X50901Y-19449D01*
X50901Y-19449D01*
X50900Y-19450D01*
X50887Y-19460D01*
X50874Y-19470D01*
X50873Y-19472D01*
X50873Y-19472D01*
X50873Y-19472D01*
X50872Y-19472D01*
X50672Y-19672D01*
X50662Y-19685D01*
X50651Y-19698D01*
X50651Y-19699D01*
X50650Y-19699D01*
X50642Y-19714D01*
X50634Y-19729D01*
X50634Y-19729D01*
X50633Y-19730D01*
X50628Y-19746D01*
X50623Y-19762D01*
X50623Y-19763D01*
X50623Y-19764D01*
X50623Y-19765D01*
X50597Y-19740D01*
X50522Y-19689D01*
X50438Y-19653D01*
X50348Y-19635D01*
X50257Y-19634D01*
X50168Y-19651D01*
X50083Y-19686D01*
X50007Y-19736D01*
X49942Y-19799D01*
X49890Y-19874D01*
X49854Y-19958D01*
X49835Y-20047D01*
X49834Y-20139D01*
X49851Y-20228D01*
X49884Y-20313D01*
X49933Y-20390D01*
X49997Y-20455D01*
X50072Y-20507D01*
X50120Y-20528D01*
X50120Y-20700D01*
X50121Y-20716D01*
X50123Y-20733D01*
X50123Y-20734D01*
X50123Y-20734D01*
X50128Y-20750D01*
X50132Y-20766D01*
X50133Y-20767D01*
X50133Y-20768D01*
X50141Y-20783D01*
X50145Y-20790D01*
X49697Y-20342D01*
X49706Y-20330D01*
X49743Y-20247D01*
X49763Y-20158D01*
X49764Y-20054D01*
X49747Y-19965D01*
X49712Y-19880D01*
X49661Y-19804D01*
X49597Y-19740D01*
X49522Y-19689D01*
X49438Y-19653D01*
X49348Y-19635D01*
X49257Y-19634D01*
X49168Y-19651D01*
X49083Y-19686D01*
X49007Y-19736D01*
X48942Y-19799D01*
X48890Y-19874D01*
X48854Y-19958D01*
X48835Y-20047D01*
X48834Y-20139D01*
X48851Y-20228D01*
X48884Y-20313D01*
X48933Y-20390D01*
X48997Y-20455D01*
X49072Y-20507D01*
X49155Y-20544D01*
X49244Y-20563D01*
X49335Y-20565D01*
X49399Y-20554D01*
X50420Y-21574D01*
X50420Y-21640D01*
X50419Y-21640D01*
X50351Y-21584D01*
X50274Y-21542D01*
X50190Y-21516D01*
X50103Y-21507D01*
X50015Y-21515D01*
X49931Y-21539D01*
X49897Y-21557D01*
X48869Y-20530D01*
X48852Y-20516D01*
X48835Y-20501D01*
X48834Y-20501D01*
X48833Y-20500D01*
X48813Y-20490D01*
X48794Y-20479D01*
X48793Y-20479D01*
X48792Y-20478D01*
X48771Y-20471D01*
X48749Y-20465D01*
X48748Y-20465D01*
X48747Y-20464D01*
X48725Y-20462D01*
X48703Y-20460D01*
X48700Y-20460D01*
X48700Y-20460D01*
X48700Y-20460D01*
X48700Y-20460D01*
X48595Y-20460D01*
X48653Y-20405D01*
X48706Y-20330D01*
X48743Y-20247D01*
X48763Y-20158D01*
X48764Y-20054D01*
X48747Y-19965D01*
X48712Y-19880D01*
X48661Y-19804D01*
X48597Y-19740D01*
X48522Y-19689D01*
X48438Y-19653D01*
X48348Y-19635D01*
X48257Y-19634D01*
X48168Y-19651D01*
X48083Y-19686D01*
X48007Y-19736D01*
X47942Y-19799D01*
X47890Y-19874D01*
X47854Y-19958D01*
X47840Y-20028D01*
X47840Y-19000D01*
X47835Y-18949D01*
X47830Y-18898D01*
X47829Y-18896D01*
X47829Y-18895D01*
X47815Y-18846D01*
X47800Y-18797D01*
X47799Y-18796D01*
X47799Y-18794D01*
X47775Y-18749D01*
X47751Y-18704D01*
X47750Y-18702D01*
X47749Y-18701D01*
X47717Y-18661D01*
X47685Y-18622D01*
X47684Y-18620D01*
X47683Y-18619D01*
X47644Y-18587D01*
X47605Y-18554D01*
X47603Y-18553D01*
X47601Y-18552D01*
X47557Y-18528D01*
X47512Y-18503D01*
X47510Y-18503D01*
X47509Y-18502D01*
X47460Y-18487D01*
X47412Y-18471D01*
X47410Y-18471D01*
X47408Y-18471D01*
X47358Y-18465D01*
X47307Y-18460D01*
X47303Y-18460D01*
X47303Y-18460D01*
X47303Y-18460D01*
X47300Y-18460D01*
X43300Y-18460D01*
X43249Y-18464D01*
X43198Y-18469D01*
X43196Y-18470D01*
X43195Y-18470D01*
X43146Y-18484D01*
X43097Y-18499D01*
X43096Y-18500D01*
X43094Y-18500D01*
X43049Y-18524D01*
X43004Y-18548D01*
X43002Y-18549D01*
X43001Y-18550D01*
X42961Y-18582D01*
X42922Y-18614D01*
X42920Y-18615D01*
X42919Y-18616D01*
X42887Y-18655D01*
X42854Y-18694D01*
X42853Y-18696D01*
X42852Y-18698D01*
X42828Y-18742D01*
X42803Y-18787D01*
X42803Y-18789D01*
X42802Y-18790D01*
X42787Y-18839D01*
X42771Y-18887D01*
X42771Y-18889D01*
X42771Y-18891D01*
X42765Y-18941D01*
X42760Y-18992D01*
X42760Y-18996D01*
X42760Y-18996D01*
X42760Y-18996D01*
X42760Y-19000D01*
X42760Y-20100D01*
X42760Y-21100D01*
X42760Y-22100D01*
X42760Y-23100D01*
X42760Y-24100D01*
X42760Y-25100D01*
X42760Y-26100D01*
X42760Y-27100D01*
X42760Y-28200D01*
X42764Y-28250D01*
X42769Y-28301D01*
X42770Y-28303D01*
X42770Y-28304D01*
X42784Y-28353D01*
X42799Y-28402D01*
X42800Y-28403D01*
X42800Y-28405D01*
X42824Y-28450D01*
X42848Y-28495D01*
X42849Y-28497D01*
X42850Y-28498D01*
X42882Y-28538D01*
X42914Y-28577D01*
X42915Y-28579D01*
X42916Y-28580D01*
X42955Y-28612D01*
X42994Y-28645D01*
X42996Y-28646D01*
X42998Y-28647D01*
X43042Y-28671D01*
X43087Y-28696D01*
X43089Y-28696D01*
X43090Y-28697D01*
X43139Y-28712D01*
X43187Y-28728D01*
X43189Y-28728D01*
X43191Y-28728D01*
X43241Y-28734D01*
X43292Y-28739D01*
X43296Y-28739D01*
X43296Y-28739D01*
X43296Y-28739D01*
X43300Y-28740D01*
X47300Y-28740D01*
X47350Y-28735D01*
X47401Y-28730D01*
X47403Y-28729D01*
X47404Y-28729D01*
X47453Y-28715D01*
X47502Y-28700D01*
X47503Y-28699D01*
X47505Y-28699D01*
X47550Y-28675D01*
X47595Y-28651D01*
X47597Y-28650D01*
X47598Y-28649D01*
X47638Y-28617D01*
X47677Y-28585D01*
X47679Y-28584D01*
X47680Y-28583D01*
X47712Y-28544D01*
X47745Y-28505D01*
X47746Y-28503D01*
X47747Y-28501D01*
X47771Y-28457D01*
X47796Y-28412D01*
X47796Y-28410D01*
X47797Y-28409D01*
X47812Y-28360D01*
X47828Y-28312D01*
X47828Y-28310D01*
X47828Y-28308D01*
X47834Y-28258D01*
X47839Y-28207D01*
X47839Y-28203D01*
X47839Y-28203D01*
X47839Y-28203D01*
X47840Y-28200D01*
X47840Y-27168D01*
X47851Y-27228D01*
X47884Y-27313D01*
X47933Y-27390D01*
X47997Y-27455D01*
X48072Y-27507D01*
X48155Y-27544D01*
X48244Y-27563D01*
X48335Y-27565D01*
X48425Y-27549D01*
X48510Y-27516D01*
X48587Y-27468D01*
X48653Y-27405D01*
X48706Y-27330D01*
X48743Y-27247D01*
X48763Y-27158D01*
X48764Y-27054D01*
X48747Y-26965D01*
X48712Y-26880D01*
X48661Y-26804D01*
X48597Y-26740D01*
X48597Y-26740D01*
X48700Y-26740D01*
X48722Y-26737D01*
X48744Y-26735D01*
X48745Y-26735D01*
X48746Y-26735D01*
X48767Y-26729D01*
X48789Y-26722D01*
X48790Y-26722D01*
X48791Y-26721D01*
X48811Y-26711D01*
X48830Y-26701D01*
X48831Y-26700D01*
X48832Y-26699D01*
X48849Y-26685D01*
X48867Y-26672D01*
X48869Y-26670D01*
X48869Y-26670D01*
X48869Y-26670D01*
X48869Y-26669D01*
X49897Y-25642D01*
X49925Y-25657D01*
X50009Y-25683D01*
X50096Y-25692D01*
X50184Y-25684D01*
X50268Y-25660D01*
X50346Y-25619D01*
X50414Y-25564D01*
X50471Y-25497D01*
X50513Y-25420D01*
X50540Y-25336D01*
X50549Y-25249D01*
X50550Y-25242D01*
X50550Y-24957D01*
X50541Y-24869D01*
X50516Y-24785D01*
X50498Y-24753D01*
X50654Y-24909D01*
X50650Y-24950D01*
X50650Y-24957D01*
X50650Y-25242D01*
X50658Y-25330D01*
X50683Y-25414D01*
X50700Y-25445D01*
X49475Y-26669D01*
X49438Y-26653D01*
X49348Y-26635D01*
X49257Y-26634D01*
X49168Y-26651D01*
X49083Y-26686D01*
X49007Y-26736D01*
X48942Y-26799D01*
X48890Y-26874D01*
X48854Y-26958D01*
X48835Y-27047D01*
X48834Y-27139D01*
X48851Y-27228D01*
X48884Y-27313D01*
X48933Y-27390D01*
X48997Y-27455D01*
X49072Y-27507D01*
X49155Y-27544D01*
X49244Y-27563D01*
X49335Y-27565D01*
X49425Y-27549D01*
X49510Y-27516D01*
X49587Y-27468D01*
X49653Y-27405D01*
X49706Y-27330D01*
X49743Y-27247D01*
X49763Y-27158D01*
X49764Y-27054D01*
X49747Y-26965D01*
X49730Y-26924D01*
X50980Y-25674D01*
X51009Y-25683D01*
X51096Y-25692D01*
X51184Y-25684D01*
X51268Y-25660D01*
X51346Y-25619D01*
X51414Y-25564D01*
X51420Y-25558D01*
X51420Y-25725D01*
X50475Y-26669D01*
X50438Y-26653D01*
X50348Y-26635D01*
X50257Y-26634D01*
X50168Y-26651D01*
X50083Y-26686D01*
X50007Y-26736D01*
X49942Y-26799D01*
X49890Y-26874D01*
X49854Y-26958D01*
X49835Y-27047D01*
X49834Y-27139D01*
X49851Y-27228D01*
X49884Y-27313D01*
X49933Y-27390D01*
X49997Y-27455D01*
X50072Y-27507D01*
X50155Y-27544D01*
X50244Y-27563D01*
X50335Y-27565D01*
X50425Y-27549D01*
X50510Y-27516D01*
X50587Y-27468D01*
X50653Y-27405D01*
X50706Y-27330D01*
X50743Y-27247D01*
X50763Y-27158D01*
X50764Y-27054D01*
X50747Y-26965D01*
X50730Y-26924D01*
X51727Y-25927D01*
X51737Y-25914D01*
X51748Y-25901D01*
X51748Y-25900D01*
X51749Y-25900D01*
X51757Y-25885D01*
X51765Y-25870D01*
X51765Y-25870D01*
X51766Y-25869D01*
X51771Y-25853D01*
X51776Y-25837D01*
X51776Y-25836D01*
X51776Y-25835D01*
X51778Y-25819D01*
X51779Y-25802D01*
X51779Y-25800D01*
X51779Y-25800D01*
X51779Y-25800D01*
X51780Y-25800D01*
X51780Y-25559D01*
X51780Y-25559D01*
X51848Y-25615D01*
X51920Y-25654D01*
X51920Y-26225D01*
X51475Y-26669D01*
X51438Y-26653D01*
X51348Y-26635D01*
X51257Y-26634D01*
X51168Y-26651D01*
X51083Y-26686D01*
X51007Y-26736D01*
X50942Y-26799D01*
X50890Y-26874D01*
X50854Y-26958D01*
X50835Y-27047D01*
X50834Y-27139D01*
X50851Y-27228D01*
X50884Y-27313D01*
X50933Y-27390D01*
X50997Y-27455D01*
X51072Y-27507D01*
X51155Y-27544D01*
X51244Y-27563D01*
X51335Y-27565D01*
X51425Y-27549D01*
X51510Y-27516D01*
X51587Y-27468D01*
X51653Y-27405D01*
X51706Y-27330D01*
X51743Y-27247D01*
X51763Y-27158D01*
X51764Y-27054D01*
X51747Y-26965D01*
X51730Y-26924D01*
X52120Y-26534D01*
X52120Y-26671D01*
X52083Y-26686D01*
X52007Y-26736D01*
X51942Y-26799D01*
X51890Y-26874D01*
X51854Y-26958D01*
X51835Y-27047D01*
X51834Y-27139D01*
X51851Y-27228D01*
X51884Y-27313D01*
X51933Y-27390D01*
X51997Y-27455D01*
X52072Y-27507D01*
X52155Y-27544D01*
X52244Y-27563D01*
X52335Y-27565D01*
X52425Y-27549D01*
X52510Y-27516D01*
X52587Y-27468D01*
X52653Y-27405D01*
X52706Y-27330D01*
X52743Y-27247D01*
X52763Y-27158D01*
X52764Y-27054D01*
X52747Y-26965D01*
X52712Y-26880D01*
X52661Y-26804D01*
X52597Y-26740D01*
X52522Y-26689D01*
X52480Y-26671D01*
X52480Y-26574D01*
X52727Y-26327D01*
X52737Y-26314D01*
X52748Y-26301D01*
X52748Y-26300D01*
X52749Y-26300D01*
X52757Y-26285D01*
X52765Y-26270D01*
X52765Y-26270D01*
X52766Y-26269D01*
X52771Y-26253D01*
X52776Y-26237D01*
X52776Y-26236D01*
X52776Y-26235D01*
X52778Y-26219D01*
X52779Y-26202D01*
X52779Y-26200D01*
X52779Y-26200D01*
X52779Y-26200D01*
X52780Y-26200D01*
X52780Y-25559D01*
X52780Y-25559D01*
X52848Y-25615D01*
X52925Y-25657D01*
X52966Y-25670D01*
X52970Y-25675D01*
X52972Y-25676D01*
X52972Y-25676D01*
X52972Y-25676D01*
X52972Y-25677D01*
X53322Y-26027D01*
X53335Y-26037D01*
X53348Y-26048D01*
X53349Y-26048D01*
X53349Y-26049D01*
X53364Y-26057D01*
X53379Y-26065D01*
X53379Y-26065D01*
X53380Y-26066D01*
X53396Y-26071D01*
X53412Y-26076D01*
X53413Y-26076D01*
X53414Y-26076D01*
X53430Y-26078D01*
X53447Y-26079D01*
X53449Y-26079D01*
X53449Y-26079D01*
X53449Y-26079D01*
X53450Y-26080D01*
X55030Y-26080D01*
X55030Y-26208D01*
X55035Y-26235D01*
X55046Y-26261D01*
X55061Y-26283D01*
X55080Y-26303D01*
X55103Y-26318D01*
X55128Y-26329D01*
X55155Y-26334D01*
X55183Y-26335D01*
X55695Y-26335D01*
X55722Y-26329D01*
X55747Y-26319D01*
X55770Y-26304D01*
X55789Y-26284D01*
X55800Y-26269D01*
X55809Y-26283D01*
X55828Y-26303D01*
X55851Y-26318D01*
X55876Y-26329D01*
X55903Y-26334D01*
X55931Y-26335D01*
X56443Y-26335D01*
X56470Y-26329D01*
X56495Y-26319D01*
X56518Y-26304D01*
X56537Y-26284D01*
X56553Y-26261D01*
X56563Y-26236D01*
X56569Y-26209D01*
X56569Y-26182D01*
X56569Y-25591D01*
X56564Y-25564D01*
X56553Y-25538D01*
X56538Y-25516D01*
X56519Y-25496D01*
X56496Y-25481D01*
X56471Y-25470D01*
X56444Y-25465D01*
X56416Y-25464D01*
X56354Y-25464D01*
X56354Y-24300D01*
X57589Y-23065D01*
X57675Y-23049D01*
X57760Y-23016D01*
X57837Y-22968D01*
X57903Y-22905D01*
X57956Y-22830D01*
X57993Y-22747D01*
X58013Y-22658D01*
X58014Y-22554D01*
X58014Y-24554D01*
X57997Y-24465D01*
X57962Y-24380D01*
X57911Y-24304D01*
X57847Y-24240D01*
X57772Y-24189D01*
X57688Y-24153D01*
X57598Y-24135D01*
X57507Y-24134D01*
X57418Y-24151D01*
X57333Y-24186D01*
X57257Y-24236D01*
X57192Y-24299D01*
X57140Y-24374D01*
X57104Y-24458D01*
X57085Y-24547D01*
X57084Y-24639D01*
X57101Y-24728D01*
X57134Y-24813D01*
X57183Y-24890D01*
X57247Y-24955D01*
X57310Y-24999D01*
X57310Y-25850D01*
X56354Y-26805D01*
X56022Y-26805D01*
X55995Y-26811D01*
X55970Y-26821D01*
X55947Y-26836D01*
X55928Y-26856D01*
X55912Y-26879D01*
X55902Y-26904D01*
X55896Y-26931D01*
X55896Y-26958D01*
X55896Y-27667D01*
X55901Y-27694D01*
X55912Y-27720D01*
X55927Y-27742D01*
X55934Y-27749D01*
X55934Y-27964D01*
X55904Y-27964D01*
X55877Y-27970D01*
X55852Y-27980D01*
X55829Y-27995D01*
X55810Y-28015D01*
X55799Y-28030D01*
X55790Y-28016D01*
X55771Y-27996D01*
X55748Y-27981D01*
X55723Y-27970D01*
X55696Y-27965D01*
X55668Y-27964D01*
X55489Y-27964D01*
X55489Y-27794D01*
X55577Y-27794D01*
X55604Y-27788D01*
X55629Y-27778D01*
X55652Y-27763D01*
X55671Y-27743D01*
X55687Y-27720D01*
X55697Y-27695D01*
X55703Y-27668D01*
X55703Y-27641D01*
X55703Y-26932D01*
X55698Y-26905D01*
X55687Y-26879D01*
X55672Y-26857D01*
X55653Y-26837D01*
X55630Y-26822D01*
X55605Y-26811D01*
X55578Y-26806D01*
X55550Y-26805D01*
X54920Y-26805D01*
X54893Y-26811D01*
X54868Y-26821D01*
X54845Y-26836D01*
X54826Y-26856D01*
X54823Y-26860D01*
X53764Y-26860D01*
X53764Y-26761D01*
X53759Y-26734D01*
X53749Y-26709D01*
X53733Y-26686D01*
X53714Y-26666D01*
X53691Y-26651D01*
X53666Y-26640D01*
X53639Y-26635D01*
X53612Y-26635D01*
X52961Y-26635D01*
X52934Y-26640D01*
X52909Y-26650D01*
X52886Y-26666D01*
X52866Y-26685D01*
X52851Y-26708D01*
X52840Y-26733D01*
X52835Y-26760D01*
X52835Y-26787D01*
X52835Y-27438D01*
X52840Y-27465D01*
X52850Y-27490D01*
X52866Y-27513D01*
X52885Y-27533D01*
X52908Y-27548D01*
X52933Y-27559D01*
X52960Y-27564D01*
X52987Y-27564D01*
X53638Y-27564D01*
X53665Y-27559D01*
X53690Y-27549D01*
X53713Y-27533D01*
X53733Y-27514D01*
X53748Y-27491D01*
X53759Y-27466D01*
X53764Y-27439D01*
X53764Y-27412D01*
X53764Y-27340D01*
X54794Y-27340D01*
X54794Y-27667D01*
X54799Y-27694D01*
X54810Y-27720D01*
X54825Y-27742D01*
X54844Y-27762D01*
X54867Y-27777D01*
X54892Y-27788D01*
X54919Y-27793D01*
X54947Y-27794D01*
X55009Y-27794D01*
X55009Y-28223D01*
X55011Y-28245D01*
X55013Y-28267D01*
X55013Y-28268D01*
X55013Y-28269D01*
X55019Y-28290D01*
X55026Y-28312D01*
X55026Y-28313D01*
X55027Y-28314D01*
X55030Y-28320D01*
X55030Y-28708D01*
X55035Y-28735D01*
X55046Y-28761D01*
X55061Y-28783D01*
X55080Y-28803D01*
X55103Y-28818D01*
X55128Y-28829D01*
X55155Y-28834D01*
X55183Y-28835D01*
X55695Y-28835D01*
X55722Y-28829D01*
X55747Y-28819D01*
X55770Y-28804D01*
X55789Y-28784D01*
X55800Y-28769D01*
X55809Y-28783D01*
X55828Y-28803D01*
X55851Y-28818D01*
X55876Y-28829D01*
X55903Y-28834D01*
X55931Y-28835D01*
X56443Y-28835D01*
X56470Y-28829D01*
X56495Y-28819D01*
X56518Y-28804D01*
X56537Y-28784D01*
X56553Y-28761D01*
X56563Y-28736D01*
X56569Y-28709D01*
X56569Y-28682D01*
X56569Y-28091D01*
X56564Y-28064D01*
X56553Y-28038D01*
X56538Y-28016D01*
X56519Y-27996D01*
X56496Y-27981D01*
X56471Y-27970D01*
X56444Y-27965D01*
X56416Y-27964D01*
X56414Y-27964D01*
X56414Y-27794D01*
X56679Y-27794D01*
X56706Y-27788D01*
X56731Y-27778D01*
X56754Y-27763D01*
X56773Y-27743D01*
X56789Y-27720D01*
X56799Y-27695D01*
X56805Y-27668D01*
X56805Y-27641D01*
X56805Y-27033D01*
X57719Y-26119D01*
X57733Y-26102D01*
X57748Y-26085D01*
X57748Y-26084D01*
X57749Y-26083D01*
X57759Y-26063D01*
X57770Y-26044D01*
X57770Y-26043D01*
X57771Y-26042D01*
X57778Y-26021D01*
X57784Y-25999D01*
X57784Y-25998D01*
X57785Y-25997D01*
X57787Y-25975D01*
X57789Y-25953D01*
X57789Y-25950D01*
X57789Y-25950D01*
X57789Y-25950D01*
X57790Y-25950D01*
X57790Y-24998D01*
X57837Y-24968D01*
X57903Y-24905D01*
X57956Y-24830D01*
X57993Y-24747D01*
X58013Y-24658D01*
X58014Y-24554D01*
X58014Y-29560D01*
X41940Y-29560D01*
X41940Y-17640D01*
X58260Y-17640D01*
X58260Y-29560D01*
M02*
