G04 (created by PCBNEW (2013-02-09 BZR 3938)-testing) date Sun 10 Feb 2013 01:21:16 PM CET*
%MOIN*%
G04 Gerber Fmt 3.4, Leading zero omitted, Abs format*
%FSLAX34Y34*%
G01*
G70*
G90*
G04 APERTURE LIST*
%ADD10C,2.3622e-06*%
%ADD11C,0.015*%
%ADD12R,0.0649606X0.0649606*%
%ADD13C,0.0649606*%
%ADD14R,0.04X0.04*%
%ADD15R,0.062X0.09*%
%ADD16O,0.062X0.09*%
%ADD17C,0.02*%
%ADD18C,0.08*%
%ADD19C,0.06*%
%ADD20C,0.008*%
G04 APERTURE END LIST*
G54D10*
G54D11*
X58500Y-29800D02*
X41700Y-29800D01*
X41700Y-17400D02*
X58500Y-17400D01*
X58500Y-29800D02*
X58500Y-17400D01*
X41700Y-17400D02*
X41700Y-29800D01*
G54D12*
X44300Y-20100D03*
G54D13*
X44300Y-21100D03*
X44300Y-22100D03*
X44300Y-23100D03*
X44300Y-24100D03*
X44300Y-25100D03*
X44300Y-26100D03*
X44300Y-27100D03*
G54D12*
X43300Y-20100D03*
G54D13*
X43300Y-21100D03*
X43300Y-22100D03*
X43300Y-23100D03*
X43300Y-24100D03*
X43300Y-25100D03*
X43300Y-26100D03*
X43300Y-27100D03*
G54D12*
X53300Y-20100D03*
G54D13*
X52300Y-20100D03*
X51300Y-20100D03*
X50300Y-20100D03*
X49300Y-20100D03*
X48300Y-20100D03*
X47300Y-20100D03*
X46300Y-20100D03*
G54D12*
X53300Y-27100D03*
G54D13*
X52300Y-27100D03*
X51300Y-27100D03*
X50300Y-27100D03*
X49300Y-27100D03*
X48300Y-27100D03*
X47300Y-27100D03*
X46300Y-27100D03*
G54D14*
X55625Y-21400D03*
X56175Y-21400D03*
G54D13*
X55550Y-23600D03*
X57550Y-22600D03*
X57550Y-24600D03*
G54D15*
X54100Y-22100D03*
G54D16*
X53100Y-22100D03*
X52100Y-22100D03*
X51100Y-22100D03*
X50100Y-22100D03*
X49100Y-22100D03*
X48100Y-22100D03*
X47100Y-22100D03*
X47100Y-25100D03*
X48100Y-25100D03*
X49100Y-25100D03*
X50100Y-25100D03*
X51100Y-25100D03*
X52100Y-25100D03*
X53100Y-25100D03*
X54100Y-25100D03*
G54D17*
X55550Y-23600D02*
X56550Y-23600D01*
X56550Y-23600D02*
X57550Y-24600D01*
X55550Y-23600D02*
X55550Y-22850D01*
X56175Y-22225D02*
X56175Y-21400D01*
X55550Y-22850D02*
X56175Y-22225D01*
X56200Y-21425D02*
X56175Y-21400D01*
X55625Y-21400D02*
X56175Y-21400D01*
X55625Y-21400D02*
X54100Y-21400D01*
X54100Y-21400D02*
X54100Y-22100D01*
G54D18*
X46300Y-23600D02*
X54100Y-23600D01*
G54D19*
X54100Y-23600D02*
X54100Y-22100D01*
G54D18*
X46300Y-20100D02*
X46300Y-23600D01*
X46300Y-23600D02*
X46300Y-27100D01*
G54D17*
X54100Y-25100D02*
X54100Y-26300D01*
X54100Y-26300D02*
X53300Y-27100D01*
G54D10*
G36*
X58260Y-29560D02*
X58014Y-29560D01*
X58014Y-24554D01*
X58014Y-22554D01*
X57997Y-22465D01*
X57962Y-22380D01*
X57911Y-22304D01*
X57847Y-22240D01*
X57772Y-22189D01*
X57688Y-22153D01*
X57598Y-22135D01*
X57507Y-22134D01*
X57418Y-22151D01*
X57333Y-22186D01*
X57257Y-22236D01*
X57192Y-22299D01*
X57140Y-22374D01*
X57104Y-22458D01*
X57085Y-22547D01*
X57084Y-22639D01*
X57101Y-22728D01*
X57134Y-22813D01*
X57183Y-22890D01*
X57247Y-22955D01*
X57322Y-23007D01*
X57405Y-23044D01*
X57494Y-23063D01*
X57585Y-23065D01*
X57675Y-23049D01*
X57760Y-23016D01*
X57837Y-22968D01*
X57903Y-22905D01*
X57956Y-22830D01*
X57993Y-22747D01*
X58013Y-22658D01*
X58014Y-22554D01*
X58014Y-24554D01*
X57997Y-24465D01*
X57962Y-24380D01*
X57911Y-24304D01*
X57847Y-24240D01*
X57772Y-24189D01*
X57688Y-24153D01*
X57598Y-24135D01*
X57507Y-24134D01*
X57437Y-24148D01*
X56719Y-23430D01*
X56702Y-23416D01*
X56685Y-23401D01*
X56684Y-23401D01*
X56683Y-23400D01*
X56663Y-23390D01*
X56644Y-23379D01*
X56643Y-23379D01*
X56642Y-23378D01*
X56621Y-23371D01*
X56599Y-23365D01*
X56598Y-23365D01*
X56597Y-23364D01*
X56575Y-23362D01*
X56553Y-23360D01*
X56550Y-23360D01*
X56550Y-23360D01*
X56550Y-23360D01*
X56550Y-23360D01*
X55948Y-23360D01*
X55911Y-23304D01*
X55847Y-23240D01*
X55790Y-23201D01*
X55790Y-22949D01*
X56344Y-22394D01*
X56358Y-22377D01*
X56373Y-22360D01*
X56373Y-22359D01*
X56374Y-22358D01*
X56384Y-22338D01*
X56395Y-22319D01*
X56395Y-22318D01*
X56396Y-22317D01*
X56403Y-22296D01*
X56409Y-22274D01*
X56409Y-22273D01*
X56410Y-22272D01*
X56412Y-22250D01*
X56414Y-22228D01*
X56414Y-22225D01*
X56414Y-22225D01*
X56414Y-22225D01*
X56415Y-22225D01*
X56415Y-21734D01*
X56415Y-21734D01*
X56441Y-21724D01*
X56463Y-21709D01*
X56483Y-21689D01*
X56498Y-21666D01*
X56509Y-21641D01*
X56514Y-21614D01*
X56515Y-21587D01*
X56515Y-21186D01*
X56509Y-21159D01*
X56499Y-21133D01*
X56484Y-21111D01*
X56464Y-21091D01*
X56441Y-21076D01*
X56416Y-21065D01*
X56389Y-21060D01*
X56362Y-21059D01*
X56020Y-21059D01*
X56010Y-21046D01*
X55977Y-21013D01*
X55938Y-20987D01*
X55894Y-20969D01*
X55848Y-20959D01*
X55745Y-20960D01*
X55685Y-21020D01*
X55685Y-21340D01*
X55692Y-21340D01*
X55692Y-21460D01*
X55685Y-21460D01*
X55685Y-21780D01*
X55745Y-21840D01*
X55848Y-21840D01*
X55894Y-21830D01*
X55935Y-21814D01*
X55935Y-22125D01*
X55565Y-22495D01*
X55565Y-21780D01*
X55565Y-21460D01*
X55565Y-21340D01*
X55565Y-21020D01*
X55505Y-20960D01*
X55401Y-20959D01*
X55355Y-20969D01*
X55311Y-20987D01*
X55272Y-21013D01*
X55239Y-21046D01*
X55212Y-21085D01*
X55194Y-21128D01*
X55185Y-21174D01*
X55184Y-21221D01*
X55185Y-21280D01*
X55245Y-21340D01*
X55565Y-21340D01*
X55565Y-21460D01*
X55245Y-21460D01*
X55185Y-21520D01*
X55184Y-21578D01*
X55185Y-21625D01*
X55194Y-21671D01*
X55212Y-21714D01*
X55239Y-21753D01*
X55272Y-21786D01*
X55311Y-21812D01*
X55355Y-21830D01*
X55401Y-21840D01*
X55505Y-21840D01*
X55565Y-21780D01*
X55565Y-22495D01*
X55380Y-22680D01*
X55366Y-22697D01*
X55351Y-22714D01*
X55351Y-22715D01*
X55350Y-22716D01*
X55340Y-22736D01*
X55329Y-22755D01*
X55329Y-22756D01*
X55328Y-22757D01*
X55321Y-22778D01*
X55315Y-22800D01*
X55315Y-22801D01*
X55314Y-22802D01*
X55312Y-22824D01*
X55310Y-22846D01*
X55310Y-22849D01*
X55310Y-22849D01*
X55310Y-22849D01*
X55310Y-22850D01*
X55310Y-23201D01*
X55257Y-23236D01*
X55192Y-23299D01*
X55140Y-23374D01*
X55104Y-23458D01*
X55085Y-23547D01*
X55084Y-23639D01*
X55101Y-23728D01*
X55134Y-23813D01*
X55183Y-23890D01*
X55247Y-23955D01*
X55322Y-24007D01*
X55405Y-24044D01*
X55494Y-24063D01*
X55585Y-24065D01*
X55675Y-24049D01*
X55760Y-24016D01*
X55837Y-23968D01*
X55903Y-23905D01*
X55949Y-23840D01*
X56450Y-23840D01*
X57098Y-24488D01*
X57085Y-24547D01*
X57084Y-24639D01*
X57101Y-24728D01*
X57134Y-24813D01*
X57183Y-24890D01*
X57247Y-24955D01*
X57322Y-25007D01*
X57405Y-25044D01*
X57494Y-25063D01*
X57585Y-25065D01*
X57675Y-25049D01*
X57760Y-25016D01*
X57837Y-24968D01*
X57903Y-24905D01*
X57956Y-24830D01*
X57993Y-24747D01*
X58013Y-24658D01*
X58014Y-24554D01*
X58014Y-29560D01*
X54650Y-29560D01*
X54650Y-22528D01*
X54650Y-21671D01*
X54649Y-21624D01*
X54640Y-21578D01*
X54622Y-21535D01*
X54595Y-21496D01*
X54562Y-21463D01*
X54523Y-21437D01*
X54479Y-21419D01*
X54433Y-21409D01*
X54220Y-21410D01*
X54160Y-21470D01*
X54160Y-22040D01*
X54590Y-22040D01*
X54650Y-21980D01*
X54650Y-21671D01*
X54650Y-22528D01*
X54650Y-22220D01*
X54590Y-22160D01*
X54160Y-22160D01*
X54160Y-22730D01*
X54220Y-22790D01*
X54433Y-22790D01*
X54479Y-22780D01*
X54523Y-22762D01*
X54562Y-22736D01*
X54595Y-22703D01*
X54622Y-22664D01*
X54640Y-22621D01*
X54649Y-22575D01*
X54650Y-22528D01*
X54650Y-29560D01*
X54550Y-29560D01*
X54550Y-25242D01*
X54550Y-24957D01*
X54541Y-24869D01*
X54516Y-24785D01*
X54474Y-24708D01*
X54419Y-24640D01*
X54351Y-24584D01*
X54274Y-24542D01*
X54190Y-24516D01*
X54103Y-24507D01*
X54040Y-24512D01*
X54040Y-22730D01*
X54040Y-22160D01*
X53610Y-22160D01*
X53550Y-22220D01*
X53550Y-21980D01*
X53610Y-22040D01*
X54040Y-22040D01*
X54040Y-21470D01*
X53980Y-21410D01*
X53766Y-21409D01*
X53764Y-21410D01*
X53764Y-20412D01*
X53764Y-19761D01*
X53759Y-19734D01*
X53749Y-19709D01*
X53733Y-19686D01*
X53714Y-19666D01*
X53691Y-19651D01*
X53666Y-19640D01*
X53639Y-19635D01*
X53612Y-19635D01*
X52961Y-19635D01*
X52934Y-19640D01*
X52909Y-19650D01*
X52886Y-19666D01*
X52866Y-19685D01*
X52851Y-19708D01*
X52840Y-19733D01*
X52835Y-19760D01*
X52835Y-19787D01*
X52835Y-20438D01*
X52840Y-20465D01*
X52850Y-20490D01*
X52866Y-20513D01*
X52885Y-20533D01*
X52908Y-20548D01*
X52933Y-20559D01*
X52960Y-20564D01*
X52987Y-20564D01*
X53638Y-20564D01*
X53665Y-20559D01*
X53690Y-20549D01*
X53713Y-20533D01*
X53733Y-20514D01*
X53748Y-20491D01*
X53759Y-20466D01*
X53764Y-20439D01*
X53764Y-20412D01*
X53764Y-21410D01*
X53720Y-21419D01*
X53676Y-21437D01*
X53637Y-21463D01*
X53604Y-21496D01*
X53577Y-21535D01*
X53559Y-21578D01*
X53550Y-21624D01*
X53549Y-21671D01*
X53549Y-21957D01*
X53541Y-21869D01*
X53516Y-21785D01*
X53474Y-21708D01*
X53419Y-21640D01*
X53351Y-21584D01*
X53274Y-21542D01*
X53190Y-21516D01*
X53103Y-21507D01*
X53015Y-21515D01*
X52931Y-21539D01*
X52853Y-21580D01*
X52785Y-21635D01*
X52764Y-21659D01*
X52764Y-20054D01*
X52747Y-19965D01*
X52712Y-19880D01*
X52661Y-19804D01*
X52597Y-19740D01*
X52522Y-19689D01*
X52438Y-19653D01*
X52348Y-19635D01*
X52257Y-19634D01*
X52168Y-19651D01*
X52083Y-19686D01*
X52007Y-19736D01*
X51942Y-19799D01*
X51890Y-19874D01*
X51854Y-19958D01*
X51835Y-20047D01*
X51834Y-20139D01*
X51851Y-20228D01*
X51884Y-20313D01*
X51933Y-20390D01*
X51997Y-20455D01*
X52072Y-20507D01*
X52155Y-20544D01*
X52244Y-20563D01*
X52335Y-20565D01*
X52425Y-20549D01*
X52510Y-20516D01*
X52587Y-20468D01*
X52653Y-20405D01*
X52706Y-20330D01*
X52743Y-20247D01*
X52763Y-20158D01*
X52764Y-20054D01*
X52764Y-21659D01*
X52728Y-21702D01*
X52686Y-21779D01*
X52659Y-21863D01*
X52650Y-21950D01*
X52650Y-21957D01*
X52650Y-22242D01*
X52658Y-22330D01*
X52683Y-22414D01*
X52725Y-22491D01*
X52780Y-22559D01*
X52848Y-22615D01*
X52925Y-22657D01*
X53009Y-22683D01*
X53096Y-22692D01*
X53184Y-22684D01*
X53268Y-22660D01*
X53346Y-22619D01*
X53414Y-22564D01*
X53471Y-22497D01*
X53513Y-22420D01*
X53540Y-22336D01*
X53549Y-22249D01*
X53549Y-22244D01*
X53549Y-22528D01*
X53550Y-22575D01*
X53559Y-22621D01*
X53577Y-22664D01*
X53604Y-22703D01*
X53637Y-22736D01*
X53676Y-22762D01*
X53720Y-22780D01*
X53766Y-22790D01*
X53980Y-22790D01*
X54040Y-22730D01*
X54040Y-24512D01*
X54015Y-24515D01*
X53931Y-24539D01*
X53853Y-24580D01*
X53785Y-24635D01*
X53728Y-24702D01*
X53686Y-24779D01*
X53659Y-24863D01*
X53650Y-24950D01*
X53650Y-24957D01*
X53650Y-25242D01*
X53658Y-25330D01*
X53683Y-25414D01*
X53725Y-25491D01*
X53780Y-25559D01*
X53848Y-25615D01*
X53860Y-25622D01*
X53860Y-26200D01*
X53550Y-26510D01*
X53550Y-25242D01*
X53550Y-24957D01*
X53541Y-24869D01*
X53516Y-24785D01*
X53474Y-24708D01*
X53419Y-24640D01*
X53351Y-24584D01*
X53274Y-24542D01*
X53190Y-24516D01*
X53103Y-24507D01*
X53015Y-24515D01*
X52931Y-24539D01*
X52853Y-24580D01*
X52785Y-24635D01*
X52728Y-24702D01*
X52686Y-24779D01*
X52659Y-24863D01*
X52650Y-24950D01*
X52650Y-24957D01*
X52650Y-25242D01*
X52658Y-25330D01*
X52683Y-25414D01*
X52725Y-25491D01*
X52780Y-25559D01*
X52848Y-25615D01*
X52925Y-25657D01*
X53009Y-25683D01*
X53096Y-25692D01*
X53184Y-25684D01*
X53268Y-25660D01*
X53346Y-25619D01*
X53414Y-25564D01*
X53471Y-25497D01*
X53513Y-25420D01*
X53540Y-25336D01*
X53549Y-25249D01*
X53550Y-25242D01*
X53550Y-26510D01*
X53425Y-26635D01*
X52961Y-26635D01*
X52934Y-26640D01*
X52909Y-26650D01*
X52886Y-26666D01*
X52866Y-26685D01*
X52851Y-26708D01*
X52840Y-26733D01*
X52835Y-26760D01*
X52835Y-26787D01*
X52835Y-27438D01*
X52840Y-27465D01*
X52850Y-27490D01*
X52866Y-27513D01*
X52885Y-27533D01*
X52908Y-27548D01*
X52933Y-27559D01*
X52960Y-27564D01*
X52987Y-27564D01*
X53638Y-27564D01*
X53665Y-27559D01*
X53690Y-27549D01*
X53713Y-27533D01*
X53733Y-27514D01*
X53748Y-27491D01*
X53759Y-27466D01*
X53764Y-27439D01*
X53764Y-27412D01*
X53764Y-26974D01*
X54269Y-26469D01*
X54283Y-26452D01*
X54298Y-26435D01*
X54298Y-26434D01*
X54299Y-26433D01*
X54309Y-26413D01*
X54320Y-26394D01*
X54320Y-26393D01*
X54321Y-26392D01*
X54328Y-26371D01*
X54334Y-26349D01*
X54334Y-26348D01*
X54335Y-26347D01*
X54337Y-26325D01*
X54339Y-26303D01*
X54339Y-26300D01*
X54339Y-26300D01*
X54339Y-26300D01*
X54340Y-26300D01*
X54340Y-25622D01*
X54346Y-25619D01*
X54414Y-25564D01*
X54471Y-25497D01*
X54513Y-25420D01*
X54540Y-25336D01*
X54549Y-25249D01*
X54550Y-25242D01*
X54550Y-29560D01*
X52764Y-29560D01*
X52764Y-27054D01*
X52747Y-26965D01*
X52712Y-26880D01*
X52661Y-26804D01*
X52597Y-26740D01*
X52550Y-26707D01*
X52550Y-25242D01*
X52550Y-24957D01*
X52550Y-22242D01*
X52550Y-21957D01*
X52541Y-21869D01*
X52516Y-21785D01*
X52474Y-21708D01*
X52419Y-21640D01*
X52351Y-21584D01*
X52274Y-21542D01*
X52190Y-21516D01*
X52103Y-21507D01*
X52015Y-21515D01*
X51931Y-21539D01*
X51853Y-21580D01*
X51785Y-21635D01*
X51764Y-21659D01*
X51764Y-20054D01*
X51747Y-19965D01*
X51712Y-19880D01*
X51661Y-19804D01*
X51597Y-19740D01*
X51522Y-19689D01*
X51438Y-19653D01*
X51348Y-19635D01*
X51257Y-19634D01*
X51168Y-19651D01*
X51083Y-19686D01*
X51007Y-19736D01*
X50942Y-19799D01*
X50890Y-19874D01*
X50854Y-19958D01*
X50835Y-20047D01*
X50834Y-20139D01*
X50851Y-20228D01*
X50884Y-20313D01*
X50933Y-20390D01*
X50997Y-20455D01*
X51072Y-20507D01*
X51155Y-20544D01*
X51244Y-20563D01*
X51335Y-20565D01*
X51425Y-20549D01*
X51510Y-20516D01*
X51587Y-20468D01*
X51653Y-20405D01*
X51706Y-20330D01*
X51743Y-20247D01*
X51763Y-20158D01*
X51764Y-20054D01*
X51764Y-21659D01*
X51728Y-21702D01*
X51686Y-21779D01*
X51659Y-21863D01*
X51650Y-21950D01*
X51650Y-21957D01*
X51650Y-22242D01*
X51658Y-22330D01*
X51683Y-22414D01*
X51725Y-22491D01*
X51780Y-22559D01*
X51848Y-22615D01*
X51925Y-22657D01*
X52009Y-22683D01*
X52096Y-22692D01*
X52184Y-22684D01*
X52268Y-22660D01*
X52346Y-22619D01*
X52414Y-22564D01*
X52471Y-22497D01*
X52513Y-22420D01*
X52540Y-22336D01*
X52549Y-22249D01*
X52550Y-22242D01*
X52550Y-24957D01*
X52541Y-24869D01*
X52516Y-24785D01*
X52474Y-24708D01*
X52419Y-24640D01*
X52351Y-24584D01*
X52274Y-24542D01*
X52190Y-24516D01*
X52103Y-24507D01*
X52015Y-24515D01*
X51931Y-24539D01*
X51853Y-24580D01*
X51785Y-24635D01*
X51728Y-24702D01*
X51686Y-24779D01*
X51659Y-24863D01*
X51650Y-24950D01*
X51650Y-24957D01*
X51650Y-25242D01*
X51658Y-25330D01*
X51683Y-25414D01*
X51725Y-25491D01*
X51780Y-25559D01*
X51848Y-25615D01*
X51925Y-25657D01*
X52009Y-25683D01*
X52096Y-25692D01*
X52184Y-25684D01*
X52268Y-25660D01*
X52346Y-25619D01*
X52414Y-25564D01*
X52471Y-25497D01*
X52513Y-25420D01*
X52540Y-25336D01*
X52549Y-25249D01*
X52550Y-25242D01*
X52550Y-26707D01*
X52522Y-26689D01*
X52438Y-26653D01*
X52348Y-26635D01*
X52257Y-26634D01*
X52168Y-26651D01*
X52083Y-26686D01*
X52007Y-26736D01*
X51942Y-26799D01*
X51890Y-26874D01*
X51854Y-26958D01*
X51835Y-27047D01*
X51834Y-27139D01*
X51851Y-27228D01*
X51884Y-27313D01*
X51933Y-27390D01*
X51997Y-27455D01*
X52072Y-27507D01*
X52155Y-27544D01*
X52244Y-27563D01*
X52335Y-27565D01*
X52425Y-27549D01*
X52510Y-27516D01*
X52587Y-27468D01*
X52653Y-27405D01*
X52706Y-27330D01*
X52743Y-27247D01*
X52763Y-27158D01*
X52764Y-27054D01*
X52764Y-29560D01*
X51764Y-29560D01*
X51764Y-27054D01*
X51747Y-26965D01*
X51712Y-26880D01*
X51661Y-26804D01*
X51597Y-26740D01*
X51550Y-26707D01*
X51550Y-25242D01*
X51550Y-24957D01*
X51550Y-22242D01*
X51550Y-21957D01*
X51541Y-21869D01*
X51516Y-21785D01*
X51474Y-21708D01*
X51419Y-21640D01*
X51351Y-21584D01*
X51274Y-21542D01*
X51190Y-21516D01*
X51103Y-21507D01*
X51015Y-21515D01*
X50931Y-21539D01*
X50853Y-21580D01*
X50785Y-21635D01*
X50764Y-21659D01*
X50764Y-20054D01*
X50747Y-19965D01*
X50712Y-19880D01*
X50661Y-19804D01*
X50597Y-19740D01*
X50522Y-19689D01*
X50438Y-19653D01*
X50348Y-19635D01*
X50257Y-19634D01*
X50168Y-19651D01*
X50083Y-19686D01*
X50007Y-19736D01*
X49942Y-19799D01*
X49890Y-19874D01*
X49854Y-19958D01*
X49835Y-20047D01*
X49834Y-20139D01*
X49851Y-20228D01*
X49884Y-20313D01*
X49933Y-20390D01*
X49997Y-20455D01*
X50072Y-20507D01*
X50155Y-20544D01*
X50244Y-20563D01*
X50335Y-20565D01*
X50425Y-20549D01*
X50510Y-20516D01*
X50587Y-20468D01*
X50653Y-20405D01*
X50706Y-20330D01*
X50743Y-20247D01*
X50763Y-20158D01*
X50764Y-20054D01*
X50764Y-21659D01*
X50728Y-21702D01*
X50686Y-21779D01*
X50659Y-21863D01*
X50650Y-21950D01*
X50650Y-21957D01*
X50650Y-22242D01*
X50658Y-22330D01*
X50683Y-22414D01*
X50725Y-22491D01*
X50780Y-22559D01*
X50848Y-22615D01*
X50925Y-22657D01*
X51009Y-22683D01*
X51096Y-22692D01*
X51184Y-22684D01*
X51268Y-22660D01*
X51346Y-22619D01*
X51414Y-22564D01*
X51471Y-22497D01*
X51513Y-22420D01*
X51540Y-22336D01*
X51549Y-22249D01*
X51550Y-22242D01*
X51550Y-24957D01*
X51541Y-24869D01*
X51516Y-24785D01*
X51474Y-24708D01*
X51419Y-24640D01*
X51351Y-24584D01*
X51274Y-24542D01*
X51190Y-24516D01*
X51103Y-24507D01*
X51015Y-24515D01*
X50931Y-24539D01*
X50853Y-24580D01*
X50785Y-24635D01*
X50728Y-24702D01*
X50686Y-24779D01*
X50659Y-24863D01*
X50650Y-24950D01*
X50650Y-24957D01*
X50650Y-25242D01*
X50658Y-25330D01*
X50683Y-25414D01*
X50725Y-25491D01*
X50780Y-25559D01*
X50848Y-25615D01*
X50925Y-25657D01*
X51009Y-25683D01*
X51096Y-25692D01*
X51184Y-25684D01*
X51268Y-25660D01*
X51346Y-25619D01*
X51414Y-25564D01*
X51471Y-25497D01*
X51513Y-25420D01*
X51540Y-25336D01*
X51549Y-25249D01*
X51550Y-25242D01*
X51550Y-26707D01*
X51522Y-26689D01*
X51438Y-26653D01*
X51348Y-26635D01*
X51257Y-26634D01*
X51168Y-26651D01*
X51083Y-26686D01*
X51007Y-26736D01*
X50942Y-26799D01*
X50890Y-26874D01*
X50854Y-26958D01*
X50835Y-27047D01*
X50834Y-27139D01*
X50851Y-27228D01*
X50884Y-27313D01*
X50933Y-27390D01*
X50997Y-27455D01*
X51072Y-27507D01*
X51155Y-27544D01*
X51244Y-27563D01*
X51335Y-27565D01*
X51425Y-27549D01*
X51510Y-27516D01*
X51587Y-27468D01*
X51653Y-27405D01*
X51706Y-27330D01*
X51743Y-27247D01*
X51763Y-27158D01*
X51764Y-27054D01*
X51764Y-29560D01*
X50764Y-29560D01*
X50764Y-27054D01*
X50747Y-26965D01*
X50712Y-26880D01*
X50661Y-26804D01*
X50597Y-26740D01*
X50550Y-26707D01*
X50550Y-25242D01*
X50550Y-24957D01*
X50550Y-22242D01*
X50550Y-21957D01*
X50541Y-21869D01*
X50516Y-21785D01*
X50474Y-21708D01*
X50419Y-21640D01*
X50351Y-21584D01*
X50274Y-21542D01*
X50190Y-21516D01*
X50103Y-21507D01*
X50015Y-21515D01*
X49931Y-21539D01*
X49853Y-21580D01*
X49785Y-21635D01*
X49764Y-21659D01*
X49764Y-20054D01*
X49747Y-19965D01*
X49712Y-19880D01*
X49661Y-19804D01*
X49597Y-19740D01*
X49522Y-19689D01*
X49438Y-19653D01*
X49348Y-19635D01*
X49257Y-19634D01*
X49168Y-19651D01*
X49083Y-19686D01*
X49007Y-19736D01*
X48942Y-19799D01*
X48890Y-19874D01*
X48854Y-19958D01*
X48835Y-20047D01*
X48834Y-20139D01*
X48851Y-20228D01*
X48884Y-20313D01*
X48933Y-20390D01*
X48997Y-20455D01*
X49072Y-20507D01*
X49155Y-20544D01*
X49244Y-20563D01*
X49335Y-20565D01*
X49425Y-20549D01*
X49510Y-20516D01*
X49587Y-20468D01*
X49653Y-20405D01*
X49706Y-20330D01*
X49743Y-20247D01*
X49763Y-20158D01*
X49764Y-20054D01*
X49764Y-21659D01*
X49728Y-21702D01*
X49686Y-21779D01*
X49659Y-21863D01*
X49650Y-21950D01*
X49650Y-21957D01*
X49650Y-22242D01*
X49658Y-22330D01*
X49683Y-22414D01*
X49725Y-22491D01*
X49780Y-22559D01*
X49848Y-22615D01*
X49925Y-22657D01*
X50009Y-22683D01*
X50096Y-22692D01*
X50184Y-22684D01*
X50268Y-22660D01*
X50346Y-22619D01*
X50414Y-22564D01*
X50471Y-22497D01*
X50513Y-22420D01*
X50540Y-22336D01*
X50549Y-22249D01*
X50550Y-22242D01*
X50550Y-24957D01*
X50541Y-24869D01*
X50516Y-24785D01*
X50474Y-24708D01*
X50419Y-24640D01*
X50351Y-24584D01*
X50274Y-24542D01*
X50190Y-24516D01*
X50103Y-24507D01*
X50015Y-24515D01*
X49931Y-24539D01*
X49853Y-24580D01*
X49785Y-24635D01*
X49728Y-24702D01*
X49686Y-24779D01*
X49659Y-24863D01*
X49650Y-24950D01*
X49650Y-24957D01*
X49650Y-25242D01*
X49658Y-25330D01*
X49683Y-25414D01*
X49725Y-25491D01*
X49780Y-25559D01*
X49848Y-25615D01*
X49925Y-25657D01*
X50009Y-25683D01*
X50096Y-25692D01*
X50184Y-25684D01*
X50268Y-25660D01*
X50346Y-25619D01*
X50414Y-25564D01*
X50471Y-25497D01*
X50513Y-25420D01*
X50540Y-25336D01*
X50549Y-25249D01*
X50550Y-25242D01*
X50550Y-26707D01*
X50522Y-26689D01*
X50438Y-26653D01*
X50348Y-26635D01*
X50257Y-26634D01*
X50168Y-26651D01*
X50083Y-26686D01*
X50007Y-26736D01*
X49942Y-26799D01*
X49890Y-26874D01*
X49854Y-26958D01*
X49835Y-27047D01*
X49834Y-27139D01*
X49851Y-27228D01*
X49884Y-27313D01*
X49933Y-27390D01*
X49997Y-27455D01*
X50072Y-27507D01*
X50155Y-27544D01*
X50244Y-27563D01*
X50335Y-27565D01*
X50425Y-27549D01*
X50510Y-27516D01*
X50587Y-27468D01*
X50653Y-27405D01*
X50706Y-27330D01*
X50743Y-27247D01*
X50763Y-27158D01*
X50764Y-27054D01*
X50764Y-29560D01*
X49764Y-29560D01*
X49764Y-27054D01*
X49747Y-26965D01*
X49712Y-26880D01*
X49661Y-26804D01*
X49597Y-26740D01*
X49550Y-26707D01*
X49550Y-25242D01*
X49550Y-24957D01*
X49550Y-22242D01*
X49550Y-21957D01*
X49541Y-21869D01*
X49516Y-21785D01*
X49474Y-21708D01*
X49419Y-21640D01*
X49351Y-21584D01*
X49274Y-21542D01*
X49190Y-21516D01*
X49103Y-21507D01*
X49015Y-21515D01*
X48931Y-21539D01*
X48853Y-21580D01*
X48785Y-21635D01*
X48764Y-21659D01*
X48764Y-20054D01*
X48747Y-19965D01*
X48712Y-19880D01*
X48661Y-19804D01*
X48597Y-19740D01*
X48522Y-19689D01*
X48438Y-19653D01*
X48348Y-19635D01*
X48257Y-19634D01*
X48168Y-19651D01*
X48083Y-19686D01*
X48007Y-19736D01*
X47942Y-19799D01*
X47890Y-19874D01*
X47854Y-19958D01*
X47835Y-20047D01*
X47834Y-20139D01*
X47851Y-20228D01*
X47884Y-20313D01*
X47933Y-20390D01*
X47997Y-20455D01*
X48072Y-20507D01*
X48155Y-20544D01*
X48244Y-20563D01*
X48335Y-20565D01*
X48425Y-20549D01*
X48510Y-20516D01*
X48587Y-20468D01*
X48653Y-20405D01*
X48706Y-20330D01*
X48743Y-20247D01*
X48763Y-20158D01*
X48764Y-20054D01*
X48764Y-21659D01*
X48728Y-21702D01*
X48686Y-21779D01*
X48659Y-21863D01*
X48650Y-21950D01*
X48650Y-21957D01*
X48650Y-22242D01*
X48658Y-22330D01*
X48683Y-22414D01*
X48725Y-22491D01*
X48780Y-22559D01*
X48848Y-22615D01*
X48925Y-22657D01*
X49009Y-22683D01*
X49096Y-22692D01*
X49184Y-22684D01*
X49268Y-22660D01*
X49346Y-22619D01*
X49414Y-22564D01*
X49471Y-22497D01*
X49513Y-22420D01*
X49540Y-22336D01*
X49549Y-22249D01*
X49550Y-22242D01*
X49550Y-24957D01*
X49541Y-24869D01*
X49516Y-24785D01*
X49474Y-24708D01*
X49419Y-24640D01*
X49351Y-24584D01*
X49274Y-24542D01*
X49190Y-24516D01*
X49103Y-24507D01*
X49015Y-24515D01*
X48931Y-24539D01*
X48853Y-24580D01*
X48785Y-24635D01*
X48728Y-24702D01*
X48686Y-24779D01*
X48659Y-24863D01*
X48650Y-24950D01*
X48650Y-24957D01*
X48650Y-25242D01*
X48658Y-25330D01*
X48683Y-25414D01*
X48725Y-25491D01*
X48780Y-25559D01*
X48848Y-25615D01*
X48925Y-25657D01*
X49009Y-25683D01*
X49096Y-25692D01*
X49184Y-25684D01*
X49268Y-25660D01*
X49346Y-25619D01*
X49414Y-25564D01*
X49471Y-25497D01*
X49513Y-25420D01*
X49540Y-25336D01*
X49549Y-25249D01*
X49550Y-25242D01*
X49550Y-26707D01*
X49522Y-26689D01*
X49438Y-26653D01*
X49348Y-26635D01*
X49257Y-26634D01*
X49168Y-26651D01*
X49083Y-26686D01*
X49007Y-26736D01*
X48942Y-26799D01*
X48890Y-26874D01*
X48854Y-26958D01*
X48835Y-27047D01*
X48834Y-27139D01*
X48851Y-27228D01*
X48884Y-27313D01*
X48933Y-27390D01*
X48997Y-27455D01*
X49072Y-27507D01*
X49155Y-27544D01*
X49244Y-27563D01*
X49335Y-27565D01*
X49425Y-27549D01*
X49510Y-27516D01*
X49587Y-27468D01*
X49653Y-27405D01*
X49706Y-27330D01*
X49743Y-27247D01*
X49763Y-27158D01*
X49764Y-27054D01*
X49764Y-29560D01*
X48764Y-29560D01*
X48764Y-27054D01*
X48747Y-26965D01*
X48712Y-26880D01*
X48661Y-26804D01*
X48597Y-26740D01*
X48550Y-26707D01*
X48550Y-25242D01*
X48550Y-24957D01*
X48550Y-22242D01*
X48550Y-21957D01*
X48541Y-21869D01*
X48516Y-21785D01*
X48474Y-21708D01*
X48419Y-21640D01*
X48351Y-21584D01*
X48274Y-21542D01*
X48190Y-21516D01*
X48103Y-21507D01*
X48015Y-21515D01*
X47931Y-21539D01*
X47853Y-21580D01*
X47785Y-21635D01*
X47764Y-21659D01*
X47764Y-20054D01*
X47747Y-19965D01*
X47712Y-19880D01*
X47661Y-19804D01*
X47597Y-19740D01*
X47522Y-19689D01*
X47438Y-19653D01*
X47348Y-19635D01*
X47257Y-19634D01*
X47168Y-19651D01*
X47083Y-19686D01*
X47007Y-19736D01*
X46942Y-19799D01*
X46890Y-19874D01*
X46854Y-19958D01*
X46851Y-19973D01*
X46848Y-19954D01*
X46809Y-19850D01*
X46791Y-19816D01*
X46698Y-19786D01*
X46613Y-19870D01*
X46613Y-19701D01*
X46583Y-19608D01*
X46482Y-19562D01*
X46374Y-19537D01*
X46263Y-19533D01*
X46154Y-19551D01*
X46050Y-19590D01*
X46016Y-19608D01*
X45986Y-19701D01*
X46300Y-20015D01*
X46613Y-19701D01*
X46613Y-19870D01*
X46384Y-20100D01*
X46698Y-20413D01*
X46791Y-20383D01*
X46837Y-20282D01*
X46850Y-20226D01*
X46851Y-20228D01*
X46884Y-20313D01*
X46933Y-20390D01*
X46997Y-20455D01*
X47072Y-20507D01*
X47155Y-20544D01*
X47244Y-20563D01*
X47335Y-20565D01*
X47425Y-20549D01*
X47510Y-20516D01*
X47587Y-20468D01*
X47653Y-20405D01*
X47706Y-20330D01*
X47743Y-20247D01*
X47763Y-20158D01*
X47764Y-20054D01*
X47764Y-21659D01*
X47728Y-21702D01*
X47686Y-21779D01*
X47659Y-21863D01*
X47650Y-21950D01*
X47650Y-21957D01*
X47650Y-22242D01*
X47658Y-22330D01*
X47683Y-22414D01*
X47725Y-22491D01*
X47780Y-22559D01*
X47848Y-22615D01*
X47925Y-22657D01*
X48009Y-22683D01*
X48096Y-22692D01*
X48184Y-22684D01*
X48268Y-22660D01*
X48346Y-22619D01*
X48414Y-22564D01*
X48471Y-22497D01*
X48513Y-22420D01*
X48540Y-22336D01*
X48549Y-22249D01*
X48550Y-22242D01*
X48550Y-24957D01*
X48541Y-24869D01*
X48516Y-24785D01*
X48474Y-24708D01*
X48419Y-24640D01*
X48351Y-24584D01*
X48274Y-24542D01*
X48190Y-24516D01*
X48103Y-24507D01*
X48015Y-24515D01*
X47931Y-24539D01*
X47853Y-24580D01*
X47785Y-24635D01*
X47728Y-24702D01*
X47686Y-24779D01*
X47659Y-24863D01*
X47650Y-24950D01*
X47650Y-24957D01*
X47650Y-25242D01*
X47658Y-25330D01*
X47683Y-25414D01*
X47725Y-25491D01*
X47780Y-25559D01*
X47848Y-25615D01*
X47925Y-25657D01*
X48009Y-25683D01*
X48096Y-25692D01*
X48184Y-25684D01*
X48268Y-25660D01*
X48346Y-25619D01*
X48414Y-25564D01*
X48471Y-25497D01*
X48513Y-25420D01*
X48540Y-25336D01*
X48549Y-25249D01*
X48550Y-25242D01*
X48550Y-26707D01*
X48522Y-26689D01*
X48438Y-26653D01*
X48348Y-26635D01*
X48257Y-26634D01*
X48168Y-26651D01*
X48083Y-26686D01*
X48007Y-26736D01*
X47942Y-26799D01*
X47890Y-26874D01*
X47854Y-26958D01*
X47835Y-27047D01*
X47834Y-27139D01*
X47851Y-27228D01*
X47884Y-27313D01*
X47933Y-27390D01*
X47997Y-27455D01*
X48072Y-27507D01*
X48155Y-27544D01*
X48244Y-27563D01*
X48335Y-27565D01*
X48425Y-27549D01*
X48510Y-27516D01*
X48587Y-27468D01*
X48653Y-27405D01*
X48706Y-27330D01*
X48743Y-27247D01*
X48763Y-27158D01*
X48764Y-27054D01*
X48764Y-29560D01*
X47764Y-29560D01*
X47764Y-27054D01*
X47747Y-26965D01*
X47712Y-26880D01*
X47661Y-26804D01*
X47597Y-26740D01*
X47550Y-26707D01*
X47550Y-25242D01*
X47550Y-24957D01*
X47550Y-22242D01*
X47550Y-21957D01*
X47541Y-21869D01*
X47516Y-21785D01*
X47474Y-21708D01*
X47419Y-21640D01*
X47351Y-21584D01*
X47274Y-21542D01*
X47190Y-21516D01*
X47103Y-21507D01*
X47015Y-21515D01*
X46931Y-21539D01*
X46853Y-21580D01*
X46785Y-21635D01*
X46728Y-21702D01*
X46686Y-21779D01*
X46659Y-21863D01*
X46650Y-21950D01*
X46650Y-21957D01*
X46650Y-22242D01*
X46658Y-22330D01*
X46683Y-22414D01*
X46725Y-22491D01*
X46780Y-22559D01*
X46848Y-22615D01*
X46925Y-22657D01*
X47009Y-22683D01*
X47096Y-22692D01*
X47184Y-22684D01*
X47268Y-22660D01*
X47346Y-22619D01*
X47414Y-22564D01*
X47471Y-22497D01*
X47513Y-22420D01*
X47540Y-22336D01*
X47549Y-22249D01*
X47550Y-22242D01*
X47550Y-24957D01*
X47541Y-24869D01*
X47516Y-24785D01*
X47474Y-24708D01*
X47419Y-24640D01*
X47351Y-24584D01*
X47274Y-24542D01*
X47190Y-24516D01*
X47103Y-24507D01*
X47015Y-24515D01*
X46931Y-24539D01*
X46853Y-24580D01*
X46785Y-24635D01*
X46728Y-24702D01*
X46686Y-24779D01*
X46659Y-24863D01*
X46650Y-24950D01*
X46650Y-24957D01*
X46650Y-25242D01*
X46658Y-25330D01*
X46683Y-25414D01*
X46725Y-25491D01*
X46780Y-25559D01*
X46848Y-25615D01*
X46925Y-25657D01*
X47009Y-25683D01*
X47096Y-25692D01*
X47184Y-25684D01*
X47268Y-25660D01*
X47346Y-25619D01*
X47414Y-25564D01*
X47471Y-25497D01*
X47513Y-25420D01*
X47540Y-25336D01*
X47549Y-25249D01*
X47550Y-25242D01*
X47550Y-26707D01*
X47522Y-26689D01*
X47438Y-26653D01*
X47348Y-26635D01*
X47257Y-26634D01*
X47168Y-26651D01*
X47083Y-26686D01*
X47007Y-26736D01*
X46942Y-26799D01*
X46890Y-26874D01*
X46854Y-26958D01*
X46851Y-26973D01*
X46848Y-26954D01*
X46809Y-26850D01*
X46791Y-26816D01*
X46698Y-26786D01*
X46613Y-26870D01*
X46613Y-26701D01*
X46613Y-20498D01*
X46300Y-20184D01*
X46215Y-20269D01*
X46215Y-20100D01*
X45901Y-19786D01*
X45808Y-19816D01*
X45762Y-19917D01*
X45737Y-20025D01*
X45733Y-20136D01*
X45751Y-20245D01*
X45790Y-20349D01*
X45808Y-20383D01*
X45901Y-20413D01*
X46215Y-20100D01*
X46215Y-20269D01*
X45986Y-20498D01*
X46016Y-20591D01*
X46117Y-20637D01*
X46225Y-20662D01*
X46336Y-20666D01*
X46445Y-20648D01*
X46549Y-20609D01*
X46583Y-20591D01*
X46613Y-20498D01*
X46613Y-26701D01*
X46583Y-26608D01*
X46482Y-26562D01*
X46374Y-26537D01*
X46263Y-26533D01*
X46154Y-26551D01*
X46050Y-26590D01*
X46016Y-26608D01*
X45986Y-26701D01*
X46300Y-27015D01*
X46613Y-26701D01*
X46613Y-26870D01*
X46384Y-27100D01*
X46698Y-27413D01*
X46791Y-27383D01*
X46837Y-27282D01*
X46850Y-27226D01*
X46851Y-27228D01*
X46884Y-27313D01*
X46933Y-27390D01*
X46997Y-27455D01*
X47072Y-27507D01*
X47155Y-27544D01*
X47244Y-27563D01*
X47335Y-27565D01*
X47425Y-27549D01*
X47510Y-27516D01*
X47587Y-27468D01*
X47653Y-27405D01*
X47706Y-27330D01*
X47743Y-27247D01*
X47763Y-27158D01*
X47764Y-27054D01*
X47764Y-29560D01*
X46613Y-29560D01*
X46613Y-27498D01*
X46300Y-27184D01*
X46215Y-27269D01*
X46215Y-27100D01*
X45901Y-26786D01*
X45808Y-26816D01*
X45762Y-26917D01*
X45737Y-27025D01*
X45733Y-27136D01*
X45751Y-27245D01*
X45790Y-27349D01*
X45808Y-27383D01*
X45901Y-27413D01*
X46215Y-27100D01*
X46215Y-27269D01*
X45986Y-27498D01*
X46016Y-27591D01*
X46117Y-27637D01*
X46225Y-27662D01*
X46336Y-27666D01*
X46445Y-27648D01*
X46549Y-27609D01*
X46583Y-27591D01*
X46613Y-27498D01*
X46613Y-29560D01*
X44764Y-29560D01*
X44764Y-20412D01*
X44764Y-19761D01*
X44759Y-19734D01*
X44749Y-19709D01*
X44733Y-19686D01*
X44714Y-19666D01*
X44691Y-19651D01*
X44666Y-19640D01*
X44639Y-19635D01*
X44612Y-19635D01*
X43961Y-19635D01*
X43934Y-19640D01*
X43909Y-19650D01*
X43886Y-19666D01*
X43866Y-19685D01*
X43851Y-19708D01*
X43840Y-19733D01*
X43835Y-19760D01*
X43835Y-19787D01*
X43835Y-20438D01*
X43840Y-20465D01*
X43850Y-20490D01*
X43866Y-20513D01*
X43885Y-20533D01*
X43908Y-20548D01*
X43933Y-20559D01*
X43960Y-20564D01*
X43987Y-20564D01*
X44638Y-20564D01*
X44665Y-20559D01*
X44690Y-20549D01*
X44713Y-20533D01*
X44733Y-20514D01*
X44748Y-20491D01*
X44759Y-20466D01*
X44764Y-20439D01*
X44764Y-20412D01*
X44764Y-29560D01*
X44764Y-29560D01*
X44764Y-27054D01*
X44764Y-26054D01*
X44764Y-25054D01*
X44764Y-24054D01*
X44764Y-23054D01*
X44764Y-22054D01*
X44764Y-21054D01*
X44747Y-20965D01*
X44712Y-20880D01*
X44661Y-20804D01*
X44597Y-20740D01*
X44522Y-20689D01*
X44438Y-20653D01*
X44348Y-20635D01*
X44257Y-20634D01*
X44168Y-20651D01*
X44083Y-20686D01*
X44007Y-20736D01*
X43942Y-20799D01*
X43890Y-20874D01*
X43854Y-20958D01*
X43835Y-21047D01*
X43834Y-21139D01*
X43851Y-21228D01*
X43884Y-21313D01*
X43933Y-21390D01*
X43997Y-21455D01*
X44072Y-21507D01*
X44155Y-21544D01*
X44244Y-21563D01*
X44335Y-21565D01*
X44425Y-21549D01*
X44510Y-21516D01*
X44587Y-21468D01*
X44653Y-21405D01*
X44706Y-21330D01*
X44743Y-21247D01*
X44763Y-21158D01*
X44764Y-21054D01*
X44764Y-22054D01*
X44747Y-21965D01*
X44712Y-21880D01*
X44661Y-21804D01*
X44597Y-21740D01*
X44522Y-21689D01*
X44438Y-21653D01*
X44348Y-21635D01*
X44257Y-21634D01*
X44168Y-21651D01*
X44083Y-21686D01*
X44007Y-21736D01*
X43942Y-21799D01*
X43890Y-21874D01*
X43854Y-21958D01*
X43835Y-22047D01*
X43834Y-22139D01*
X43851Y-22228D01*
X43884Y-22313D01*
X43933Y-22390D01*
X43997Y-22455D01*
X44072Y-22507D01*
X44155Y-22544D01*
X44244Y-22563D01*
X44335Y-22565D01*
X44425Y-22549D01*
X44510Y-22516D01*
X44587Y-22468D01*
X44653Y-22405D01*
X44706Y-22330D01*
X44743Y-22247D01*
X44763Y-22158D01*
X44764Y-22054D01*
X44764Y-23054D01*
X44747Y-22965D01*
X44712Y-22880D01*
X44661Y-22804D01*
X44597Y-22740D01*
X44522Y-22689D01*
X44438Y-22653D01*
X44348Y-22635D01*
X44257Y-22634D01*
X44168Y-22651D01*
X44083Y-22686D01*
X44007Y-22736D01*
X43942Y-22799D01*
X43890Y-22874D01*
X43854Y-22958D01*
X43835Y-23047D01*
X43834Y-23139D01*
X43851Y-23228D01*
X43884Y-23313D01*
X43933Y-23390D01*
X43997Y-23455D01*
X44072Y-23507D01*
X44155Y-23544D01*
X44244Y-23563D01*
X44335Y-23565D01*
X44425Y-23549D01*
X44510Y-23516D01*
X44587Y-23468D01*
X44653Y-23405D01*
X44706Y-23330D01*
X44743Y-23247D01*
X44763Y-23158D01*
X44764Y-23054D01*
X44764Y-24054D01*
X44747Y-23965D01*
X44712Y-23880D01*
X44661Y-23804D01*
X44597Y-23740D01*
X44522Y-23689D01*
X44438Y-23653D01*
X44348Y-23635D01*
X44257Y-23634D01*
X44168Y-23651D01*
X44083Y-23686D01*
X44007Y-23736D01*
X43942Y-23799D01*
X43890Y-23874D01*
X43854Y-23958D01*
X43835Y-24047D01*
X43834Y-24139D01*
X43851Y-24228D01*
X43884Y-24313D01*
X43933Y-24390D01*
X43997Y-24455D01*
X44072Y-24507D01*
X44155Y-24544D01*
X44244Y-24563D01*
X44335Y-24565D01*
X44425Y-24549D01*
X44510Y-24516D01*
X44587Y-24468D01*
X44653Y-24405D01*
X44706Y-24330D01*
X44743Y-24247D01*
X44763Y-24158D01*
X44764Y-24054D01*
X44764Y-25054D01*
X44747Y-24965D01*
X44712Y-24880D01*
X44661Y-24804D01*
X44597Y-24740D01*
X44522Y-24689D01*
X44438Y-24653D01*
X44348Y-24635D01*
X44257Y-24634D01*
X44168Y-24651D01*
X44083Y-24686D01*
X44007Y-24736D01*
X43942Y-24799D01*
X43890Y-24874D01*
X43854Y-24958D01*
X43835Y-25047D01*
X43834Y-25139D01*
X43851Y-25228D01*
X43884Y-25313D01*
X43933Y-25390D01*
X43997Y-25455D01*
X44072Y-25507D01*
X44155Y-25544D01*
X44244Y-25563D01*
X44335Y-25565D01*
X44425Y-25549D01*
X44510Y-25516D01*
X44587Y-25468D01*
X44653Y-25405D01*
X44706Y-25330D01*
X44743Y-25247D01*
X44763Y-25158D01*
X44764Y-25054D01*
X44764Y-26054D01*
X44747Y-25965D01*
X44712Y-25880D01*
X44661Y-25804D01*
X44597Y-25740D01*
X44522Y-25689D01*
X44438Y-25653D01*
X44348Y-25635D01*
X44257Y-25634D01*
X44168Y-25651D01*
X44083Y-25686D01*
X44007Y-25736D01*
X43942Y-25799D01*
X43890Y-25874D01*
X43854Y-25958D01*
X43835Y-26047D01*
X43834Y-26139D01*
X43851Y-26228D01*
X43884Y-26313D01*
X43933Y-26390D01*
X43997Y-26455D01*
X44072Y-26507D01*
X44155Y-26544D01*
X44244Y-26563D01*
X44335Y-26565D01*
X44425Y-26549D01*
X44510Y-26516D01*
X44587Y-26468D01*
X44653Y-26405D01*
X44706Y-26330D01*
X44743Y-26247D01*
X44763Y-26158D01*
X44764Y-26054D01*
X44764Y-27054D01*
X44747Y-26965D01*
X44712Y-26880D01*
X44661Y-26804D01*
X44597Y-26740D01*
X44522Y-26689D01*
X44438Y-26653D01*
X44348Y-26635D01*
X44257Y-26634D01*
X44168Y-26651D01*
X44083Y-26686D01*
X44007Y-26736D01*
X43942Y-26799D01*
X43890Y-26874D01*
X43854Y-26958D01*
X43835Y-27047D01*
X43834Y-27139D01*
X43851Y-27228D01*
X43884Y-27313D01*
X43933Y-27390D01*
X43997Y-27455D01*
X44072Y-27507D01*
X44155Y-27544D01*
X44244Y-27563D01*
X44335Y-27565D01*
X44425Y-27549D01*
X44510Y-27516D01*
X44587Y-27468D01*
X44653Y-27405D01*
X44706Y-27330D01*
X44743Y-27247D01*
X44763Y-27158D01*
X44764Y-27054D01*
X44764Y-29560D01*
X43764Y-29560D01*
X43764Y-20412D01*
X43764Y-19761D01*
X43759Y-19734D01*
X43749Y-19709D01*
X43733Y-19686D01*
X43714Y-19666D01*
X43691Y-19651D01*
X43666Y-19640D01*
X43639Y-19635D01*
X43612Y-19635D01*
X42961Y-19635D01*
X42934Y-19640D01*
X42909Y-19650D01*
X42886Y-19666D01*
X42866Y-19685D01*
X42851Y-19708D01*
X42840Y-19733D01*
X42835Y-19760D01*
X42835Y-19787D01*
X42835Y-20438D01*
X42840Y-20465D01*
X42850Y-20490D01*
X42866Y-20513D01*
X42885Y-20533D01*
X42908Y-20548D01*
X42933Y-20559D01*
X42960Y-20564D01*
X42987Y-20564D01*
X43638Y-20564D01*
X43665Y-20559D01*
X43690Y-20549D01*
X43713Y-20533D01*
X43733Y-20514D01*
X43748Y-20491D01*
X43759Y-20466D01*
X43764Y-20439D01*
X43764Y-20412D01*
X43764Y-29560D01*
X43764Y-29560D01*
X43764Y-27054D01*
X43764Y-26054D01*
X43764Y-25054D01*
X43764Y-24054D01*
X43764Y-23054D01*
X43764Y-22054D01*
X43764Y-21054D01*
X43747Y-20965D01*
X43712Y-20880D01*
X43661Y-20804D01*
X43597Y-20740D01*
X43522Y-20689D01*
X43438Y-20653D01*
X43348Y-20635D01*
X43257Y-20634D01*
X43168Y-20651D01*
X43083Y-20686D01*
X43007Y-20736D01*
X42942Y-20799D01*
X42890Y-20874D01*
X42854Y-20958D01*
X42835Y-21047D01*
X42834Y-21139D01*
X42851Y-21228D01*
X42884Y-21313D01*
X42933Y-21390D01*
X42997Y-21455D01*
X43072Y-21507D01*
X43155Y-21544D01*
X43244Y-21563D01*
X43335Y-21565D01*
X43425Y-21549D01*
X43510Y-21516D01*
X43587Y-21468D01*
X43653Y-21405D01*
X43706Y-21330D01*
X43743Y-21247D01*
X43763Y-21158D01*
X43764Y-21054D01*
X43764Y-22054D01*
X43747Y-21965D01*
X43712Y-21880D01*
X43661Y-21804D01*
X43597Y-21740D01*
X43522Y-21689D01*
X43438Y-21653D01*
X43348Y-21635D01*
X43257Y-21634D01*
X43168Y-21651D01*
X43083Y-21686D01*
X43007Y-21736D01*
X42942Y-21799D01*
X42890Y-21874D01*
X42854Y-21958D01*
X42835Y-22047D01*
X42834Y-22139D01*
X42851Y-22228D01*
X42884Y-22313D01*
X42933Y-22390D01*
X42997Y-22455D01*
X43072Y-22507D01*
X43155Y-22544D01*
X43244Y-22563D01*
X43335Y-22565D01*
X43425Y-22549D01*
X43510Y-22516D01*
X43587Y-22468D01*
X43653Y-22405D01*
X43706Y-22330D01*
X43743Y-22247D01*
X43763Y-22158D01*
X43764Y-22054D01*
X43764Y-23054D01*
X43747Y-22965D01*
X43712Y-22880D01*
X43661Y-22804D01*
X43597Y-22740D01*
X43522Y-22689D01*
X43438Y-22653D01*
X43348Y-22635D01*
X43257Y-22634D01*
X43168Y-22651D01*
X43083Y-22686D01*
X43007Y-22736D01*
X42942Y-22799D01*
X42890Y-22874D01*
X42854Y-22958D01*
X42835Y-23047D01*
X42834Y-23139D01*
X42851Y-23228D01*
X42884Y-23313D01*
X42933Y-23390D01*
X42997Y-23455D01*
X43072Y-23507D01*
X43155Y-23544D01*
X43244Y-23563D01*
X43335Y-23565D01*
X43425Y-23549D01*
X43510Y-23516D01*
X43587Y-23468D01*
X43653Y-23405D01*
X43706Y-23330D01*
X43743Y-23247D01*
X43763Y-23158D01*
X43764Y-23054D01*
X43764Y-24054D01*
X43747Y-23965D01*
X43712Y-23880D01*
X43661Y-23804D01*
X43597Y-23740D01*
X43522Y-23689D01*
X43438Y-23653D01*
X43348Y-23635D01*
X43257Y-23634D01*
X43168Y-23651D01*
X43083Y-23686D01*
X43007Y-23736D01*
X42942Y-23799D01*
X42890Y-23874D01*
X42854Y-23958D01*
X42835Y-24047D01*
X42834Y-24139D01*
X42851Y-24228D01*
X42884Y-24313D01*
X42933Y-24390D01*
X42997Y-24455D01*
X43072Y-24507D01*
X43155Y-24544D01*
X43244Y-24563D01*
X43335Y-24565D01*
X43425Y-24549D01*
X43510Y-24516D01*
X43587Y-24468D01*
X43653Y-24405D01*
X43706Y-24330D01*
X43743Y-24247D01*
X43763Y-24158D01*
X43764Y-24054D01*
X43764Y-25054D01*
X43747Y-24965D01*
X43712Y-24880D01*
X43661Y-24804D01*
X43597Y-24740D01*
X43522Y-24689D01*
X43438Y-24653D01*
X43348Y-24635D01*
X43257Y-24634D01*
X43168Y-24651D01*
X43083Y-24686D01*
X43007Y-24736D01*
X42942Y-24799D01*
X42890Y-24874D01*
X42854Y-24958D01*
X42835Y-25047D01*
X42834Y-25139D01*
X42851Y-25228D01*
X42884Y-25313D01*
X42933Y-25390D01*
X42997Y-25455D01*
X43072Y-25507D01*
X43155Y-25544D01*
X43244Y-25563D01*
X43335Y-25565D01*
X43425Y-25549D01*
X43510Y-25516D01*
X43587Y-25468D01*
X43653Y-25405D01*
X43706Y-25330D01*
X43743Y-25247D01*
X43763Y-25158D01*
X43764Y-25054D01*
X43764Y-26054D01*
X43747Y-25965D01*
X43712Y-25880D01*
X43661Y-25804D01*
X43597Y-25740D01*
X43522Y-25689D01*
X43438Y-25653D01*
X43348Y-25635D01*
X43257Y-25634D01*
X43168Y-25651D01*
X43083Y-25686D01*
X43007Y-25736D01*
X42942Y-25799D01*
X42890Y-25874D01*
X42854Y-25958D01*
X42835Y-26047D01*
X42834Y-26139D01*
X42851Y-26228D01*
X42884Y-26313D01*
X42933Y-26390D01*
X42997Y-26455D01*
X43072Y-26507D01*
X43155Y-26544D01*
X43244Y-26563D01*
X43335Y-26565D01*
X43425Y-26549D01*
X43510Y-26516D01*
X43587Y-26468D01*
X43653Y-26405D01*
X43706Y-26330D01*
X43743Y-26247D01*
X43763Y-26158D01*
X43764Y-26054D01*
X43764Y-27054D01*
X43747Y-26965D01*
X43712Y-26880D01*
X43661Y-26804D01*
X43597Y-26740D01*
X43522Y-26689D01*
X43438Y-26653D01*
X43348Y-26635D01*
X43257Y-26634D01*
X43168Y-26651D01*
X43083Y-26686D01*
X43007Y-26736D01*
X42942Y-26799D01*
X42890Y-26874D01*
X42854Y-26958D01*
X42835Y-27047D01*
X42834Y-27139D01*
X42851Y-27228D01*
X42884Y-27313D01*
X42933Y-27390D01*
X42997Y-27455D01*
X43072Y-27507D01*
X43155Y-27544D01*
X43244Y-27563D01*
X43335Y-27565D01*
X43425Y-27549D01*
X43510Y-27516D01*
X43587Y-27468D01*
X43653Y-27405D01*
X43706Y-27330D01*
X43743Y-27247D01*
X43763Y-27158D01*
X43764Y-27054D01*
X43764Y-29560D01*
X41940Y-29560D01*
X41940Y-17640D01*
X58260Y-17640D01*
X58260Y-29560D01*
X58260Y-29560D01*
G37*
G54D20*
X58260Y-29560D02*
X58014Y-29560D01*
X58014Y-24554D01*
X58014Y-22554D01*
X57997Y-22465D01*
X57962Y-22380D01*
X57911Y-22304D01*
X57847Y-22240D01*
X57772Y-22189D01*
X57688Y-22153D01*
X57598Y-22135D01*
X57507Y-22134D01*
X57418Y-22151D01*
X57333Y-22186D01*
X57257Y-22236D01*
X57192Y-22299D01*
X57140Y-22374D01*
X57104Y-22458D01*
X57085Y-22547D01*
X57084Y-22639D01*
X57101Y-22728D01*
X57134Y-22813D01*
X57183Y-22890D01*
X57247Y-22955D01*
X57322Y-23007D01*
X57405Y-23044D01*
X57494Y-23063D01*
X57585Y-23065D01*
X57675Y-23049D01*
X57760Y-23016D01*
X57837Y-22968D01*
X57903Y-22905D01*
X57956Y-22830D01*
X57993Y-22747D01*
X58013Y-22658D01*
X58014Y-22554D01*
X58014Y-24554D01*
X57997Y-24465D01*
X57962Y-24380D01*
X57911Y-24304D01*
X57847Y-24240D01*
X57772Y-24189D01*
X57688Y-24153D01*
X57598Y-24135D01*
X57507Y-24134D01*
X57437Y-24148D01*
X56719Y-23430D01*
X56702Y-23416D01*
X56685Y-23401D01*
X56684Y-23401D01*
X56683Y-23400D01*
X56663Y-23390D01*
X56644Y-23379D01*
X56643Y-23379D01*
X56642Y-23378D01*
X56621Y-23371D01*
X56599Y-23365D01*
X56598Y-23365D01*
X56597Y-23364D01*
X56575Y-23362D01*
X56553Y-23360D01*
X56550Y-23360D01*
X56550Y-23360D01*
X56550Y-23360D01*
X56550Y-23360D01*
X55948Y-23360D01*
X55911Y-23304D01*
X55847Y-23240D01*
X55790Y-23201D01*
X55790Y-22949D01*
X56344Y-22394D01*
X56358Y-22377D01*
X56373Y-22360D01*
X56373Y-22359D01*
X56374Y-22358D01*
X56384Y-22338D01*
X56395Y-22319D01*
X56395Y-22318D01*
X56396Y-22317D01*
X56403Y-22296D01*
X56409Y-22274D01*
X56409Y-22273D01*
X56410Y-22272D01*
X56412Y-22250D01*
X56414Y-22228D01*
X56414Y-22225D01*
X56414Y-22225D01*
X56414Y-22225D01*
X56415Y-22225D01*
X56415Y-21734D01*
X56415Y-21734D01*
X56441Y-21724D01*
X56463Y-21709D01*
X56483Y-21689D01*
X56498Y-21666D01*
X56509Y-21641D01*
X56514Y-21614D01*
X56515Y-21587D01*
X56515Y-21186D01*
X56509Y-21159D01*
X56499Y-21133D01*
X56484Y-21111D01*
X56464Y-21091D01*
X56441Y-21076D01*
X56416Y-21065D01*
X56389Y-21060D01*
X56362Y-21059D01*
X56020Y-21059D01*
X56010Y-21046D01*
X55977Y-21013D01*
X55938Y-20987D01*
X55894Y-20969D01*
X55848Y-20959D01*
X55745Y-20960D01*
X55685Y-21020D01*
X55685Y-21340D01*
X55692Y-21340D01*
X55692Y-21460D01*
X55685Y-21460D01*
X55685Y-21780D01*
X55745Y-21840D01*
X55848Y-21840D01*
X55894Y-21830D01*
X55935Y-21814D01*
X55935Y-22125D01*
X55565Y-22495D01*
X55565Y-21780D01*
X55565Y-21460D01*
X55565Y-21340D01*
X55565Y-21020D01*
X55505Y-20960D01*
X55401Y-20959D01*
X55355Y-20969D01*
X55311Y-20987D01*
X55272Y-21013D01*
X55239Y-21046D01*
X55212Y-21085D01*
X55194Y-21128D01*
X55185Y-21174D01*
X55184Y-21221D01*
X55185Y-21280D01*
X55245Y-21340D01*
X55565Y-21340D01*
X55565Y-21460D01*
X55245Y-21460D01*
X55185Y-21520D01*
X55184Y-21578D01*
X55185Y-21625D01*
X55194Y-21671D01*
X55212Y-21714D01*
X55239Y-21753D01*
X55272Y-21786D01*
X55311Y-21812D01*
X55355Y-21830D01*
X55401Y-21840D01*
X55505Y-21840D01*
X55565Y-21780D01*
X55565Y-22495D01*
X55380Y-22680D01*
X55366Y-22697D01*
X55351Y-22714D01*
X55351Y-22715D01*
X55350Y-22716D01*
X55340Y-22736D01*
X55329Y-22755D01*
X55329Y-22756D01*
X55328Y-22757D01*
X55321Y-22778D01*
X55315Y-22800D01*
X55315Y-22801D01*
X55314Y-22802D01*
X55312Y-22824D01*
X55310Y-22846D01*
X55310Y-22849D01*
X55310Y-22849D01*
X55310Y-22849D01*
X55310Y-22850D01*
X55310Y-23201D01*
X55257Y-23236D01*
X55192Y-23299D01*
X55140Y-23374D01*
X55104Y-23458D01*
X55085Y-23547D01*
X55084Y-23639D01*
X55101Y-23728D01*
X55134Y-23813D01*
X55183Y-23890D01*
X55247Y-23955D01*
X55322Y-24007D01*
X55405Y-24044D01*
X55494Y-24063D01*
X55585Y-24065D01*
X55675Y-24049D01*
X55760Y-24016D01*
X55837Y-23968D01*
X55903Y-23905D01*
X55949Y-23840D01*
X56450Y-23840D01*
X57098Y-24488D01*
X57085Y-24547D01*
X57084Y-24639D01*
X57101Y-24728D01*
X57134Y-24813D01*
X57183Y-24890D01*
X57247Y-24955D01*
X57322Y-25007D01*
X57405Y-25044D01*
X57494Y-25063D01*
X57585Y-25065D01*
X57675Y-25049D01*
X57760Y-25016D01*
X57837Y-24968D01*
X57903Y-24905D01*
X57956Y-24830D01*
X57993Y-24747D01*
X58013Y-24658D01*
X58014Y-24554D01*
X58014Y-29560D01*
X54650Y-29560D01*
X54650Y-22528D01*
X54650Y-21671D01*
X54649Y-21624D01*
X54640Y-21578D01*
X54622Y-21535D01*
X54595Y-21496D01*
X54562Y-21463D01*
X54523Y-21437D01*
X54479Y-21419D01*
X54433Y-21409D01*
X54220Y-21410D01*
X54160Y-21470D01*
X54160Y-22040D01*
X54590Y-22040D01*
X54650Y-21980D01*
X54650Y-21671D01*
X54650Y-22528D01*
X54650Y-22220D01*
X54590Y-22160D01*
X54160Y-22160D01*
X54160Y-22730D01*
X54220Y-22790D01*
X54433Y-22790D01*
X54479Y-22780D01*
X54523Y-22762D01*
X54562Y-22736D01*
X54595Y-22703D01*
X54622Y-22664D01*
X54640Y-22621D01*
X54649Y-22575D01*
X54650Y-22528D01*
X54650Y-29560D01*
X54550Y-29560D01*
X54550Y-25242D01*
X54550Y-24957D01*
X54541Y-24869D01*
X54516Y-24785D01*
X54474Y-24708D01*
X54419Y-24640D01*
X54351Y-24584D01*
X54274Y-24542D01*
X54190Y-24516D01*
X54103Y-24507D01*
X54040Y-24512D01*
X54040Y-22730D01*
X54040Y-22160D01*
X53610Y-22160D01*
X53550Y-22220D01*
X53550Y-21980D01*
X53610Y-22040D01*
X54040Y-22040D01*
X54040Y-21470D01*
X53980Y-21410D01*
X53766Y-21409D01*
X53764Y-21410D01*
X53764Y-20412D01*
X53764Y-19761D01*
X53759Y-19734D01*
X53749Y-19709D01*
X53733Y-19686D01*
X53714Y-19666D01*
X53691Y-19651D01*
X53666Y-19640D01*
X53639Y-19635D01*
X53612Y-19635D01*
X52961Y-19635D01*
X52934Y-19640D01*
X52909Y-19650D01*
X52886Y-19666D01*
X52866Y-19685D01*
X52851Y-19708D01*
X52840Y-19733D01*
X52835Y-19760D01*
X52835Y-19787D01*
X52835Y-20438D01*
X52840Y-20465D01*
X52850Y-20490D01*
X52866Y-20513D01*
X52885Y-20533D01*
X52908Y-20548D01*
X52933Y-20559D01*
X52960Y-20564D01*
X52987Y-20564D01*
X53638Y-20564D01*
X53665Y-20559D01*
X53690Y-20549D01*
X53713Y-20533D01*
X53733Y-20514D01*
X53748Y-20491D01*
X53759Y-20466D01*
X53764Y-20439D01*
X53764Y-20412D01*
X53764Y-21410D01*
X53720Y-21419D01*
X53676Y-21437D01*
X53637Y-21463D01*
X53604Y-21496D01*
X53577Y-21535D01*
X53559Y-21578D01*
X53550Y-21624D01*
X53549Y-21671D01*
X53549Y-21957D01*
X53541Y-21869D01*
X53516Y-21785D01*
X53474Y-21708D01*
X53419Y-21640D01*
X53351Y-21584D01*
X53274Y-21542D01*
X53190Y-21516D01*
X53103Y-21507D01*
X53015Y-21515D01*
X52931Y-21539D01*
X52853Y-21580D01*
X52785Y-21635D01*
X52764Y-21659D01*
X52764Y-20054D01*
X52747Y-19965D01*
X52712Y-19880D01*
X52661Y-19804D01*
X52597Y-19740D01*
X52522Y-19689D01*
X52438Y-19653D01*
X52348Y-19635D01*
X52257Y-19634D01*
X52168Y-19651D01*
X52083Y-19686D01*
X52007Y-19736D01*
X51942Y-19799D01*
X51890Y-19874D01*
X51854Y-19958D01*
X51835Y-20047D01*
X51834Y-20139D01*
X51851Y-20228D01*
X51884Y-20313D01*
X51933Y-20390D01*
X51997Y-20455D01*
X52072Y-20507D01*
X52155Y-20544D01*
X52244Y-20563D01*
X52335Y-20565D01*
X52425Y-20549D01*
X52510Y-20516D01*
X52587Y-20468D01*
X52653Y-20405D01*
X52706Y-20330D01*
X52743Y-20247D01*
X52763Y-20158D01*
X52764Y-20054D01*
X52764Y-21659D01*
X52728Y-21702D01*
X52686Y-21779D01*
X52659Y-21863D01*
X52650Y-21950D01*
X52650Y-21957D01*
X52650Y-22242D01*
X52658Y-22330D01*
X52683Y-22414D01*
X52725Y-22491D01*
X52780Y-22559D01*
X52848Y-22615D01*
X52925Y-22657D01*
X53009Y-22683D01*
X53096Y-22692D01*
X53184Y-22684D01*
X53268Y-22660D01*
X53346Y-22619D01*
X53414Y-22564D01*
X53471Y-22497D01*
X53513Y-22420D01*
X53540Y-22336D01*
X53549Y-22249D01*
X53549Y-22244D01*
X53549Y-22528D01*
X53550Y-22575D01*
X53559Y-22621D01*
X53577Y-22664D01*
X53604Y-22703D01*
X53637Y-22736D01*
X53676Y-22762D01*
X53720Y-22780D01*
X53766Y-22790D01*
X53980Y-22790D01*
X54040Y-22730D01*
X54040Y-24512D01*
X54015Y-24515D01*
X53931Y-24539D01*
X53853Y-24580D01*
X53785Y-24635D01*
X53728Y-24702D01*
X53686Y-24779D01*
X53659Y-24863D01*
X53650Y-24950D01*
X53650Y-24957D01*
X53650Y-25242D01*
X53658Y-25330D01*
X53683Y-25414D01*
X53725Y-25491D01*
X53780Y-25559D01*
X53848Y-25615D01*
X53860Y-25622D01*
X53860Y-26200D01*
X53550Y-26510D01*
X53550Y-25242D01*
X53550Y-24957D01*
X53541Y-24869D01*
X53516Y-24785D01*
X53474Y-24708D01*
X53419Y-24640D01*
X53351Y-24584D01*
X53274Y-24542D01*
X53190Y-24516D01*
X53103Y-24507D01*
X53015Y-24515D01*
X52931Y-24539D01*
X52853Y-24580D01*
X52785Y-24635D01*
X52728Y-24702D01*
X52686Y-24779D01*
X52659Y-24863D01*
X52650Y-24950D01*
X52650Y-24957D01*
X52650Y-25242D01*
X52658Y-25330D01*
X52683Y-25414D01*
X52725Y-25491D01*
X52780Y-25559D01*
X52848Y-25615D01*
X52925Y-25657D01*
X53009Y-25683D01*
X53096Y-25692D01*
X53184Y-25684D01*
X53268Y-25660D01*
X53346Y-25619D01*
X53414Y-25564D01*
X53471Y-25497D01*
X53513Y-25420D01*
X53540Y-25336D01*
X53549Y-25249D01*
X53550Y-25242D01*
X53550Y-26510D01*
X53425Y-26635D01*
X52961Y-26635D01*
X52934Y-26640D01*
X52909Y-26650D01*
X52886Y-26666D01*
X52866Y-26685D01*
X52851Y-26708D01*
X52840Y-26733D01*
X52835Y-26760D01*
X52835Y-26787D01*
X52835Y-27438D01*
X52840Y-27465D01*
X52850Y-27490D01*
X52866Y-27513D01*
X52885Y-27533D01*
X52908Y-27548D01*
X52933Y-27559D01*
X52960Y-27564D01*
X52987Y-27564D01*
X53638Y-27564D01*
X53665Y-27559D01*
X53690Y-27549D01*
X53713Y-27533D01*
X53733Y-27514D01*
X53748Y-27491D01*
X53759Y-27466D01*
X53764Y-27439D01*
X53764Y-27412D01*
X53764Y-26974D01*
X54269Y-26469D01*
X54283Y-26452D01*
X54298Y-26435D01*
X54298Y-26434D01*
X54299Y-26433D01*
X54309Y-26413D01*
X54320Y-26394D01*
X54320Y-26393D01*
X54321Y-26392D01*
X54328Y-26371D01*
X54334Y-26349D01*
X54334Y-26348D01*
X54335Y-26347D01*
X54337Y-26325D01*
X54339Y-26303D01*
X54339Y-26300D01*
X54339Y-26300D01*
X54339Y-26300D01*
X54340Y-26300D01*
X54340Y-25622D01*
X54346Y-25619D01*
X54414Y-25564D01*
X54471Y-25497D01*
X54513Y-25420D01*
X54540Y-25336D01*
X54549Y-25249D01*
X54550Y-25242D01*
X54550Y-29560D01*
X52764Y-29560D01*
X52764Y-27054D01*
X52747Y-26965D01*
X52712Y-26880D01*
X52661Y-26804D01*
X52597Y-26740D01*
X52550Y-26707D01*
X52550Y-25242D01*
X52550Y-24957D01*
X52550Y-22242D01*
X52550Y-21957D01*
X52541Y-21869D01*
X52516Y-21785D01*
X52474Y-21708D01*
X52419Y-21640D01*
X52351Y-21584D01*
X52274Y-21542D01*
X52190Y-21516D01*
X52103Y-21507D01*
X52015Y-21515D01*
X51931Y-21539D01*
X51853Y-21580D01*
X51785Y-21635D01*
X51764Y-21659D01*
X51764Y-20054D01*
X51747Y-19965D01*
X51712Y-19880D01*
X51661Y-19804D01*
X51597Y-19740D01*
X51522Y-19689D01*
X51438Y-19653D01*
X51348Y-19635D01*
X51257Y-19634D01*
X51168Y-19651D01*
X51083Y-19686D01*
X51007Y-19736D01*
X50942Y-19799D01*
X50890Y-19874D01*
X50854Y-19958D01*
X50835Y-20047D01*
X50834Y-20139D01*
X50851Y-20228D01*
X50884Y-20313D01*
X50933Y-20390D01*
X50997Y-20455D01*
X51072Y-20507D01*
X51155Y-20544D01*
X51244Y-20563D01*
X51335Y-20565D01*
X51425Y-20549D01*
X51510Y-20516D01*
X51587Y-20468D01*
X51653Y-20405D01*
X51706Y-20330D01*
X51743Y-20247D01*
X51763Y-20158D01*
X51764Y-20054D01*
X51764Y-21659D01*
X51728Y-21702D01*
X51686Y-21779D01*
X51659Y-21863D01*
X51650Y-21950D01*
X51650Y-21957D01*
X51650Y-22242D01*
X51658Y-22330D01*
X51683Y-22414D01*
X51725Y-22491D01*
X51780Y-22559D01*
X51848Y-22615D01*
X51925Y-22657D01*
X52009Y-22683D01*
X52096Y-22692D01*
X52184Y-22684D01*
X52268Y-22660D01*
X52346Y-22619D01*
X52414Y-22564D01*
X52471Y-22497D01*
X52513Y-22420D01*
X52540Y-22336D01*
X52549Y-22249D01*
X52550Y-22242D01*
X52550Y-24957D01*
X52541Y-24869D01*
X52516Y-24785D01*
X52474Y-24708D01*
X52419Y-24640D01*
X52351Y-24584D01*
X52274Y-24542D01*
X52190Y-24516D01*
X52103Y-24507D01*
X52015Y-24515D01*
X51931Y-24539D01*
X51853Y-24580D01*
X51785Y-24635D01*
X51728Y-24702D01*
X51686Y-24779D01*
X51659Y-24863D01*
X51650Y-24950D01*
X51650Y-24957D01*
X51650Y-25242D01*
X51658Y-25330D01*
X51683Y-25414D01*
X51725Y-25491D01*
X51780Y-25559D01*
X51848Y-25615D01*
X51925Y-25657D01*
X52009Y-25683D01*
X52096Y-25692D01*
X52184Y-25684D01*
X52268Y-25660D01*
X52346Y-25619D01*
X52414Y-25564D01*
X52471Y-25497D01*
X52513Y-25420D01*
X52540Y-25336D01*
X52549Y-25249D01*
X52550Y-25242D01*
X52550Y-26707D01*
X52522Y-26689D01*
X52438Y-26653D01*
X52348Y-26635D01*
X52257Y-26634D01*
X52168Y-26651D01*
X52083Y-26686D01*
X52007Y-26736D01*
X51942Y-26799D01*
X51890Y-26874D01*
X51854Y-26958D01*
X51835Y-27047D01*
X51834Y-27139D01*
X51851Y-27228D01*
X51884Y-27313D01*
X51933Y-27390D01*
X51997Y-27455D01*
X52072Y-27507D01*
X52155Y-27544D01*
X52244Y-27563D01*
X52335Y-27565D01*
X52425Y-27549D01*
X52510Y-27516D01*
X52587Y-27468D01*
X52653Y-27405D01*
X52706Y-27330D01*
X52743Y-27247D01*
X52763Y-27158D01*
X52764Y-27054D01*
X52764Y-29560D01*
X51764Y-29560D01*
X51764Y-27054D01*
X51747Y-26965D01*
X51712Y-26880D01*
X51661Y-26804D01*
X51597Y-26740D01*
X51550Y-26707D01*
X51550Y-25242D01*
X51550Y-24957D01*
X51550Y-22242D01*
X51550Y-21957D01*
X51541Y-21869D01*
X51516Y-21785D01*
X51474Y-21708D01*
X51419Y-21640D01*
X51351Y-21584D01*
X51274Y-21542D01*
X51190Y-21516D01*
X51103Y-21507D01*
X51015Y-21515D01*
X50931Y-21539D01*
X50853Y-21580D01*
X50785Y-21635D01*
X50764Y-21659D01*
X50764Y-20054D01*
X50747Y-19965D01*
X50712Y-19880D01*
X50661Y-19804D01*
X50597Y-19740D01*
X50522Y-19689D01*
X50438Y-19653D01*
X50348Y-19635D01*
X50257Y-19634D01*
X50168Y-19651D01*
X50083Y-19686D01*
X50007Y-19736D01*
X49942Y-19799D01*
X49890Y-19874D01*
X49854Y-19958D01*
X49835Y-20047D01*
X49834Y-20139D01*
X49851Y-20228D01*
X49884Y-20313D01*
X49933Y-20390D01*
X49997Y-20455D01*
X50072Y-20507D01*
X50155Y-20544D01*
X50244Y-20563D01*
X50335Y-20565D01*
X50425Y-20549D01*
X50510Y-20516D01*
X50587Y-20468D01*
X50653Y-20405D01*
X50706Y-20330D01*
X50743Y-20247D01*
X50763Y-20158D01*
X50764Y-20054D01*
X50764Y-21659D01*
X50728Y-21702D01*
X50686Y-21779D01*
X50659Y-21863D01*
X50650Y-21950D01*
X50650Y-21957D01*
X50650Y-22242D01*
X50658Y-22330D01*
X50683Y-22414D01*
X50725Y-22491D01*
X50780Y-22559D01*
X50848Y-22615D01*
X50925Y-22657D01*
X51009Y-22683D01*
X51096Y-22692D01*
X51184Y-22684D01*
X51268Y-22660D01*
X51346Y-22619D01*
X51414Y-22564D01*
X51471Y-22497D01*
X51513Y-22420D01*
X51540Y-22336D01*
X51549Y-22249D01*
X51550Y-22242D01*
X51550Y-24957D01*
X51541Y-24869D01*
X51516Y-24785D01*
X51474Y-24708D01*
X51419Y-24640D01*
X51351Y-24584D01*
X51274Y-24542D01*
X51190Y-24516D01*
X51103Y-24507D01*
X51015Y-24515D01*
X50931Y-24539D01*
X50853Y-24580D01*
X50785Y-24635D01*
X50728Y-24702D01*
X50686Y-24779D01*
X50659Y-24863D01*
X50650Y-24950D01*
X50650Y-24957D01*
X50650Y-25242D01*
X50658Y-25330D01*
X50683Y-25414D01*
X50725Y-25491D01*
X50780Y-25559D01*
X50848Y-25615D01*
X50925Y-25657D01*
X51009Y-25683D01*
X51096Y-25692D01*
X51184Y-25684D01*
X51268Y-25660D01*
X51346Y-25619D01*
X51414Y-25564D01*
X51471Y-25497D01*
X51513Y-25420D01*
X51540Y-25336D01*
X51549Y-25249D01*
X51550Y-25242D01*
X51550Y-26707D01*
X51522Y-26689D01*
X51438Y-26653D01*
X51348Y-26635D01*
X51257Y-26634D01*
X51168Y-26651D01*
X51083Y-26686D01*
X51007Y-26736D01*
X50942Y-26799D01*
X50890Y-26874D01*
X50854Y-26958D01*
X50835Y-27047D01*
X50834Y-27139D01*
X50851Y-27228D01*
X50884Y-27313D01*
X50933Y-27390D01*
X50997Y-27455D01*
X51072Y-27507D01*
X51155Y-27544D01*
X51244Y-27563D01*
X51335Y-27565D01*
X51425Y-27549D01*
X51510Y-27516D01*
X51587Y-27468D01*
X51653Y-27405D01*
X51706Y-27330D01*
X51743Y-27247D01*
X51763Y-27158D01*
X51764Y-27054D01*
X51764Y-29560D01*
X50764Y-29560D01*
X50764Y-27054D01*
X50747Y-26965D01*
X50712Y-26880D01*
X50661Y-26804D01*
X50597Y-26740D01*
X50550Y-26707D01*
X50550Y-25242D01*
X50550Y-24957D01*
X50550Y-22242D01*
X50550Y-21957D01*
X50541Y-21869D01*
X50516Y-21785D01*
X50474Y-21708D01*
X50419Y-21640D01*
X50351Y-21584D01*
X50274Y-21542D01*
X50190Y-21516D01*
X50103Y-21507D01*
X50015Y-21515D01*
X49931Y-21539D01*
X49853Y-21580D01*
X49785Y-21635D01*
X49764Y-21659D01*
X49764Y-20054D01*
X49747Y-19965D01*
X49712Y-19880D01*
X49661Y-19804D01*
X49597Y-19740D01*
X49522Y-19689D01*
X49438Y-19653D01*
X49348Y-19635D01*
X49257Y-19634D01*
X49168Y-19651D01*
X49083Y-19686D01*
X49007Y-19736D01*
X48942Y-19799D01*
X48890Y-19874D01*
X48854Y-19958D01*
X48835Y-20047D01*
X48834Y-20139D01*
X48851Y-20228D01*
X48884Y-20313D01*
X48933Y-20390D01*
X48997Y-20455D01*
X49072Y-20507D01*
X49155Y-20544D01*
X49244Y-20563D01*
X49335Y-20565D01*
X49425Y-20549D01*
X49510Y-20516D01*
X49587Y-20468D01*
X49653Y-20405D01*
X49706Y-20330D01*
X49743Y-20247D01*
X49763Y-20158D01*
X49764Y-20054D01*
X49764Y-21659D01*
X49728Y-21702D01*
X49686Y-21779D01*
X49659Y-21863D01*
X49650Y-21950D01*
X49650Y-21957D01*
X49650Y-22242D01*
X49658Y-22330D01*
X49683Y-22414D01*
X49725Y-22491D01*
X49780Y-22559D01*
X49848Y-22615D01*
X49925Y-22657D01*
X50009Y-22683D01*
X50096Y-22692D01*
X50184Y-22684D01*
X50268Y-22660D01*
X50346Y-22619D01*
X50414Y-22564D01*
X50471Y-22497D01*
X50513Y-22420D01*
X50540Y-22336D01*
X50549Y-22249D01*
X50550Y-22242D01*
X50550Y-24957D01*
X50541Y-24869D01*
X50516Y-24785D01*
X50474Y-24708D01*
X50419Y-24640D01*
X50351Y-24584D01*
X50274Y-24542D01*
X50190Y-24516D01*
X50103Y-24507D01*
X50015Y-24515D01*
X49931Y-24539D01*
X49853Y-24580D01*
X49785Y-24635D01*
X49728Y-24702D01*
X49686Y-24779D01*
X49659Y-24863D01*
X49650Y-24950D01*
X49650Y-24957D01*
X49650Y-25242D01*
X49658Y-25330D01*
X49683Y-25414D01*
X49725Y-25491D01*
X49780Y-25559D01*
X49848Y-25615D01*
X49925Y-25657D01*
X50009Y-25683D01*
X50096Y-25692D01*
X50184Y-25684D01*
X50268Y-25660D01*
X50346Y-25619D01*
X50414Y-25564D01*
X50471Y-25497D01*
X50513Y-25420D01*
X50540Y-25336D01*
X50549Y-25249D01*
X50550Y-25242D01*
X50550Y-26707D01*
X50522Y-26689D01*
X50438Y-26653D01*
X50348Y-26635D01*
X50257Y-26634D01*
X50168Y-26651D01*
X50083Y-26686D01*
X50007Y-26736D01*
X49942Y-26799D01*
X49890Y-26874D01*
X49854Y-26958D01*
X49835Y-27047D01*
X49834Y-27139D01*
X49851Y-27228D01*
X49884Y-27313D01*
X49933Y-27390D01*
X49997Y-27455D01*
X50072Y-27507D01*
X50155Y-27544D01*
X50244Y-27563D01*
X50335Y-27565D01*
X50425Y-27549D01*
X50510Y-27516D01*
X50587Y-27468D01*
X50653Y-27405D01*
X50706Y-27330D01*
X50743Y-27247D01*
X50763Y-27158D01*
X50764Y-27054D01*
X50764Y-29560D01*
X49764Y-29560D01*
X49764Y-27054D01*
X49747Y-26965D01*
X49712Y-26880D01*
X49661Y-26804D01*
X49597Y-26740D01*
X49550Y-26707D01*
X49550Y-25242D01*
X49550Y-24957D01*
X49550Y-22242D01*
X49550Y-21957D01*
X49541Y-21869D01*
X49516Y-21785D01*
X49474Y-21708D01*
X49419Y-21640D01*
X49351Y-21584D01*
X49274Y-21542D01*
X49190Y-21516D01*
X49103Y-21507D01*
X49015Y-21515D01*
X48931Y-21539D01*
X48853Y-21580D01*
X48785Y-21635D01*
X48764Y-21659D01*
X48764Y-20054D01*
X48747Y-19965D01*
X48712Y-19880D01*
X48661Y-19804D01*
X48597Y-19740D01*
X48522Y-19689D01*
X48438Y-19653D01*
X48348Y-19635D01*
X48257Y-19634D01*
X48168Y-19651D01*
X48083Y-19686D01*
X48007Y-19736D01*
X47942Y-19799D01*
X47890Y-19874D01*
X47854Y-19958D01*
X47835Y-20047D01*
X47834Y-20139D01*
X47851Y-20228D01*
X47884Y-20313D01*
X47933Y-20390D01*
X47997Y-20455D01*
X48072Y-20507D01*
X48155Y-20544D01*
X48244Y-20563D01*
X48335Y-20565D01*
X48425Y-20549D01*
X48510Y-20516D01*
X48587Y-20468D01*
X48653Y-20405D01*
X48706Y-20330D01*
X48743Y-20247D01*
X48763Y-20158D01*
X48764Y-20054D01*
X48764Y-21659D01*
X48728Y-21702D01*
X48686Y-21779D01*
X48659Y-21863D01*
X48650Y-21950D01*
X48650Y-21957D01*
X48650Y-22242D01*
X48658Y-22330D01*
X48683Y-22414D01*
X48725Y-22491D01*
X48780Y-22559D01*
X48848Y-22615D01*
X48925Y-22657D01*
X49009Y-22683D01*
X49096Y-22692D01*
X49184Y-22684D01*
X49268Y-22660D01*
X49346Y-22619D01*
X49414Y-22564D01*
X49471Y-22497D01*
X49513Y-22420D01*
X49540Y-22336D01*
X49549Y-22249D01*
X49550Y-22242D01*
X49550Y-24957D01*
X49541Y-24869D01*
X49516Y-24785D01*
X49474Y-24708D01*
X49419Y-24640D01*
X49351Y-24584D01*
X49274Y-24542D01*
X49190Y-24516D01*
X49103Y-24507D01*
X49015Y-24515D01*
X48931Y-24539D01*
X48853Y-24580D01*
X48785Y-24635D01*
X48728Y-24702D01*
X48686Y-24779D01*
X48659Y-24863D01*
X48650Y-24950D01*
X48650Y-24957D01*
X48650Y-25242D01*
X48658Y-25330D01*
X48683Y-25414D01*
X48725Y-25491D01*
X48780Y-25559D01*
X48848Y-25615D01*
X48925Y-25657D01*
X49009Y-25683D01*
X49096Y-25692D01*
X49184Y-25684D01*
X49268Y-25660D01*
X49346Y-25619D01*
X49414Y-25564D01*
X49471Y-25497D01*
X49513Y-25420D01*
X49540Y-25336D01*
X49549Y-25249D01*
X49550Y-25242D01*
X49550Y-26707D01*
X49522Y-26689D01*
X49438Y-26653D01*
X49348Y-26635D01*
X49257Y-26634D01*
X49168Y-26651D01*
X49083Y-26686D01*
X49007Y-26736D01*
X48942Y-26799D01*
X48890Y-26874D01*
X48854Y-26958D01*
X48835Y-27047D01*
X48834Y-27139D01*
X48851Y-27228D01*
X48884Y-27313D01*
X48933Y-27390D01*
X48997Y-27455D01*
X49072Y-27507D01*
X49155Y-27544D01*
X49244Y-27563D01*
X49335Y-27565D01*
X49425Y-27549D01*
X49510Y-27516D01*
X49587Y-27468D01*
X49653Y-27405D01*
X49706Y-27330D01*
X49743Y-27247D01*
X49763Y-27158D01*
X49764Y-27054D01*
X49764Y-29560D01*
X48764Y-29560D01*
X48764Y-27054D01*
X48747Y-26965D01*
X48712Y-26880D01*
X48661Y-26804D01*
X48597Y-26740D01*
X48550Y-26707D01*
X48550Y-25242D01*
X48550Y-24957D01*
X48550Y-22242D01*
X48550Y-21957D01*
X48541Y-21869D01*
X48516Y-21785D01*
X48474Y-21708D01*
X48419Y-21640D01*
X48351Y-21584D01*
X48274Y-21542D01*
X48190Y-21516D01*
X48103Y-21507D01*
X48015Y-21515D01*
X47931Y-21539D01*
X47853Y-21580D01*
X47785Y-21635D01*
X47764Y-21659D01*
X47764Y-20054D01*
X47747Y-19965D01*
X47712Y-19880D01*
X47661Y-19804D01*
X47597Y-19740D01*
X47522Y-19689D01*
X47438Y-19653D01*
X47348Y-19635D01*
X47257Y-19634D01*
X47168Y-19651D01*
X47083Y-19686D01*
X47007Y-19736D01*
X46942Y-19799D01*
X46890Y-19874D01*
X46854Y-19958D01*
X46851Y-19973D01*
X46848Y-19954D01*
X46809Y-19850D01*
X46791Y-19816D01*
X46698Y-19786D01*
X46613Y-19870D01*
X46613Y-19701D01*
X46583Y-19608D01*
X46482Y-19562D01*
X46374Y-19537D01*
X46263Y-19533D01*
X46154Y-19551D01*
X46050Y-19590D01*
X46016Y-19608D01*
X45986Y-19701D01*
X46300Y-20015D01*
X46613Y-19701D01*
X46613Y-19870D01*
X46384Y-20100D01*
X46698Y-20413D01*
X46791Y-20383D01*
X46837Y-20282D01*
X46850Y-20226D01*
X46851Y-20228D01*
X46884Y-20313D01*
X46933Y-20390D01*
X46997Y-20455D01*
X47072Y-20507D01*
X47155Y-20544D01*
X47244Y-20563D01*
X47335Y-20565D01*
X47425Y-20549D01*
X47510Y-20516D01*
X47587Y-20468D01*
X47653Y-20405D01*
X47706Y-20330D01*
X47743Y-20247D01*
X47763Y-20158D01*
X47764Y-20054D01*
X47764Y-21659D01*
X47728Y-21702D01*
X47686Y-21779D01*
X47659Y-21863D01*
X47650Y-21950D01*
X47650Y-21957D01*
X47650Y-22242D01*
X47658Y-22330D01*
X47683Y-22414D01*
X47725Y-22491D01*
X47780Y-22559D01*
X47848Y-22615D01*
X47925Y-22657D01*
X48009Y-22683D01*
X48096Y-22692D01*
X48184Y-22684D01*
X48268Y-22660D01*
X48346Y-22619D01*
X48414Y-22564D01*
X48471Y-22497D01*
X48513Y-22420D01*
X48540Y-22336D01*
X48549Y-22249D01*
X48550Y-22242D01*
X48550Y-24957D01*
X48541Y-24869D01*
X48516Y-24785D01*
X48474Y-24708D01*
X48419Y-24640D01*
X48351Y-24584D01*
X48274Y-24542D01*
X48190Y-24516D01*
X48103Y-24507D01*
X48015Y-24515D01*
X47931Y-24539D01*
X47853Y-24580D01*
X47785Y-24635D01*
X47728Y-24702D01*
X47686Y-24779D01*
X47659Y-24863D01*
X47650Y-24950D01*
X47650Y-24957D01*
X47650Y-25242D01*
X47658Y-25330D01*
X47683Y-25414D01*
X47725Y-25491D01*
X47780Y-25559D01*
X47848Y-25615D01*
X47925Y-25657D01*
X48009Y-25683D01*
X48096Y-25692D01*
X48184Y-25684D01*
X48268Y-25660D01*
X48346Y-25619D01*
X48414Y-25564D01*
X48471Y-25497D01*
X48513Y-25420D01*
X48540Y-25336D01*
X48549Y-25249D01*
X48550Y-25242D01*
X48550Y-26707D01*
X48522Y-26689D01*
X48438Y-26653D01*
X48348Y-26635D01*
X48257Y-26634D01*
X48168Y-26651D01*
X48083Y-26686D01*
X48007Y-26736D01*
X47942Y-26799D01*
X47890Y-26874D01*
X47854Y-26958D01*
X47835Y-27047D01*
X47834Y-27139D01*
X47851Y-27228D01*
X47884Y-27313D01*
X47933Y-27390D01*
X47997Y-27455D01*
X48072Y-27507D01*
X48155Y-27544D01*
X48244Y-27563D01*
X48335Y-27565D01*
X48425Y-27549D01*
X48510Y-27516D01*
X48587Y-27468D01*
X48653Y-27405D01*
X48706Y-27330D01*
X48743Y-27247D01*
X48763Y-27158D01*
X48764Y-27054D01*
X48764Y-29560D01*
X47764Y-29560D01*
X47764Y-27054D01*
X47747Y-26965D01*
X47712Y-26880D01*
X47661Y-26804D01*
X47597Y-26740D01*
X47550Y-26707D01*
X47550Y-25242D01*
X47550Y-24957D01*
X47550Y-22242D01*
X47550Y-21957D01*
X47541Y-21869D01*
X47516Y-21785D01*
X47474Y-21708D01*
X47419Y-21640D01*
X47351Y-21584D01*
X47274Y-21542D01*
X47190Y-21516D01*
X47103Y-21507D01*
X47015Y-21515D01*
X46931Y-21539D01*
X46853Y-21580D01*
X46785Y-21635D01*
X46728Y-21702D01*
X46686Y-21779D01*
X46659Y-21863D01*
X46650Y-21950D01*
X46650Y-21957D01*
X46650Y-22242D01*
X46658Y-22330D01*
X46683Y-22414D01*
X46725Y-22491D01*
X46780Y-22559D01*
X46848Y-22615D01*
X46925Y-22657D01*
X47009Y-22683D01*
X47096Y-22692D01*
X47184Y-22684D01*
X47268Y-22660D01*
X47346Y-22619D01*
X47414Y-22564D01*
X47471Y-22497D01*
X47513Y-22420D01*
X47540Y-22336D01*
X47549Y-22249D01*
X47550Y-22242D01*
X47550Y-24957D01*
X47541Y-24869D01*
X47516Y-24785D01*
X47474Y-24708D01*
X47419Y-24640D01*
X47351Y-24584D01*
X47274Y-24542D01*
X47190Y-24516D01*
X47103Y-24507D01*
X47015Y-24515D01*
X46931Y-24539D01*
X46853Y-24580D01*
X46785Y-24635D01*
X46728Y-24702D01*
X46686Y-24779D01*
X46659Y-24863D01*
X46650Y-24950D01*
X46650Y-24957D01*
X46650Y-25242D01*
X46658Y-25330D01*
X46683Y-25414D01*
X46725Y-25491D01*
X46780Y-25559D01*
X46848Y-25615D01*
X46925Y-25657D01*
X47009Y-25683D01*
X47096Y-25692D01*
X47184Y-25684D01*
X47268Y-25660D01*
X47346Y-25619D01*
X47414Y-25564D01*
X47471Y-25497D01*
X47513Y-25420D01*
X47540Y-25336D01*
X47549Y-25249D01*
X47550Y-25242D01*
X47550Y-26707D01*
X47522Y-26689D01*
X47438Y-26653D01*
X47348Y-26635D01*
X47257Y-26634D01*
X47168Y-26651D01*
X47083Y-26686D01*
X47007Y-26736D01*
X46942Y-26799D01*
X46890Y-26874D01*
X46854Y-26958D01*
X46851Y-26973D01*
X46848Y-26954D01*
X46809Y-26850D01*
X46791Y-26816D01*
X46698Y-26786D01*
X46613Y-26870D01*
X46613Y-26701D01*
X46613Y-20498D01*
X46300Y-20184D01*
X46215Y-20269D01*
X46215Y-20100D01*
X45901Y-19786D01*
X45808Y-19816D01*
X45762Y-19917D01*
X45737Y-20025D01*
X45733Y-20136D01*
X45751Y-20245D01*
X45790Y-20349D01*
X45808Y-20383D01*
X45901Y-20413D01*
X46215Y-20100D01*
X46215Y-20269D01*
X45986Y-20498D01*
X46016Y-20591D01*
X46117Y-20637D01*
X46225Y-20662D01*
X46336Y-20666D01*
X46445Y-20648D01*
X46549Y-20609D01*
X46583Y-20591D01*
X46613Y-20498D01*
X46613Y-26701D01*
X46583Y-26608D01*
X46482Y-26562D01*
X46374Y-26537D01*
X46263Y-26533D01*
X46154Y-26551D01*
X46050Y-26590D01*
X46016Y-26608D01*
X45986Y-26701D01*
X46300Y-27015D01*
X46613Y-26701D01*
X46613Y-26870D01*
X46384Y-27100D01*
X46698Y-27413D01*
X46791Y-27383D01*
X46837Y-27282D01*
X46850Y-27226D01*
X46851Y-27228D01*
X46884Y-27313D01*
X46933Y-27390D01*
X46997Y-27455D01*
X47072Y-27507D01*
X47155Y-27544D01*
X47244Y-27563D01*
X47335Y-27565D01*
X47425Y-27549D01*
X47510Y-27516D01*
X47587Y-27468D01*
X47653Y-27405D01*
X47706Y-27330D01*
X47743Y-27247D01*
X47763Y-27158D01*
X47764Y-27054D01*
X47764Y-29560D01*
X46613Y-29560D01*
X46613Y-27498D01*
X46300Y-27184D01*
X46215Y-27269D01*
X46215Y-27100D01*
X45901Y-26786D01*
X45808Y-26816D01*
X45762Y-26917D01*
X45737Y-27025D01*
X45733Y-27136D01*
X45751Y-27245D01*
X45790Y-27349D01*
X45808Y-27383D01*
X45901Y-27413D01*
X46215Y-27100D01*
X46215Y-27269D01*
X45986Y-27498D01*
X46016Y-27591D01*
X46117Y-27637D01*
X46225Y-27662D01*
X46336Y-27666D01*
X46445Y-27648D01*
X46549Y-27609D01*
X46583Y-27591D01*
X46613Y-27498D01*
X46613Y-29560D01*
X44764Y-29560D01*
X44764Y-20412D01*
X44764Y-19761D01*
X44759Y-19734D01*
X44749Y-19709D01*
X44733Y-19686D01*
X44714Y-19666D01*
X44691Y-19651D01*
X44666Y-19640D01*
X44639Y-19635D01*
X44612Y-19635D01*
X43961Y-19635D01*
X43934Y-19640D01*
X43909Y-19650D01*
X43886Y-19666D01*
X43866Y-19685D01*
X43851Y-19708D01*
X43840Y-19733D01*
X43835Y-19760D01*
X43835Y-19787D01*
X43835Y-20438D01*
X43840Y-20465D01*
X43850Y-20490D01*
X43866Y-20513D01*
X43885Y-20533D01*
X43908Y-20548D01*
X43933Y-20559D01*
X43960Y-20564D01*
X43987Y-20564D01*
X44638Y-20564D01*
X44665Y-20559D01*
X44690Y-20549D01*
X44713Y-20533D01*
X44733Y-20514D01*
X44748Y-20491D01*
X44759Y-20466D01*
X44764Y-20439D01*
X44764Y-20412D01*
X44764Y-29560D01*
X44764Y-29560D01*
X44764Y-27054D01*
X44764Y-26054D01*
X44764Y-25054D01*
X44764Y-24054D01*
X44764Y-23054D01*
X44764Y-22054D01*
X44764Y-21054D01*
X44747Y-20965D01*
X44712Y-20880D01*
X44661Y-20804D01*
X44597Y-20740D01*
X44522Y-20689D01*
X44438Y-20653D01*
X44348Y-20635D01*
X44257Y-20634D01*
X44168Y-20651D01*
X44083Y-20686D01*
X44007Y-20736D01*
X43942Y-20799D01*
X43890Y-20874D01*
X43854Y-20958D01*
X43835Y-21047D01*
X43834Y-21139D01*
X43851Y-21228D01*
X43884Y-21313D01*
X43933Y-21390D01*
X43997Y-21455D01*
X44072Y-21507D01*
X44155Y-21544D01*
X44244Y-21563D01*
X44335Y-21565D01*
X44425Y-21549D01*
X44510Y-21516D01*
X44587Y-21468D01*
X44653Y-21405D01*
X44706Y-21330D01*
X44743Y-21247D01*
X44763Y-21158D01*
X44764Y-21054D01*
X44764Y-22054D01*
X44747Y-21965D01*
X44712Y-21880D01*
X44661Y-21804D01*
X44597Y-21740D01*
X44522Y-21689D01*
X44438Y-21653D01*
X44348Y-21635D01*
X44257Y-21634D01*
X44168Y-21651D01*
X44083Y-21686D01*
X44007Y-21736D01*
X43942Y-21799D01*
X43890Y-21874D01*
X43854Y-21958D01*
X43835Y-22047D01*
X43834Y-22139D01*
X43851Y-22228D01*
X43884Y-22313D01*
X43933Y-22390D01*
X43997Y-22455D01*
X44072Y-22507D01*
X44155Y-22544D01*
X44244Y-22563D01*
X44335Y-22565D01*
X44425Y-22549D01*
X44510Y-22516D01*
X44587Y-22468D01*
X44653Y-22405D01*
X44706Y-22330D01*
X44743Y-22247D01*
X44763Y-22158D01*
X44764Y-22054D01*
X44764Y-23054D01*
X44747Y-22965D01*
X44712Y-22880D01*
X44661Y-22804D01*
X44597Y-22740D01*
X44522Y-22689D01*
X44438Y-22653D01*
X44348Y-22635D01*
X44257Y-22634D01*
X44168Y-22651D01*
X44083Y-22686D01*
X44007Y-22736D01*
X43942Y-22799D01*
X43890Y-22874D01*
X43854Y-22958D01*
X43835Y-23047D01*
X43834Y-23139D01*
X43851Y-23228D01*
X43884Y-23313D01*
X43933Y-23390D01*
X43997Y-23455D01*
X44072Y-23507D01*
X44155Y-23544D01*
X44244Y-23563D01*
X44335Y-23565D01*
X44425Y-23549D01*
X44510Y-23516D01*
X44587Y-23468D01*
X44653Y-23405D01*
X44706Y-23330D01*
X44743Y-23247D01*
X44763Y-23158D01*
X44764Y-23054D01*
X44764Y-24054D01*
X44747Y-23965D01*
X44712Y-23880D01*
X44661Y-23804D01*
X44597Y-23740D01*
X44522Y-23689D01*
X44438Y-23653D01*
X44348Y-23635D01*
X44257Y-23634D01*
X44168Y-23651D01*
X44083Y-23686D01*
X44007Y-23736D01*
X43942Y-23799D01*
X43890Y-23874D01*
X43854Y-23958D01*
X43835Y-24047D01*
X43834Y-24139D01*
X43851Y-24228D01*
X43884Y-24313D01*
X43933Y-24390D01*
X43997Y-24455D01*
X44072Y-24507D01*
X44155Y-24544D01*
X44244Y-24563D01*
X44335Y-24565D01*
X44425Y-24549D01*
X44510Y-24516D01*
X44587Y-24468D01*
X44653Y-24405D01*
X44706Y-24330D01*
X44743Y-24247D01*
X44763Y-24158D01*
X44764Y-24054D01*
X44764Y-25054D01*
X44747Y-24965D01*
X44712Y-24880D01*
X44661Y-24804D01*
X44597Y-24740D01*
X44522Y-24689D01*
X44438Y-24653D01*
X44348Y-24635D01*
X44257Y-24634D01*
X44168Y-24651D01*
X44083Y-24686D01*
X44007Y-24736D01*
X43942Y-24799D01*
X43890Y-24874D01*
X43854Y-24958D01*
X43835Y-25047D01*
X43834Y-25139D01*
X43851Y-25228D01*
X43884Y-25313D01*
X43933Y-25390D01*
X43997Y-25455D01*
X44072Y-25507D01*
X44155Y-25544D01*
X44244Y-25563D01*
X44335Y-25565D01*
X44425Y-25549D01*
X44510Y-25516D01*
X44587Y-25468D01*
X44653Y-25405D01*
X44706Y-25330D01*
X44743Y-25247D01*
X44763Y-25158D01*
X44764Y-25054D01*
X44764Y-26054D01*
X44747Y-25965D01*
X44712Y-25880D01*
X44661Y-25804D01*
X44597Y-25740D01*
X44522Y-25689D01*
X44438Y-25653D01*
X44348Y-25635D01*
X44257Y-25634D01*
X44168Y-25651D01*
X44083Y-25686D01*
X44007Y-25736D01*
X43942Y-25799D01*
X43890Y-25874D01*
X43854Y-25958D01*
X43835Y-26047D01*
X43834Y-26139D01*
X43851Y-26228D01*
X43884Y-26313D01*
X43933Y-26390D01*
X43997Y-26455D01*
X44072Y-26507D01*
X44155Y-26544D01*
X44244Y-26563D01*
X44335Y-26565D01*
X44425Y-26549D01*
X44510Y-26516D01*
X44587Y-26468D01*
X44653Y-26405D01*
X44706Y-26330D01*
X44743Y-26247D01*
X44763Y-26158D01*
X44764Y-26054D01*
X44764Y-27054D01*
X44747Y-26965D01*
X44712Y-26880D01*
X44661Y-26804D01*
X44597Y-26740D01*
X44522Y-26689D01*
X44438Y-26653D01*
X44348Y-26635D01*
X44257Y-26634D01*
X44168Y-26651D01*
X44083Y-26686D01*
X44007Y-26736D01*
X43942Y-26799D01*
X43890Y-26874D01*
X43854Y-26958D01*
X43835Y-27047D01*
X43834Y-27139D01*
X43851Y-27228D01*
X43884Y-27313D01*
X43933Y-27390D01*
X43997Y-27455D01*
X44072Y-27507D01*
X44155Y-27544D01*
X44244Y-27563D01*
X44335Y-27565D01*
X44425Y-27549D01*
X44510Y-27516D01*
X44587Y-27468D01*
X44653Y-27405D01*
X44706Y-27330D01*
X44743Y-27247D01*
X44763Y-27158D01*
X44764Y-27054D01*
X44764Y-29560D01*
X43764Y-29560D01*
X43764Y-20412D01*
X43764Y-19761D01*
X43759Y-19734D01*
X43749Y-19709D01*
X43733Y-19686D01*
X43714Y-19666D01*
X43691Y-19651D01*
X43666Y-19640D01*
X43639Y-19635D01*
X43612Y-19635D01*
X42961Y-19635D01*
X42934Y-19640D01*
X42909Y-19650D01*
X42886Y-19666D01*
X42866Y-19685D01*
X42851Y-19708D01*
X42840Y-19733D01*
X42835Y-19760D01*
X42835Y-19787D01*
X42835Y-20438D01*
X42840Y-20465D01*
X42850Y-20490D01*
X42866Y-20513D01*
X42885Y-20533D01*
X42908Y-20548D01*
X42933Y-20559D01*
X42960Y-20564D01*
X42987Y-20564D01*
X43638Y-20564D01*
X43665Y-20559D01*
X43690Y-20549D01*
X43713Y-20533D01*
X43733Y-20514D01*
X43748Y-20491D01*
X43759Y-20466D01*
X43764Y-20439D01*
X43764Y-20412D01*
X43764Y-29560D01*
X43764Y-29560D01*
X43764Y-27054D01*
X43764Y-26054D01*
X43764Y-25054D01*
X43764Y-24054D01*
X43764Y-23054D01*
X43764Y-22054D01*
X43764Y-21054D01*
X43747Y-20965D01*
X43712Y-20880D01*
X43661Y-20804D01*
X43597Y-20740D01*
X43522Y-20689D01*
X43438Y-20653D01*
X43348Y-20635D01*
X43257Y-20634D01*
X43168Y-20651D01*
X43083Y-20686D01*
X43007Y-20736D01*
X42942Y-20799D01*
X42890Y-20874D01*
X42854Y-20958D01*
X42835Y-21047D01*
X42834Y-21139D01*
X42851Y-21228D01*
X42884Y-21313D01*
X42933Y-21390D01*
X42997Y-21455D01*
X43072Y-21507D01*
X43155Y-21544D01*
X43244Y-21563D01*
X43335Y-21565D01*
X43425Y-21549D01*
X43510Y-21516D01*
X43587Y-21468D01*
X43653Y-21405D01*
X43706Y-21330D01*
X43743Y-21247D01*
X43763Y-21158D01*
X43764Y-21054D01*
X43764Y-22054D01*
X43747Y-21965D01*
X43712Y-21880D01*
X43661Y-21804D01*
X43597Y-21740D01*
X43522Y-21689D01*
X43438Y-21653D01*
X43348Y-21635D01*
X43257Y-21634D01*
X43168Y-21651D01*
X43083Y-21686D01*
X43007Y-21736D01*
X42942Y-21799D01*
X42890Y-21874D01*
X42854Y-21958D01*
X42835Y-22047D01*
X42834Y-22139D01*
X42851Y-22228D01*
X42884Y-22313D01*
X42933Y-22390D01*
X42997Y-22455D01*
X43072Y-22507D01*
X43155Y-22544D01*
X43244Y-22563D01*
X43335Y-22565D01*
X43425Y-22549D01*
X43510Y-22516D01*
X43587Y-22468D01*
X43653Y-22405D01*
X43706Y-22330D01*
X43743Y-22247D01*
X43763Y-22158D01*
X43764Y-22054D01*
X43764Y-23054D01*
X43747Y-22965D01*
X43712Y-22880D01*
X43661Y-22804D01*
X43597Y-22740D01*
X43522Y-22689D01*
X43438Y-22653D01*
X43348Y-22635D01*
X43257Y-22634D01*
X43168Y-22651D01*
X43083Y-22686D01*
X43007Y-22736D01*
X42942Y-22799D01*
X42890Y-22874D01*
X42854Y-22958D01*
X42835Y-23047D01*
X42834Y-23139D01*
X42851Y-23228D01*
X42884Y-23313D01*
X42933Y-23390D01*
X42997Y-23455D01*
X43072Y-23507D01*
X43155Y-23544D01*
X43244Y-23563D01*
X43335Y-23565D01*
X43425Y-23549D01*
X43510Y-23516D01*
X43587Y-23468D01*
X43653Y-23405D01*
X43706Y-23330D01*
X43743Y-23247D01*
X43763Y-23158D01*
X43764Y-23054D01*
X43764Y-24054D01*
X43747Y-23965D01*
X43712Y-23880D01*
X43661Y-23804D01*
X43597Y-23740D01*
X43522Y-23689D01*
X43438Y-23653D01*
X43348Y-23635D01*
X43257Y-23634D01*
X43168Y-23651D01*
X43083Y-23686D01*
X43007Y-23736D01*
X42942Y-23799D01*
X42890Y-23874D01*
X42854Y-23958D01*
X42835Y-24047D01*
X42834Y-24139D01*
X42851Y-24228D01*
X42884Y-24313D01*
X42933Y-24390D01*
X42997Y-24455D01*
X43072Y-24507D01*
X43155Y-24544D01*
X43244Y-24563D01*
X43335Y-24565D01*
X43425Y-24549D01*
X43510Y-24516D01*
X43587Y-24468D01*
X43653Y-24405D01*
X43706Y-24330D01*
X43743Y-24247D01*
X43763Y-24158D01*
X43764Y-24054D01*
X43764Y-25054D01*
X43747Y-24965D01*
X43712Y-24880D01*
X43661Y-24804D01*
X43597Y-24740D01*
X43522Y-24689D01*
X43438Y-24653D01*
X43348Y-24635D01*
X43257Y-24634D01*
X43168Y-24651D01*
X43083Y-24686D01*
X43007Y-24736D01*
X42942Y-24799D01*
X42890Y-24874D01*
X42854Y-24958D01*
X42835Y-25047D01*
X42834Y-25139D01*
X42851Y-25228D01*
X42884Y-25313D01*
X42933Y-25390D01*
X42997Y-25455D01*
X43072Y-25507D01*
X43155Y-25544D01*
X43244Y-25563D01*
X43335Y-25565D01*
X43425Y-25549D01*
X43510Y-25516D01*
X43587Y-25468D01*
X43653Y-25405D01*
X43706Y-25330D01*
X43743Y-25247D01*
X43763Y-25158D01*
X43764Y-25054D01*
X43764Y-26054D01*
X43747Y-25965D01*
X43712Y-25880D01*
X43661Y-25804D01*
X43597Y-25740D01*
X43522Y-25689D01*
X43438Y-25653D01*
X43348Y-25635D01*
X43257Y-25634D01*
X43168Y-25651D01*
X43083Y-25686D01*
X43007Y-25736D01*
X42942Y-25799D01*
X42890Y-25874D01*
X42854Y-25958D01*
X42835Y-26047D01*
X42834Y-26139D01*
X42851Y-26228D01*
X42884Y-26313D01*
X42933Y-26390D01*
X42997Y-26455D01*
X43072Y-26507D01*
X43155Y-26544D01*
X43244Y-26563D01*
X43335Y-26565D01*
X43425Y-26549D01*
X43510Y-26516D01*
X43587Y-26468D01*
X43653Y-26405D01*
X43706Y-26330D01*
X43743Y-26247D01*
X43763Y-26158D01*
X43764Y-26054D01*
X43764Y-27054D01*
X43747Y-26965D01*
X43712Y-26880D01*
X43661Y-26804D01*
X43597Y-26740D01*
X43522Y-26689D01*
X43438Y-26653D01*
X43348Y-26635D01*
X43257Y-26634D01*
X43168Y-26651D01*
X43083Y-26686D01*
X43007Y-26736D01*
X42942Y-26799D01*
X42890Y-26874D01*
X42854Y-26958D01*
X42835Y-27047D01*
X42834Y-27139D01*
X42851Y-27228D01*
X42884Y-27313D01*
X42933Y-27390D01*
X42997Y-27455D01*
X43072Y-27507D01*
X43155Y-27544D01*
X43244Y-27563D01*
X43335Y-27565D01*
X43425Y-27549D01*
X43510Y-27516D01*
X43587Y-27468D01*
X43653Y-27405D01*
X43706Y-27330D01*
X43743Y-27247D01*
X43763Y-27158D01*
X43764Y-27054D01*
X43764Y-29560D01*
X41940Y-29560D01*
X41940Y-17640D01*
X58260Y-17640D01*
X58260Y-29560D01*
M02*
