G04 (created by PCBNEW (2013-01-23 BZR 3920)-testing) date Thu 24 Jan 2013 02:16:04 AM CET*
%MOIN*%
G04 Gerber Fmt 3.4, Leading zero omitted, Abs format*
%FSLAX34Y34*%
G01*
G70*
G90*
G04 APERTURE LIST*
%ADD10C,2.3622e-06*%
%ADD11C,0.015*%
%ADD12R,0.06X0.06*%
%ADD13C,0.06*%
%ADD14R,0.04X0.04*%
%ADD15R,0.062X0.09*%
%ADD16O,0.062X0.09*%
%ADD17C,0.02*%
%ADD18C,0.08*%
%ADD19C,0.06*%
%ADD20C,0.008*%
G04 APERTURE END LIST*
G54D10*
G54D11*
X58500Y-29800D02*
X41700Y-29800D01*
X41700Y-17400D02*
X58500Y-17400D01*
X58500Y-29800D02*
X58500Y-17400D01*
X41700Y-17400D02*
X41700Y-29800D01*
G54D12*
X44300Y-20100D03*
G54D13*
X44300Y-21100D03*
X44300Y-22100D03*
X44300Y-23100D03*
X44300Y-24100D03*
X44300Y-25100D03*
X44300Y-26100D03*
X44300Y-27100D03*
G54D12*
X43300Y-20100D03*
G54D13*
X43300Y-21100D03*
X43300Y-22100D03*
X43300Y-23100D03*
X43300Y-24100D03*
X43300Y-25100D03*
X43300Y-26100D03*
X43300Y-27100D03*
G54D12*
X53300Y-20100D03*
G54D13*
X52300Y-20100D03*
X51300Y-20100D03*
X50300Y-20100D03*
X49300Y-20100D03*
X48300Y-20100D03*
X47300Y-20100D03*
X46300Y-20100D03*
G54D12*
X53300Y-27100D03*
G54D13*
X52300Y-27100D03*
X51300Y-27100D03*
X50300Y-27100D03*
X49300Y-27100D03*
X48300Y-27100D03*
X47300Y-27100D03*
X46300Y-27100D03*
G54D14*
X55625Y-21400D03*
X56175Y-21400D03*
G54D13*
X55550Y-23600D03*
X57550Y-22600D03*
X57550Y-24600D03*
G54D15*
X54100Y-22100D03*
G54D16*
X53100Y-22100D03*
X52100Y-22100D03*
X51100Y-22100D03*
X50100Y-22100D03*
X49100Y-22100D03*
X48100Y-22100D03*
X47100Y-22100D03*
X47100Y-25100D03*
X48100Y-25100D03*
X49100Y-25100D03*
X50100Y-25100D03*
X51100Y-25100D03*
X52100Y-25100D03*
X53100Y-25100D03*
X54100Y-25100D03*
G54D17*
X55550Y-23600D02*
X56550Y-23600D01*
X56550Y-23600D02*
X57550Y-24600D01*
X55550Y-23600D02*
X55550Y-22850D01*
X56175Y-22225D02*
X56175Y-21400D01*
X55550Y-22850D02*
X56175Y-22225D01*
X56200Y-21425D02*
X56175Y-21400D01*
X55625Y-21400D02*
X56175Y-21400D01*
X55625Y-21400D02*
X54100Y-21400D01*
X54100Y-21400D02*
X54100Y-22100D01*
G54D18*
X46300Y-23600D02*
X54100Y-23600D01*
G54D19*
X54100Y-23600D02*
X54100Y-22100D01*
G54D18*
X46300Y-20100D02*
X46300Y-23600D01*
X46300Y-23600D02*
X46300Y-27100D01*
G54D17*
X54100Y-25100D02*
X54100Y-26300D01*
X54100Y-26300D02*
X53300Y-27100D01*
G54D10*
G36*
X58260Y-29560D02*
X57990Y-29560D01*
X57990Y-24556D01*
X57990Y-22556D01*
X57973Y-22472D01*
X57940Y-22392D01*
X57892Y-22320D01*
X57831Y-22259D01*
X57760Y-22211D01*
X57680Y-22177D01*
X57596Y-22160D01*
X57509Y-22159D01*
X57425Y-22175D01*
X57345Y-22208D01*
X57272Y-22255D01*
X57211Y-22315D01*
X57162Y-22387D01*
X57128Y-22466D01*
X57110Y-22550D01*
X57109Y-22636D01*
X57124Y-22721D01*
X57156Y-22802D01*
X57203Y-22874D01*
X57263Y-22936D01*
X57334Y-22985D01*
X57413Y-23020D01*
X57497Y-23039D01*
X57583Y-23040D01*
X57668Y-23025D01*
X57749Y-22994D01*
X57822Y-22948D01*
X57884Y-22888D01*
X57934Y-22818D01*
X57969Y-22739D01*
X57988Y-22655D01*
X57990Y-22556D01*
X57990Y-24556D01*
X57973Y-24472D01*
X57940Y-24392D01*
X57892Y-24320D01*
X57831Y-24259D01*
X57760Y-24211D01*
X57680Y-24177D01*
X57596Y-24160D01*
X57509Y-24159D01*
X57458Y-24169D01*
X56719Y-23430D01*
X56702Y-23416D01*
X56685Y-23401D01*
X56684Y-23401D01*
X56683Y-23400D01*
X56663Y-23390D01*
X56644Y-23379D01*
X56643Y-23379D01*
X56642Y-23378D01*
X56621Y-23371D01*
X56599Y-23365D01*
X56598Y-23365D01*
X56597Y-23364D01*
X56575Y-23362D01*
X56553Y-23360D01*
X56550Y-23360D01*
X56550Y-23360D01*
X56550Y-23360D01*
X56550Y-23360D01*
X55918Y-23360D01*
X55892Y-23320D01*
X55831Y-23259D01*
X55790Y-23231D01*
X55790Y-22949D01*
X56344Y-22394D01*
X56358Y-22377D01*
X56373Y-22360D01*
X56373Y-22359D01*
X56374Y-22358D01*
X56384Y-22338D01*
X56395Y-22319D01*
X56395Y-22318D01*
X56396Y-22317D01*
X56403Y-22296D01*
X56409Y-22274D01*
X56409Y-22273D01*
X56410Y-22272D01*
X56412Y-22250D01*
X56414Y-22228D01*
X56414Y-22225D01*
X56414Y-22225D01*
X56414Y-22225D01*
X56415Y-22225D01*
X56415Y-21734D01*
X56415Y-21734D01*
X56441Y-21724D01*
X56463Y-21709D01*
X56483Y-21689D01*
X56498Y-21666D01*
X56509Y-21641D01*
X56514Y-21614D01*
X56515Y-21587D01*
X56515Y-21186D01*
X56509Y-21159D01*
X56499Y-21133D01*
X56484Y-21111D01*
X56464Y-21091D01*
X56441Y-21076D01*
X56416Y-21065D01*
X56389Y-21060D01*
X56362Y-21059D01*
X56020Y-21059D01*
X56010Y-21046D01*
X55977Y-21013D01*
X55938Y-20987D01*
X55894Y-20969D01*
X55848Y-20959D01*
X55745Y-20960D01*
X55685Y-21020D01*
X55685Y-21300D01*
X55685Y-21340D01*
X55685Y-21460D01*
X55685Y-21500D01*
X55685Y-21780D01*
X55745Y-21840D01*
X55848Y-21840D01*
X55894Y-21830D01*
X55935Y-21814D01*
X55935Y-22125D01*
X55565Y-22495D01*
X55565Y-21780D01*
X55565Y-21460D01*
X55565Y-21340D01*
X55565Y-21020D01*
X55505Y-20960D01*
X55401Y-20959D01*
X55355Y-20969D01*
X55311Y-20987D01*
X55272Y-21013D01*
X55239Y-21046D01*
X55212Y-21085D01*
X55194Y-21128D01*
X55185Y-21174D01*
X55184Y-21221D01*
X55185Y-21280D01*
X55245Y-21340D01*
X55565Y-21340D01*
X55565Y-21460D01*
X55245Y-21460D01*
X55185Y-21520D01*
X55184Y-21578D01*
X55185Y-21625D01*
X55194Y-21671D01*
X55212Y-21714D01*
X55239Y-21753D01*
X55272Y-21786D01*
X55311Y-21812D01*
X55355Y-21830D01*
X55401Y-21840D01*
X55505Y-21840D01*
X55565Y-21780D01*
X55565Y-22495D01*
X55380Y-22680D01*
X55366Y-22697D01*
X55351Y-22714D01*
X55351Y-22715D01*
X55350Y-22716D01*
X55340Y-22736D01*
X55329Y-22755D01*
X55329Y-22756D01*
X55328Y-22757D01*
X55321Y-22778D01*
X55315Y-22800D01*
X55315Y-22801D01*
X55314Y-22802D01*
X55312Y-22824D01*
X55310Y-22846D01*
X55310Y-22849D01*
X55310Y-22849D01*
X55310Y-22849D01*
X55310Y-22850D01*
X55310Y-23231D01*
X55272Y-23255D01*
X55211Y-23315D01*
X55162Y-23387D01*
X55128Y-23466D01*
X55110Y-23550D01*
X55109Y-23636D01*
X55124Y-23721D01*
X55156Y-23802D01*
X55203Y-23874D01*
X55263Y-23936D01*
X55334Y-23985D01*
X55413Y-24020D01*
X55497Y-24039D01*
X55583Y-24040D01*
X55668Y-24025D01*
X55749Y-23994D01*
X55822Y-23948D01*
X55884Y-23888D01*
X55919Y-23840D01*
X56450Y-23840D01*
X57119Y-24508D01*
X57110Y-24550D01*
X57109Y-24636D01*
X57124Y-24721D01*
X57156Y-24802D01*
X57203Y-24874D01*
X57263Y-24936D01*
X57334Y-24985D01*
X57413Y-25020D01*
X57497Y-25039D01*
X57583Y-25040D01*
X57668Y-25025D01*
X57749Y-24994D01*
X57822Y-24948D01*
X57884Y-24888D01*
X57934Y-24818D01*
X57969Y-24739D01*
X57988Y-24655D01*
X57990Y-24556D01*
X57990Y-29560D01*
X54650Y-29560D01*
X54650Y-22528D01*
X54650Y-21671D01*
X54649Y-21624D01*
X54640Y-21578D01*
X54622Y-21535D01*
X54595Y-21496D01*
X54562Y-21463D01*
X54523Y-21437D01*
X54479Y-21419D01*
X54433Y-21409D01*
X54220Y-21410D01*
X54160Y-21470D01*
X54160Y-22040D01*
X54590Y-22040D01*
X54650Y-21980D01*
X54650Y-21671D01*
X54650Y-22528D01*
X54650Y-22220D01*
X54590Y-22160D01*
X54160Y-22160D01*
X54160Y-22730D01*
X54220Y-22790D01*
X54433Y-22790D01*
X54479Y-22780D01*
X54523Y-22762D01*
X54562Y-22736D01*
X54595Y-22703D01*
X54622Y-22664D01*
X54640Y-22621D01*
X54649Y-22575D01*
X54650Y-22528D01*
X54650Y-29560D01*
X54550Y-29560D01*
X54550Y-25242D01*
X54550Y-24957D01*
X54541Y-24869D01*
X54516Y-24785D01*
X54474Y-24708D01*
X54419Y-24640D01*
X54351Y-24584D01*
X54274Y-24542D01*
X54190Y-24516D01*
X54103Y-24507D01*
X54040Y-24512D01*
X54040Y-22730D01*
X54040Y-22160D01*
X53610Y-22160D01*
X53550Y-22220D01*
X53550Y-21980D01*
X53610Y-22040D01*
X54040Y-22040D01*
X54040Y-21470D01*
X53980Y-21410D01*
X53766Y-21409D01*
X53740Y-21415D01*
X53740Y-20387D01*
X53740Y-19786D01*
X53734Y-19759D01*
X53724Y-19733D01*
X53709Y-19711D01*
X53689Y-19691D01*
X53666Y-19676D01*
X53641Y-19665D01*
X53614Y-19660D01*
X53587Y-19659D01*
X52986Y-19659D01*
X52959Y-19665D01*
X52933Y-19675D01*
X52911Y-19690D01*
X52891Y-19710D01*
X52876Y-19733D01*
X52865Y-19758D01*
X52860Y-19785D01*
X52859Y-19812D01*
X52859Y-20413D01*
X52865Y-20440D01*
X52875Y-20466D01*
X52890Y-20488D01*
X52910Y-20508D01*
X52933Y-20523D01*
X52958Y-20534D01*
X52985Y-20539D01*
X53012Y-20540D01*
X53613Y-20540D01*
X53640Y-20534D01*
X53666Y-20524D01*
X53688Y-20509D01*
X53708Y-20489D01*
X53723Y-20466D01*
X53734Y-20441D01*
X53739Y-20414D01*
X53740Y-20387D01*
X53740Y-21415D01*
X53720Y-21419D01*
X53676Y-21437D01*
X53637Y-21463D01*
X53604Y-21496D01*
X53577Y-21535D01*
X53559Y-21578D01*
X53550Y-21624D01*
X53549Y-21671D01*
X53549Y-21957D01*
X53541Y-21869D01*
X53516Y-21785D01*
X53474Y-21708D01*
X53419Y-21640D01*
X53351Y-21584D01*
X53274Y-21542D01*
X53190Y-21516D01*
X53103Y-21507D01*
X53015Y-21515D01*
X52931Y-21539D01*
X52853Y-21580D01*
X52785Y-21635D01*
X52740Y-21689D01*
X52740Y-20056D01*
X52723Y-19972D01*
X52690Y-19892D01*
X52642Y-19820D01*
X52581Y-19759D01*
X52510Y-19711D01*
X52430Y-19677D01*
X52346Y-19660D01*
X52259Y-19659D01*
X52175Y-19675D01*
X52095Y-19708D01*
X52022Y-19755D01*
X51961Y-19815D01*
X51912Y-19887D01*
X51878Y-19966D01*
X51860Y-20050D01*
X51859Y-20136D01*
X51874Y-20221D01*
X51906Y-20302D01*
X51953Y-20374D01*
X52013Y-20436D01*
X52084Y-20485D01*
X52163Y-20520D01*
X52247Y-20539D01*
X52333Y-20540D01*
X52418Y-20525D01*
X52499Y-20494D01*
X52572Y-20448D01*
X52634Y-20388D01*
X52684Y-20318D01*
X52719Y-20239D01*
X52738Y-20155D01*
X52740Y-20056D01*
X52740Y-21689D01*
X52728Y-21702D01*
X52686Y-21779D01*
X52659Y-21863D01*
X52650Y-21950D01*
X52650Y-21957D01*
X52650Y-22242D01*
X52658Y-22330D01*
X52683Y-22414D01*
X52725Y-22491D01*
X52780Y-22559D01*
X52848Y-22615D01*
X52925Y-22657D01*
X53009Y-22683D01*
X53096Y-22692D01*
X53184Y-22684D01*
X53268Y-22660D01*
X53346Y-22619D01*
X53414Y-22564D01*
X53471Y-22497D01*
X53513Y-22420D01*
X53540Y-22336D01*
X53549Y-22249D01*
X53549Y-22244D01*
X53549Y-22528D01*
X53550Y-22575D01*
X53559Y-22621D01*
X53577Y-22664D01*
X53604Y-22703D01*
X53637Y-22736D01*
X53676Y-22762D01*
X53720Y-22780D01*
X53766Y-22790D01*
X53980Y-22790D01*
X54040Y-22730D01*
X54040Y-24512D01*
X54015Y-24515D01*
X53931Y-24539D01*
X53853Y-24580D01*
X53785Y-24635D01*
X53728Y-24702D01*
X53686Y-24779D01*
X53659Y-24863D01*
X53650Y-24950D01*
X53650Y-24957D01*
X53650Y-25242D01*
X53658Y-25330D01*
X53683Y-25414D01*
X53725Y-25491D01*
X53780Y-25559D01*
X53848Y-25615D01*
X53860Y-25622D01*
X53860Y-26200D01*
X53550Y-26510D01*
X53550Y-25242D01*
X53550Y-24957D01*
X53541Y-24869D01*
X53516Y-24785D01*
X53474Y-24708D01*
X53419Y-24640D01*
X53351Y-24584D01*
X53274Y-24542D01*
X53190Y-24516D01*
X53103Y-24507D01*
X53015Y-24515D01*
X52931Y-24539D01*
X52853Y-24580D01*
X52785Y-24635D01*
X52728Y-24702D01*
X52686Y-24779D01*
X52659Y-24863D01*
X52650Y-24950D01*
X52650Y-24957D01*
X52650Y-25242D01*
X52658Y-25330D01*
X52683Y-25414D01*
X52725Y-25491D01*
X52780Y-25559D01*
X52848Y-25615D01*
X52925Y-25657D01*
X53009Y-25683D01*
X53096Y-25692D01*
X53184Y-25684D01*
X53268Y-25660D01*
X53346Y-25619D01*
X53414Y-25564D01*
X53471Y-25497D01*
X53513Y-25420D01*
X53540Y-25336D01*
X53549Y-25249D01*
X53550Y-25242D01*
X53550Y-26510D01*
X53400Y-26659D01*
X52986Y-26659D01*
X52959Y-26665D01*
X52933Y-26675D01*
X52911Y-26690D01*
X52891Y-26710D01*
X52876Y-26733D01*
X52865Y-26758D01*
X52860Y-26785D01*
X52859Y-26812D01*
X52859Y-27413D01*
X52865Y-27440D01*
X52875Y-27466D01*
X52890Y-27488D01*
X52910Y-27508D01*
X52933Y-27523D01*
X52958Y-27534D01*
X52985Y-27539D01*
X53012Y-27540D01*
X53613Y-27540D01*
X53640Y-27534D01*
X53666Y-27524D01*
X53688Y-27509D01*
X53708Y-27489D01*
X53723Y-27466D01*
X53734Y-27441D01*
X53739Y-27414D01*
X53740Y-27387D01*
X53740Y-26999D01*
X54269Y-26469D01*
X54283Y-26452D01*
X54298Y-26435D01*
X54298Y-26434D01*
X54299Y-26433D01*
X54309Y-26413D01*
X54320Y-26394D01*
X54320Y-26393D01*
X54321Y-26392D01*
X54328Y-26371D01*
X54334Y-26349D01*
X54334Y-26348D01*
X54335Y-26347D01*
X54337Y-26325D01*
X54339Y-26303D01*
X54339Y-26300D01*
X54339Y-26300D01*
X54339Y-26300D01*
X54340Y-26300D01*
X54340Y-25622D01*
X54346Y-25619D01*
X54414Y-25564D01*
X54471Y-25497D01*
X54513Y-25420D01*
X54540Y-25336D01*
X54549Y-25249D01*
X54550Y-25242D01*
X54550Y-29560D01*
X52740Y-29560D01*
X52740Y-27056D01*
X52723Y-26972D01*
X52690Y-26892D01*
X52642Y-26820D01*
X52581Y-26759D01*
X52550Y-26737D01*
X52550Y-25242D01*
X52550Y-24957D01*
X52550Y-22242D01*
X52550Y-21957D01*
X52541Y-21869D01*
X52516Y-21785D01*
X52474Y-21708D01*
X52419Y-21640D01*
X52351Y-21584D01*
X52274Y-21542D01*
X52190Y-21516D01*
X52103Y-21507D01*
X52015Y-21515D01*
X51931Y-21539D01*
X51853Y-21580D01*
X51785Y-21635D01*
X51740Y-21689D01*
X51740Y-20056D01*
X51723Y-19972D01*
X51690Y-19892D01*
X51642Y-19820D01*
X51581Y-19759D01*
X51510Y-19711D01*
X51430Y-19677D01*
X51346Y-19660D01*
X51259Y-19659D01*
X51175Y-19675D01*
X51095Y-19708D01*
X51022Y-19755D01*
X50961Y-19815D01*
X50912Y-19887D01*
X50878Y-19966D01*
X50860Y-20050D01*
X50859Y-20136D01*
X50874Y-20221D01*
X50906Y-20302D01*
X50953Y-20374D01*
X51013Y-20436D01*
X51084Y-20485D01*
X51163Y-20520D01*
X51247Y-20539D01*
X51333Y-20540D01*
X51418Y-20525D01*
X51499Y-20494D01*
X51572Y-20448D01*
X51634Y-20388D01*
X51684Y-20318D01*
X51719Y-20239D01*
X51738Y-20155D01*
X51740Y-20056D01*
X51740Y-21689D01*
X51728Y-21702D01*
X51686Y-21779D01*
X51659Y-21863D01*
X51650Y-21950D01*
X51650Y-21957D01*
X51650Y-22242D01*
X51658Y-22330D01*
X51683Y-22414D01*
X51725Y-22491D01*
X51780Y-22559D01*
X51848Y-22615D01*
X51925Y-22657D01*
X52009Y-22683D01*
X52096Y-22692D01*
X52184Y-22684D01*
X52268Y-22660D01*
X52346Y-22619D01*
X52414Y-22564D01*
X52471Y-22497D01*
X52513Y-22420D01*
X52540Y-22336D01*
X52549Y-22249D01*
X52550Y-22242D01*
X52550Y-24957D01*
X52541Y-24869D01*
X52516Y-24785D01*
X52474Y-24708D01*
X52419Y-24640D01*
X52351Y-24584D01*
X52274Y-24542D01*
X52190Y-24516D01*
X52103Y-24507D01*
X52015Y-24515D01*
X51931Y-24539D01*
X51853Y-24580D01*
X51785Y-24635D01*
X51728Y-24702D01*
X51686Y-24779D01*
X51659Y-24863D01*
X51650Y-24950D01*
X51650Y-24957D01*
X51650Y-25242D01*
X51658Y-25330D01*
X51683Y-25414D01*
X51725Y-25491D01*
X51780Y-25559D01*
X51848Y-25615D01*
X51925Y-25657D01*
X52009Y-25683D01*
X52096Y-25692D01*
X52184Y-25684D01*
X52268Y-25660D01*
X52346Y-25619D01*
X52414Y-25564D01*
X52471Y-25497D01*
X52513Y-25420D01*
X52540Y-25336D01*
X52549Y-25249D01*
X52550Y-25242D01*
X52550Y-26737D01*
X52510Y-26711D01*
X52430Y-26677D01*
X52346Y-26660D01*
X52259Y-26659D01*
X52175Y-26675D01*
X52095Y-26708D01*
X52022Y-26755D01*
X51961Y-26815D01*
X51912Y-26887D01*
X51878Y-26966D01*
X51860Y-27050D01*
X51859Y-27136D01*
X51874Y-27221D01*
X51906Y-27302D01*
X51953Y-27374D01*
X52013Y-27436D01*
X52084Y-27485D01*
X52163Y-27520D01*
X52247Y-27539D01*
X52333Y-27540D01*
X52418Y-27525D01*
X52499Y-27494D01*
X52572Y-27448D01*
X52634Y-27388D01*
X52684Y-27318D01*
X52719Y-27239D01*
X52738Y-27155D01*
X52740Y-27056D01*
X52740Y-29560D01*
X51740Y-29560D01*
X51740Y-27056D01*
X51723Y-26972D01*
X51690Y-26892D01*
X51642Y-26820D01*
X51581Y-26759D01*
X51550Y-26737D01*
X51550Y-25242D01*
X51550Y-24957D01*
X51550Y-22242D01*
X51550Y-21957D01*
X51541Y-21869D01*
X51516Y-21785D01*
X51474Y-21708D01*
X51419Y-21640D01*
X51351Y-21584D01*
X51274Y-21542D01*
X51190Y-21516D01*
X51103Y-21507D01*
X51015Y-21515D01*
X50931Y-21539D01*
X50853Y-21580D01*
X50785Y-21635D01*
X50740Y-21689D01*
X50740Y-20056D01*
X50723Y-19972D01*
X50690Y-19892D01*
X50642Y-19820D01*
X50581Y-19759D01*
X50510Y-19711D01*
X50430Y-19677D01*
X50346Y-19660D01*
X50259Y-19659D01*
X50175Y-19675D01*
X50095Y-19708D01*
X50022Y-19755D01*
X49961Y-19815D01*
X49912Y-19887D01*
X49878Y-19966D01*
X49860Y-20050D01*
X49859Y-20136D01*
X49874Y-20221D01*
X49906Y-20302D01*
X49953Y-20374D01*
X50013Y-20436D01*
X50084Y-20485D01*
X50163Y-20520D01*
X50247Y-20539D01*
X50333Y-20540D01*
X50418Y-20525D01*
X50499Y-20494D01*
X50572Y-20448D01*
X50634Y-20388D01*
X50684Y-20318D01*
X50719Y-20239D01*
X50738Y-20155D01*
X50740Y-20056D01*
X50740Y-21689D01*
X50728Y-21702D01*
X50686Y-21779D01*
X50659Y-21863D01*
X50650Y-21950D01*
X50650Y-21957D01*
X50650Y-22242D01*
X50658Y-22330D01*
X50683Y-22414D01*
X50725Y-22491D01*
X50780Y-22559D01*
X50848Y-22615D01*
X50925Y-22657D01*
X51009Y-22683D01*
X51096Y-22692D01*
X51184Y-22684D01*
X51268Y-22660D01*
X51346Y-22619D01*
X51414Y-22564D01*
X51471Y-22497D01*
X51513Y-22420D01*
X51540Y-22336D01*
X51549Y-22249D01*
X51550Y-22242D01*
X51550Y-24957D01*
X51541Y-24869D01*
X51516Y-24785D01*
X51474Y-24708D01*
X51419Y-24640D01*
X51351Y-24584D01*
X51274Y-24542D01*
X51190Y-24516D01*
X51103Y-24507D01*
X51015Y-24515D01*
X50931Y-24539D01*
X50853Y-24580D01*
X50785Y-24635D01*
X50728Y-24702D01*
X50686Y-24779D01*
X50659Y-24863D01*
X50650Y-24950D01*
X50650Y-24957D01*
X50650Y-25242D01*
X50658Y-25330D01*
X50683Y-25414D01*
X50725Y-25491D01*
X50780Y-25559D01*
X50848Y-25615D01*
X50925Y-25657D01*
X51009Y-25683D01*
X51096Y-25692D01*
X51184Y-25684D01*
X51268Y-25660D01*
X51346Y-25619D01*
X51414Y-25564D01*
X51471Y-25497D01*
X51513Y-25420D01*
X51540Y-25336D01*
X51549Y-25249D01*
X51550Y-25242D01*
X51550Y-26737D01*
X51510Y-26711D01*
X51430Y-26677D01*
X51346Y-26660D01*
X51259Y-26659D01*
X51175Y-26675D01*
X51095Y-26708D01*
X51022Y-26755D01*
X50961Y-26815D01*
X50912Y-26887D01*
X50878Y-26966D01*
X50860Y-27050D01*
X50859Y-27136D01*
X50874Y-27221D01*
X50906Y-27302D01*
X50953Y-27374D01*
X51013Y-27436D01*
X51084Y-27485D01*
X51163Y-27520D01*
X51247Y-27539D01*
X51333Y-27540D01*
X51418Y-27525D01*
X51499Y-27494D01*
X51572Y-27448D01*
X51634Y-27388D01*
X51684Y-27318D01*
X51719Y-27239D01*
X51738Y-27155D01*
X51740Y-27056D01*
X51740Y-29560D01*
X50740Y-29560D01*
X50740Y-27056D01*
X50723Y-26972D01*
X50690Y-26892D01*
X50642Y-26820D01*
X50581Y-26759D01*
X50550Y-26737D01*
X50550Y-25242D01*
X50550Y-24957D01*
X50550Y-22242D01*
X50550Y-21957D01*
X50541Y-21869D01*
X50516Y-21785D01*
X50474Y-21708D01*
X50419Y-21640D01*
X50351Y-21584D01*
X50274Y-21542D01*
X50190Y-21516D01*
X50103Y-21507D01*
X50015Y-21515D01*
X49931Y-21539D01*
X49853Y-21580D01*
X49785Y-21635D01*
X49740Y-21689D01*
X49740Y-20056D01*
X49723Y-19972D01*
X49690Y-19892D01*
X49642Y-19820D01*
X49581Y-19759D01*
X49510Y-19711D01*
X49430Y-19677D01*
X49346Y-19660D01*
X49259Y-19659D01*
X49175Y-19675D01*
X49095Y-19708D01*
X49022Y-19755D01*
X48961Y-19815D01*
X48912Y-19887D01*
X48878Y-19966D01*
X48860Y-20050D01*
X48859Y-20136D01*
X48874Y-20221D01*
X48906Y-20302D01*
X48953Y-20374D01*
X49013Y-20436D01*
X49084Y-20485D01*
X49163Y-20520D01*
X49247Y-20539D01*
X49333Y-20540D01*
X49418Y-20525D01*
X49499Y-20494D01*
X49572Y-20448D01*
X49634Y-20388D01*
X49684Y-20318D01*
X49719Y-20239D01*
X49738Y-20155D01*
X49740Y-20056D01*
X49740Y-21689D01*
X49728Y-21702D01*
X49686Y-21779D01*
X49659Y-21863D01*
X49650Y-21950D01*
X49650Y-21957D01*
X49650Y-22242D01*
X49658Y-22330D01*
X49683Y-22414D01*
X49725Y-22491D01*
X49780Y-22559D01*
X49848Y-22615D01*
X49925Y-22657D01*
X50009Y-22683D01*
X50096Y-22692D01*
X50184Y-22684D01*
X50268Y-22660D01*
X50346Y-22619D01*
X50414Y-22564D01*
X50471Y-22497D01*
X50513Y-22420D01*
X50540Y-22336D01*
X50549Y-22249D01*
X50550Y-22242D01*
X50550Y-24957D01*
X50541Y-24869D01*
X50516Y-24785D01*
X50474Y-24708D01*
X50419Y-24640D01*
X50351Y-24584D01*
X50274Y-24542D01*
X50190Y-24516D01*
X50103Y-24507D01*
X50015Y-24515D01*
X49931Y-24539D01*
X49853Y-24580D01*
X49785Y-24635D01*
X49728Y-24702D01*
X49686Y-24779D01*
X49659Y-24863D01*
X49650Y-24950D01*
X49650Y-24957D01*
X49650Y-25242D01*
X49658Y-25330D01*
X49683Y-25414D01*
X49725Y-25491D01*
X49780Y-25559D01*
X49848Y-25615D01*
X49925Y-25657D01*
X50009Y-25683D01*
X50096Y-25692D01*
X50184Y-25684D01*
X50268Y-25660D01*
X50346Y-25619D01*
X50414Y-25564D01*
X50471Y-25497D01*
X50513Y-25420D01*
X50540Y-25336D01*
X50549Y-25249D01*
X50550Y-25242D01*
X50550Y-26737D01*
X50510Y-26711D01*
X50430Y-26677D01*
X50346Y-26660D01*
X50259Y-26659D01*
X50175Y-26675D01*
X50095Y-26708D01*
X50022Y-26755D01*
X49961Y-26815D01*
X49912Y-26887D01*
X49878Y-26966D01*
X49860Y-27050D01*
X49859Y-27136D01*
X49874Y-27221D01*
X49906Y-27302D01*
X49953Y-27374D01*
X50013Y-27436D01*
X50084Y-27485D01*
X50163Y-27520D01*
X50247Y-27539D01*
X50333Y-27540D01*
X50418Y-27525D01*
X50499Y-27494D01*
X50572Y-27448D01*
X50634Y-27388D01*
X50684Y-27318D01*
X50719Y-27239D01*
X50738Y-27155D01*
X50740Y-27056D01*
X50740Y-29560D01*
X49740Y-29560D01*
X49740Y-27056D01*
X49723Y-26972D01*
X49690Y-26892D01*
X49642Y-26820D01*
X49581Y-26759D01*
X49550Y-26737D01*
X49550Y-25242D01*
X49550Y-24957D01*
X49550Y-22242D01*
X49550Y-21957D01*
X49541Y-21869D01*
X49516Y-21785D01*
X49474Y-21708D01*
X49419Y-21640D01*
X49351Y-21584D01*
X49274Y-21542D01*
X49190Y-21516D01*
X49103Y-21507D01*
X49015Y-21515D01*
X48931Y-21539D01*
X48853Y-21580D01*
X48785Y-21635D01*
X48740Y-21689D01*
X48740Y-20056D01*
X48723Y-19972D01*
X48690Y-19892D01*
X48642Y-19820D01*
X48581Y-19759D01*
X48510Y-19711D01*
X48430Y-19677D01*
X48346Y-19660D01*
X48259Y-19659D01*
X48175Y-19675D01*
X48095Y-19708D01*
X48022Y-19755D01*
X47961Y-19815D01*
X47912Y-19887D01*
X47878Y-19966D01*
X47860Y-20050D01*
X47859Y-20136D01*
X47874Y-20221D01*
X47906Y-20302D01*
X47953Y-20374D01*
X48013Y-20436D01*
X48084Y-20485D01*
X48163Y-20520D01*
X48247Y-20539D01*
X48333Y-20540D01*
X48418Y-20525D01*
X48499Y-20494D01*
X48572Y-20448D01*
X48634Y-20388D01*
X48684Y-20318D01*
X48719Y-20239D01*
X48738Y-20155D01*
X48740Y-20056D01*
X48740Y-21689D01*
X48728Y-21702D01*
X48686Y-21779D01*
X48659Y-21863D01*
X48650Y-21950D01*
X48650Y-21957D01*
X48650Y-22242D01*
X48658Y-22330D01*
X48683Y-22414D01*
X48725Y-22491D01*
X48780Y-22559D01*
X48848Y-22615D01*
X48925Y-22657D01*
X49009Y-22683D01*
X49096Y-22692D01*
X49184Y-22684D01*
X49268Y-22660D01*
X49346Y-22619D01*
X49414Y-22564D01*
X49471Y-22497D01*
X49513Y-22420D01*
X49540Y-22336D01*
X49549Y-22249D01*
X49550Y-22242D01*
X49550Y-24957D01*
X49541Y-24869D01*
X49516Y-24785D01*
X49474Y-24708D01*
X49419Y-24640D01*
X49351Y-24584D01*
X49274Y-24542D01*
X49190Y-24516D01*
X49103Y-24507D01*
X49015Y-24515D01*
X48931Y-24539D01*
X48853Y-24580D01*
X48785Y-24635D01*
X48728Y-24702D01*
X48686Y-24779D01*
X48659Y-24863D01*
X48650Y-24950D01*
X48650Y-24957D01*
X48650Y-25242D01*
X48658Y-25330D01*
X48683Y-25414D01*
X48725Y-25491D01*
X48780Y-25559D01*
X48848Y-25615D01*
X48925Y-25657D01*
X49009Y-25683D01*
X49096Y-25692D01*
X49184Y-25684D01*
X49268Y-25660D01*
X49346Y-25619D01*
X49414Y-25564D01*
X49471Y-25497D01*
X49513Y-25420D01*
X49540Y-25336D01*
X49549Y-25249D01*
X49550Y-25242D01*
X49550Y-26737D01*
X49510Y-26711D01*
X49430Y-26677D01*
X49346Y-26660D01*
X49259Y-26659D01*
X49175Y-26675D01*
X49095Y-26708D01*
X49022Y-26755D01*
X48961Y-26815D01*
X48912Y-26887D01*
X48878Y-26966D01*
X48860Y-27050D01*
X48859Y-27136D01*
X48874Y-27221D01*
X48906Y-27302D01*
X48953Y-27374D01*
X49013Y-27436D01*
X49084Y-27485D01*
X49163Y-27520D01*
X49247Y-27539D01*
X49333Y-27540D01*
X49418Y-27525D01*
X49499Y-27494D01*
X49572Y-27448D01*
X49634Y-27388D01*
X49684Y-27318D01*
X49719Y-27239D01*
X49738Y-27155D01*
X49740Y-27056D01*
X49740Y-29560D01*
X48740Y-29560D01*
X48740Y-27056D01*
X48723Y-26972D01*
X48690Y-26892D01*
X48642Y-26820D01*
X48581Y-26759D01*
X48550Y-26737D01*
X48550Y-25242D01*
X48550Y-24957D01*
X48550Y-22242D01*
X48550Y-21957D01*
X48541Y-21869D01*
X48516Y-21785D01*
X48474Y-21708D01*
X48419Y-21640D01*
X48351Y-21584D01*
X48274Y-21542D01*
X48190Y-21516D01*
X48103Y-21507D01*
X48015Y-21515D01*
X47931Y-21539D01*
X47853Y-21580D01*
X47785Y-21635D01*
X47740Y-21689D01*
X47740Y-20056D01*
X47723Y-19972D01*
X47690Y-19892D01*
X47642Y-19820D01*
X47581Y-19759D01*
X47510Y-19711D01*
X47430Y-19677D01*
X47346Y-19660D01*
X47259Y-19659D01*
X47175Y-19675D01*
X47095Y-19708D01*
X47022Y-19755D01*
X46961Y-19815D01*
X46912Y-19887D01*
X46878Y-19966D01*
X46860Y-20050D01*
X46859Y-20136D01*
X46874Y-20221D01*
X46906Y-20302D01*
X46953Y-20374D01*
X47013Y-20436D01*
X47084Y-20485D01*
X47163Y-20520D01*
X47247Y-20539D01*
X47333Y-20540D01*
X47418Y-20525D01*
X47499Y-20494D01*
X47572Y-20448D01*
X47634Y-20388D01*
X47684Y-20318D01*
X47719Y-20239D01*
X47738Y-20155D01*
X47740Y-20056D01*
X47740Y-21689D01*
X47728Y-21702D01*
X47686Y-21779D01*
X47659Y-21863D01*
X47650Y-21950D01*
X47650Y-21957D01*
X47650Y-22242D01*
X47658Y-22330D01*
X47683Y-22414D01*
X47725Y-22491D01*
X47780Y-22559D01*
X47848Y-22615D01*
X47925Y-22657D01*
X48009Y-22683D01*
X48096Y-22692D01*
X48184Y-22684D01*
X48268Y-22660D01*
X48346Y-22619D01*
X48414Y-22564D01*
X48471Y-22497D01*
X48513Y-22420D01*
X48540Y-22336D01*
X48549Y-22249D01*
X48550Y-22242D01*
X48550Y-24957D01*
X48541Y-24869D01*
X48516Y-24785D01*
X48474Y-24708D01*
X48419Y-24640D01*
X48351Y-24584D01*
X48274Y-24542D01*
X48190Y-24516D01*
X48103Y-24507D01*
X48015Y-24515D01*
X47931Y-24539D01*
X47853Y-24580D01*
X47785Y-24635D01*
X47728Y-24702D01*
X47686Y-24779D01*
X47659Y-24863D01*
X47650Y-24950D01*
X47650Y-24957D01*
X47650Y-25242D01*
X47658Y-25330D01*
X47683Y-25414D01*
X47725Y-25491D01*
X47780Y-25559D01*
X47848Y-25615D01*
X47925Y-25657D01*
X48009Y-25683D01*
X48096Y-25692D01*
X48184Y-25684D01*
X48268Y-25660D01*
X48346Y-25619D01*
X48414Y-25564D01*
X48471Y-25497D01*
X48513Y-25420D01*
X48540Y-25336D01*
X48549Y-25249D01*
X48550Y-25242D01*
X48550Y-26737D01*
X48510Y-26711D01*
X48430Y-26677D01*
X48346Y-26660D01*
X48259Y-26659D01*
X48175Y-26675D01*
X48095Y-26708D01*
X48022Y-26755D01*
X47961Y-26815D01*
X47912Y-26887D01*
X47878Y-26966D01*
X47860Y-27050D01*
X47859Y-27136D01*
X47874Y-27221D01*
X47906Y-27302D01*
X47953Y-27374D01*
X48013Y-27436D01*
X48084Y-27485D01*
X48163Y-27520D01*
X48247Y-27539D01*
X48333Y-27540D01*
X48418Y-27525D01*
X48499Y-27494D01*
X48572Y-27448D01*
X48634Y-27388D01*
X48684Y-27318D01*
X48719Y-27239D01*
X48738Y-27155D01*
X48740Y-27056D01*
X48740Y-29560D01*
X47740Y-29560D01*
X47740Y-27056D01*
X47723Y-26972D01*
X47690Y-26892D01*
X47642Y-26820D01*
X47581Y-26759D01*
X47550Y-26737D01*
X47550Y-25242D01*
X47550Y-24957D01*
X47550Y-22242D01*
X47550Y-21957D01*
X47541Y-21869D01*
X47516Y-21785D01*
X47474Y-21708D01*
X47419Y-21640D01*
X47351Y-21584D01*
X47274Y-21542D01*
X47190Y-21516D01*
X47103Y-21507D01*
X47015Y-21515D01*
X46931Y-21539D01*
X46853Y-21580D01*
X46841Y-21590D01*
X46841Y-20062D01*
X46823Y-19958D01*
X46786Y-19859D01*
X46771Y-19831D01*
X46681Y-19803D01*
X46596Y-19888D01*
X46596Y-19718D01*
X46568Y-19628D01*
X46471Y-19585D01*
X46368Y-19561D01*
X46262Y-19558D01*
X46158Y-19576D01*
X46059Y-19613D01*
X46031Y-19628D01*
X46003Y-19718D01*
X46300Y-20015D01*
X46596Y-19718D01*
X46596Y-19888D01*
X46384Y-20100D01*
X46681Y-20396D01*
X46771Y-20368D01*
X46814Y-20271D01*
X46838Y-20168D01*
X46841Y-20062D01*
X46841Y-21590D01*
X46785Y-21635D01*
X46728Y-21702D01*
X46686Y-21779D01*
X46659Y-21863D01*
X46650Y-21950D01*
X46650Y-21957D01*
X46650Y-22242D01*
X46658Y-22330D01*
X46683Y-22414D01*
X46725Y-22491D01*
X46780Y-22559D01*
X46848Y-22615D01*
X46925Y-22657D01*
X47009Y-22683D01*
X47096Y-22692D01*
X47184Y-22684D01*
X47268Y-22660D01*
X47346Y-22619D01*
X47414Y-22564D01*
X47471Y-22497D01*
X47513Y-22420D01*
X47540Y-22336D01*
X47549Y-22249D01*
X47550Y-22242D01*
X47550Y-24957D01*
X47541Y-24869D01*
X47516Y-24785D01*
X47474Y-24708D01*
X47419Y-24640D01*
X47351Y-24584D01*
X47274Y-24542D01*
X47190Y-24516D01*
X47103Y-24507D01*
X47015Y-24515D01*
X46931Y-24539D01*
X46853Y-24580D01*
X46785Y-24635D01*
X46728Y-24702D01*
X46686Y-24779D01*
X46659Y-24863D01*
X46650Y-24950D01*
X46650Y-24957D01*
X46650Y-25242D01*
X46658Y-25330D01*
X46683Y-25414D01*
X46725Y-25491D01*
X46780Y-25559D01*
X46848Y-25615D01*
X46925Y-25657D01*
X47009Y-25683D01*
X47096Y-25692D01*
X47184Y-25684D01*
X47268Y-25660D01*
X47346Y-25619D01*
X47414Y-25564D01*
X47471Y-25497D01*
X47513Y-25420D01*
X47540Y-25336D01*
X47549Y-25249D01*
X47550Y-25242D01*
X47550Y-26737D01*
X47510Y-26711D01*
X47430Y-26677D01*
X47346Y-26660D01*
X47259Y-26659D01*
X47175Y-26675D01*
X47095Y-26708D01*
X47022Y-26755D01*
X46961Y-26815D01*
X46912Y-26887D01*
X46878Y-26966D01*
X46860Y-27050D01*
X46859Y-27136D01*
X46874Y-27221D01*
X46906Y-27302D01*
X46953Y-27374D01*
X47013Y-27436D01*
X47084Y-27485D01*
X47163Y-27520D01*
X47247Y-27539D01*
X47333Y-27540D01*
X47418Y-27525D01*
X47499Y-27494D01*
X47572Y-27448D01*
X47634Y-27388D01*
X47684Y-27318D01*
X47719Y-27239D01*
X47738Y-27155D01*
X47740Y-27056D01*
X47740Y-29560D01*
X46841Y-29560D01*
X46841Y-27062D01*
X46823Y-26958D01*
X46786Y-26859D01*
X46771Y-26831D01*
X46681Y-26803D01*
X46596Y-26888D01*
X46596Y-26718D01*
X46596Y-20481D01*
X46300Y-20184D01*
X46215Y-20269D01*
X46215Y-20100D01*
X45918Y-19803D01*
X45828Y-19831D01*
X45785Y-19928D01*
X45761Y-20031D01*
X45758Y-20137D01*
X45776Y-20241D01*
X45813Y-20340D01*
X45828Y-20368D01*
X45918Y-20396D01*
X46215Y-20100D01*
X46215Y-20269D01*
X46003Y-20481D01*
X46031Y-20571D01*
X46128Y-20614D01*
X46231Y-20638D01*
X46337Y-20641D01*
X46441Y-20623D01*
X46540Y-20586D01*
X46568Y-20571D01*
X46596Y-20481D01*
X46596Y-26718D01*
X46568Y-26628D01*
X46471Y-26585D01*
X46368Y-26561D01*
X46262Y-26558D01*
X46158Y-26576D01*
X46059Y-26613D01*
X46031Y-26628D01*
X46003Y-26718D01*
X46300Y-27015D01*
X46596Y-26718D01*
X46596Y-26888D01*
X46384Y-27100D01*
X46681Y-27396D01*
X46771Y-27368D01*
X46814Y-27271D01*
X46838Y-27168D01*
X46841Y-27062D01*
X46841Y-29560D01*
X46596Y-29560D01*
X46596Y-27481D01*
X46300Y-27184D01*
X46215Y-27269D01*
X46215Y-27100D01*
X45918Y-26803D01*
X45828Y-26831D01*
X45785Y-26928D01*
X45761Y-27031D01*
X45758Y-27137D01*
X45776Y-27241D01*
X45813Y-27340D01*
X45828Y-27368D01*
X45918Y-27396D01*
X46215Y-27100D01*
X46215Y-27269D01*
X46003Y-27481D01*
X46031Y-27571D01*
X46128Y-27614D01*
X46231Y-27638D01*
X46337Y-27641D01*
X46441Y-27623D01*
X46540Y-27586D01*
X46568Y-27571D01*
X46596Y-27481D01*
X46596Y-29560D01*
X44740Y-29560D01*
X44740Y-20387D01*
X44740Y-19786D01*
X44734Y-19759D01*
X44724Y-19733D01*
X44709Y-19711D01*
X44689Y-19691D01*
X44666Y-19676D01*
X44641Y-19665D01*
X44614Y-19660D01*
X44587Y-19659D01*
X43986Y-19659D01*
X43959Y-19665D01*
X43933Y-19675D01*
X43911Y-19690D01*
X43891Y-19710D01*
X43876Y-19733D01*
X43865Y-19758D01*
X43860Y-19785D01*
X43859Y-19812D01*
X43859Y-20413D01*
X43865Y-20440D01*
X43875Y-20466D01*
X43890Y-20488D01*
X43910Y-20508D01*
X43933Y-20523D01*
X43958Y-20534D01*
X43985Y-20539D01*
X44012Y-20540D01*
X44613Y-20540D01*
X44640Y-20534D01*
X44666Y-20524D01*
X44688Y-20509D01*
X44708Y-20489D01*
X44723Y-20466D01*
X44734Y-20441D01*
X44739Y-20414D01*
X44740Y-20387D01*
X44740Y-29560D01*
X44740Y-29560D01*
X44740Y-27056D01*
X44740Y-26056D01*
X44740Y-25056D01*
X44740Y-24056D01*
X44740Y-23056D01*
X44740Y-22056D01*
X44740Y-21056D01*
X44723Y-20972D01*
X44690Y-20892D01*
X44642Y-20820D01*
X44581Y-20759D01*
X44510Y-20711D01*
X44430Y-20677D01*
X44346Y-20660D01*
X44259Y-20659D01*
X44175Y-20675D01*
X44095Y-20708D01*
X44022Y-20755D01*
X43961Y-20815D01*
X43912Y-20887D01*
X43878Y-20966D01*
X43860Y-21050D01*
X43859Y-21136D01*
X43874Y-21221D01*
X43906Y-21302D01*
X43953Y-21374D01*
X44013Y-21436D01*
X44084Y-21485D01*
X44163Y-21520D01*
X44247Y-21539D01*
X44333Y-21540D01*
X44418Y-21525D01*
X44499Y-21494D01*
X44572Y-21448D01*
X44634Y-21388D01*
X44684Y-21318D01*
X44719Y-21239D01*
X44738Y-21155D01*
X44740Y-21056D01*
X44740Y-22056D01*
X44723Y-21972D01*
X44690Y-21892D01*
X44642Y-21820D01*
X44581Y-21759D01*
X44510Y-21711D01*
X44430Y-21677D01*
X44346Y-21660D01*
X44259Y-21659D01*
X44175Y-21675D01*
X44095Y-21708D01*
X44022Y-21755D01*
X43961Y-21815D01*
X43912Y-21887D01*
X43878Y-21966D01*
X43860Y-22050D01*
X43859Y-22136D01*
X43874Y-22221D01*
X43906Y-22302D01*
X43953Y-22374D01*
X44013Y-22436D01*
X44084Y-22485D01*
X44163Y-22520D01*
X44247Y-22539D01*
X44333Y-22540D01*
X44418Y-22525D01*
X44499Y-22494D01*
X44572Y-22448D01*
X44634Y-22388D01*
X44684Y-22318D01*
X44719Y-22239D01*
X44738Y-22155D01*
X44740Y-22056D01*
X44740Y-23056D01*
X44723Y-22972D01*
X44690Y-22892D01*
X44642Y-22820D01*
X44581Y-22759D01*
X44510Y-22711D01*
X44430Y-22677D01*
X44346Y-22660D01*
X44259Y-22659D01*
X44175Y-22675D01*
X44095Y-22708D01*
X44022Y-22755D01*
X43961Y-22815D01*
X43912Y-22887D01*
X43878Y-22966D01*
X43860Y-23050D01*
X43859Y-23136D01*
X43874Y-23221D01*
X43906Y-23302D01*
X43953Y-23374D01*
X44013Y-23436D01*
X44084Y-23485D01*
X44163Y-23520D01*
X44247Y-23539D01*
X44333Y-23540D01*
X44418Y-23525D01*
X44499Y-23494D01*
X44572Y-23448D01*
X44634Y-23388D01*
X44684Y-23318D01*
X44719Y-23239D01*
X44738Y-23155D01*
X44740Y-23056D01*
X44740Y-24056D01*
X44723Y-23972D01*
X44690Y-23892D01*
X44642Y-23820D01*
X44581Y-23759D01*
X44510Y-23711D01*
X44430Y-23677D01*
X44346Y-23660D01*
X44259Y-23659D01*
X44175Y-23675D01*
X44095Y-23708D01*
X44022Y-23755D01*
X43961Y-23815D01*
X43912Y-23887D01*
X43878Y-23966D01*
X43860Y-24050D01*
X43859Y-24136D01*
X43874Y-24221D01*
X43906Y-24302D01*
X43953Y-24374D01*
X44013Y-24436D01*
X44084Y-24485D01*
X44163Y-24520D01*
X44247Y-24539D01*
X44333Y-24540D01*
X44418Y-24525D01*
X44499Y-24494D01*
X44572Y-24448D01*
X44634Y-24388D01*
X44684Y-24318D01*
X44719Y-24239D01*
X44738Y-24155D01*
X44740Y-24056D01*
X44740Y-25056D01*
X44723Y-24972D01*
X44690Y-24892D01*
X44642Y-24820D01*
X44581Y-24759D01*
X44510Y-24711D01*
X44430Y-24677D01*
X44346Y-24660D01*
X44259Y-24659D01*
X44175Y-24675D01*
X44095Y-24708D01*
X44022Y-24755D01*
X43961Y-24815D01*
X43912Y-24887D01*
X43878Y-24966D01*
X43860Y-25050D01*
X43859Y-25136D01*
X43874Y-25221D01*
X43906Y-25302D01*
X43953Y-25374D01*
X44013Y-25436D01*
X44084Y-25485D01*
X44163Y-25520D01*
X44247Y-25539D01*
X44333Y-25540D01*
X44418Y-25525D01*
X44499Y-25494D01*
X44572Y-25448D01*
X44634Y-25388D01*
X44684Y-25318D01*
X44719Y-25239D01*
X44738Y-25155D01*
X44740Y-25056D01*
X44740Y-26056D01*
X44723Y-25972D01*
X44690Y-25892D01*
X44642Y-25820D01*
X44581Y-25759D01*
X44510Y-25711D01*
X44430Y-25677D01*
X44346Y-25660D01*
X44259Y-25659D01*
X44175Y-25675D01*
X44095Y-25708D01*
X44022Y-25755D01*
X43961Y-25815D01*
X43912Y-25887D01*
X43878Y-25966D01*
X43860Y-26050D01*
X43859Y-26136D01*
X43874Y-26221D01*
X43906Y-26302D01*
X43953Y-26374D01*
X44013Y-26436D01*
X44084Y-26485D01*
X44163Y-26520D01*
X44247Y-26539D01*
X44333Y-26540D01*
X44418Y-26525D01*
X44499Y-26494D01*
X44572Y-26448D01*
X44634Y-26388D01*
X44684Y-26318D01*
X44719Y-26239D01*
X44738Y-26155D01*
X44740Y-26056D01*
X44740Y-27056D01*
X44723Y-26972D01*
X44690Y-26892D01*
X44642Y-26820D01*
X44581Y-26759D01*
X44510Y-26711D01*
X44430Y-26677D01*
X44346Y-26660D01*
X44259Y-26659D01*
X44175Y-26675D01*
X44095Y-26708D01*
X44022Y-26755D01*
X43961Y-26815D01*
X43912Y-26887D01*
X43878Y-26966D01*
X43860Y-27050D01*
X43859Y-27136D01*
X43874Y-27221D01*
X43906Y-27302D01*
X43953Y-27374D01*
X44013Y-27436D01*
X44084Y-27485D01*
X44163Y-27520D01*
X44247Y-27539D01*
X44333Y-27540D01*
X44418Y-27525D01*
X44499Y-27494D01*
X44572Y-27448D01*
X44634Y-27388D01*
X44684Y-27318D01*
X44719Y-27239D01*
X44738Y-27155D01*
X44740Y-27056D01*
X44740Y-29560D01*
X43740Y-29560D01*
X43740Y-20387D01*
X43740Y-19786D01*
X43734Y-19759D01*
X43724Y-19733D01*
X43709Y-19711D01*
X43689Y-19691D01*
X43666Y-19676D01*
X43641Y-19665D01*
X43614Y-19660D01*
X43587Y-19659D01*
X42986Y-19659D01*
X42959Y-19665D01*
X42933Y-19675D01*
X42911Y-19690D01*
X42891Y-19710D01*
X42876Y-19733D01*
X42865Y-19758D01*
X42860Y-19785D01*
X42859Y-19812D01*
X42859Y-20413D01*
X42865Y-20440D01*
X42875Y-20466D01*
X42890Y-20488D01*
X42910Y-20508D01*
X42933Y-20523D01*
X42958Y-20534D01*
X42985Y-20539D01*
X43012Y-20540D01*
X43613Y-20540D01*
X43640Y-20534D01*
X43666Y-20524D01*
X43688Y-20509D01*
X43708Y-20489D01*
X43723Y-20466D01*
X43734Y-20441D01*
X43739Y-20414D01*
X43740Y-20387D01*
X43740Y-29560D01*
X43740Y-29560D01*
X43740Y-27056D01*
X43740Y-26056D01*
X43740Y-25056D01*
X43740Y-24056D01*
X43740Y-23056D01*
X43740Y-22056D01*
X43740Y-21056D01*
X43723Y-20972D01*
X43690Y-20892D01*
X43642Y-20820D01*
X43581Y-20759D01*
X43510Y-20711D01*
X43430Y-20677D01*
X43346Y-20660D01*
X43259Y-20659D01*
X43175Y-20675D01*
X43095Y-20708D01*
X43022Y-20755D01*
X42961Y-20815D01*
X42912Y-20887D01*
X42878Y-20966D01*
X42860Y-21050D01*
X42859Y-21136D01*
X42874Y-21221D01*
X42906Y-21302D01*
X42953Y-21374D01*
X43013Y-21436D01*
X43084Y-21485D01*
X43163Y-21520D01*
X43247Y-21539D01*
X43333Y-21540D01*
X43418Y-21525D01*
X43499Y-21494D01*
X43572Y-21448D01*
X43634Y-21388D01*
X43684Y-21318D01*
X43719Y-21239D01*
X43738Y-21155D01*
X43740Y-21056D01*
X43740Y-22056D01*
X43723Y-21972D01*
X43690Y-21892D01*
X43642Y-21820D01*
X43581Y-21759D01*
X43510Y-21711D01*
X43430Y-21677D01*
X43346Y-21660D01*
X43259Y-21659D01*
X43175Y-21675D01*
X43095Y-21708D01*
X43022Y-21755D01*
X42961Y-21815D01*
X42912Y-21887D01*
X42878Y-21966D01*
X42860Y-22050D01*
X42859Y-22136D01*
X42874Y-22221D01*
X42906Y-22302D01*
X42953Y-22374D01*
X43013Y-22436D01*
X43084Y-22485D01*
X43163Y-22520D01*
X43247Y-22539D01*
X43333Y-22540D01*
X43418Y-22525D01*
X43499Y-22494D01*
X43572Y-22448D01*
X43634Y-22388D01*
X43684Y-22318D01*
X43719Y-22239D01*
X43738Y-22155D01*
X43740Y-22056D01*
X43740Y-23056D01*
X43723Y-22972D01*
X43690Y-22892D01*
X43642Y-22820D01*
X43581Y-22759D01*
X43510Y-22711D01*
X43430Y-22677D01*
X43346Y-22660D01*
X43259Y-22659D01*
X43175Y-22675D01*
X43095Y-22708D01*
X43022Y-22755D01*
X42961Y-22815D01*
X42912Y-22887D01*
X42878Y-22966D01*
X42860Y-23050D01*
X42859Y-23136D01*
X42874Y-23221D01*
X42906Y-23302D01*
X42953Y-23374D01*
X43013Y-23436D01*
X43084Y-23485D01*
X43163Y-23520D01*
X43247Y-23539D01*
X43333Y-23540D01*
X43418Y-23525D01*
X43499Y-23494D01*
X43572Y-23448D01*
X43634Y-23388D01*
X43684Y-23318D01*
X43719Y-23239D01*
X43738Y-23155D01*
X43740Y-23056D01*
X43740Y-24056D01*
X43723Y-23972D01*
X43690Y-23892D01*
X43642Y-23820D01*
X43581Y-23759D01*
X43510Y-23711D01*
X43430Y-23677D01*
X43346Y-23660D01*
X43259Y-23659D01*
X43175Y-23675D01*
X43095Y-23708D01*
X43022Y-23755D01*
X42961Y-23815D01*
X42912Y-23887D01*
X42878Y-23966D01*
X42860Y-24050D01*
X42859Y-24136D01*
X42874Y-24221D01*
X42906Y-24302D01*
X42953Y-24374D01*
X43013Y-24436D01*
X43084Y-24485D01*
X43163Y-24520D01*
X43247Y-24539D01*
X43333Y-24540D01*
X43418Y-24525D01*
X43499Y-24494D01*
X43572Y-24448D01*
X43634Y-24388D01*
X43684Y-24318D01*
X43719Y-24239D01*
X43738Y-24155D01*
X43740Y-24056D01*
X43740Y-25056D01*
X43723Y-24972D01*
X43690Y-24892D01*
X43642Y-24820D01*
X43581Y-24759D01*
X43510Y-24711D01*
X43430Y-24677D01*
X43346Y-24660D01*
X43259Y-24659D01*
X43175Y-24675D01*
X43095Y-24708D01*
X43022Y-24755D01*
X42961Y-24815D01*
X42912Y-24887D01*
X42878Y-24966D01*
X42860Y-25050D01*
X42859Y-25136D01*
X42874Y-25221D01*
X42906Y-25302D01*
X42953Y-25374D01*
X43013Y-25436D01*
X43084Y-25485D01*
X43163Y-25520D01*
X43247Y-25539D01*
X43333Y-25540D01*
X43418Y-25525D01*
X43499Y-25494D01*
X43572Y-25448D01*
X43634Y-25388D01*
X43684Y-25318D01*
X43719Y-25239D01*
X43738Y-25155D01*
X43740Y-25056D01*
X43740Y-26056D01*
X43723Y-25972D01*
X43690Y-25892D01*
X43642Y-25820D01*
X43581Y-25759D01*
X43510Y-25711D01*
X43430Y-25677D01*
X43346Y-25660D01*
X43259Y-25659D01*
X43175Y-25675D01*
X43095Y-25708D01*
X43022Y-25755D01*
X42961Y-25815D01*
X42912Y-25887D01*
X42878Y-25966D01*
X42860Y-26050D01*
X42859Y-26136D01*
X42874Y-26221D01*
X42906Y-26302D01*
X42953Y-26374D01*
X43013Y-26436D01*
X43084Y-26485D01*
X43163Y-26520D01*
X43247Y-26539D01*
X43333Y-26540D01*
X43418Y-26525D01*
X43499Y-26494D01*
X43572Y-26448D01*
X43634Y-26388D01*
X43684Y-26318D01*
X43719Y-26239D01*
X43738Y-26155D01*
X43740Y-26056D01*
X43740Y-27056D01*
X43723Y-26972D01*
X43690Y-26892D01*
X43642Y-26820D01*
X43581Y-26759D01*
X43510Y-26711D01*
X43430Y-26677D01*
X43346Y-26660D01*
X43259Y-26659D01*
X43175Y-26675D01*
X43095Y-26708D01*
X43022Y-26755D01*
X42961Y-26815D01*
X42912Y-26887D01*
X42878Y-26966D01*
X42860Y-27050D01*
X42859Y-27136D01*
X42874Y-27221D01*
X42906Y-27302D01*
X42953Y-27374D01*
X43013Y-27436D01*
X43084Y-27485D01*
X43163Y-27520D01*
X43247Y-27539D01*
X43333Y-27540D01*
X43418Y-27525D01*
X43499Y-27494D01*
X43572Y-27448D01*
X43634Y-27388D01*
X43684Y-27318D01*
X43719Y-27239D01*
X43738Y-27155D01*
X43740Y-27056D01*
X43740Y-29560D01*
X41940Y-29560D01*
X41940Y-17640D01*
X58260Y-17640D01*
X58260Y-29560D01*
X58260Y-29560D01*
G37*
G54D20*
X58260Y-29560D02*
X57990Y-29560D01*
X57990Y-24556D01*
X57990Y-22556D01*
X57973Y-22472D01*
X57940Y-22392D01*
X57892Y-22320D01*
X57831Y-22259D01*
X57760Y-22211D01*
X57680Y-22177D01*
X57596Y-22160D01*
X57509Y-22159D01*
X57425Y-22175D01*
X57345Y-22208D01*
X57272Y-22255D01*
X57211Y-22315D01*
X57162Y-22387D01*
X57128Y-22466D01*
X57110Y-22550D01*
X57109Y-22636D01*
X57124Y-22721D01*
X57156Y-22802D01*
X57203Y-22874D01*
X57263Y-22936D01*
X57334Y-22985D01*
X57413Y-23020D01*
X57497Y-23039D01*
X57583Y-23040D01*
X57668Y-23025D01*
X57749Y-22994D01*
X57822Y-22948D01*
X57884Y-22888D01*
X57934Y-22818D01*
X57969Y-22739D01*
X57988Y-22655D01*
X57990Y-22556D01*
X57990Y-24556D01*
X57973Y-24472D01*
X57940Y-24392D01*
X57892Y-24320D01*
X57831Y-24259D01*
X57760Y-24211D01*
X57680Y-24177D01*
X57596Y-24160D01*
X57509Y-24159D01*
X57458Y-24169D01*
X56719Y-23430D01*
X56702Y-23416D01*
X56685Y-23401D01*
X56684Y-23401D01*
X56683Y-23400D01*
X56663Y-23390D01*
X56644Y-23379D01*
X56643Y-23379D01*
X56642Y-23378D01*
X56621Y-23371D01*
X56599Y-23365D01*
X56598Y-23365D01*
X56597Y-23364D01*
X56575Y-23362D01*
X56553Y-23360D01*
X56550Y-23360D01*
X56550Y-23360D01*
X56550Y-23360D01*
X56550Y-23360D01*
X55918Y-23360D01*
X55892Y-23320D01*
X55831Y-23259D01*
X55790Y-23231D01*
X55790Y-22949D01*
X56344Y-22394D01*
X56358Y-22377D01*
X56373Y-22360D01*
X56373Y-22359D01*
X56374Y-22358D01*
X56384Y-22338D01*
X56395Y-22319D01*
X56395Y-22318D01*
X56396Y-22317D01*
X56403Y-22296D01*
X56409Y-22274D01*
X56409Y-22273D01*
X56410Y-22272D01*
X56412Y-22250D01*
X56414Y-22228D01*
X56414Y-22225D01*
X56414Y-22225D01*
X56414Y-22225D01*
X56415Y-22225D01*
X56415Y-21734D01*
X56415Y-21734D01*
X56441Y-21724D01*
X56463Y-21709D01*
X56483Y-21689D01*
X56498Y-21666D01*
X56509Y-21641D01*
X56514Y-21614D01*
X56515Y-21587D01*
X56515Y-21186D01*
X56509Y-21159D01*
X56499Y-21133D01*
X56484Y-21111D01*
X56464Y-21091D01*
X56441Y-21076D01*
X56416Y-21065D01*
X56389Y-21060D01*
X56362Y-21059D01*
X56020Y-21059D01*
X56010Y-21046D01*
X55977Y-21013D01*
X55938Y-20987D01*
X55894Y-20969D01*
X55848Y-20959D01*
X55745Y-20960D01*
X55685Y-21020D01*
X55685Y-21300D01*
X55685Y-21340D01*
X55685Y-21460D01*
X55685Y-21500D01*
X55685Y-21780D01*
X55745Y-21840D01*
X55848Y-21840D01*
X55894Y-21830D01*
X55935Y-21814D01*
X55935Y-22125D01*
X55565Y-22495D01*
X55565Y-21780D01*
X55565Y-21460D01*
X55565Y-21340D01*
X55565Y-21020D01*
X55505Y-20960D01*
X55401Y-20959D01*
X55355Y-20969D01*
X55311Y-20987D01*
X55272Y-21013D01*
X55239Y-21046D01*
X55212Y-21085D01*
X55194Y-21128D01*
X55185Y-21174D01*
X55184Y-21221D01*
X55185Y-21280D01*
X55245Y-21340D01*
X55565Y-21340D01*
X55565Y-21460D01*
X55245Y-21460D01*
X55185Y-21520D01*
X55184Y-21578D01*
X55185Y-21625D01*
X55194Y-21671D01*
X55212Y-21714D01*
X55239Y-21753D01*
X55272Y-21786D01*
X55311Y-21812D01*
X55355Y-21830D01*
X55401Y-21840D01*
X55505Y-21840D01*
X55565Y-21780D01*
X55565Y-22495D01*
X55380Y-22680D01*
X55366Y-22697D01*
X55351Y-22714D01*
X55351Y-22715D01*
X55350Y-22716D01*
X55340Y-22736D01*
X55329Y-22755D01*
X55329Y-22756D01*
X55328Y-22757D01*
X55321Y-22778D01*
X55315Y-22800D01*
X55315Y-22801D01*
X55314Y-22802D01*
X55312Y-22824D01*
X55310Y-22846D01*
X55310Y-22849D01*
X55310Y-22849D01*
X55310Y-22849D01*
X55310Y-22850D01*
X55310Y-23231D01*
X55272Y-23255D01*
X55211Y-23315D01*
X55162Y-23387D01*
X55128Y-23466D01*
X55110Y-23550D01*
X55109Y-23636D01*
X55124Y-23721D01*
X55156Y-23802D01*
X55203Y-23874D01*
X55263Y-23936D01*
X55334Y-23985D01*
X55413Y-24020D01*
X55497Y-24039D01*
X55583Y-24040D01*
X55668Y-24025D01*
X55749Y-23994D01*
X55822Y-23948D01*
X55884Y-23888D01*
X55919Y-23840D01*
X56450Y-23840D01*
X57119Y-24508D01*
X57110Y-24550D01*
X57109Y-24636D01*
X57124Y-24721D01*
X57156Y-24802D01*
X57203Y-24874D01*
X57263Y-24936D01*
X57334Y-24985D01*
X57413Y-25020D01*
X57497Y-25039D01*
X57583Y-25040D01*
X57668Y-25025D01*
X57749Y-24994D01*
X57822Y-24948D01*
X57884Y-24888D01*
X57934Y-24818D01*
X57969Y-24739D01*
X57988Y-24655D01*
X57990Y-24556D01*
X57990Y-29560D01*
X54650Y-29560D01*
X54650Y-22528D01*
X54650Y-21671D01*
X54649Y-21624D01*
X54640Y-21578D01*
X54622Y-21535D01*
X54595Y-21496D01*
X54562Y-21463D01*
X54523Y-21437D01*
X54479Y-21419D01*
X54433Y-21409D01*
X54220Y-21410D01*
X54160Y-21470D01*
X54160Y-22040D01*
X54590Y-22040D01*
X54650Y-21980D01*
X54650Y-21671D01*
X54650Y-22528D01*
X54650Y-22220D01*
X54590Y-22160D01*
X54160Y-22160D01*
X54160Y-22730D01*
X54220Y-22790D01*
X54433Y-22790D01*
X54479Y-22780D01*
X54523Y-22762D01*
X54562Y-22736D01*
X54595Y-22703D01*
X54622Y-22664D01*
X54640Y-22621D01*
X54649Y-22575D01*
X54650Y-22528D01*
X54650Y-29560D01*
X54550Y-29560D01*
X54550Y-25242D01*
X54550Y-24957D01*
X54541Y-24869D01*
X54516Y-24785D01*
X54474Y-24708D01*
X54419Y-24640D01*
X54351Y-24584D01*
X54274Y-24542D01*
X54190Y-24516D01*
X54103Y-24507D01*
X54040Y-24512D01*
X54040Y-22730D01*
X54040Y-22160D01*
X53610Y-22160D01*
X53550Y-22220D01*
X53550Y-21980D01*
X53610Y-22040D01*
X54040Y-22040D01*
X54040Y-21470D01*
X53980Y-21410D01*
X53766Y-21409D01*
X53740Y-21415D01*
X53740Y-20387D01*
X53740Y-19786D01*
X53734Y-19759D01*
X53724Y-19733D01*
X53709Y-19711D01*
X53689Y-19691D01*
X53666Y-19676D01*
X53641Y-19665D01*
X53614Y-19660D01*
X53587Y-19659D01*
X52986Y-19659D01*
X52959Y-19665D01*
X52933Y-19675D01*
X52911Y-19690D01*
X52891Y-19710D01*
X52876Y-19733D01*
X52865Y-19758D01*
X52860Y-19785D01*
X52859Y-19812D01*
X52859Y-20413D01*
X52865Y-20440D01*
X52875Y-20466D01*
X52890Y-20488D01*
X52910Y-20508D01*
X52933Y-20523D01*
X52958Y-20534D01*
X52985Y-20539D01*
X53012Y-20540D01*
X53613Y-20540D01*
X53640Y-20534D01*
X53666Y-20524D01*
X53688Y-20509D01*
X53708Y-20489D01*
X53723Y-20466D01*
X53734Y-20441D01*
X53739Y-20414D01*
X53740Y-20387D01*
X53740Y-21415D01*
X53720Y-21419D01*
X53676Y-21437D01*
X53637Y-21463D01*
X53604Y-21496D01*
X53577Y-21535D01*
X53559Y-21578D01*
X53550Y-21624D01*
X53549Y-21671D01*
X53549Y-21957D01*
X53541Y-21869D01*
X53516Y-21785D01*
X53474Y-21708D01*
X53419Y-21640D01*
X53351Y-21584D01*
X53274Y-21542D01*
X53190Y-21516D01*
X53103Y-21507D01*
X53015Y-21515D01*
X52931Y-21539D01*
X52853Y-21580D01*
X52785Y-21635D01*
X52740Y-21689D01*
X52740Y-20056D01*
X52723Y-19972D01*
X52690Y-19892D01*
X52642Y-19820D01*
X52581Y-19759D01*
X52510Y-19711D01*
X52430Y-19677D01*
X52346Y-19660D01*
X52259Y-19659D01*
X52175Y-19675D01*
X52095Y-19708D01*
X52022Y-19755D01*
X51961Y-19815D01*
X51912Y-19887D01*
X51878Y-19966D01*
X51860Y-20050D01*
X51859Y-20136D01*
X51874Y-20221D01*
X51906Y-20302D01*
X51953Y-20374D01*
X52013Y-20436D01*
X52084Y-20485D01*
X52163Y-20520D01*
X52247Y-20539D01*
X52333Y-20540D01*
X52418Y-20525D01*
X52499Y-20494D01*
X52572Y-20448D01*
X52634Y-20388D01*
X52684Y-20318D01*
X52719Y-20239D01*
X52738Y-20155D01*
X52740Y-20056D01*
X52740Y-21689D01*
X52728Y-21702D01*
X52686Y-21779D01*
X52659Y-21863D01*
X52650Y-21950D01*
X52650Y-21957D01*
X52650Y-22242D01*
X52658Y-22330D01*
X52683Y-22414D01*
X52725Y-22491D01*
X52780Y-22559D01*
X52848Y-22615D01*
X52925Y-22657D01*
X53009Y-22683D01*
X53096Y-22692D01*
X53184Y-22684D01*
X53268Y-22660D01*
X53346Y-22619D01*
X53414Y-22564D01*
X53471Y-22497D01*
X53513Y-22420D01*
X53540Y-22336D01*
X53549Y-22249D01*
X53549Y-22244D01*
X53549Y-22528D01*
X53550Y-22575D01*
X53559Y-22621D01*
X53577Y-22664D01*
X53604Y-22703D01*
X53637Y-22736D01*
X53676Y-22762D01*
X53720Y-22780D01*
X53766Y-22790D01*
X53980Y-22790D01*
X54040Y-22730D01*
X54040Y-24512D01*
X54015Y-24515D01*
X53931Y-24539D01*
X53853Y-24580D01*
X53785Y-24635D01*
X53728Y-24702D01*
X53686Y-24779D01*
X53659Y-24863D01*
X53650Y-24950D01*
X53650Y-24957D01*
X53650Y-25242D01*
X53658Y-25330D01*
X53683Y-25414D01*
X53725Y-25491D01*
X53780Y-25559D01*
X53848Y-25615D01*
X53860Y-25622D01*
X53860Y-26200D01*
X53550Y-26510D01*
X53550Y-25242D01*
X53550Y-24957D01*
X53541Y-24869D01*
X53516Y-24785D01*
X53474Y-24708D01*
X53419Y-24640D01*
X53351Y-24584D01*
X53274Y-24542D01*
X53190Y-24516D01*
X53103Y-24507D01*
X53015Y-24515D01*
X52931Y-24539D01*
X52853Y-24580D01*
X52785Y-24635D01*
X52728Y-24702D01*
X52686Y-24779D01*
X52659Y-24863D01*
X52650Y-24950D01*
X52650Y-24957D01*
X52650Y-25242D01*
X52658Y-25330D01*
X52683Y-25414D01*
X52725Y-25491D01*
X52780Y-25559D01*
X52848Y-25615D01*
X52925Y-25657D01*
X53009Y-25683D01*
X53096Y-25692D01*
X53184Y-25684D01*
X53268Y-25660D01*
X53346Y-25619D01*
X53414Y-25564D01*
X53471Y-25497D01*
X53513Y-25420D01*
X53540Y-25336D01*
X53549Y-25249D01*
X53550Y-25242D01*
X53550Y-26510D01*
X53400Y-26659D01*
X52986Y-26659D01*
X52959Y-26665D01*
X52933Y-26675D01*
X52911Y-26690D01*
X52891Y-26710D01*
X52876Y-26733D01*
X52865Y-26758D01*
X52860Y-26785D01*
X52859Y-26812D01*
X52859Y-27413D01*
X52865Y-27440D01*
X52875Y-27466D01*
X52890Y-27488D01*
X52910Y-27508D01*
X52933Y-27523D01*
X52958Y-27534D01*
X52985Y-27539D01*
X53012Y-27540D01*
X53613Y-27540D01*
X53640Y-27534D01*
X53666Y-27524D01*
X53688Y-27509D01*
X53708Y-27489D01*
X53723Y-27466D01*
X53734Y-27441D01*
X53739Y-27414D01*
X53740Y-27387D01*
X53740Y-26999D01*
X54269Y-26469D01*
X54283Y-26452D01*
X54298Y-26435D01*
X54298Y-26434D01*
X54299Y-26433D01*
X54309Y-26413D01*
X54320Y-26394D01*
X54320Y-26393D01*
X54321Y-26392D01*
X54328Y-26371D01*
X54334Y-26349D01*
X54334Y-26348D01*
X54335Y-26347D01*
X54337Y-26325D01*
X54339Y-26303D01*
X54339Y-26300D01*
X54339Y-26300D01*
X54339Y-26300D01*
X54340Y-26300D01*
X54340Y-25622D01*
X54346Y-25619D01*
X54414Y-25564D01*
X54471Y-25497D01*
X54513Y-25420D01*
X54540Y-25336D01*
X54549Y-25249D01*
X54550Y-25242D01*
X54550Y-29560D01*
X52740Y-29560D01*
X52740Y-27056D01*
X52723Y-26972D01*
X52690Y-26892D01*
X52642Y-26820D01*
X52581Y-26759D01*
X52550Y-26737D01*
X52550Y-25242D01*
X52550Y-24957D01*
X52550Y-22242D01*
X52550Y-21957D01*
X52541Y-21869D01*
X52516Y-21785D01*
X52474Y-21708D01*
X52419Y-21640D01*
X52351Y-21584D01*
X52274Y-21542D01*
X52190Y-21516D01*
X52103Y-21507D01*
X52015Y-21515D01*
X51931Y-21539D01*
X51853Y-21580D01*
X51785Y-21635D01*
X51740Y-21689D01*
X51740Y-20056D01*
X51723Y-19972D01*
X51690Y-19892D01*
X51642Y-19820D01*
X51581Y-19759D01*
X51510Y-19711D01*
X51430Y-19677D01*
X51346Y-19660D01*
X51259Y-19659D01*
X51175Y-19675D01*
X51095Y-19708D01*
X51022Y-19755D01*
X50961Y-19815D01*
X50912Y-19887D01*
X50878Y-19966D01*
X50860Y-20050D01*
X50859Y-20136D01*
X50874Y-20221D01*
X50906Y-20302D01*
X50953Y-20374D01*
X51013Y-20436D01*
X51084Y-20485D01*
X51163Y-20520D01*
X51247Y-20539D01*
X51333Y-20540D01*
X51418Y-20525D01*
X51499Y-20494D01*
X51572Y-20448D01*
X51634Y-20388D01*
X51684Y-20318D01*
X51719Y-20239D01*
X51738Y-20155D01*
X51740Y-20056D01*
X51740Y-21689D01*
X51728Y-21702D01*
X51686Y-21779D01*
X51659Y-21863D01*
X51650Y-21950D01*
X51650Y-21957D01*
X51650Y-22242D01*
X51658Y-22330D01*
X51683Y-22414D01*
X51725Y-22491D01*
X51780Y-22559D01*
X51848Y-22615D01*
X51925Y-22657D01*
X52009Y-22683D01*
X52096Y-22692D01*
X52184Y-22684D01*
X52268Y-22660D01*
X52346Y-22619D01*
X52414Y-22564D01*
X52471Y-22497D01*
X52513Y-22420D01*
X52540Y-22336D01*
X52549Y-22249D01*
X52550Y-22242D01*
X52550Y-24957D01*
X52541Y-24869D01*
X52516Y-24785D01*
X52474Y-24708D01*
X52419Y-24640D01*
X52351Y-24584D01*
X52274Y-24542D01*
X52190Y-24516D01*
X52103Y-24507D01*
X52015Y-24515D01*
X51931Y-24539D01*
X51853Y-24580D01*
X51785Y-24635D01*
X51728Y-24702D01*
X51686Y-24779D01*
X51659Y-24863D01*
X51650Y-24950D01*
X51650Y-24957D01*
X51650Y-25242D01*
X51658Y-25330D01*
X51683Y-25414D01*
X51725Y-25491D01*
X51780Y-25559D01*
X51848Y-25615D01*
X51925Y-25657D01*
X52009Y-25683D01*
X52096Y-25692D01*
X52184Y-25684D01*
X52268Y-25660D01*
X52346Y-25619D01*
X52414Y-25564D01*
X52471Y-25497D01*
X52513Y-25420D01*
X52540Y-25336D01*
X52549Y-25249D01*
X52550Y-25242D01*
X52550Y-26737D01*
X52510Y-26711D01*
X52430Y-26677D01*
X52346Y-26660D01*
X52259Y-26659D01*
X52175Y-26675D01*
X52095Y-26708D01*
X52022Y-26755D01*
X51961Y-26815D01*
X51912Y-26887D01*
X51878Y-26966D01*
X51860Y-27050D01*
X51859Y-27136D01*
X51874Y-27221D01*
X51906Y-27302D01*
X51953Y-27374D01*
X52013Y-27436D01*
X52084Y-27485D01*
X52163Y-27520D01*
X52247Y-27539D01*
X52333Y-27540D01*
X52418Y-27525D01*
X52499Y-27494D01*
X52572Y-27448D01*
X52634Y-27388D01*
X52684Y-27318D01*
X52719Y-27239D01*
X52738Y-27155D01*
X52740Y-27056D01*
X52740Y-29560D01*
X51740Y-29560D01*
X51740Y-27056D01*
X51723Y-26972D01*
X51690Y-26892D01*
X51642Y-26820D01*
X51581Y-26759D01*
X51550Y-26737D01*
X51550Y-25242D01*
X51550Y-24957D01*
X51550Y-22242D01*
X51550Y-21957D01*
X51541Y-21869D01*
X51516Y-21785D01*
X51474Y-21708D01*
X51419Y-21640D01*
X51351Y-21584D01*
X51274Y-21542D01*
X51190Y-21516D01*
X51103Y-21507D01*
X51015Y-21515D01*
X50931Y-21539D01*
X50853Y-21580D01*
X50785Y-21635D01*
X50740Y-21689D01*
X50740Y-20056D01*
X50723Y-19972D01*
X50690Y-19892D01*
X50642Y-19820D01*
X50581Y-19759D01*
X50510Y-19711D01*
X50430Y-19677D01*
X50346Y-19660D01*
X50259Y-19659D01*
X50175Y-19675D01*
X50095Y-19708D01*
X50022Y-19755D01*
X49961Y-19815D01*
X49912Y-19887D01*
X49878Y-19966D01*
X49860Y-20050D01*
X49859Y-20136D01*
X49874Y-20221D01*
X49906Y-20302D01*
X49953Y-20374D01*
X50013Y-20436D01*
X50084Y-20485D01*
X50163Y-20520D01*
X50247Y-20539D01*
X50333Y-20540D01*
X50418Y-20525D01*
X50499Y-20494D01*
X50572Y-20448D01*
X50634Y-20388D01*
X50684Y-20318D01*
X50719Y-20239D01*
X50738Y-20155D01*
X50740Y-20056D01*
X50740Y-21689D01*
X50728Y-21702D01*
X50686Y-21779D01*
X50659Y-21863D01*
X50650Y-21950D01*
X50650Y-21957D01*
X50650Y-22242D01*
X50658Y-22330D01*
X50683Y-22414D01*
X50725Y-22491D01*
X50780Y-22559D01*
X50848Y-22615D01*
X50925Y-22657D01*
X51009Y-22683D01*
X51096Y-22692D01*
X51184Y-22684D01*
X51268Y-22660D01*
X51346Y-22619D01*
X51414Y-22564D01*
X51471Y-22497D01*
X51513Y-22420D01*
X51540Y-22336D01*
X51549Y-22249D01*
X51550Y-22242D01*
X51550Y-24957D01*
X51541Y-24869D01*
X51516Y-24785D01*
X51474Y-24708D01*
X51419Y-24640D01*
X51351Y-24584D01*
X51274Y-24542D01*
X51190Y-24516D01*
X51103Y-24507D01*
X51015Y-24515D01*
X50931Y-24539D01*
X50853Y-24580D01*
X50785Y-24635D01*
X50728Y-24702D01*
X50686Y-24779D01*
X50659Y-24863D01*
X50650Y-24950D01*
X50650Y-24957D01*
X50650Y-25242D01*
X50658Y-25330D01*
X50683Y-25414D01*
X50725Y-25491D01*
X50780Y-25559D01*
X50848Y-25615D01*
X50925Y-25657D01*
X51009Y-25683D01*
X51096Y-25692D01*
X51184Y-25684D01*
X51268Y-25660D01*
X51346Y-25619D01*
X51414Y-25564D01*
X51471Y-25497D01*
X51513Y-25420D01*
X51540Y-25336D01*
X51549Y-25249D01*
X51550Y-25242D01*
X51550Y-26737D01*
X51510Y-26711D01*
X51430Y-26677D01*
X51346Y-26660D01*
X51259Y-26659D01*
X51175Y-26675D01*
X51095Y-26708D01*
X51022Y-26755D01*
X50961Y-26815D01*
X50912Y-26887D01*
X50878Y-26966D01*
X50860Y-27050D01*
X50859Y-27136D01*
X50874Y-27221D01*
X50906Y-27302D01*
X50953Y-27374D01*
X51013Y-27436D01*
X51084Y-27485D01*
X51163Y-27520D01*
X51247Y-27539D01*
X51333Y-27540D01*
X51418Y-27525D01*
X51499Y-27494D01*
X51572Y-27448D01*
X51634Y-27388D01*
X51684Y-27318D01*
X51719Y-27239D01*
X51738Y-27155D01*
X51740Y-27056D01*
X51740Y-29560D01*
X50740Y-29560D01*
X50740Y-27056D01*
X50723Y-26972D01*
X50690Y-26892D01*
X50642Y-26820D01*
X50581Y-26759D01*
X50550Y-26737D01*
X50550Y-25242D01*
X50550Y-24957D01*
X50550Y-22242D01*
X50550Y-21957D01*
X50541Y-21869D01*
X50516Y-21785D01*
X50474Y-21708D01*
X50419Y-21640D01*
X50351Y-21584D01*
X50274Y-21542D01*
X50190Y-21516D01*
X50103Y-21507D01*
X50015Y-21515D01*
X49931Y-21539D01*
X49853Y-21580D01*
X49785Y-21635D01*
X49740Y-21689D01*
X49740Y-20056D01*
X49723Y-19972D01*
X49690Y-19892D01*
X49642Y-19820D01*
X49581Y-19759D01*
X49510Y-19711D01*
X49430Y-19677D01*
X49346Y-19660D01*
X49259Y-19659D01*
X49175Y-19675D01*
X49095Y-19708D01*
X49022Y-19755D01*
X48961Y-19815D01*
X48912Y-19887D01*
X48878Y-19966D01*
X48860Y-20050D01*
X48859Y-20136D01*
X48874Y-20221D01*
X48906Y-20302D01*
X48953Y-20374D01*
X49013Y-20436D01*
X49084Y-20485D01*
X49163Y-20520D01*
X49247Y-20539D01*
X49333Y-20540D01*
X49418Y-20525D01*
X49499Y-20494D01*
X49572Y-20448D01*
X49634Y-20388D01*
X49684Y-20318D01*
X49719Y-20239D01*
X49738Y-20155D01*
X49740Y-20056D01*
X49740Y-21689D01*
X49728Y-21702D01*
X49686Y-21779D01*
X49659Y-21863D01*
X49650Y-21950D01*
X49650Y-21957D01*
X49650Y-22242D01*
X49658Y-22330D01*
X49683Y-22414D01*
X49725Y-22491D01*
X49780Y-22559D01*
X49848Y-22615D01*
X49925Y-22657D01*
X50009Y-22683D01*
X50096Y-22692D01*
X50184Y-22684D01*
X50268Y-22660D01*
X50346Y-22619D01*
X50414Y-22564D01*
X50471Y-22497D01*
X50513Y-22420D01*
X50540Y-22336D01*
X50549Y-22249D01*
X50550Y-22242D01*
X50550Y-24957D01*
X50541Y-24869D01*
X50516Y-24785D01*
X50474Y-24708D01*
X50419Y-24640D01*
X50351Y-24584D01*
X50274Y-24542D01*
X50190Y-24516D01*
X50103Y-24507D01*
X50015Y-24515D01*
X49931Y-24539D01*
X49853Y-24580D01*
X49785Y-24635D01*
X49728Y-24702D01*
X49686Y-24779D01*
X49659Y-24863D01*
X49650Y-24950D01*
X49650Y-24957D01*
X49650Y-25242D01*
X49658Y-25330D01*
X49683Y-25414D01*
X49725Y-25491D01*
X49780Y-25559D01*
X49848Y-25615D01*
X49925Y-25657D01*
X50009Y-25683D01*
X50096Y-25692D01*
X50184Y-25684D01*
X50268Y-25660D01*
X50346Y-25619D01*
X50414Y-25564D01*
X50471Y-25497D01*
X50513Y-25420D01*
X50540Y-25336D01*
X50549Y-25249D01*
X50550Y-25242D01*
X50550Y-26737D01*
X50510Y-26711D01*
X50430Y-26677D01*
X50346Y-26660D01*
X50259Y-26659D01*
X50175Y-26675D01*
X50095Y-26708D01*
X50022Y-26755D01*
X49961Y-26815D01*
X49912Y-26887D01*
X49878Y-26966D01*
X49860Y-27050D01*
X49859Y-27136D01*
X49874Y-27221D01*
X49906Y-27302D01*
X49953Y-27374D01*
X50013Y-27436D01*
X50084Y-27485D01*
X50163Y-27520D01*
X50247Y-27539D01*
X50333Y-27540D01*
X50418Y-27525D01*
X50499Y-27494D01*
X50572Y-27448D01*
X50634Y-27388D01*
X50684Y-27318D01*
X50719Y-27239D01*
X50738Y-27155D01*
X50740Y-27056D01*
X50740Y-29560D01*
X49740Y-29560D01*
X49740Y-27056D01*
X49723Y-26972D01*
X49690Y-26892D01*
X49642Y-26820D01*
X49581Y-26759D01*
X49550Y-26737D01*
X49550Y-25242D01*
X49550Y-24957D01*
X49550Y-22242D01*
X49550Y-21957D01*
X49541Y-21869D01*
X49516Y-21785D01*
X49474Y-21708D01*
X49419Y-21640D01*
X49351Y-21584D01*
X49274Y-21542D01*
X49190Y-21516D01*
X49103Y-21507D01*
X49015Y-21515D01*
X48931Y-21539D01*
X48853Y-21580D01*
X48785Y-21635D01*
X48740Y-21689D01*
X48740Y-20056D01*
X48723Y-19972D01*
X48690Y-19892D01*
X48642Y-19820D01*
X48581Y-19759D01*
X48510Y-19711D01*
X48430Y-19677D01*
X48346Y-19660D01*
X48259Y-19659D01*
X48175Y-19675D01*
X48095Y-19708D01*
X48022Y-19755D01*
X47961Y-19815D01*
X47912Y-19887D01*
X47878Y-19966D01*
X47860Y-20050D01*
X47859Y-20136D01*
X47874Y-20221D01*
X47906Y-20302D01*
X47953Y-20374D01*
X48013Y-20436D01*
X48084Y-20485D01*
X48163Y-20520D01*
X48247Y-20539D01*
X48333Y-20540D01*
X48418Y-20525D01*
X48499Y-20494D01*
X48572Y-20448D01*
X48634Y-20388D01*
X48684Y-20318D01*
X48719Y-20239D01*
X48738Y-20155D01*
X48740Y-20056D01*
X48740Y-21689D01*
X48728Y-21702D01*
X48686Y-21779D01*
X48659Y-21863D01*
X48650Y-21950D01*
X48650Y-21957D01*
X48650Y-22242D01*
X48658Y-22330D01*
X48683Y-22414D01*
X48725Y-22491D01*
X48780Y-22559D01*
X48848Y-22615D01*
X48925Y-22657D01*
X49009Y-22683D01*
X49096Y-22692D01*
X49184Y-22684D01*
X49268Y-22660D01*
X49346Y-22619D01*
X49414Y-22564D01*
X49471Y-22497D01*
X49513Y-22420D01*
X49540Y-22336D01*
X49549Y-22249D01*
X49550Y-22242D01*
X49550Y-24957D01*
X49541Y-24869D01*
X49516Y-24785D01*
X49474Y-24708D01*
X49419Y-24640D01*
X49351Y-24584D01*
X49274Y-24542D01*
X49190Y-24516D01*
X49103Y-24507D01*
X49015Y-24515D01*
X48931Y-24539D01*
X48853Y-24580D01*
X48785Y-24635D01*
X48728Y-24702D01*
X48686Y-24779D01*
X48659Y-24863D01*
X48650Y-24950D01*
X48650Y-24957D01*
X48650Y-25242D01*
X48658Y-25330D01*
X48683Y-25414D01*
X48725Y-25491D01*
X48780Y-25559D01*
X48848Y-25615D01*
X48925Y-25657D01*
X49009Y-25683D01*
X49096Y-25692D01*
X49184Y-25684D01*
X49268Y-25660D01*
X49346Y-25619D01*
X49414Y-25564D01*
X49471Y-25497D01*
X49513Y-25420D01*
X49540Y-25336D01*
X49549Y-25249D01*
X49550Y-25242D01*
X49550Y-26737D01*
X49510Y-26711D01*
X49430Y-26677D01*
X49346Y-26660D01*
X49259Y-26659D01*
X49175Y-26675D01*
X49095Y-26708D01*
X49022Y-26755D01*
X48961Y-26815D01*
X48912Y-26887D01*
X48878Y-26966D01*
X48860Y-27050D01*
X48859Y-27136D01*
X48874Y-27221D01*
X48906Y-27302D01*
X48953Y-27374D01*
X49013Y-27436D01*
X49084Y-27485D01*
X49163Y-27520D01*
X49247Y-27539D01*
X49333Y-27540D01*
X49418Y-27525D01*
X49499Y-27494D01*
X49572Y-27448D01*
X49634Y-27388D01*
X49684Y-27318D01*
X49719Y-27239D01*
X49738Y-27155D01*
X49740Y-27056D01*
X49740Y-29560D01*
X48740Y-29560D01*
X48740Y-27056D01*
X48723Y-26972D01*
X48690Y-26892D01*
X48642Y-26820D01*
X48581Y-26759D01*
X48550Y-26737D01*
X48550Y-25242D01*
X48550Y-24957D01*
X48550Y-22242D01*
X48550Y-21957D01*
X48541Y-21869D01*
X48516Y-21785D01*
X48474Y-21708D01*
X48419Y-21640D01*
X48351Y-21584D01*
X48274Y-21542D01*
X48190Y-21516D01*
X48103Y-21507D01*
X48015Y-21515D01*
X47931Y-21539D01*
X47853Y-21580D01*
X47785Y-21635D01*
X47740Y-21689D01*
X47740Y-20056D01*
X47723Y-19972D01*
X47690Y-19892D01*
X47642Y-19820D01*
X47581Y-19759D01*
X47510Y-19711D01*
X47430Y-19677D01*
X47346Y-19660D01*
X47259Y-19659D01*
X47175Y-19675D01*
X47095Y-19708D01*
X47022Y-19755D01*
X46961Y-19815D01*
X46912Y-19887D01*
X46878Y-19966D01*
X46860Y-20050D01*
X46859Y-20136D01*
X46874Y-20221D01*
X46906Y-20302D01*
X46953Y-20374D01*
X47013Y-20436D01*
X47084Y-20485D01*
X47163Y-20520D01*
X47247Y-20539D01*
X47333Y-20540D01*
X47418Y-20525D01*
X47499Y-20494D01*
X47572Y-20448D01*
X47634Y-20388D01*
X47684Y-20318D01*
X47719Y-20239D01*
X47738Y-20155D01*
X47740Y-20056D01*
X47740Y-21689D01*
X47728Y-21702D01*
X47686Y-21779D01*
X47659Y-21863D01*
X47650Y-21950D01*
X47650Y-21957D01*
X47650Y-22242D01*
X47658Y-22330D01*
X47683Y-22414D01*
X47725Y-22491D01*
X47780Y-22559D01*
X47848Y-22615D01*
X47925Y-22657D01*
X48009Y-22683D01*
X48096Y-22692D01*
X48184Y-22684D01*
X48268Y-22660D01*
X48346Y-22619D01*
X48414Y-22564D01*
X48471Y-22497D01*
X48513Y-22420D01*
X48540Y-22336D01*
X48549Y-22249D01*
X48550Y-22242D01*
X48550Y-24957D01*
X48541Y-24869D01*
X48516Y-24785D01*
X48474Y-24708D01*
X48419Y-24640D01*
X48351Y-24584D01*
X48274Y-24542D01*
X48190Y-24516D01*
X48103Y-24507D01*
X48015Y-24515D01*
X47931Y-24539D01*
X47853Y-24580D01*
X47785Y-24635D01*
X47728Y-24702D01*
X47686Y-24779D01*
X47659Y-24863D01*
X47650Y-24950D01*
X47650Y-24957D01*
X47650Y-25242D01*
X47658Y-25330D01*
X47683Y-25414D01*
X47725Y-25491D01*
X47780Y-25559D01*
X47848Y-25615D01*
X47925Y-25657D01*
X48009Y-25683D01*
X48096Y-25692D01*
X48184Y-25684D01*
X48268Y-25660D01*
X48346Y-25619D01*
X48414Y-25564D01*
X48471Y-25497D01*
X48513Y-25420D01*
X48540Y-25336D01*
X48549Y-25249D01*
X48550Y-25242D01*
X48550Y-26737D01*
X48510Y-26711D01*
X48430Y-26677D01*
X48346Y-26660D01*
X48259Y-26659D01*
X48175Y-26675D01*
X48095Y-26708D01*
X48022Y-26755D01*
X47961Y-26815D01*
X47912Y-26887D01*
X47878Y-26966D01*
X47860Y-27050D01*
X47859Y-27136D01*
X47874Y-27221D01*
X47906Y-27302D01*
X47953Y-27374D01*
X48013Y-27436D01*
X48084Y-27485D01*
X48163Y-27520D01*
X48247Y-27539D01*
X48333Y-27540D01*
X48418Y-27525D01*
X48499Y-27494D01*
X48572Y-27448D01*
X48634Y-27388D01*
X48684Y-27318D01*
X48719Y-27239D01*
X48738Y-27155D01*
X48740Y-27056D01*
X48740Y-29560D01*
X47740Y-29560D01*
X47740Y-27056D01*
X47723Y-26972D01*
X47690Y-26892D01*
X47642Y-26820D01*
X47581Y-26759D01*
X47550Y-26737D01*
X47550Y-25242D01*
X47550Y-24957D01*
X47550Y-22242D01*
X47550Y-21957D01*
X47541Y-21869D01*
X47516Y-21785D01*
X47474Y-21708D01*
X47419Y-21640D01*
X47351Y-21584D01*
X47274Y-21542D01*
X47190Y-21516D01*
X47103Y-21507D01*
X47015Y-21515D01*
X46931Y-21539D01*
X46853Y-21580D01*
X46841Y-21590D01*
X46841Y-20062D01*
X46823Y-19958D01*
X46786Y-19859D01*
X46771Y-19831D01*
X46681Y-19803D01*
X46596Y-19888D01*
X46596Y-19718D01*
X46568Y-19628D01*
X46471Y-19585D01*
X46368Y-19561D01*
X46262Y-19558D01*
X46158Y-19576D01*
X46059Y-19613D01*
X46031Y-19628D01*
X46003Y-19718D01*
X46300Y-20015D01*
X46596Y-19718D01*
X46596Y-19888D01*
X46384Y-20100D01*
X46681Y-20396D01*
X46771Y-20368D01*
X46814Y-20271D01*
X46838Y-20168D01*
X46841Y-20062D01*
X46841Y-21590D01*
X46785Y-21635D01*
X46728Y-21702D01*
X46686Y-21779D01*
X46659Y-21863D01*
X46650Y-21950D01*
X46650Y-21957D01*
X46650Y-22242D01*
X46658Y-22330D01*
X46683Y-22414D01*
X46725Y-22491D01*
X46780Y-22559D01*
X46848Y-22615D01*
X46925Y-22657D01*
X47009Y-22683D01*
X47096Y-22692D01*
X47184Y-22684D01*
X47268Y-22660D01*
X47346Y-22619D01*
X47414Y-22564D01*
X47471Y-22497D01*
X47513Y-22420D01*
X47540Y-22336D01*
X47549Y-22249D01*
X47550Y-22242D01*
X47550Y-24957D01*
X47541Y-24869D01*
X47516Y-24785D01*
X47474Y-24708D01*
X47419Y-24640D01*
X47351Y-24584D01*
X47274Y-24542D01*
X47190Y-24516D01*
X47103Y-24507D01*
X47015Y-24515D01*
X46931Y-24539D01*
X46853Y-24580D01*
X46785Y-24635D01*
X46728Y-24702D01*
X46686Y-24779D01*
X46659Y-24863D01*
X46650Y-24950D01*
X46650Y-24957D01*
X46650Y-25242D01*
X46658Y-25330D01*
X46683Y-25414D01*
X46725Y-25491D01*
X46780Y-25559D01*
X46848Y-25615D01*
X46925Y-25657D01*
X47009Y-25683D01*
X47096Y-25692D01*
X47184Y-25684D01*
X47268Y-25660D01*
X47346Y-25619D01*
X47414Y-25564D01*
X47471Y-25497D01*
X47513Y-25420D01*
X47540Y-25336D01*
X47549Y-25249D01*
X47550Y-25242D01*
X47550Y-26737D01*
X47510Y-26711D01*
X47430Y-26677D01*
X47346Y-26660D01*
X47259Y-26659D01*
X47175Y-26675D01*
X47095Y-26708D01*
X47022Y-26755D01*
X46961Y-26815D01*
X46912Y-26887D01*
X46878Y-26966D01*
X46860Y-27050D01*
X46859Y-27136D01*
X46874Y-27221D01*
X46906Y-27302D01*
X46953Y-27374D01*
X47013Y-27436D01*
X47084Y-27485D01*
X47163Y-27520D01*
X47247Y-27539D01*
X47333Y-27540D01*
X47418Y-27525D01*
X47499Y-27494D01*
X47572Y-27448D01*
X47634Y-27388D01*
X47684Y-27318D01*
X47719Y-27239D01*
X47738Y-27155D01*
X47740Y-27056D01*
X47740Y-29560D01*
X46841Y-29560D01*
X46841Y-27062D01*
X46823Y-26958D01*
X46786Y-26859D01*
X46771Y-26831D01*
X46681Y-26803D01*
X46596Y-26888D01*
X46596Y-26718D01*
X46596Y-20481D01*
X46300Y-20184D01*
X46215Y-20269D01*
X46215Y-20100D01*
X45918Y-19803D01*
X45828Y-19831D01*
X45785Y-19928D01*
X45761Y-20031D01*
X45758Y-20137D01*
X45776Y-20241D01*
X45813Y-20340D01*
X45828Y-20368D01*
X45918Y-20396D01*
X46215Y-20100D01*
X46215Y-20269D01*
X46003Y-20481D01*
X46031Y-20571D01*
X46128Y-20614D01*
X46231Y-20638D01*
X46337Y-20641D01*
X46441Y-20623D01*
X46540Y-20586D01*
X46568Y-20571D01*
X46596Y-20481D01*
X46596Y-26718D01*
X46568Y-26628D01*
X46471Y-26585D01*
X46368Y-26561D01*
X46262Y-26558D01*
X46158Y-26576D01*
X46059Y-26613D01*
X46031Y-26628D01*
X46003Y-26718D01*
X46300Y-27015D01*
X46596Y-26718D01*
X46596Y-26888D01*
X46384Y-27100D01*
X46681Y-27396D01*
X46771Y-27368D01*
X46814Y-27271D01*
X46838Y-27168D01*
X46841Y-27062D01*
X46841Y-29560D01*
X46596Y-29560D01*
X46596Y-27481D01*
X46300Y-27184D01*
X46215Y-27269D01*
X46215Y-27100D01*
X45918Y-26803D01*
X45828Y-26831D01*
X45785Y-26928D01*
X45761Y-27031D01*
X45758Y-27137D01*
X45776Y-27241D01*
X45813Y-27340D01*
X45828Y-27368D01*
X45918Y-27396D01*
X46215Y-27100D01*
X46215Y-27269D01*
X46003Y-27481D01*
X46031Y-27571D01*
X46128Y-27614D01*
X46231Y-27638D01*
X46337Y-27641D01*
X46441Y-27623D01*
X46540Y-27586D01*
X46568Y-27571D01*
X46596Y-27481D01*
X46596Y-29560D01*
X44740Y-29560D01*
X44740Y-20387D01*
X44740Y-19786D01*
X44734Y-19759D01*
X44724Y-19733D01*
X44709Y-19711D01*
X44689Y-19691D01*
X44666Y-19676D01*
X44641Y-19665D01*
X44614Y-19660D01*
X44587Y-19659D01*
X43986Y-19659D01*
X43959Y-19665D01*
X43933Y-19675D01*
X43911Y-19690D01*
X43891Y-19710D01*
X43876Y-19733D01*
X43865Y-19758D01*
X43860Y-19785D01*
X43859Y-19812D01*
X43859Y-20413D01*
X43865Y-20440D01*
X43875Y-20466D01*
X43890Y-20488D01*
X43910Y-20508D01*
X43933Y-20523D01*
X43958Y-20534D01*
X43985Y-20539D01*
X44012Y-20540D01*
X44613Y-20540D01*
X44640Y-20534D01*
X44666Y-20524D01*
X44688Y-20509D01*
X44708Y-20489D01*
X44723Y-20466D01*
X44734Y-20441D01*
X44739Y-20414D01*
X44740Y-20387D01*
X44740Y-29560D01*
X44740Y-29560D01*
X44740Y-27056D01*
X44740Y-26056D01*
X44740Y-25056D01*
X44740Y-24056D01*
X44740Y-23056D01*
X44740Y-22056D01*
X44740Y-21056D01*
X44723Y-20972D01*
X44690Y-20892D01*
X44642Y-20820D01*
X44581Y-20759D01*
X44510Y-20711D01*
X44430Y-20677D01*
X44346Y-20660D01*
X44259Y-20659D01*
X44175Y-20675D01*
X44095Y-20708D01*
X44022Y-20755D01*
X43961Y-20815D01*
X43912Y-20887D01*
X43878Y-20966D01*
X43860Y-21050D01*
X43859Y-21136D01*
X43874Y-21221D01*
X43906Y-21302D01*
X43953Y-21374D01*
X44013Y-21436D01*
X44084Y-21485D01*
X44163Y-21520D01*
X44247Y-21539D01*
X44333Y-21540D01*
X44418Y-21525D01*
X44499Y-21494D01*
X44572Y-21448D01*
X44634Y-21388D01*
X44684Y-21318D01*
X44719Y-21239D01*
X44738Y-21155D01*
X44740Y-21056D01*
X44740Y-22056D01*
X44723Y-21972D01*
X44690Y-21892D01*
X44642Y-21820D01*
X44581Y-21759D01*
X44510Y-21711D01*
X44430Y-21677D01*
X44346Y-21660D01*
X44259Y-21659D01*
X44175Y-21675D01*
X44095Y-21708D01*
X44022Y-21755D01*
X43961Y-21815D01*
X43912Y-21887D01*
X43878Y-21966D01*
X43860Y-22050D01*
X43859Y-22136D01*
X43874Y-22221D01*
X43906Y-22302D01*
X43953Y-22374D01*
X44013Y-22436D01*
X44084Y-22485D01*
X44163Y-22520D01*
X44247Y-22539D01*
X44333Y-22540D01*
X44418Y-22525D01*
X44499Y-22494D01*
X44572Y-22448D01*
X44634Y-22388D01*
X44684Y-22318D01*
X44719Y-22239D01*
X44738Y-22155D01*
X44740Y-22056D01*
X44740Y-23056D01*
X44723Y-22972D01*
X44690Y-22892D01*
X44642Y-22820D01*
X44581Y-22759D01*
X44510Y-22711D01*
X44430Y-22677D01*
X44346Y-22660D01*
X44259Y-22659D01*
X44175Y-22675D01*
X44095Y-22708D01*
X44022Y-22755D01*
X43961Y-22815D01*
X43912Y-22887D01*
X43878Y-22966D01*
X43860Y-23050D01*
X43859Y-23136D01*
X43874Y-23221D01*
X43906Y-23302D01*
X43953Y-23374D01*
X44013Y-23436D01*
X44084Y-23485D01*
X44163Y-23520D01*
X44247Y-23539D01*
X44333Y-23540D01*
X44418Y-23525D01*
X44499Y-23494D01*
X44572Y-23448D01*
X44634Y-23388D01*
X44684Y-23318D01*
X44719Y-23239D01*
X44738Y-23155D01*
X44740Y-23056D01*
X44740Y-24056D01*
X44723Y-23972D01*
X44690Y-23892D01*
X44642Y-23820D01*
X44581Y-23759D01*
X44510Y-23711D01*
X44430Y-23677D01*
X44346Y-23660D01*
X44259Y-23659D01*
X44175Y-23675D01*
X44095Y-23708D01*
X44022Y-23755D01*
X43961Y-23815D01*
X43912Y-23887D01*
X43878Y-23966D01*
X43860Y-24050D01*
X43859Y-24136D01*
X43874Y-24221D01*
X43906Y-24302D01*
X43953Y-24374D01*
X44013Y-24436D01*
X44084Y-24485D01*
X44163Y-24520D01*
X44247Y-24539D01*
X44333Y-24540D01*
X44418Y-24525D01*
X44499Y-24494D01*
X44572Y-24448D01*
X44634Y-24388D01*
X44684Y-24318D01*
X44719Y-24239D01*
X44738Y-24155D01*
X44740Y-24056D01*
X44740Y-25056D01*
X44723Y-24972D01*
X44690Y-24892D01*
X44642Y-24820D01*
X44581Y-24759D01*
X44510Y-24711D01*
X44430Y-24677D01*
X44346Y-24660D01*
X44259Y-24659D01*
X44175Y-24675D01*
X44095Y-24708D01*
X44022Y-24755D01*
X43961Y-24815D01*
X43912Y-24887D01*
X43878Y-24966D01*
X43860Y-25050D01*
X43859Y-25136D01*
X43874Y-25221D01*
X43906Y-25302D01*
X43953Y-25374D01*
X44013Y-25436D01*
X44084Y-25485D01*
X44163Y-25520D01*
X44247Y-25539D01*
X44333Y-25540D01*
X44418Y-25525D01*
X44499Y-25494D01*
X44572Y-25448D01*
X44634Y-25388D01*
X44684Y-25318D01*
X44719Y-25239D01*
X44738Y-25155D01*
X44740Y-25056D01*
X44740Y-26056D01*
X44723Y-25972D01*
X44690Y-25892D01*
X44642Y-25820D01*
X44581Y-25759D01*
X44510Y-25711D01*
X44430Y-25677D01*
X44346Y-25660D01*
X44259Y-25659D01*
X44175Y-25675D01*
X44095Y-25708D01*
X44022Y-25755D01*
X43961Y-25815D01*
X43912Y-25887D01*
X43878Y-25966D01*
X43860Y-26050D01*
X43859Y-26136D01*
X43874Y-26221D01*
X43906Y-26302D01*
X43953Y-26374D01*
X44013Y-26436D01*
X44084Y-26485D01*
X44163Y-26520D01*
X44247Y-26539D01*
X44333Y-26540D01*
X44418Y-26525D01*
X44499Y-26494D01*
X44572Y-26448D01*
X44634Y-26388D01*
X44684Y-26318D01*
X44719Y-26239D01*
X44738Y-26155D01*
X44740Y-26056D01*
X44740Y-27056D01*
X44723Y-26972D01*
X44690Y-26892D01*
X44642Y-26820D01*
X44581Y-26759D01*
X44510Y-26711D01*
X44430Y-26677D01*
X44346Y-26660D01*
X44259Y-26659D01*
X44175Y-26675D01*
X44095Y-26708D01*
X44022Y-26755D01*
X43961Y-26815D01*
X43912Y-26887D01*
X43878Y-26966D01*
X43860Y-27050D01*
X43859Y-27136D01*
X43874Y-27221D01*
X43906Y-27302D01*
X43953Y-27374D01*
X44013Y-27436D01*
X44084Y-27485D01*
X44163Y-27520D01*
X44247Y-27539D01*
X44333Y-27540D01*
X44418Y-27525D01*
X44499Y-27494D01*
X44572Y-27448D01*
X44634Y-27388D01*
X44684Y-27318D01*
X44719Y-27239D01*
X44738Y-27155D01*
X44740Y-27056D01*
X44740Y-29560D01*
X43740Y-29560D01*
X43740Y-20387D01*
X43740Y-19786D01*
X43734Y-19759D01*
X43724Y-19733D01*
X43709Y-19711D01*
X43689Y-19691D01*
X43666Y-19676D01*
X43641Y-19665D01*
X43614Y-19660D01*
X43587Y-19659D01*
X42986Y-19659D01*
X42959Y-19665D01*
X42933Y-19675D01*
X42911Y-19690D01*
X42891Y-19710D01*
X42876Y-19733D01*
X42865Y-19758D01*
X42860Y-19785D01*
X42859Y-19812D01*
X42859Y-20413D01*
X42865Y-20440D01*
X42875Y-20466D01*
X42890Y-20488D01*
X42910Y-20508D01*
X42933Y-20523D01*
X42958Y-20534D01*
X42985Y-20539D01*
X43012Y-20540D01*
X43613Y-20540D01*
X43640Y-20534D01*
X43666Y-20524D01*
X43688Y-20509D01*
X43708Y-20489D01*
X43723Y-20466D01*
X43734Y-20441D01*
X43739Y-20414D01*
X43740Y-20387D01*
X43740Y-29560D01*
X43740Y-29560D01*
X43740Y-27056D01*
X43740Y-26056D01*
X43740Y-25056D01*
X43740Y-24056D01*
X43740Y-23056D01*
X43740Y-22056D01*
X43740Y-21056D01*
X43723Y-20972D01*
X43690Y-20892D01*
X43642Y-20820D01*
X43581Y-20759D01*
X43510Y-20711D01*
X43430Y-20677D01*
X43346Y-20660D01*
X43259Y-20659D01*
X43175Y-20675D01*
X43095Y-20708D01*
X43022Y-20755D01*
X42961Y-20815D01*
X42912Y-20887D01*
X42878Y-20966D01*
X42860Y-21050D01*
X42859Y-21136D01*
X42874Y-21221D01*
X42906Y-21302D01*
X42953Y-21374D01*
X43013Y-21436D01*
X43084Y-21485D01*
X43163Y-21520D01*
X43247Y-21539D01*
X43333Y-21540D01*
X43418Y-21525D01*
X43499Y-21494D01*
X43572Y-21448D01*
X43634Y-21388D01*
X43684Y-21318D01*
X43719Y-21239D01*
X43738Y-21155D01*
X43740Y-21056D01*
X43740Y-22056D01*
X43723Y-21972D01*
X43690Y-21892D01*
X43642Y-21820D01*
X43581Y-21759D01*
X43510Y-21711D01*
X43430Y-21677D01*
X43346Y-21660D01*
X43259Y-21659D01*
X43175Y-21675D01*
X43095Y-21708D01*
X43022Y-21755D01*
X42961Y-21815D01*
X42912Y-21887D01*
X42878Y-21966D01*
X42860Y-22050D01*
X42859Y-22136D01*
X42874Y-22221D01*
X42906Y-22302D01*
X42953Y-22374D01*
X43013Y-22436D01*
X43084Y-22485D01*
X43163Y-22520D01*
X43247Y-22539D01*
X43333Y-22540D01*
X43418Y-22525D01*
X43499Y-22494D01*
X43572Y-22448D01*
X43634Y-22388D01*
X43684Y-22318D01*
X43719Y-22239D01*
X43738Y-22155D01*
X43740Y-22056D01*
X43740Y-23056D01*
X43723Y-22972D01*
X43690Y-22892D01*
X43642Y-22820D01*
X43581Y-22759D01*
X43510Y-22711D01*
X43430Y-22677D01*
X43346Y-22660D01*
X43259Y-22659D01*
X43175Y-22675D01*
X43095Y-22708D01*
X43022Y-22755D01*
X42961Y-22815D01*
X42912Y-22887D01*
X42878Y-22966D01*
X42860Y-23050D01*
X42859Y-23136D01*
X42874Y-23221D01*
X42906Y-23302D01*
X42953Y-23374D01*
X43013Y-23436D01*
X43084Y-23485D01*
X43163Y-23520D01*
X43247Y-23539D01*
X43333Y-23540D01*
X43418Y-23525D01*
X43499Y-23494D01*
X43572Y-23448D01*
X43634Y-23388D01*
X43684Y-23318D01*
X43719Y-23239D01*
X43738Y-23155D01*
X43740Y-23056D01*
X43740Y-24056D01*
X43723Y-23972D01*
X43690Y-23892D01*
X43642Y-23820D01*
X43581Y-23759D01*
X43510Y-23711D01*
X43430Y-23677D01*
X43346Y-23660D01*
X43259Y-23659D01*
X43175Y-23675D01*
X43095Y-23708D01*
X43022Y-23755D01*
X42961Y-23815D01*
X42912Y-23887D01*
X42878Y-23966D01*
X42860Y-24050D01*
X42859Y-24136D01*
X42874Y-24221D01*
X42906Y-24302D01*
X42953Y-24374D01*
X43013Y-24436D01*
X43084Y-24485D01*
X43163Y-24520D01*
X43247Y-24539D01*
X43333Y-24540D01*
X43418Y-24525D01*
X43499Y-24494D01*
X43572Y-24448D01*
X43634Y-24388D01*
X43684Y-24318D01*
X43719Y-24239D01*
X43738Y-24155D01*
X43740Y-24056D01*
X43740Y-25056D01*
X43723Y-24972D01*
X43690Y-24892D01*
X43642Y-24820D01*
X43581Y-24759D01*
X43510Y-24711D01*
X43430Y-24677D01*
X43346Y-24660D01*
X43259Y-24659D01*
X43175Y-24675D01*
X43095Y-24708D01*
X43022Y-24755D01*
X42961Y-24815D01*
X42912Y-24887D01*
X42878Y-24966D01*
X42860Y-25050D01*
X42859Y-25136D01*
X42874Y-25221D01*
X42906Y-25302D01*
X42953Y-25374D01*
X43013Y-25436D01*
X43084Y-25485D01*
X43163Y-25520D01*
X43247Y-25539D01*
X43333Y-25540D01*
X43418Y-25525D01*
X43499Y-25494D01*
X43572Y-25448D01*
X43634Y-25388D01*
X43684Y-25318D01*
X43719Y-25239D01*
X43738Y-25155D01*
X43740Y-25056D01*
X43740Y-26056D01*
X43723Y-25972D01*
X43690Y-25892D01*
X43642Y-25820D01*
X43581Y-25759D01*
X43510Y-25711D01*
X43430Y-25677D01*
X43346Y-25660D01*
X43259Y-25659D01*
X43175Y-25675D01*
X43095Y-25708D01*
X43022Y-25755D01*
X42961Y-25815D01*
X42912Y-25887D01*
X42878Y-25966D01*
X42860Y-26050D01*
X42859Y-26136D01*
X42874Y-26221D01*
X42906Y-26302D01*
X42953Y-26374D01*
X43013Y-26436D01*
X43084Y-26485D01*
X43163Y-26520D01*
X43247Y-26539D01*
X43333Y-26540D01*
X43418Y-26525D01*
X43499Y-26494D01*
X43572Y-26448D01*
X43634Y-26388D01*
X43684Y-26318D01*
X43719Y-26239D01*
X43738Y-26155D01*
X43740Y-26056D01*
X43740Y-27056D01*
X43723Y-26972D01*
X43690Y-26892D01*
X43642Y-26820D01*
X43581Y-26759D01*
X43510Y-26711D01*
X43430Y-26677D01*
X43346Y-26660D01*
X43259Y-26659D01*
X43175Y-26675D01*
X43095Y-26708D01*
X43022Y-26755D01*
X42961Y-26815D01*
X42912Y-26887D01*
X42878Y-26966D01*
X42860Y-27050D01*
X42859Y-27136D01*
X42874Y-27221D01*
X42906Y-27302D01*
X42953Y-27374D01*
X43013Y-27436D01*
X43084Y-27485D01*
X43163Y-27520D01*
X43247Y-27539D01*
X43333Y-27540D01*
X43418Y-27525D01*
X43499Y-27494D01*
X43572Y-27448D01*
X43634Y-27388D01*
X43684Y-27318D01*
X43719Y-27239D01*
X43738Y-27155D01*
X43740Y-27056D01*
X43740Y-29560D01*
X41940Y-29560D01*
X41940Y-17640D01*
X58260Y-17640D01*
X58260Y-29560D01*
M02*
