G04 (created by PCBNEW-RS274X (2011-07-08)-stable) date Fri 07 Oct 2011 01:39:22 PM CEST*
G01*
G70*
G90*
%MOIN*%
G04 Gerber Fmt 3.4, Leading zero omitted, Abs format*
%FSLAX34Y34*%
G04 APERTURE LIST*
%ADD10C,0.006000*%
%ADD11C,0.015000*%
%ADD12R,0.055000X0.055000*%
%ADD13C,0.055000*%
%ADD14R,0.040000X0.040000*%
%ADD15C,0.060000*%
%ADD16R,0.062000X0.090000*%
%ADD17O,0.062000X0.090000*%
%ADD18C,0.020000*%
%ADD19C,0.080000*%
%ADD20C,0.060000*%
%ADD21C,0.008000*%
G04 APERTURE END LIST*
G54D10*
G54D11*
X58500Y-29800D02*
X41700Y-29800D01*
X41700Y-17400D02*
X58500Y-17400D01*
X58500Y-29800D02*
X58500Y-17400D01*
X41700Y-17400D02*
X41700Y-29800D01*
G54D12*
X44300Y-20100D03*
G54D13*
X44300Y-21100D03*
X44300Y-22100D03*
X44300Y-23100D03*
X44300Y-24100D03*
X44300Y-25100D03*
X44300Y-26100D03*
X44300Y-27100D03*
G54D12*
X43300Y-20100D03*
G54D13*
X43300Y-21100D03*
X43300Y-22100D03*
X43300Y-23100D03*
X43300Y-24100D03*
X43300Y-25100D03*
X43300Y-26100D03*
X43300Y-27100D03*
G54D12*
X53300Y-20100D03*
G54D13*
X52300Y-20100D03*
X51300Y-20100D03*
X50300Y-20100D03*
X49300Y-20100D03*
X48300Y-20100D03*
X47300Y-20100D03*
X46300Y-20100D03*
G54D12*
X53300Y-27100D03*
G54D13*
X52300Y-27100D03*
X51300Y-27100D03*
X50300Y-27100D03*
X49300Y-27100D03*
X48300Y-27100D03*
X47300Y-27100D03*
X46300Y-27100D03*
G54D14*
X55625Y-21400D03*
X56175Y-21400D03*
G54D15*
X57200Y-24600D03*
X56200Y-23600D03*
X57200Y-22600D03*
G54D16*
X54100Y-22100D03*
G54D17*
X53100Y-22100D03*
X52100Y-22100D03*
X51100Y-22100D03*
X50100Y-22100D03*
X49100Y-22100D03*
X48100Y-22100D03*
X47100Y-22100D03*
X47100Y-25100D03*
X48100Y-25100D03*
X49100Y-25100D03*
X50100Y-25100D03*
X51100Y-25100D03*
X52100Y-25100D03*
X53100Y-25100D03*
X54100Y-25100D03*
G54D18*
X56200Y-23600D02*
X56200Y-21425D01*
X56200Y-21425D02*
X56175Y-21400D01*
X56200Y-23600D02*
X57200Y-24600D01*
X55625Y-21400D02*
X56175Y-21400D01*
X55625Y-21400D02*
X54100Y-21400D01*
X54100Y-21400D02*
X54100Y-22100D01*
G54D19*
X46300Y-23600D02*
X54100Y-23600D01*
G54D20*
X54100Y-23600D02*
X54100Y-22100D01*
G54D19*
X46300Y-20100D02*
X46300Y-23600D01*
X46300Y-23600D02*
X46300Y-27100D01*
G54D10*
G36*
X58260Y-29560D02*
X57640Y-29560D01*
X57640Y-24557D01*
X57640Y-22557D01*
X57623Y-22472D01*
X57590Y-22393D01*
X57543Y-22321D01*
X57482Y-22259D01*
X57410Y-22211D01*
X57331Y-22178D01*
X57246Y-22160D01*
X57160Y-22160D01*
X57075Y-22176D01*
X56995Y-22208D01*
X56923Y-22255D01*
X56861Y-22316D01*
X56813Y-22387D01*
X56779Y-22466D01*
X56761Y-22551D01*
X56759Y-22637D01*
X56775Y-22722D01*
X56807Y-22802D01*
X56853Y-22874D01*
X56913Y-22937D01*
X56984Y-22986D01*
X57063Y-23020D01*
X57148Y-23039D01*
X57234Y-23041D01*
X57319Y-23026D01*
X57399Y-22995D01*
X57472Y-22948D01*
X57535Y-22889D01*
X57584Y-22818D01*
X57619Y-22740D01*
X57639Y-22656D01*
X57640Y-22557D01*
X57640Y-24557D01*
X57623Y-24472D01*
X57590Y-24393D01*
X57543Y-24321D01*
X57482Y-24259D01*
X57410Y-24211D01*
X57331Y-24178D01*
X57246Y-24160D01*
X57160Y-24160D01*
X57109Y-24169D01*
X56630Y-23690D01*
X56639Y-23656D01*
X56640Y-23557D01*
X56623Y-23472D01*
X56590Y-23393D01*
X56543Y-23321D01*
X56482Y-23259D01*
X56440Y-23231D01*
X56440Y-21723D01*
X56441Y-21723D01*
X56464Y-21708D01*
X56483Y-21689D01*
X56498Y-21666D01*
X56509Y-21641D01*
X56514Y-21614D01*
X56514Y-21587D01*
X56514Y-21186D01*
X56509Y-21159D01*
X56498Y-21134D01*
X56483Y-21111D01*
X56464Y-21092D01*
X56441Y-21077D01*
X56416Y-21066D01*
X56389Y-21061D01*
X56362Y-21061D01*
X56020Y-21061D01*
X56011Y-21047D01*
X55978Y-21013D01*
X55939Y-20987D01*
X55895Y-20969D01*
X55849Y-20960D01*
X55745Y-20960D01*
X55685Y-21020D01*
X55685Y-21160D01*
X55625Y-21160D01*
X55578Y-21165D01*
X55565Y-21168D01*
X55565Y-21020D01*
X55505Y-20960D01*
X55401Y-20960D01*
X55355Y-20969D01*
X55311Y-20987D01*
X55272Y-21013D01*
X55239Y-21047D01*
X55213Y-21086D01*
X55194Y-21129D01*
X55185Y-21175D01*
X55185Y-21222D01*
X55185Y-21280D01*
X55245Y-21340D01*
X55393Y-21340D01*
X55390Y-21352D01*
X55385Y-21398D01*
X55389Y-21445D01*
X55393Y-21460D01*
X55245Y-21460D01*
X55185Y-21520D01*
X55185Y-21578D01*
X55185Y-21625D01*
X55194Y-21671D01*
X55213Y-21714D01*
X55239Y-21753D01*
X55272Y-21787D01*
X55311Y-21813D01*
X55355Y-21831D01*
X55401Y-21840D01*
X55505Y-21840D01*
X55565Y-21780D01*
X55565Y-21631D01*
X55575Y-21635D01*
X55622Y-21640D01*
X55625Y-21640D01*
X55685Y-21640D01*
X55685Y-21780D01*
X55745Y-21840D01*
X55849Y-21840D01*
X55895Y-21831D01*
X55939Y-21813D01*
X55960Y-21799D01*
X55960Y-23230D01*
X55923Y-23255D01*
X55861Y-23316D01*
X55813Y-23387D01*
X55779Y-23466D01*
X55761Y-23551D01*
X55759Y-23637D01*
X55775Y-23722D01*
X55807Y-23802D01*
X55853Y-23874D01*
X55913Y-23937D01*
X55984Y-23986D01*
X56063Y-24020D01*
X56148Y-24039D01*
X56234Y-24041D01*
X56290Y-24030D01*
X56769Y-24509D01*
X56761Y-24551D01*
X56759Y-24637D01*
X56775Y-24722D01*
X56807Y-24802D01*
X56853Y-24874D01*
X56913Y-24937D01*
X56984Y-24986D01*
X57063Y-25020D01*
X57148Y-25039D01*
X57234Y-25041D01*
X57319Y-25026D01*
X57399Y-24995D01*
X57472Y-24948D01*
X57535Y-24889D01*
X57584Y-24818D01*
X57619Y-24740D01*
X57639Y-24656D01*
X57640Y-24557D01*
X57640Y-29560D01*
X54650Y-29560D01*
X54650Y-22575D01*
X54650Y-22528D01*
X54650Y-22220D01*
X54650Y-21980D01*
X54650Y-21672D01*
X54650Y-21625D01*
X54641Y-21579D01*
X54622Y-21536D01*
X54596Y-21497D01*
X54563Y-21463D01*
X54524Y-21437D01*
X54480Y-21419D01*
X54434Y-21410D01*
X54220Y-21410D01*
X54160Y-21470D01*
X54160Y-22040D01*
X54590Y-22040D01*
X54650Y-21980D01*
X54650Y-22220D01*
X54590Y-22160D01*
X54160Y-22160D01*
X54160Y-22730D01*
X54220Y-22790D01*
X54434Y-22790D01*
X54480Y-22781D01*
X54524Y-22763D01*
X54563Y-22737D01*
X54596Y-22703D01*
X54622Y-22664D01*
X54641Y-22621D01*
X54650Y-22575D01*
X54650Y-29560D01*
X54549Y-29560D01*
X54549Y-25204D01*
X54548Y-24914D01*
X54531Y-24828D01*
X54497Y-24747D01*
X54449Y-24673D01*
X54387Y-24611D01*
X54314Y-24562D01*
X54233Y-24528D01*
X54147Y-24510D01*
X54059Y-24510D01*
X54040Y-24513D01*
X54040Y-22730D01*
X54040Y-22160D01*
X54040Y-22040D01*
X54040Y-21470D01*
X53980Y-21410D01*
X53766Y-21410D01*
X53720Y-21419D01*
X53714Y-21421D01*
X53714Y-20389D01*
X53714Y-20362D01*
X53714Y-19811D01*
X53709Y-19784D01*
X53698Y-19759D01*
X53683Y-19736D01*
X53664Y-19717D01*
X53641Y-19702D01*
X53616Y-19691D01*
X53589Y-19686D01*
X53562Y-19686D01*
X53011Y-19686D01*
X52984Y-19691D01*
X52959Y-19702D01*
X52936Y-19717D01*
X52917Y-19736D01*
X52902Y-19759D01*
X52891Y-19784D01*
X52886Y-19811D01*
X52886Y-19838D01*
X52886Y-20389D01*
X52891Y-20416D01*
X52902Y-20441D01*
X52917Y-20464D01*
X52936Y-20483D01*
X52959Y-20498D01*
X52984Y-20509D01*
X53011Y-20514D01*
X53038Y-20514D01*
X53589Y-20514D01*
X53616Y-20509D01*
X53641Y-20498D01*
X53664Y-20483D01*
X53683Y-20464D01*
X53698Y-20441D01*
X53709Y-20416D01*
X53714Y-20389D01*
X53714Y-21421D01*
X53676Y-21437D01*
X53637Y-21463D01*
X53604Y-21497D01*
X53578Y-21536D01*
X53559Y-21579D01*
X53550Y-21625D01*
X53550Y-21672D01*
X53550Y-21980D01*
X53610Y-22040D01*
X54040Y-22040D01*
X54040Y-22160D01*
X53610Y-22160D01*
X53550Y-22220D01*
X53550Y-22528D01*
X53550Y-22575D01*
X53559Y-22621D01*
X53578Y-22664D01*
X53604Y-22703D01*
X53637Y-22737D01*
X53676Y-22763D01*
X53720Y-22781D01*
X53766Y-22790D01*
X53980Y-22790D01*
X54040Y-22730D01*
X54040Y-24513D01*
X53973Y-24526D01*
X53891Y-24559D01*
X53818Y-24607D01*
X53755Y-24669D01*
X53705Y-24741D01*
X53671Y-24822D01*
X53653Y-24908D01*
X53651Y-24996D01*
X53652Y-25286D01*
X53669Y-25372D01*
X53703Y-25453D01*
X53751Y-25527D01*
X53813Y-25589D01*
X53886Y-25638D01*
X53967Y-25672D01*
X54053Y-25690D01*
X54141Y-25690D01*
X54227Y-25674D01*
X54309Y-25641D01*
X54382Y-25593D01*
X54445Y-25531D01*
X54495Y-25459D01*
X54529Y-25378D01*
X54547Y-25292D01*
X54549Y-25204D01*
X54549Y-29560D01*
X53714Y-29560D01*
X53714Y-27389D01*
X53714Y-27362D01*
X53714Y-26811D01*
X53709Y-26784D01*
X53698Y-26759D01*
X53683Y-26736D01*
X53664Y-26717D01*
X53641Y-26702D01*
X53616Y-26691D01*
X53589Y-26686D01*
X53562Y-26686D01*
X53549Y-26686D01*
X53549Y-25204D01*
X53549Y-22204D01*
X53548Y-21914D01*
X53531Y-21828D01*
X53497Y-21747D01*
X53449Y-21673D01*
X53387Y-21611D01*
X53314Y-21562D01*
X53233Y-21528D01*
X53147Y-21510D01*
X53059Y-21510D01*
X52973Y-21526D01*
X52891Y-21559D01*
X52818Y-21607D01*
X52755Y-21669D01*
X52715Y-21726D01*
X52715Y-20059D01*
X52699Y-19979D01*
X52668Y-19904D01*
X52623Y-19836D01*
X52566Y-19778D01*
X52498Y-19733D01*
X52423Y-19702D01*
X52343Y-19685D01*
X52262Y-19685D01*
X52182Y-19700D01*
X52107Y-19731D01*
X52038Y-19775D01*
X51980Y-19832D01*
X51934Y-19899D01*
X51902Y-19974D01*
X51886Y-20054D01*
X51884Y-20135D01*
X51899Y-20215D01*
X51929Y-20291D01*
X51973Y-20359D01*
X52030Y-20418D01*
X52097Y-20464D01*
X52171Y-20497D01*
X52251Y-20514D01*
X52332Y-20516D01*
X52412Y-20502D01*
X52488Y-20472D01*
X52557Y-20428D01*
X52616Y-20372D01*
X52663Y-20306D01*
X52696Y-20231D01*
X52714Y-20152D01*
X52715Y-20059D01*
X52715Y-21726D01*
X52705Y-21741D01*
X52671Y-21822D01*
X52653Y-21908D01*
X52651Y-21996D01*
X52652Y-22286D01*
X52669Y-22372D01*
X52703Y-22453D01*
X52751Y-22527D01*
X52813Y-22589D01*
X52886Y-22638D01*
X52967Y-22672D01*
X53053Y-22690D01*
X53141Y-22690D01*
X53227Y-22674D01*
X53309Y-22641D01*
X53382Y-22593D01*
X53445Y-22531D01*
X53495Y-22459D01*
X53529Y-22378D01*
X53547Y-22292D01*
X53549Y-22204D01*
X53549Y-25204D01*
X53548Y-24914D01*
X53531Y-24828D01*
X53497Y-24747D01*
X53449Y-24673D01*
X53387Y-24611D01*
X53314Y-24562D01*
X53233Y-24528D01*
X53147Y-24510D01*
X53059Y-24510D01*
X52973Y-24526D01*
X52891Y-24559D01*
X52818Y-24607D01*
X52755Y-24669D01*
X52705Y-24741D01*
X52671Y-24822D01*
X52653Y-24908D01*
X52651Y-24996D01*
X52652Y-25286D01*
X52669Y-25372D01*
X52703Y-25453D01*
X52751Y-25527D01*
X52813Y-25589D01*
X52886Y-25638D01*
X52967Y-25672D01*
X53053Y-25690D01*
X53141Y-25690D01*
X53227Y-25674D01*
X53309Y-25641D01*
X53382Y-25593D01*
X53445Y-25531D01*
X53495Y-25459D01*
X53529Y-25378D01*
X53547Y-25292D01*
X53549Y-25204D01*
X53549Y-26686D01*
X53011Y-26686D01*
X52984Y-26691D01*
X52959Y-26702D01*
X52936Y-26717D01*
X52917Y-26736D01*
X52902Y-26759D01*
X52891Y-26784D01*
X52886Y-26811D01*
X52886Y-26838D01*
X52886Y-27389D01*
X52891Y-27416D01*
X52902Y-27441D01*
X52917Y-27464D01*
X52936Y-27483D01*
X52959Y-27498D01*
X52984Y-27509D01*
X53011Y-27514D01*
X53038Y-27514D01*
X53589Y-27514D01*
X53616Y-27509D01*
X53641Y-27498D01*
X53664Y-27483D01*
X53683Y-27464D01*
X53698Y-27441D01*
X53709Y-27416D01*
X53714Y-27389D01*
X53714Y-29560D01*
X52715Y-29560D01*
X52715Y-27059D01*
X52699Y-26979D01*
X52668Y-26904D01*
X52623Y-26836D01*
X52566Y-26778D01*
X52549Y-26766D01*
X52549Y-25204D01*
X52549Y-22204D01*
X52548Y-21914D01*
X52531Y-21828D01*
X52497Y-21747D01*
X52449Y-21673D01*
X52387Y-21611D01*
X52314Y-21562D01*
X52233Y-21528D01*
X52147Y-21510D01*
X52059Y-21510D01*
X51973Y-21526D01*
X51891Y-21559D01*
X51818Y-21607D01*
X51755Y-21669D01*
X51715Y-21726D01*
X51715Y-20059D01*
X51699Y-19979D01*
X51668Y-19904D01*
X51623Y-19836D01*
X51566Y-19778D01*
X51498Y-19733D01*
X51423Y-19702D01*
X51343Y-19685D01*
X51262Y-19685D01*
X51182Y-19700D01*
X51107Y-19731D01*
X51038Y-19775D01*
X50980Y-19832D01*
X50934Y-19899D01*
X50902Y-19974D01*
X50886Y-20054D01*
X50884Y-20135D01*
X50899Y-20215D01*
X50929Y-20291D01*
X50973Y-20359D01*
X51030Y-20418D01*
X51097Y-20464D01*
X51171Y-20497D01*
X51251Y-20514D01*
X51332Y-20516D01*
X51412Y-20502D01*
X51488Y-20472D01*
X51557Y-20428D01*
X51616Y-20372D01*
X51663Y-20306D01*
X51696Y-20231D01*
X51714Y-20152D01*
X51715Y-20059D01*
X51715Y-21726D01*
X51705Y-21741D01*
X51671Y-21822D01*
X51653Y-21908D01*
X51651Y-21996D01*
X51652Y-22286D01*
X51669Y-22372D01*
X51703Y-22453D01*
X51751Y-22527D01*
X51813Y-22589D01*
X51886Y-22638D01*
X51967Y-22672D01*
X52053Y-22690D01*
X52141Y-22690D01*
X52227Y-22674D01*
X52309Y-22641D01*
X52382Y-22593D01*
X52445Y-22531D01*
X52495Y-22459D01*
X52529Y-22378D01*
X52547Y-22292D01*
X52549Y-22204D01*
X52549Y-25204D01*
X52548Y-24914D01*
X52531Y-24828D01*
X52497Y-24747D01*
X52449Y-24673D01*
X52387Y-24611D01*
X52314Y-24562D01*
X52233Y-24528D01*
X52147Y-24510D01*
X52059Y-24510D01*
X51973Y-24526D01*
X51891Y-24559D01*
X51818Y-24607D01*
X51755Y-24669D01*
X51705Y-24741D01*
X51671Y-24822D01*
X51653Y-24908D01*
X51651Y-24996D01*
X51652Y-25286D01*
X51669Y-25372D01*
X51703Y-25453D01*
X51751Y-25527D01*
X51813Y-25589D01*
X51886Y-25638D01*
X51967Y-25672D01*
X52053Y-25690D01*
X52141Y-25690D01*
X52227Y-25674D01*
X52309Y-25641D01*
X52382Y-25593D01*
X52445Y-25531D01*
X52495Y-25459D01*
X52529Y-25378D01*
X52547Y-25292D01*
X52549Y-25204D01*
X52549Y-26766D01*
X52498Y-26733D01*
X52423Y-26702D01*
X52343Y-26685D01*
X52262Y-26685D01*
X52182Y-26700D01*
X52107Y-26731D01*
X52038Y-26775D01*
X51980Y-26832D01*
X51934Y-26899D01*
X51902Y-26974D01*
X51886Y-27054D01*
X51884Y-27135D01*
X51899Y-27215D01*
X51929Y-27291D01*
X51973Y-27359D01*
X52030Y-27418D01*
X52097Y-27464D01*
X52171Y-27497D01*
X52251Y-27514D01*
X52332Y-27516D01*
X52412Y-27502D01*
X52488Y-27472D01*
X52557Y-27428D01*
X52616Y-27372D01*
X52663Y-27306D01*
X52696Y-27231D01*
X52714Y-27152D01*
X52715Y-27059D01*
X52715Y-29560D01*
X51715Y-29560D01*
X51715Y-27059D01*
X51699Y-26979D01*
X51668Y-26904D01*
X51623Y-26836D01*
X51566Y-26778D01*
X51549Y-26766D01*
X51549Y-25204D01*
X51549Y-22204D01*
X51548Y-21914D01*
X51531Y-21828D01*
X51497Y-21747D01*
X51449Y-21673D01*
X51387Y-21611D01*
X51314Y-21562D01*
X51233Y-21528D01*
X51147Y-21510D01*
X51059Y-21510D01*
X50973Y-21526D01*
X50891Y-21559D01*
X50818Y-21607D01*
X50755Y-21669D01*
X50715Y-21726D01*
X50715Y-20059D01*
X50699Y-19979D01*
X50668Y-19904D01*
X50623Y-19836D01*
X50566Y-19778D01*
X50498Y-19733D01*
X50423Y-19702D01*
X50343Y-19685D01*
X50262Y-19685D01*
X50182Y-19700D01*
X50107Y-19731D01*
X50038Y-19775D01*
X49980Y-19832D01*
X49934Y-19899D01*
X49902Y-19974D01*
X49886Y-20054D01*
X49884Y-20135D01*
X49899Y-20215D01*
X49929Y-20291D01*
X49973Y-20359D01*
X50030Y-20418D01*
X50097Y-20464D01*
X50171Y-20497D01*
X50251Y-20514D01*
X50332Y-20516D01*
X50412Y-20502D01*
X50488Y-20472D01*
X50557Y-20428D01*
X50616Y-20372D01*
X50663Y-20306D01*
X50696Y-20231D01*
X50714Y-20152D01*
X50715Y-20059D01*
X50715Y-21726D01*
X50705Y-21741D01*
X50671Y-21822D01*
X50653Y-21908D01*
X50651Y-21996D01*
X50652Y-22286D01*
X50669Y-22372D01*
X50703Y-22453D01*
X50751Y-22527D01*
X50813Y-22589D01*
X50886Y-22638D01*
X50967Y-22672D01*
X51053Y-22690D01*
X51141Y-22690D01*
X51227Y-22674D01*
X51309Y-22641D01*
X51382Y-22593D01*
X51445Y-22531D01*
X51495Y-22459D01*
X51529Y-22378D01*
X51547Y-22292D01*
X51549Y-22204D01*
X51549Y-25204D01*
X51548Y-24914D01*
X51531Y-24828D01*
X51497Y-24747D01*
X51449Y-24673D01*
X51387Y-24611D01*
X51314Y-24562D01*
X51233Y-24528D01*
X51147Y-24510D01*
X51059Y-24510D01*
X50973Y-24526D01*
X50891Y-24559D01*
X50818Y-24607D01*
X50755Y-24669D01*
X50705Y-24741D01*
X50671Y-24822D01*
X50653Y-24908D01*
X50651Y-24996D01*
X50652Y-25286D01*
X50669Y-25372D01*
X50703Y-25453D01*
X50751Y-25527D01*
X50813Y-25589D01*
X50886Y-25638D01*
X50967Y-25672D01*
X51053Y-25690D01*
X51141Y-25690D01*
X51227Y-25674D01*
X51309Y-25641D01*
X51382Y-25593D01*
X51445Y-25531D01*
X51495Y-25459D01*
X51529Y-25378D01*
X51547Y-25292D01*
X51549Y-25204D01*
X51549Y-26766D01*
X51498Y-26733D01*
X51423Y-26702D01*
X51343Y-26685D01*
X51262Y-26685D01*
X51182Y-26700D01*
X51107Y-26731D01*
X51038Y-26775D01*
X50980Y-26832D01*
X50934Y-26899D01*
X50902Y-26974D01*
X50886Y-27054D01*
X50884Y-27135D01*
X50899Y-27215D01*
X50929Y-27291D01*
X50973Y-27359D01*
X51030Y-27418D01*
X51097Y-27464D01*
X51171Y-27497D01*
X51251Y-27514D01*
X51332Y-27516D01*
X51412Y-27502D01*
X51488Y-27472D01*
X51557Y-27428D01*
X51616Y-27372D01*
X51663Y-27306D01*
X51696Y-27231D01*
X51714Y-27152D01*
X51715Y-27059D01*
X51715Y-29560D01*
X50715Y-29560D01*
X50715Y-27059D01*
X50699Y-26979D01*
X50668Y-26904D01*
X50623Y-26836D01*
X50566Y-26778D01*
X50549Y-26766D01*
X50549Y-25204D01*
X50549Y-22204D01*
X50548Y-21914D01*
X50531Y-21828D01*
X50497Y-21747D01*
X50449Y-21673D01*
X50387Y-21611D01*
X50314Y-21562D01*
X50233Y-21528D01*
X50147Y-21510D01*
X50059Y-21510D01*
X49973Y-21526D01*
X49891Y-21559D01*
X49818Y-21607D01*
X49755Y-21669D01*
X49715Y-21726D01*
X49715Y-20059D01*
X49699Y-19979D01*
X49668Y-19904D01*
X49623Y-19836D01*
X49566Y-19778D01*
X49498Y-19733D01*
X49423Y-19702D01*
X49343Y-19685D01*
X49262Y-19685D01*
X49182Y-19700D01*
X49107Y-19731D01*
X49038Y-19775D01*
X48980Y-19832D01*
X48934Y-19899D01*
X48902Y-19974D01*
X48886Y-20054D01*
X48884Y-20135D01*
X48899Y-20215D01*
X48929Y-20291D01*
X48973Y-20359D01*
X49030Y-20418D01*
X49097Y-20464D01*
X49171Y-20497D01*
X49251Y-20514D01*
X49332Y-20516D01*
X49412Y-20502D01*
X49488Y-20472D01*
X49557Y-20428D01*
X49616Y-20372D01*
X49663Y-20306D01*
X49696Y-20231D01*
X49714Y-20152D01*
X49715Y-20059D01*
X49715Y-21726D01*
X49705Y-21741D01*
X49671Y-21822D01*
X49653Y-21908D01*
X49651Y-21996D01*
X49652Y-22286D01*
X49669Y-22372D01*
X49703Y-22453D01*
X49751Y-22527D01*
X49813Y-22589D01*
X49886Y-22638D01*
X49967Y-22672D01*
X50053Y-22690D01*
X50141Y-22690D01*
X50227Y-22674D01*
X50309Y-22641D01*
X50382Y-22593D01*
X50445Y-22531D01*
X50495Y-22459D01*
X50529Y-22378D01*
X50547Y-22292D01*
X50549Y-22204D01*
X50549Y-25204D01*
X50548Y-24914D01*
X50531Y-24828D01*
X50497Y-24747D01*
X50449Y-24673D01*
X50387Y-24611D01*
X50314Y-24562D01*
X50233Y-24528D01*
X50147Y-24510D01*
X50059Y-24510D01*
X49973Y-24526D01*
X49891Y-24559D01*
X49818Y-24607D01*
X49755Y-24669D01*
X49705Y-24741D01*
X49671Y-24822D01*
X49653Y-24908D01*
X49651Y-24996D01*
X49652Y-25286D01*
X49669Y-25372D01*
X49703Y-25453D01*
X49751Y-25527D01*
X49813Y-25589D01*
X49886Y-25638D01*
X49967Y-25672D01*
X50053Y-25690D01*
X50141Y-25690D01*
X50227Y-25674D01*
X50309Y-25641D01*
X50382Y-25593D01*
X50445Y-25531D01*
X50495Y-25459D01*
X50529Y-25378D01*
X50547Y-25292D01*
X50549Y-25204D01*
X50549Y-26766D01*
X50498Y-26733D01*
X50423Y-26702D01*
X50343Y-26685D01*
X50262Y-26685D01*
X50182Y-26700D01*
X50107Y-26731D01*
X50038Y-26775D01*
X49980Y-26832D01*
X49934Y-26899D01*
X49902Y-26974D01*
X49886Y-27054D01*
X49884Y-27135D01*
X49899Y-27215D01*
X49929Y-27291D01*
X49973Y-27359D01*
X50030Y-27418D01*
X50097Y-27464D01*
X50171Y-27497D01*
X50251Y-27514D01*
X50332Y-27516D01*
X50412Y-27502D01*
X50488Y-27472D01*
X50557Y-27428D01*
X50616Y-27372D01*
X50663Y-27306D01*
X50696Y-27231D01*
X50714Y-27152D01*
X50715Y-27059D01*
X50715Y-29560D01*
X49715Y-29560D01*
X49715Y-27059D01*
X49699Y-26979D01*
X49668Y-26904D01*
X49623Y-26836D01*
X49566Y-26778D01*
X49549Y-26766D01*
X49549Y-25204D01*
X49549Y-22204D01*
X49548Y-21914D01*
X49531Y-21828D01*
X49497Y-21747D01*
X49449Y-21673D01*
X49387Y-21611D01*
X49314Y-21562D01*
X49233Y-21528D01*
X49147Y-21510D01*
X49059Y-21510D01*
X48973Y-21526D01*
X48891Y-21559D01*
X48818Y-21607D01*
X48755Y-21669D01*
X48715Y-21726D01*
X48715Y-20059D01*
X48699Y-19979D01*
X48668Y-19904D01*
X48623Y-19836D01*
X48566Y-19778D01*
X48498Y-19733D01*
X48423Y-19702D01*
X48343Y-19685D01*
X48262Y-19685D01*
X48182Y-19700D01*
X48107Y-19731D01*
X48038Y-19775D01*
X47980Y-19832D01*
X47934Y-19899D01*
X47902Y-19974D01*
X47886Y-20054D01*
X47884Y-20135D01*
X47899Y-20215D01*
X47929Y-20291D01*
X47973Y-20359D01*
X48030Y-20418D01*
X48097Y-20464D01*
X48171Y-20497D01*
X48251Y-20514D01*
X48332Y-20516D01*
X48412Y-20502D01*
X48488Y-20472D01*
X48557Y-20428D01*
X48616Y-20372D01*
X48663Y-20306D01*
X48696Y-20231D01*
X48714Y-20152D01*
X48715Y-20059D01*
X48715Y-21726D01*
X48705Y-21741D01*
X48671Y-21822D01*
X48653Y-21908D01*
X48651Y-21996D01*
X48652Y-22286D01*
X48669Y-22372D01*
X48703Y-22453D01*
X48751Y-22527D01*
X48813Y-22589D01*
X48886Y-22638D01*
X48967Y-22672D01*
X49053Y-22690D01*
X49141Y-22690D01*
X49227Y-22674D01*
X49309Y-22641D01*
X49382Y-22593D01*
X49445Y-22531D01*
X49495Y-22459D01*
X49529Y-22378D01*
X49547Y-22292D01*
X49549Y-22204D01*
X49549Y-25204D01*
X49548Y-24914D01*
X49531Y-24828D01*
X49497Y-24747D01*
X49449Y-24673D01*
X49387Y-24611D01*
X49314Y-24562D01*
X49233Y-24528D01*
X49147Y-24510D01*
X49059Y-24510D01*
X48973Y-24526D01*
X48891Y-24559D01*
X48818Y-24607D01*
X48755Y-24669D01*
X48705Y-24741D01*
X48671Y-24822D01*
X48653Y-24908D01*
X48651Y-24996D01*
X48652Y-25286D01*
X48669Y-25372D01*
X48703Y-25453D01*
X48751Y-25527D01*
X48813Y-25589D01*
X48886Y-25638D01*
X48967Y-25672D01*
X49053Y-25690D01*
X49141Y-25690D01*
X49227Y-25674D01*
X49309Y-25641D01*
X49382Y-25593D01*
X49445Y-25531D01*
X49495Y-25459D01*
X49529Y-25378D01*
X49547Y-25292D01*
X49549Y-25204D01*
X49549Y-26766D01*
X49498Y-26733D01*
X49423Y-26702D01*
X49343Y-26685D01*
X49262Y-26685D01*
X49182Y-26700D01*
X49107Y-26731D01*
X49038Y-26775D01*
X48980Y-26832D01*
X48934Y-26899D01*
X48902Y-26974D01*
X48886Y-27054D01*
X48884Y-27135D01*
X48899Y-27215D01*
X48929Y-27291D01*
X48973Y-27359D01*
X49030Y-27418D01*
X49097Y-27464D01*
X49171Y-27497D01*
X49251Y-27514D01*
X49332Y-27516D01*
X49412Y-27502D01*
X49488Y-27472D01*
X49557Y-27428D01*
X49616Y-27372D01*
X49663Y-27306D01*
X49696Y-27231D01*
X49714Y-27152D01*
X49715Y-27059D01*
X49715Y-29560D01*
X48715Y-29560D01*
X48715Y-27059D01*
X48699Y-26979D01*
X48668Y-26904D01*
X48623Y-26836D01*
X48566Y-26778D01*
X48549Y-26766D01*
X48549Y-25204D01*
X48549Y-22204D01*
X48548Y-21914D01*
X48531Y-21828D01*
X48497Y-21747D01*
X48449Y-21673D01*
X48387Y-21611D01*
X48314Y-21562D01*
X48233Y-21528D01*
X48147Y-21510D01*
X48059Y-21510D01*
X47973Y-21526D01*
X47891Y-21559D01*
X47818Y-21607D01*
X47755Y-21669D01*
X47715Y-21726D01*
X47715Y-20059D01*
X47699Y-19979D01*
X47668Y-19904D01*
X47623Y-19836D01*
X47566Y-19778D01*
X47498Y-19733D01*
X47423Y-19702D01*
X47343Y-19685D01*
X47262Y-19685D01*
X47182Y-19700D01*
X47107Y-19731D01*
X47038Y-19775D01*
X46980Y-19832D01*
X46934Y-19899D01*
X46902Y-19974D01*
X46886Y-20054D01*
X46884Y-20135D01*
X46899Y-20215D01*
X46929Y-20291D01*
X46973Y-20359D01*
X47030Y-20418D01*
X47097Y-20464D01*
X47171Y-20497D01*
X47251Y-20514D01*
X47332Y-20516D01*
X47412Y-20502D01*
X47488Y-20472D01*
X47557Y-20428D01*
X47616Y-20372D01*
X47663Y-20306D01*
X47696Y-20231D01*
X47714Y-20152D01*
X47715Y-20059D01*
X47715Y-21726D01*
X47705Y-21741D01*
X47671Y-21822D01*
X47653Y-21908D01*
X47651Y-21996D01*
X47652Y-22286D01*
X47669Y-22372D01*
X47703Y-22453D01*
X47751Y-22527D01*
X47813Y-22589D01*
X47886Y-22638D01*
X47967Y-22672D01*
X48053Y-22690D01*
X48141Y-22690D01*
X48227Y-22674D01*
X48309Y-22641D01*
X48382Y-22593D01*
X48445Y-22531D01*
X48495Y-22459D01*
X48529Y-22378D01*
X48547Y-22292D01*
X48549Y-22204D01*
X48549Y-25204D01*
X48548Y-24914D01*
X48531Y-24828D01*
X48497Y-24747D01*
X48449Y-24673D01*
X48387Y-24611D01*
X48314Y-24562D01*
X48233Y-24528D01*
X48147Y-24510D01*
X48059Y-24510D01*
X47973Y-24526D01*
X47891Y-24559D01*
X47818Y-24607D01*
X47755Y-24669D01*
X47705Y-24741D01*
X47671Y-24822D01*
X47653Y-24908D01*
X47651Y-24996D01*
X47652Y-25286D01*
X47669Y-25372D01*
X47703Y-25453D01*
X47751Y-25527D01*
X47813Y-25589D01*
X47886Y-25638D01*
X47967Y-25672D01*
X48053Y-25690D01*
X48141Y-25690D01*
X48227Y-25674D01*
X48309Y-25641D01*
X48382Y-25593D01*
X48445Y-25531D01*
X48495Y-25459D01*
X48529Y-25378D01*
X48547Y-25292D01*
X48549Y-25204D01*
X48549Y-26766D01*
X48498Y-26733D01*
X48423Y-26702D01*
X48343Y-26685D01*
X48262Y-26685D01*
X48182Y-26700D01*
X48107Y-26731D01*
X48038Y-26775D01*
X47980Y-26832D01*
X47934Y-26899D01*
X47902Y-26974D01*
X47886Y-27054D01*
X47884Y-27135D01*
X47899Y-27215D01*
X47929Y-27291D01*
X47973Y-27359D01*
X48030Y-27418D01*
X48097Y-27464D01*
X48171Y-27497D01*
X48251Y-27514D01*
X48332Y-27516D01*
X48412Y-27502D01*
X48488Y-27472D01*
X48557Y-27428D01*
X48616Y-27372D01*
X48663Y-27306D01*
X48696Y-27231D01*
X48714Y-27152D01*
X48715Y-27059D01*
X48715Y-29560D01*
X47715Y-29560D01*
X47715Y-27059D01*
X47699Y-26979D01*
X47668Y-26904D01*
X47623Y-26836D01*
X47566Y-26778D01*
X47549Y-26766D01*
X47549Y-25204D01*
X47549Y-22204D01*
X47548Y-21914D01*
X47531Y-21828D01*
X47497Y-21747D01*
X47449Y-21673D01*
X47387Y-21611D01*
X47314Y-21562D01*
X47233Y-21528D01*
X47147Y-21510D01*
X47059Y-21510D01*
X46973Y-21526D01*
X46891Y-21559D01*
X46818Y-21607D01*
X46813Y-21611D01*
X46813Y-20062D01*
X46796Y-19963D01*
X46760Y-19869D01*
X46748Y-19848D01*
X46661Y-19824D01*
X46576Y-19909D01*
X46576Y-19739D01*
X46552Y-19652D01*
X46461Y-19611D01*
X46362Y-19589D01*
X46262Y-19587D01*
X46163Y-19604D01*
X46069Y-19640D01*
X46048Y-19652D01*
X46024Y-19739D01*
X46300Y-20015D01*
X46576Y-19739D01*
X46576Y-19909D01*
X46385Y-20100D01*
X46661Y-20376D01*
X46748Y-20352D01*
X46789Y-20261D01*
X46811Y-20162D01*
X46813Y-20062D01*
X46813Y-21611D01*
X46755Y-21669D01*
X46705Y-21741D01*
X46671Y-21822D01*
X46653Y-21908D01*
X46651Y-21996D01*
X46652Y-22286D01*
X46669Y-22372D01*
X46703Y-22453D01*
X46751Y-22527D01*
X46813Y-22589D01*
X46886Y-22638D01*
X46967Y-22672D01*
X47053Y-22690D01*
X47141Y-22690D01*
X47227Y-22674D01*
X47309Y-22641D01*
X47382Y-22593D01*
X47445Y-22531D01*
X47495Y-22459D01*
X47529Y-22378D01*
X47547Y-22292D01*
X47549Y-22204D01*
X47549Y-25204D01*
X47548Y-24914D01*
X47531Y-24828D01*
X47497Y-24747D01*
X47449Y-24673D01*
X47387Y-24611D01*
X47314Y-24562D01*
X47233Y-24528D01*
X47147Y-24510D01*
X47059Y-24510D01*
X46973Y-24526D01*
X46891Y-24559D01*
X46818Y-24607D01*
X46755Y-24669D01*
X46705Y-24741D01*
X46671Y-24822D01*
X46653Y-24908D01*
X46651Y-24996D01*
X46652Y-25286D01*
X46669Y-25372D01*
X46703Y-25453D01*
X46751Y-25527D01*
X46813Y-25589D01*
X46886Y-25638D01*
X46967Y-25672D01*
X47053Y-25690D01*
X47141Y-25690D01*
X47227Y-25674D01*
X47309Y-25641D01*
X47382Y-25593D01*
X47445Y-25531D01*
X47495Y-25459D01*
X47529Y-25378D01*
X47547Y-25292D01*
X47549Y-25204D01*
X47549Y-26766D01*
X47498Y-26733D01*
X47423Y-26702D01*
X47343Y-26685D01*
X47262Y-26685D01*
X47182Y-26700D01*
X47107Y-26731D01*
X47038Y-26775D01*
X46980Y-26832D01*
X46934Y-26899D01*
X46902Y-26974D01*
X46886Y-27054D01*
X46884Y-27135D01*
X46899Y-27215D01*
X46929Y-27291D01*
X46973Y-27359D01*
X47030Y-27418D01*
X47097Y-27464D01*
X47171Y-27497D01*
X47251Y-27514D01*
X47332Y-27516D01*
X47412Y-27502D01*
X47488Y-27472D01*
X47557Y-27428D01*
X47616Y-27372D01*
X47663Y-27306D01*
X47696Y-27231D01*
X47714Y-27152D01*
X47715Y-27059D01*
X47715Y-29560D01*
X46813Y-29560D01*
X46813Y-27062D01*
X46796Y-26963D01*
X46760Y-26869D01*
X46748Y-26848D01*
X46661Y-26824D01*
X46576Y-26909D01*
X46576Y-26739D01*
X46576Y-20461D01*
X46300Y-20185D01*
X46215Y-20270D01*
X46215Y-20100D01*
X45939Y-19824D01*
X45852Y-19848D01*
X45811Y-19939D01*
X45789Y-20038D01*
X45787Y-20138D01*
X45804Y-20237D01*
X45840Y-20331D01*
X45852Y-20352D01*
X45939Y-20376D01*
X46215Y-20100D01*
X46215Y-20270D01*
X46024Y-20461D01*
X46048Y-20548D01*
X46139Y-20589D01*
X46238Y-20611D01*
X46338Y-20613D01*
X46437Y-20596D01*
X46531Y-20560D01*
X46552Y-20548D01*
X46576Y-20461D01*
X46576Y-26739D01*
X46552Y-26652D01*
X46461Y-26611D01*
X46362Y-26589D01*
X46262Y-26587D01*
X46163Y-26604D01*
X46069Y-26640D01*
X46048Y-26652D01*
X46024Y-26739D01*
X46300Y-27015D01*
X46576Y-26739D01*
X46576Y-26909D01*
X46385Y-27100D01*
X46661Y-27376D01*
X46748Y-27352D01*
X46789Y-27261D01*
X46811Y-27162D01*
X46813Y-27062D01*
X46813Y-29560D01*
X46576Y-29560D01*
X46576Y-27461D01*
X46300Y-27185D01*
X46215Y-27270D01*
X46215Y-27100D01*
X45939Y-26824D01*
X45852Y-26848D01*
X45811Y-26939D01*
X45789Y-27038D01*
X45787Y-27138D01*
X45804Y-27237D01*
X45840Y-27331D01*
X45852Y-27352D01*
X45939Y-27376D01*
X46215Y-27100D01*
X46215Y-27270D01*
X46024Y-27461D01*
X46048Y-27548D01*
X46139Y-27589D01*
X46238Y-27611D01*
X46338Y-27613D01*
X46437Y-27596D01*
X46531Y-27560D01*
X46552Y-27548D01*
X46576Y-27461D01*
X46576Y-29560D01*
X44715Y-29560D01*
X44715Y-27059D01*
X44715Y-26059D01*
X44715Y-25059D01*
X44715Y-24059D01*
X44715Y-23059D01*
X44715Y-22059D01*
X44715Y-21059D01*
X44714Y-21054D01*
X44714Y-20389D01*
X44714Y-20362D01*
X44714Y-19811D01*
X44709Y-19784D01*
X44698Y-19759D01*
X44683Y-19736D01*
X44664Y-19717D01*
X44641Y-19702D01*
X44616Y-19691D01*
X44589Y-19686D01*
X44562Y-19686D01*
X44011Y-19686D01*
X43984Y-19691D01*
X43959Y-19702D01*
X43936Y-19717D01*
X43917Y-19736D01*
X43902Y-19759D01*
X43891Y-19784D01*
X43886Y-19811D01*
X43886Y-19838D01*
X43886Y-20389D01*
X43891Y-20416D01*
X43902Y-20441D01*
X43917Y-20464D01*
X43936Y-20483D01*
X43959Y-20498D01*
X43984Y-20509D01*
X44011Y-20514D01*
X44038Y-20514D01*
X44589Y-20514D01*
X44616Y-20509D01*
X44641Y-20498D01*
X44664Y-20483D01*
X44683Y-20464D01*
X44698Y-20441D01*
X44709Y-20416D01*
X44714Y-20389D01*
X44714Y-21054D01*
X44699Y-20979D01*
X44668Y-20904D01*
X44623Y-20836D01*
X44566Y-20778D01*
X44498Y-20733D01*
X44423Y-20702D01*
X44343Y-20685D01*
X44262Y-20685D01*
X44182Y-20700D01*
X44107Y-20731D01*
X44038Y-20775D01*
X43980Y-20832D01*
X43934Y-20899D01*
X43902Y-20974D01*
X43886Y-21054D01*
X43884Y-21135D01*
X43899Y-21215D01*
X43929Y-21291D01*
X43973Y-21359D01*
X44030Y-21418D01*
X44097Y-21464D01*
X44171Y-21497D01*
X44251Y-21514D01*
X44332Y-21516D01*
X44412Y-21502D01*
X44488Y-21472D01*
X44557Y-21428D01*
X44616Y-21372D01*
X44663Y-21306D01*
X44696Y-21231D01*
X44714Y-21152D01*
X44715Y-21059D01*
X44715Y-22059D01*
X44699Y-21979D01*
X44668Y-21904D01*
X44623Y-21836D01*
X44566Y-21778D01*
X44498Y-21733D01*
X44423Y-21702D01*
X44343Y-21685D01*
X44262Y-21685D01*
X44182Y-21700D01*
X44107Y-21731D01*
X44038Y-21775D01*
X43980Y-21832D01*
X43934Y-21899D01*
X43902Y-21974D01*
X43886Y-22054D01*
X43884Y-22135D01*
X43899Y-22215D01*
X43929Y-22291D01*
X43973Y-22359D01*
X44030Y-22418D01*
X44097Y-22464D01*
X44171Y-22497D01*
X44251Y-22514D01*
X44332Y-22516D01*
X44412Y-22502D01*
X44488Y-22472D01*
X44557Y-22428D01*
X44616Y-22372D01*
X44663Y-22306D01*
X44696Y-22231D01*
X44714Y-22152D01*
X44715Y-22059D01*
X44715Y-23059D01*
X44699Y-22979D01*
X44668Y-22904D01*
X44623Y-22836D01*
X44566Y-22778D01*
X44498Y-22733D01*
X44423Y-22702D01*
X44343Y-22685D01*
X44262Y-22685D01*
X44182Y-22700D01*
X44107Y-22731D01*
X44038Y-22775D01*
X43980Y-22832D01*
X43934Y-22899D01*
X43902Y-22974D01*
X43886Y-23054D01*
X43884Y-23135D01*
X43899Y-23215D01*
X43929Y-23291D01*
X43973Y-23359D01*
X44030Y-23418D01*
X44097Y-23464D01*
X44171Y-23497D01*
X44251Y-23514D01*
X44332Y-23516D01*
X44412Y-23502D01*
X44488Y-23472D01*
X44557Y-23428D01*
X44616Y-23372D01*
X44663Y-23306D01*
X44696Y-23231D01*
X44714Y-23152D01*
X44715Y-23059D01*
X44715Y-24059D01*
X44699Y-23979D01*
X44668Y-23904D01*
X44623Y-23836D01*
X44566Y-23778D01*
X44498Y-23733D01*
X44423Y-23702D01*
X44343Y-23685D01*
X44262Y-23685D01*
X44182Y-23700D01*
X44107Y-23731D01*
X44038Y-23775D01*
X43980Y-23832D01*
X43934Y-23899D01*
X43902Y-23974D01*
X43886Y-24054D01*
X43884Y-24135D01*
X43899Y-24215D01*
X43929Y-24291D01*
X43973Y-24359D01*
X44030Y-24418D01*
X44097Y-24464D01*
X44171Y-24497D01*
X44251Y-24514D01*
X44332Y-24516D01*
X44412Y-24502D01*
X44488Y-24472D01*
X44557Y-24428D01*
X44616Y-24372D01*
X44663Y-24306D01*
X44696Y-24231D01*
X44714Y-24152D01*
X44715Y-24059D01*
X44715Y-25059D01*
X44699Y-24979D01*
X44668Y-24904D01*
X44623Y-24836D01*
X44566Y-24778D01*
X44498Y-24733D01*
X44423Y-24702D01*
X44343Y-24685D01*
X44262Y-24685D01*
X44182Y-24700D01*
X44107Y-24731D01*
X44038Y-24775D01*
X43980Y-24832D01*
X43934Y-24899D01*
X43902Y-24974D01*
X43886Y-25054D01*
X43884Y-25135D01*
X43899Y-25215D01*
X43929Y-25291D01*
X43973Y-25359D01*
X44030Y-25418D01*
X44097Y-25464D01*
X44171Y-25497D01*
X44251Y-25514D01*
X44332Y-25516D01*
X44412Y-25502D01*
X44488Y-25472D01*
X44557Y-25428D01*
X44616Y-25372D01*
X44663Y-25306D01*
X44696Y-25231D01*
X44714Y-25152D01*
X44715Y-25059D01*
X44715Y-26059D01*
X44699Y-25979D01*
X44668Y-25904D01*
X44623Y-25836D01*
X44566Y-25778D01*
X44498Y-25733D01*
X44423Y-25702D01*
X44343Y-25685D01*
X44262Y-25685D01*
X44182Y-25700D01*
X44107Y-25731D01*
X44038Y-25775D01*
X43980Y-25832D01*
X43934Y-25899D01*
X43902Y-25974D01*
X43886Y-26054D01*
X43884Y-26135D01*
X43899Y-26215D01*
X43929Y-26291D01*
X43973Y-26359D01*
X44030Y-26418D01*
X44097Y-26464D01*
X44171Y-26497D01*
X44251Y-26514D01*
X44332Y-26516D01*
X44412Y-26502D01*
X44488Y-26472D01*
X44557Y-26428D01*
X44616Y-26372D01*
X44663Y-26306D01*
X44696Y-26231D01*
X44714Y-26152D01*
X44715Y-26059D01*
X44715Y-27059D01*
X44699Y-26979D01*
X44668Y-26904D01*
X44623Y-26836D01*
X44566Y-26778D01*
X44498Y-26733D01*
X44423Y-26702D01*
X44343Y-26685D01*
X44262Y-26685D01*
X44182Y-26700D01*
X44107Y-26731D01*
X44038Y-26775D01*
X43980Y-26832D01*
X43934Y-26899D01*
X43902Y-26974D01*
X43886Y-27054D01*
X43884Y-27135D01*
X43899Y-27215D01*
X43929Y-27291D01*
X43973Y-27359D01*
X44030Y-27418D01*
X44097Y-27464D01*
X44171Y-27497D01*
X44251Y-27514D01*
X44332Y-27516D01*
X44412Y-27502D01*
X44488Y-27472D01*
X44557Y-27428D01*
X44616Y-27372D01*
X44663Y-27306D01*
X44696Y-27231D01*
X44714Y-27152D01*
X44715Y-27059D01*
X44715Y-29560D01*
X43715Y-29560D01*
X43715Y-27059D01*
X43715Y-26059D01*
X43715Y-25059D01*
X43715Y-24059D01*
X43715Y-23059D01*
X43715Y-22059D01*
X43715Y-21059D01*
X43714Y-21054D01*
X43714Y-20389D01*
X43714Y-20362D01*
X43714Y-19811D01*
X43709Y-19784D01*
X43698Y-19759D01*
X43683Y-19736D01*
X43664Y-19717D01*
X43641Y-19702D01*
X43616Y-19691D01*
X43589Y-19686D01*
X43562Y-19686D01*
X43011Y-19686D01*
X42984Y-19691D01*
X42959Y-19702D01*
X42936Y-19717D01*
X42917Y-19736D01*
X42902Y-19759D01*
X42891Y-19784D01*
X42886Y-19811D01*
X42886Y-19838D01*
X42886Y-20389D01*
X42891Y-20416D01*
X42902Y-20441D01*
X42917Y-20464D01*
X42936Y-20483D01*
X42959Y-20498D01*
X42984Y-20509D01*
X43011Y-20514D01*
X43038Y-20514D01*
X43589Y-20514D01*
X43616Y-20509D01*
X43641Y-20498D01*
X43664Y-20483D01*
X43683Y-20464D01*
X43698Y-20441D01*
X43709Y-20416D01*
X43714Y-20389D01*
X43714Y-21054D01*
X43699Y-20979D01*
X43668Y-20904D01*
X43623Y-20836D01*
X43566Y-20778D01*
X43498Y-20733D01*
X43423Y-20702D01*
X43343Y-20685D01*
X43262Y-20685D01*
X43182Y-20700D01*
X43107Y-20731D01*
X43038Y-20775D01*
X42980Y-20832D01*
X42934Y-20899D01*
X42902Y-20974D01*
X42886Y-21054D01*
X42884Y-21135D01*
X42899Y-21215D01*
X42929Y-21291D01*
X42973Y-21359D01*
X43030Y-21418D01*
X43097Y-21464D01*
X43171Y-21497D01*
X43251Y-21514D01*
X43332Y-21516D01*
X43412Y-21502D01*
X43488Y-21472D01*
X43557Y-21428D01*
X43616Y-21372D01*
X43663Y-21306D01*
X43696Y-21231D01*
X43714Y-21152D01*
X43715Y-21059D01*
X43715Y-22059D01*
X43699Y-21979D01*
X43668Y-21904D01*
X43623Y-21836D01*
X43566Y-21778D01*
X43498Y-21733D01*
X43423Y-21702D01*
X43343Y-21685D01*
X43262Y-21685D01*
X43182Y-21700D01*
X43107Y-21731D01*
X43038Y-21775D01*
X42980Y-21832D01*
X42934Y-21899D01*
X42902Y-21974D01*
X42886Y-22054D01*
X42884Y-22135D01*
X42899Y-22215D01*
X42929Y-22291D01*
X42973Y-22359D01*
X43030Y-22418D01*
X43097Y-22464D01*
X43171Y-22497D01*
X43251Y-22514D01*
X43332Y-22516D01*
X43412Y-22502D01*
X43488Y-22472D01*
X43557Y-22428D01*
X43616Y-22372D01*
X43663Y-22306D01*
X43696Y-22231D01*
X43714Y-22152D01*
X43715Y-22059D01*
X43715Y-23059D01*
X43699Y-22979D01*
X43668Y-22904D01*
X43623Y-22836D01*
X43566Y-22778D01*
X43498Y-22733D01*
X43423Y-22702D01*
X43343Y-22685D01*
X43262Y-22685D01*
X43182Y-22700D01*
X43107Y-22731D01*
X43038Y-22775D01*
X42980Y-22832D01*
X42934Y-22899D01*
X42902Y-22974D01*
X42886Y-23054D01*
X42884Y-23135D01*
X42899Y-23215D01*
X42929Y-23291D01*
X42973Y-23359D01*
X43030Y-23418D01*
X43097Y-23464D01*
X43171Y-23497D01*
X43251Y-23514D01*
X43332Y-23516D01*
X43412Y-23502D01*
X43488Y-23472D01*
X43557Y-23428D01*
X43616Y-23372D01*
X43663Y-23306D01*
X43696Y-23231D01*
X43714Y-23152D01*
X43715Y-23059D01*
X43715Y-24059D01*
X43699Y-23979D01*
X43668Y-23904D01*
X43623Y-23836D01*
X43566Y-23778D01*
X43498Y-23733D01*
X43423Y-23702D01*
X43343Y-23685D01*
X43262Y-23685D01*
X43182Y-23700D01*
X43107Y-23731D01*
X43038Y-23775D01*
X42980Y-23832D01*
X42934Y-23899D01*
X42902Y-23974D01*
X42886Y-24054D01*
X42884Y-24135D01*
X42899Y-24215D01*
X42929Y-24291D01*
X42973Y-24359D01*
X43030Y-24418D01*
X43097Y-24464D01*
X43171Y-24497D01*
X43251Y-24514D01*
X43332Y-24516D01*
X43412Y-24502D01*
X43488Y-24472D01*
X43557Y-24428D01*
X43616Y-24372D01*
X43663Y-24306D01*
X43696Y-24231D01*
X43714Y-24152D01*
X43715Y-24059D01*
X43715Y-25059D01*
X43699Y-24979D01*
X43668Y-24904D01*
X43623Y-24836D01*
X43566Y-24778D01*
X43498Y-24733D01*
X43423Y-24702D01*
X43343Y-24685D01*
X43262Y-24685D01*
X43182Y-24700D01*
X43107Y-24731D01*
X43038Y-24775D01*
X42980Y-24832D01*
X42934Y-24899D01*
X42902Y-24974D01*
X42886Y-25054D01*
X42884Y-25135D01*
X42899Y-25215D01*
X42929Y-25291D01*
X42973Y-25359D01*
X43030Y-25418D01*
X43097Y-25464D01*
X43171Y-25497D01*
X43251Y-25514D01*
X43332Y-25516D01*
X43412Y-25502D01*
X43488Y-25472D01*
X43557Y-25428D01*
X43616Y-25372D01*
X43663Y-25306D01*
X43696Y-25231D01*
X43714Y-25152D01*
X43715Y-25059D01*
X43715Y-26059D01*
X43699Y-25979D01*
X43668Y-25904D01*
X43623Y-25836D01*
X43566Y-25778D01*
X43498Y-25733D01*
X43423Y-25702D01*
X43343Y-25685D01*
X43262Y-25685D01*
X43182Y-25700D01*
X43107Y-25731D01*
X43038Y-25775D01*
X42980Y-25832D01*
X42934Y-25899D01*
X42902Y-25974D01*
X42886Y-26054D01*
X42884Y-26135D01*
X42899Y-26215D01*
X42929Y-26291D01*
X42973Y-26359D01*
X43030Y-26418D01*
X43097Y-26464D01*
X43171Y-26497D01*
X43251Y-26514D01*
X43332Y-26516D01*
X43412Y-26502D01*
X43488Y-26472D01*
X43557Y-26428D01*
X43616Y-26372D01*
X43663Y-26306D01*
X43696Y-26231D01*
X43714Y-26152D01*
X43715Y-26059D01*
X43715Y-27059D01*
X43699Y-26979D01*
X43668Y-26904D01*
X43623Y-26836D01*
X43566Y-26778D01*
X43498Y-26733D01*
X43423Y-26702D01*
X43343Y-26685D01*
X43262Y-26685D01*
X43182Y-26700D01*
X43107Y-26731D01*
X43038Y-26775D01*
X42980Y-26832D01*
X42934Y-26899D01*
X42902Y-26974D01*
X42886Y-27054D01*
X42884Y-27135D01*
X42899Y-27215D01*
X42929Y-27291D01*
X42973Y-27359D01*
X43030Y-27418D01*
X43097Y-27464D01*
X43171Y-27497D01*
X43251Y-27514D01*
X43332Y-27516D01*
X43412Y-27502D01*
X43488Y-27472D01*
X43557Y-27428D01*
X43616Y-27372D01*
X43663Y-27306D01*
X43696Y-27231D01*
X43714Y-27152D01*
X43715Y-27059D01*
X43715Y-29560D01*
X41940Y-29560D01*
X41940Y-17640D01*
X58260Y-17640D01*
X58260Y-29560D01*
X58260Y-29560D01*
G37*
G54D21*
X58260Y-29560D02*
X57640Y-29560D01*
X57640Y-24557D01*
X57640Y-22557D01*
X57623Y-22472D01*
X57590Y-22393D01*
X57543Y-22321D01*
X57482Y-22259D01*
X57410Y-22211D01*
X57331Y-22178D01*
X57246Y-22160D01*
X57160Y-22160D01*
X57075Y-22176D01*
X56995Y-22208D01*
X56923Y-22255D01*
X56861Y-22316D01*
X56813Y-22387D01*
X56779Y-22466D01*
X56761Y-22551D01*
X56759Y-22637D01*
X56775Y-22722D01*
X56807Y-22802D01*
X56853Y-22874D01*
X56913Y-22937D01*
X56984Y-22986D01*
X57063Y-23020D01*
X57148Y-23039D01*
X57234Y-23041D01*
X57319Y-23026D01*
X57399Y-22995D01*
X57472Y-22948D01*
X57535Y-22889D01*
X57584Y-22818D01*
X57619Y-22740D01*
X57639Y-22656D01*
X57640Y-22557D01*
X57640Y-24557D01*
X57623Y-24472D01*
X57590Y-24393D01*
X57543Y-24321D01*
X57482Y-24259D01*
X57410Y-24211D01*
X57331Y-24178D01*
X57246Y-24160D01*
X57160Y-24160D01*
X57109Y-24169D01*
X56630Y-23690D01*
X56639Y-23656D01*
X56640Y-23557D01*
X56623Y-23472D01*
X56590Y-23393D01*
X56543Y-23321D01*
X56482Y-23259D01*
X56440Y-23231D01*
X56440Y-21723D01*
X56441Y-21723D01*
X56464Y-21708D01*
X56483Y-21689D01*
X56498Y-21666D01*
X56509Y-21641D01*
X56514Y-21614D01*
X56514Y-21587D01*
X56514Y-21186D01*
X56509Y-21159D01*
X56498Y-21134D01*
X56483Y-21111D01*
X56464Y-21092D01*
X56441Y-21077D01*
X56416Y-21066D01*
X56389Y-21061D01*
X56362Y-21061D01*
X56020Y-21061D01*
X56011Y-21047D01*
X55978Y-21013D01*
X55939Y-20987D01*
X55895Y-20969D01*
X55849Y-20960D01*
X55745Y-20960D01*
X55685Y-21020D01*
X55685Y-21160D01*
X55625Y-21160D01*
X55578Y-21165D01*
X55565Y-21168D01*
X55565Y-21020D01*
X55505Y-20960D01*
X55401Y-20960D01*
X55355Y-20969D01*
X55311Y-20987D01*
X55272Y-21013D01*
X55239Y-21047D01*
X55213Y-21086D01*
X55194Y-21129D01*
X55185Y-21175D01*
X55185Y-21222D01*
X55185Y-21280D01*
X55245Y-21340D01*
X55393Y-21340D01*
X55390Y-21352D01*
X55385Y-21398D01*
X55389Y-21445D01*
X55393Y-21460D01*
X55245Y-21460D01*
X55185Y-21520D01*
X55185Y-21578D01*
X55185Y-21625D01*
X55194Y-21671D01*
X55213Y-21714D01*
X55239Y-21753D01*
X55272Y-21787D01*
X55311Y-21813D01*
X55355Y-21831D01*
X55401Y-21840D01*
X55505Y-21840D01*
X55565Y-21780D01*
X55565Y-21631D01*
X55575Y-21635D01*
X55622Y-21640D01*
X55625Y-21640D01*
X55685Y-21640D01*
X55685Y-21780D01*
X55745Y-21840D01*
X55849Y-21840D01*
X55895Y-21831D01*
X55939Y-21813D01*
X55960Y-21799D01*
X55960Y-23230D01*
X55923Y-23255D01*
X55861Y-23316D01*
X55813Y-23387D01*
X55779Y-23466D01*
X55761Y-23551D01*
X55759Y-23637D01*
X55775Y-23722D01*
X55807Y-23802D01*
X55853Y-23874D01*
X55913Y-23937D01*
X55984Y-23986D01*
X56063Y-24020D01*
X56148Y-24039D01*
X56234Y-24041D01*
X56290Y-24030D01*
X56769Y-24509D01*
X56761Y-24551D01*
X56759Y-24637D01*
X56775Y-24722D01*
X56807Y-24802D01*
X56853Y-24874D01*
X56913Y-24937D01*
X56984Y-24986D01*
X57063Y-25020D01*
X57148Y-25039D01*
X57234Y-25041D01*
X57319Y-25026D01*
X57399Y-24995D01*
X57472Y-24948D01*
X57535Y-24889D01*
X57584Y-24818D01*
X57619Y-24740D01*
X57639Y-24656D01*
X57640Y-24557D01*
X57640Y-29560D01*
X54650Y-29560D01*
X54650Y-22575D01*
X54650Y-22528D01*
X54650Y-22220D01*
X54650Y-21980D01*
X54650Y-21672D01*
X54650Y-21625D01*
X54641Y-21579D01*
X54622Y-21536D01*
X54596Y-21497D01*
X54563Y-21463D01*
X54524Y-21437D01*
X54480Y-21419D01*
X54434Y-21410D01*
X54220Y-21410D01*
X54160Y-21470D01*
X54160Y-22040D01*
X54590Y-22040D01*
X54650Y-21980D01*
X54650Y-22220D01*
X54590Y-22160D01*
X54160Y-22160D01*
X54160Y-22730D01*
X54220Y-22790D01*
X54434Y-22790D01*
X54480Y-22781D01*
X54524Y-22763D01*
X54563Y-22737D01*
X54596Y-22703D01*
X54622Y-22664D01*
X54641Y-22621D01*
X54650Y-22575D01*
X54650Y-29560D01*
X54549Y-29560D01*
X54549Y-25204D01*
X54548Y-24914D01*
X54531Y-24828D01*
X54497Y-24747D01*
X54449Y-24673D01*
X54387Y-24611D01*
X54314Y-24562D01*
X54233Y-24528D01*
X54147Y-24510D01*
X54059Y-24510D01*
X54040Y-24513D01*
X54040Y-22730D01*
X54040Y-22160D01*
X54040Y-22040D01*
X54040Y-21470D01*
X53980Y-21410D01*
X53766Y-21410D01*
X53720Y-21419D01*
X53714Y-21421D01*
X53714Y-20389D01*
X53714Y-20362D01*
X53714Y-19811D01*
X53709Y-19784D01*
X53698Y-19759D01*
X53683Y-19736D01*
X53664Y-19717D01*
X53641Y-19702D01*
X53616Y-19691D01*
X53589Y-19686D01*
X53562Y-19686D01*
X53011Y-19686D01*
X52984Y-19691D01*
X52959Y-19702D01*
X52936Y-19717D01*
X52917Y-19736D01*
X52902Y-19759D01*
X52891Y-19784D01*
X52886Y-19811D01*
X52886Y-19838D01*
X52886Y-20389D01*
X52891Y-20416D01*
X52902Y-20441D01*
X52917Y-20464D01*
X52936Y-20483D01*
X52959Y-20498D01*
X52984Y-20509D01*
X53011Y-20514D01*
X53038Y-20514D01*
X53589Y-20514D01*
X53616Y-20509D01*
X53641Y-20498D01*
X53664Y-20483D01*
X53683Y-20464D01*
X53698Y-20441D01*
X53709Y-20416D01*
X53714Y-20389D01*
X53714Y-21421D01*
X53676Y-21437D01*
X53637Y-21463D01*
X53604Y-21497D01*
X53578Y-21536D01*
X53559Y-21579D01*
X53550Y-21625D01*
X53550Y-21672D01*
X53550Y-21980D01*
X53610Y-22040D01*
X54040Y-22040D01*
X54040Y-22160D01*
X53610Y-22160D01*
X53550Y-22220D01*
X53550Y-22528D01*
X53550Y-22575D01*
X53559Y-22621D01*
X53578Y-22664D01*
X53604Y-22703D01*
X53637Y-22737D01*
X53676Y-22763D01*
X53720Y-22781D01*
X53766Y-22790D01*
X53980Y-22790D01*
X54040Y-22730D01*
X54040Y-24513D01*
X53973Y-24526D01*
X53891Y-24559D01*
X53818Y-24607D01*
X53755Y-24669D01*
X53705Y-24741D01*
X53671Y-24822D01*
X53653Y-24908D01*
X53651Y-24996D01*
X53652Y-25286D01*
X53669Y-25372D01*
X53703Y-25453D01*
X53751Y-25527D01*
X53813Y-25589D01*
X53886Y-25638D01*
X53967Y-25672D01*
X54053Y-25690D01*
X54141Y-25690D01*
X54227Y-25674D01*
X54309Y-25641D01*
X54382Y-25593D01*
X54445Y-25531D01*
X54495Y-25459D01*
X54529Y-25378D01*
X54547Y-25292D01*
X54549Y-25204D01*
X54549Y-29560D01*
X53714Y-29560D01*
X53714Y-27389D01*
X53714Y-27362D01*
X53714Y-26811D01*
X53709Y-26784D01*
X53698Y-26759D01*
X53683Y-26736D01*
X53664Y-26717D01*
X53641Y-26702D01*
X53616Y-26691D01*
X53589Y-26686D01*
X53562Y-26686D01*
X53549Y-26686D01*
X53549Y-25204D01*
X53549Y-22204D01*
X53548Y-21914D01*
X53531Y-21828D01*
X53497Y-21747D01*
X53449Y-21673D01*
X53387Y-21611D01*
X53314Y-21562D01*
X53233Y-21528D01*
X53147Y-21510D01*
X53059Y-21510D01*
X52973Y-21526D01*
X52891Y-21559D01*
X52818Y-21607D01*
X52755Y-21669D01*
X52715Y-21726D01*
X52715Y-20059D01*
X52699Y-19979D01*
X52668Y-19904D01*
X52623Y-19836D01*
X52566Y-19778D01*
X52498Y-19733D01*
X52423Y-19702D01*
X52343Y-19685D01*
X52262Y-19685D01*
X52182Y-19700D01*
X52107Y-19731D01*
X52038Y-19775D01*
X51980Y-19832D01*
X51934Y-19899D01*
X51902Y-19974D01*
X51886Y-20054D01*
X51884Y-20135D01*
X51899Y-20215D01*
X51929Y-20291D01*
X51973Y-20359D01*
X52030Y-20418D01*
X52097Y-20464D01*
X52171Y-20497D01*
X52251Y-20514D01*
X52332Y-20516D01*
X52412Y-20502D01*
X52488Y-20472D01*
X52557Y-20428D01*
X52616Y-20372D01*
X52663Y-20306D01*
X52696Y-20231D01*
X52714Y-20152D01*
X52715Y-20059D01*
X52715Y-21726D01*
X52705Y-21741D01*
X52671Y-21822D01*
X52653Y-21908D01*
X52651Y-21996D01*
X52652Y-22286D01*
X52669Y-22372D01*
X52703Y-22453D01*
X52751Y-22527D01*
X52813Y-22589D01*
X52886Y-22638D01*
X52967Y-22672D01*
X53053Y-22690D01*
X53141Y-22690D01*
X53227Y-22674D01*
X53309Y-22641D01*
X53382Y-22593D01*
X53445Y-22531D01*
X53495Y-22459D01*
X53529Y-22378D01*
X53547Y-22292D01*
X53549Y-22204D01*
X53549Y-25204D01*
X53548Y-24914D01*
X53531Y-24828D01*
X53497Y-24747D01*
X53449Y-24673D01*
X53387Y-24611D01*
X53314Y-24562D01*
X53233Y-24528D01*
X53147Y-24510D01*
X53059Y-24510D01*
X52973Y-24526D01*
X52891Y-24559D01*
X52818Y-24607D01*
X52755Y-24669D01*
X52705Y-24741D01*
X52671Y-24822D01*
X52653Y-24908D01*
X52651Y-24996D01*
X52652Y-25286D01*
X52669Y-25372D01*
X52703Y-25453D01*
X52751Y-25527D01*
X52813Y-25589D01*
X52886Y-25638D01*
X52967Y-25672D01*
X53053Y-25690D01*
X53141Y-25690D01*
X53227Y-25674D01*
X53309Y-25641D01*
X53382Y-25593D01*
X53445Y-25531D01*
X53495Y-25459D01*
X53529Y-25378D01*
X53547Y-25292D01*
X53549Y-25204D01*
X53549Y-26686D01*
X53011Y-26686D01*
X52984Y-26691D01*
X52959Y-26702D01*
X52936Y-26717D01*
X52917Y-26736D01*
X52902Y-26759D01*
X52891Y-26784D01*
X52886Y-26811D01*
X52886Y-26838D01*
X52886Y-27389D01*
X52891Y-27416D01*
X52902Y-27441D01*
X52917Y-27464D01*
X52936Y-27483D01*
X52959Y-27498D01*
X52984Y-27509D01*
X53011Y-27514D01*
X53038Y-27514D01*
X53589Y-27514D01*
X53616Y-27509D01*
X53641Y-27498D01*
X53664Y-27483D01*
X53683Y-27464D01*
X53698Y-27441D01*
X53709Y-27416D01*
X53714Y-27389D01*
X53714Y-29560D01*
X52715Y-29560D01*
X52715Y-27059D01*
X52699Y-26979D01*
X52668Y-26904D01*
X52623Y-26836D01*
X52566Y-26778D01*
X52549Y-26766D01*
X52549Y-25204D01*
X52549Y-22204D01*
X52548Y-21914D01*
X52531Y-21828D01*
X52497Y-21747D01*
X52449Y-21673D01*
X52387Y-21611D01*
X52314Y-21562D01*
X52233Y-21528D01*
X52147Y-21510D01*
X52059Y-21510D01*
X51973Y-21526D01*
X51891Y-21559D01*
X51818Y-21607D01*
X51755Y-21669D01*
X51715Y-21726D01*
X51715Y-20059D01*
X51699Y-19979D01*
X51668Y-19904D01*
X51623Y-19836D01*
X51566Y-19778D01*
X51498Y-19733D01*
X51423Y-19702D01*
X51343Y-19685D01*
X51262Y-19685D01*
X51182Y-19700D01*
X51107Y-19731D01*
X51038Y-19775D01*
X50980Y-19832D01*
X50934Y-19899D01*
X50902Y-19974D01*
X50886Y-20054D01*
X50884Y-20135D01*
X50899Y-20215D01*
X50929Y-20291D01*
X50973Y-20359D01*
X51030Y-20418D01*
X51097Y-20464D01*
X51171Y-20497D01*
X51251Y-20514D01*
X51332Y-20516D01*
X51412Y-20502D01*
X51488Y-20472D01*
X51557Y-20428D01*
X51616Y-20372D01*
X51663Y-20306D01*
X51696Y-20231D01*
X51714Y-20152D01*
X51715Y-20059D01*
X51715Y-21726D01*
X51705Y-21741D01*
X51671Y-21822D01*
X51653Y-21908D01*
X51651Y-21996D01*
X51652Y-22286D01*
X51669Y-22372D01*
X51703Y-22453D01*
X51751Y-22527D01*
X51813Y-22589D01*
X51886Y-22638D01*
X51967Y-22672D01*
X52053Y-22690D01*
X52141Y-22690D01*
X52227Y-22674D01*
X52309Y-22641D01*
X52382Y-22593D01*
X52445Y-22531D01*
X52495Y-22459D01*
X52529Y-22378D01*
X52547Y-22292D01*
X52549Y-22204D01*
X52549Y-25204D01*
X52548Y-24914D01*
X52531Y-24828D01*
X52497Y-24747D01*
X52449Y-24673D01*
X52387Y-24611D01*
X52314Y-24562D01*
X52233Y-24528D01*
X52147Y-24510D01*
X52059Y-24510D01*
X51973Y-24526D01*
X51891Y-24559D01*
X51818Y-24607D01*
X51755Y-24669D01*
X51705Y-24741D01*
X51671Y-24822D01*
X51653Y-24908D01*
X51651Y-24996D01*
X51652Y-25286D01*
X51669Y-25372D01*
X51703Y-25453D01*
X51751Y-25527D01*
X51813Y-25589D01*
X51886Y-25638D01*
X51967Y-25672D01*
X52053Y-25690D01*
X52141Y-25690D01*
X52227Y-25674D01*
X52309Y-25641D01*
X52382Y-25593D01*
X52445Y-25531D01*
X52495Y-25459D01*
X52529Y-25378D01*
X52547Y-25292D01*
X52549Y-25204D01*
X52549Y-26766D01*
X52498Y-26733D01*
X52423Y-26702D01*
X52343Y-26685D01*
X52262Y-26685D01*
X52182Y-26700D01*
X52107Y-26731D01*
X52038Y-26775D01*
X51980Y-26832D01*
X51934Y-26899D01*
X51902Y-26974D01*
X51886Y-27054D01*
X51884Y-27135D01*
X51899Y-27215D01*
X51929Y-27291D01*
X51973Y-27359D01*
X52030Y-27418D01*
X52097Y-27464D01*
X52171Y-27497D01*
X52251Y-27514D01*
X52332Y-27516D01*
X52412Y-27502D01*
X52488Y-27472D01*
X52557Y-27428D01*
X52616Y-27372D01*
X52663Y-27306D01*
X52696Y-27231D01*
X52714Y-27152D01*
X52715Y-27059D01*
X52715Y-29560D01*
X51715Y-29560D01*
X51715Y-27059D01*
X51699Y-26979D01*
X51668Y-26904D01*
X51623Y-26836D01*
X51566Y-26778D01*
X51549Y-26766D01*
X51549Y-25204D01*
X51549Y-22204D01*
X51548Y-21914D01*
X51531Y-21828D01*
X51497Y-21747D01*
X51449Y-21673D01*
X51387Y-21611D01*
X51314Y-21562D01*
X51233Y-21528D01*
X51147Y-21510D01*
X51059Y-21510D01*
X50973Y-21526D01*
X50891Y-21559D01*
X50818Y-21607D01*
X50755Y-21669D01*
X50715Y-21726D01*
X50715Y-20059D01*
X50699Y-19979D01*
X50668Y-19904D01*
X50623Y-19836D01*
X50566Y-19778D01*
X50498Y-19733D01*
X50423Y-19702D01*
X50343Y-19685D01*
X50262Y-19685D01*
X50182Y-19700D01*
X50107Y-19731D01*
X50038Y-19775D01*
X49980Y-19832D01*
X49934Y-19899D01*
X49902Y-19974D01*
X49886Y-20054D01*
X49884Y-20135D01*
X49899Y-20215D01*
X49929Y-20291D01*
X49973Y-20359D01*
X50030Y-20418D01*
X50097Y-20464D01*
X50171Y-20497D01*
X50251Y-20514D01*
X50332Y-20516D01*
X50412Y-20502D01*
X50488Y-20472D01*
X50557Y-20428D01*
X50616Y-20372D01*
X50663Y-20306D01*
X50696Y-20231D01*
X50714Y-20152D01*
X50715Y-20059D01*
X50715Y-21726D01*
X50705Y-21741D01*
X50671Y-21822D01*
X50653Y-21908D01*
X50651Y-21996D01*
X50652Y-22286D01*
X50669Y-22372D01*
X50703Y-22453D01*
X50751Y-22527D01*
X50813Y-22589D01*
X50886Y-22638D01*
X50967Y-22672D01*
X51053Y-22690D01*
X51141Y-22690D01*
X51227Y-22674D01*
X51309Y-22641D01*
X51382Y-22593D01*
X51445Y-22531D01*
X51495Y-22459D01*
X51529Y-22378D01*
X51547Y-22292D01*
X51549Y-22204D01*
X51549Y-25204D01*
X51548Y-24914D01*
X51531Y-24828D01*
X51497Y-24747D01*
X51449Y-24673D01*
X51387Y-24611D01*
X51314Y-24562D01*
X51233Y-24528D01*
X51147Y-24510D01*
X51059Y-24510D01*
X50973Y-24526D01*
X50891Y-24559D01*
X50818Y-24607D01*
X50755Y-24669D01*
X50705Y-24741D01*
X50671Y-24822D01*
X50653Y-24908D01*
X50651Y-24996D01*
X50652Y-25286D01*
X50669Y-25372D01*
X50703Y-25453D01*
X50751Y-25527D01*
X50813Y-25589D01*
X50886Y-25638D01*
X50967Y-25672D01*
X51053Y-25690D01*
X51141Y-25690D01*
X51227Y-25674D01*
X51309Y-25641D01*
X51382Y-25593D01*
X51445Y-25531D01*
X51495Y-25459D01*
X51529Y-25378D01*
X51547Y-25292D01*
X51549Y-25204D01*
X51549Y-26766D01*
X51498Y-26733D01*
X51423Y-26702D01*
X51343Y-26685D01*
X51262Y-26685D01*
X51182Y-26700D01*
X51107Y-26731D01*
X51038Y-26775D01*
X50980Y-26832D01*
X50934Y-26899D01*
X50902Y-26974D01*
X50886Y-27054D01*
X50884Y-27135D01*
X50899Y-27215D01*
X50929Y-27291D01*
X50973Y-27359D01*
X51030Y-27418D01*
X51097Y-27464D01*
X51171Y-27497D01*
X51251Y-27514D01*
X51332Y-27516D01*
X51412Y-27502D01*
X51488Y-27472D01*
X51557Y-27428D01*
X51616Y-27372D01*
X51663Y-27306D01*
X51696Y-27231D01*
X51714Y-27152D01*
X51715Y-27059D01*
X51715Y-29560D01*
X50715Y-29560D01*
X50715Y-27059D01*
X50699Y-26979D01*
X50668Y-26904D01*
X50623Y-26836D01*
X50566Y-26778D01*
X50549Y-26766D01*
X50549Y-25204D01*
X50549Y-22204D01*
X50548Y-21914D01*
X50531Y-21828D01*
X50497Y-21747D01*
X50449Y-21673D01*
X50387Y-21611D01*
X50314Y-21562D01*
X50233Y-21528D01*
X50147Y-21510D01*
X50059Y-21510D01*
X49973Y-21526D01*
X49891Y-21559D01*
X49818Y-21607D01*
X49755Y-21669D01*
X49715Y-21726D01*
X49715Y-20059D01*
X49699Y-19979D01*
X49668Y-19904D01*
X49623Y-19836D01*
X49566Y-19778D01*
X49498Y-19733D01*
X49423Y-19702D01*
X49343Y-19685D01*
X49262Y-19685D01*
X49182Y-19700D01*
X49107Y-19731D01*
X49038Y-19775D01*
X48980Y-19832D01*
X48934Y-19899D01*
X48902Y-19974D01*
X48886Y-20054D01*
X48884Y-20135D01*
X48899Y-20215D01*
X48929Y-20291D01*
X48973Y-20359D01*
X49030Y-20418D01*
X49097Y-20464D01*
X49171Y-20497D01*
X49251Y-20514D01*
X49332Y-20516D01*
X49412Y-20502D01*
X49488Y-20472D01*
X49557Y-20428D01*
X49616Y-20372D01*
X49663Y-20306D01*
X49696Y-20231D01*
X49714Y-20152D01*
X49715Y-20059D01*
X49715Y-21726D01*
X49705Y-21741D01*
X49671Y-21822D01*
X49653Y-21908D01*
X49651Y-21996D01*
X49652Y-22286D01*
X49669Y-22372D01*
X49703Y-22453D01*
X49751Y-22527D01*
X49813Y-22589D01*
X49886Y-22638D01*
X49967Y-22672D01*
X50053Y-22690D01*
X50141Y-22690D01*
X50227Y-22674D01*
X50309Y-22641D01*
X50382Y-22593D01*
X50445Y-22531D01*
X50495Y-22459D01*
X50529Y-22378D01*
X50547Y-22292D01*
X50549Y-22204D01*
X50549Y-25204D01*
X50548Y-24914D01*
X50531Y-24828D01*
X50497Y-24747D01*
X50449Y-24673D01*
X50387Y-24611D01*
X50314Y-24562D01*
X50233Y-24528D01*
X50147Y-24510D01*
X50059Y-24510D01*
X49973Y-24526D01*
X49891Y-24559D01*
X49818Y-24607D01*
X49755Y-24669D01*
X49705Y-24741D01*
X49671Y-24822D01*
X49653Y-24908D01*
X49651Y-24996D01*
X49652Y-25286D01*
X49669Y-25372D01*
X49703Y-25453D01*
X49751Y-25527D01*
X49813Y-25589D01*
X49886Y-25638D01*
X49967Y-25672D01*
X50053Y-25690D01*
X50141Y-25690D01*
X50227Y-25674D01*
X50309Y-25641D01*
X50382Y-25593D01*
X50445Y-25531D01*
X50495Y-25459D01*
X50529Y-25378D01*
X50547Y-25292D01*
X50549Y-25204D01*
X50549Y-26766D01*
X50498Y-26733D01*
X50423Y-26702D01*
X50343Y-26685D01*
X50262Y-26685D01*
X50182Y-26700D01*
X50107Y-26731D01*
X50038Y-26775D01*
X49980Y-26832D01*
X49934Y-26899D01*
X49902Y-26974D01*
X49886Y-27054D01*
X49884Y-27135D01*
X49899Y-27215D01*
X49929Y-27291D01*
X49973Y-27359D01*
X50030Y-27418D01*
X50097Y-27464D01*
X50171Y-27497D01*
X50251Y-27514D01*
X50332Y-27516D01*
X50412Y-27502D01*
X50488Y-27472D01*
X50557Y-27428D01*
X50616Y-27372D01*
X50663Y-27306D01*
X50696Y-27231D01*
X50714Y-27152D01*
X50715Y-27059D01*
X50715Y-29560D01*
X49715Y-29560D01*
X49715Y-27059D01*
X49699Y-26979D01*
X49668Y-26904D01*
X49623Y-26836D01*
X49566Y-26778D01*
X49549Y-26766D01*
X49549Y-25204D01*
X49549Y-22204D01*
X49548Y-21914D01*
X49531Y-21828D01*
X49497Y-21747D01*
X49449Y-21673D01*
X49387Y-21611D01*
X49314Y-21562D01*
X49233Y-21528D01*
X49147Y-21510D01*
X49059Y-21510D01*
X48973Y-21526D01*
X48891Y-21559D01*
X48818Y-21607D01*
X48755Y-21669D01*
X48715Y-21726D01*
X48715Y-20059D01*
X48699Y-19979D01*
X48668Y-19904D01*
X48623Y-19836D01*
X48566Y-19778D01*
X48498Y-19733D01*
X48423Y-19702D01*
X48343Y-19685D01*
X48262Y-19685D01*
X48182Y-19700D01*
X48107Y-19731D01*
X48038Y-19775D01*
X47980Y-19832D01*
X47934Y-19899D01*
X47902Y-19974D01*
X47886Y-20054D01*
X47884Y-20135D01*
X47899Y-20215D01*
X47929Y-20291D01*
X47973Y-20359D01*
X48030Y-20418D01*
X48097Y-20464D01*
X48171Y-20497D01*
X48251Y-20514D01*
X48332Y-20516D01*
X48412Y-20502D01*
X48488Y-20472D01*
X48557Y-20428D01*
X48616Y-20372D01*
X48663Y-20306D01*
X48696Y-20231D01*
X48714Y-20152D01*
X48715Y-20059D01*
X48715Y-21726D01*
X48705Y-21741D01*
X48671Y-21822D01*
X48653Y-21908D01*
X48651Y-21996D01*
X48652Y-22286D01*
X48669Y-22372D01*
X48703Y-22453D01*
X48751Y-22527D01*
X48813Y-22589D01*
X48886Y-22638D01*
X48967Y-22672D01*
X49053Y-22690D01*
X49141Y-22690D01*
X49227Y-22674D01*
X49309Y-22641D01*
X49382Y-22593D01*
X49445Y-22531D01*
X49495Y-22459D01*
X49529Y-22378D01*
X49547Y-22292D01*
X49549Y-22204D01*
X49549Y-25204D01*
X49548Y-24914D01*
X49531Y-24828D01*
X49497Y-24747D01*
X49449Y-24673D01*
X49387Y-24611D01*
X49314Y-24562D01*
X49233Y-24528D01*
X49147Y-24510D01*
X49059Y-24510D01*
X48973Y-24526D01*
X48891Y-24559D01*
X48818Y-24607D01*
X48755Y-24669D01*
X48705Y-24741D01*
X48671Y-24822D01*
X48653Y-24908D01*
X48651Y-24996D01*
X48652Y-25286D01*
X48669Y-25372D01*
X48703Y-25453D01*
X48751Y-25527D01*
X48813Y-25589D01*
X48886Y-25638D01*
X48967Y-25672D01*
X49053Y-25690D01*
X49141Y-25690D01*
X49227Y-25674D01*
X49309Y-25641D01*
X49382Y-25593D01*
X49445Y-25531D01*
X49495Y-25459D01*
X49529Y-25378D01*
X49547Y-25292D01*
X49549Y-25204D01*
X49549Y-26766D01*
X49498Y-26733D01*
X49423Y-26702D01*
X49343Y-26685D01*
X49262Y-26685D01*
X49182Y-26700D01*
X49107Y-26731D01*
X49038Y-26775D01*
X48980Y-26832D01*
X48934Y-26899D01*
X48902Y-26974D01*
X48886Y-27054D01*
X48884Y-27135D01*
X48899Y-27215D01*
X48929Y-27291D01*
X48973Y-27359D01*
X49030Y-27418D01*
X49097Y-27464D01*
X49171Y-27497D01*
X49251Y-27514D01*
X49332Y-27516D01*
X49412Y-27502D01*
X49488Y-27472D01*
X49557Y-27428D01*
X49616Y-27372D01*
X49663Y-27306D01*
X49696Y-27231D01*
X49714Y-27152D01*
X49715Y-27059D01*
X49715Y-29560D01*
X48715Y-29560D01*
X48715Y-27059D01*
X48699Y-26979D01*
X48668Y-26904D01*
X48623Y-26836D01*
X48566Y-26778D01*
X48549Y-26766D01*
X48549Y-25204D01*
X48549Y-22204D01*
X48548Y-21914D01*
X48531Y-21828D01*
X48497Y-21747D01*
X48449Y-21673D01*
X48387Y-21611D01*
X48314Y-21562D01*
X48233Y-21528D01*
X48147Y-21510D01*
X48059Y-21510D01*
X47973Y-21526D01*
X47891Y-21559D01*
X47818Y-21607D01*
X47755Y-21669D01*
X47715Y-21726D01*
X47715Y-20059D01*
X47699Y-19979D01*
X47668Y-19904D01*
X47623Y-19836D01*
X47566Y-19778D01*
X47498Y-19733D01*
X47423Y-19702D01*
X47343Y-19685D01*
X47262Y-19685D01*
X47182Y-19700D01*
X47107Y-19731D01*
X47038Y-19775D01*
X46980Y-19832D01*
X46934Y-19899D01*
X46902Y-19974D01*
X46886Y-20054D01*
X46884Y-20135D01*
X46899Y-20215D01*
X46929Y-20291D01*
X46973Y-20359D01*
X47030Y-20418D01*
X47097Y-20464D01*
X47171Y-20497D01*
X47251Y-20514D01*
X47332Y-20516D01*
X47412Y-20502D01*
X47488Y-20472D01*
X47557Y-20428D01*
X47616Y-20372D01*
X47663Y-20306D01*
X47696Y-20231D01*
X47714Y-20152D01*
X47715Y-20059D01*
X47715Y-21726D01*
X47705Y-21741D01*
X47671Y-21822D01*
X47653Y-21908D01*
X47651Y-21996D01*
X47652Y-22286D01*
X47669Y-22372D01*
X47703Y-22453D01*
X47751Y-22527D01*
X47813Y-22589D01*
X47886Y-22638D01*
X47967Y-22672D01*
X48053Y-22690D01*
X48141Y-22690D01*
X48227Y-22674D01*
X48309Y-22641D01*
X48382Y-22593D01*
X48445Y-22531D01*
X48495Y-22459D01*
X48529Y-22378D01*
X48547Y-22292D01*
X48549Y-22204D01*
X48549Y-25204D01*
X48548Y-24914D01*
X48531Y-24828D01*
X48497Y-24747D01*
X48449Y-24673D01*
X48387Y-24611D01*
X48314Y-24562D01*
X48233Y-24528D01*
X48147Y-24510D01*
X48059Y-24510D01*
X47973Y-24526D01*
X47891Y-24559D01*
X47818Y-24607D01*
X47755Y-24669D01*
X47705Y-24741D01*
X47671Y-24822D01*
X47653Y-24908D01*
X47651Y-24996D01*
X47652Y-25286D01*
X47669Y-25372D01*
X47703Y-25453D01*
X47751Y-25527D01*
X47813Y-25589D01*
X47886Y-25638D01*
X47967Y-25672D01*
X48053Y-25690D01*
X48141Y-25690D01*
X48227Y-25674D01*
X48309Y-25641D01*
X48382Y-25593D01*
X48445Y-25531D01*
X48495Y-25459D01*
X48529Y-25378D01*
X48547Y-25292D01*
X48549Y-25204D01*
X48549Y-26766D01*
X48498Y-26733D01*
X48423Y-26702D01*
X48343Y-26685D01*
X48262Y-26685D01*
X48182Y-26700D01*
X48107Y-26731D01*
X48038Y-26775D01*
X47980Y-26832D01*
X47934Y-26899D01*
X47902Y-26974D01*
X47886Y-27054D01*
X47884Y-27135D01*
X47899Y-27215D01*
X47929Y-27291D01*
X47973Y-27359D01*
X48030Y-27418D01*
X48097Y-27464D01*
X48171Y-27497D01*
X48251Y-27514D01*
X48332Y-27516D01*
X48412Y-27502D01*
X48488Y-27472D01*
X48557Y-27428D01*
X48616Y-27372D01*
X48663Y-27306D01*
X48696Y-27231D01*
X48714Y-27152D01*
X48715Y-27059D01*
X48715Y-29560D01*
X47715Y-29560D01*
X47715Y-27059D01*
X47699Y-26979D01*
X47668Y-26904D01*
X47623Y-26836D01*
X47566Y-26778D01*
X47549Y-26766D01*
X47549Y-25204D01*
X47549Y-22204D01*
X47548Y-21914D01*
X47531Y-21828D01*
X47497Y-21747D01*
X47449Y-21673D01*
X47387Y-21611D01*
X47314Y-21562D01*
X47233Y-21528D01*
X47147Y-21510D01*
X47059Y-21510D01*
X46973Y-21526D01*
X46891Y-21559D01*
X46818Y-21607D01*
X46813Y-21611D01*
X46813Y-20062D01*
X46796Y-19963D01*
X46760Y-19869D01*
X46748Y-19848D01*
X46661Y-19824D01*
X46576Y-19909D01*
X46576Y-19739D01*
X46552Y-19652D01*
X46461Y-19611D01*
X46362Y-19589D01*
X46262Y-19587D01*
X46163Y-19604D01*
X46069Y-19640D01*
X46048Y-19652D01*
X46024Y-19739D01*
X46300Y-20015D01*
X46576Y-19739D01*
X46576Y-19909D01*
X46385Y-20100D01*
X46661Y-20376D01*
X46748Y-20352D01*
X46789Y-20261D01*
X46811Y-20162D01*
X46813Y-20062D01*
X46813Y-21611D01*
X46755Y-21669D01*
X46705Y-21741D01*
X46671Y-21822D01*
X46653Y-21908D01*
X46651Y-21996D01*
X46652Y-22286D01*
X46669Y-22372D01*
X46703Y-22453D01*
X46751Y-22527D01*
X46813Y-22589D01*
X46886Y-22638D01*
X46967Y-22672D01*
X47053Y-22690D01*
X47141Y-22690D01*
X47227Y-22674D01*
X47309Y-22641D01*
X47382Y-22593D01*
X47445Y-22531D01*
X47495Y-22459D01*
X47529Y-22378D01*
X47547Y-22292D01*
X47549Y-22204D01*
X47549Y-25204D01*
X47548Y-24914D01*
X47531Y-24828D01*
X47497Y-24747D01*
X47449Y-24673D01*
X47387Y-24611D01*
X47314Y-24562D01*
X47233Y-24528D01*
X47147Y-24510D01*
X47059Y-24510D01*
X46973Y-24526D01*
X46891Y-24559D01*
X46818Y-24607D01*
X46755Y-24669D01*
X46705Y-24741D01*
X46671Y-24822D01*
X46653Y-24908D01*
X46651Y-24996D01*
X46652Y-25286D01*
X46669Y-25372D01*
X46703Y-25453D01*
X46751Y-25527D01*
X46813Y-25589D01*
X46886Y-25638D01*
X46967Y-25672D01*
X47053Y-25690D01*
X47141Y-25690D01*
X47227Y-25674D01*
X47309Y-25641D01*
X47382Y-25593D01*
X47445Y-25531D01*
X47495Y-25459D01*
X47529Y-25378D01*
X47547Y-25292D01*
X47549Y-25204D01*
X47549Y-26766D01*
X47498Y-26733D01*
X47423Y-26702D01*
X47343Y-26685D01*
X47262Y-26685D01*
X47182Y-26700D01*
X47107Y-26731D01*
X47038Y-26775D01*
X46980Y-26832D01*
X46934Y-26899D01*
X46902Y-26974D01*
X46886Y-27054D01*
X46884Y-27135D01*
X46899Y-27215D01*
X46929Y-27291D01*
X46973Y-27359D01*
X47030Y-27418D01*
X47097Y-27464D01*
X47171Y-27497D01*
X47251Y-27514D01*
X47332Y-27516D01*
X47412Y-27502D01*
X47488Y-27472D01*
X47557Y-27428D01*
X47616Y-27372D01*
X47663Y-27306D01*
X47696Y-27231D01*
X47714Y-27152D01*
X47715Y-27059D01*
X47715Y-29560D01*
X46813Y-29560D01*
X46813Y-27062D01*
X46796Y-26963D01*
X46760Y-26869D01*
X46748Y-26848D01*
X46661Y-26824D01*
X46576Y-26909D01*
X46576Y-26739D01*
X46576Y-20461D01*
X46300Y-20185D01*
X46215Y-20270D01*
X46215Y-20100D01*
X45939Y-19824D01*
X45852Y-19848D01*
X45811Y-19939D01*
X45789Y-20038D01*
X45787Y-20138D01*
X45804Y-20237D01*
X45840Y-20331D01*
X45852Y-20352D01*
X45939Y-20376D01*
X46215Y-20100D01*
X46215Y-20270D01*
X46024Y-20461D01*
X46048Y-20548D01*
X46139Y-20589D01*
X46238Y-20611D01*
X46338Y-20613D01*
X46437Y-20596D01*
X46531Y-20560D01*
X46552Y-20548D01*
X46576Y-20461D01*
X46576Y-26739D01*
X46552Y-26652D01*
X46461Y-26611D01*
X46362Y-26589D01*
X46262Y-26587D01*
X46163Y-26604D01*
X46069Y-26640D01*
X46048Y-26652D01*
X46024Y-26739D01*
X46300Y-27015D01*
X46576Y-26739D01*
X46576Y-26909D01*
X46385Y-27100D01*
X46661Y-27376D01*
X46748Y-27352D01*
X46789Y-27261D01*
X46811Y-27162D01*
X46813Y-27062D01*
X46813Y-29560D01*
X46576Y-29560D01*
X46576Y-27461D01*
X46300Y-27185D01*
X46215Y-27270D01*
X46215Y-27100D01*
X45939Y-26824D01*
X45852Y-26848D01*
X45811Y-26939D01*
X45789Y-27038D01*
X45787Y-27138D01*
X45804Y-27237D01*
X45840Y-27331D01*
X45852Y-27352D01*
X45939Y-27376D01*
X46215Y-27100D01*
X46215Y-27270D01*
X46024Y-27461D01*
X46048Y-27548D01*
X46139Y-27589D01*
X46238Y-27611D01*
X46338Y-27613D01*
X46437Y-27596D01*
X46531Y-27560D01*
X46552Y-27548D01*
X46576Y-27461D01*
X46576Y-29560D01*
X44715Y-29560D01*
X44715Y-27059D01*
X44715Y-26059D01*
X44715Y-25059D01*
X44715Y-24059D01*
X44715Y-23059D01*
X44715Y-22059D01*
X44715Y-21059D01*
X44714Y-21054D01*
X44714Y-20389D01*
X44714Y-20362D01*
X44714Y-19811D01*
X44709Y-19784D01*
X44698Y-19759D01*
X44683Y-19736D01*
X44664Y-19717D01*
X44641Y-19702D01*
X44616Y-19691D01*
X44589Y-19686D01*
X44562Y-19686D01*
X44011Y-19686D01*
X43984Y-19691D01*
X43959Y-19702D01*
X43936Y-19717D01*
X43917Y-19736D01*
X43902Y-19759D01*
X43891Y-19784D01*
X43886Y-19811D01*
X43886Y-19838D01*
X43886Y-20389D01*
X43891Y-20416D01*
X43902Y-20441D01*
X43917Y-20464D01*
X43936Y-20483D01*
X43959Y-20498D01*
X43984Y-20509D01*
X44011Y-20514D01*
X44038Y-20514D01*
X44589Y-20514D01*
X44616Y-20509D01*
X44641Y-20498D01*
X44664Y-20483D01*
X44683Y-20464D01*
X44698Y-20441D01*
X44709Y-20416D01*
X44714Y-20389D01*
X44714Y-21054D01*
X44699Y-20979D01*
X44668Y-20904D01*
X44623Y-20836D01*
X44566Y-20778D01*
X44498Y-20733D01*
X44423Y-20702D01*
X44343Y-20685D01*
X44262Y-20685D01*
X44182Y-20700D01*
X44107Y-20731D01*
X44038Y-20775D01*
X43980Y-20832D01*
X43934Y-20899D01*
X43902Y-20974D01*
X43886Y-21054D01*
X43884Y-21135D01*
X43899Y-21215D01*
X43929Y-21291D01*
X43973Y-21359D01*
X44030Y-21418D01*
X44097Y-21464D01*
X44171Y-21497D01*
X44251Y-21514D01*
X44332Y-21516D01*
X44412Y-21502D01*
X44488Y-21472D01*
X44557Y-21428D01*
X44616Y-21372D01*
X44663Y-21306D01*
X44696Y-21231D01*
X44714Y-21152D01*
X44715Y-21059D01*
X44715Y-22059D01*
X44699Y-21979D01*
X44668Y-21904D01*
X44623Y-21836D01*
X44566Y-21778D01*
X44498Y-21733D01*
X44423Y-21702D01*
X44343Y-21685D01*
X44262Y-21685D01*
X44182Y-21700D01*
X44107Y-21731D01*
X44038Y-21775D01*
X43980Y-21832D01*
X43934Y-21899D01*
X43902Y-21974D01*
X43886Y-22054D01*
X43884Y-22135D01*
X43899Y-22215D01*
X43929Y-22291D01*
X43973Y-22359D01*
X44030Y-22418D01*
X44097Y-22464D01*
X44171Y-22497D01*
X44251Y-22514D01*
X44332Y-22516D01*
X44412Y-22502D01*
X44488Y-22472D01*
X44557Y-22428D01*
X44616Y-22372D01*
X44663Y-22306D01*
X44696Y-22231D01*
X44714Y-22152D01*
X44715Y-22059D01*
X44715Y-23059D01*
X44699Y-22979D01*
X44668Y-22904D01*
X44623Y-22836D01*
X44566Y-22778D01*
X44498Y-22733D01*
X44423Y-22702D01*
X44343Y-22685D01*
X44262Y-22685D01*
X44182Y-22700D01*
X44107Y-22731D01*
X44038Y-22775D01*
X43980Y-22832D01*
X43934Y-22899D01*
X43902Y-22974D01*
X43886Y-23054D01*
X43884Y-23135D01*
X43899Y-23215D01*
X43929Y-23291D01*
X43973Y-23359D01*
X44030Y-23418D01*
X44097Y-23464D01*
X44171Y-23497D01*
X44251Y-23514D01*
X44332Y-23516D01*
X44412Y-23502D01*
X44488Y-23472D01*
X44557Y-23428D01*
X44616Y-23372D01*
X44663Y-23306D01*
X44696Y-23231D01*
X44714Y-23152D01*
X44715Y-23059D01*
X44715Y-24059D01*
X44699Y-23979D01*
X44668Y-23904D01*
X44623Y-23836D01*
X44566Y-23778D01*
X44498Y-23733D01*
X44423Y-23702D01*
X44343Y-23685D01*
X44262Y-23685D01*
X44182Y-23700D01*
X44107Y-23731D01*
X44038Y-23775D01*
X43980Y-23832D01*
X43934Y-23899D01*
X43902Y-23974D01*
X43886Y-24054D01*
X43884Y-24135D01*
X43899Y-24215D01*
X43929Y-24291D01*
X43973Y-24359D01*
X44030Y-24418D01*
X44097Y-24464D01*
X44171Y-24497D01*
X44251Y-24514D01*
X44332Y-24516D01*
X44412Y-24502D01*
X44488Y-24472D01*
X44557Y-24428D01*
X44616Y-24372D01*
X44663Y-24306D01*
X44696Y-24231D01*
X44714Y-24152D01*
X44715Y-24059D01*
X44715Y-25059D01*
X44699Y-24979D01*
X44668Y-24904D01*
X44623Y-24836D01*
X44566Y-24778D01*
X44498Y-24733D01*
X44423Y-24702D01*
X44343Y-24685D01*
X44262Y-24685D01*
X44182Y-24700D01*
X44107Y-24731D01*
X44038Y-24775D01*
X43980Y-24832D01*
X43934Y-24899D01*
X43902Y-24974D01*
X43886Y-25054D01*
X43884Y-25135D01*
X43899Y-25215D01*
X43929Y-25291D01*
X43973Y-25359D01*
X44030Y-25418D01*
X44097Y-25464D01*
X44171Y-25497D01*
X44251Y-25514D01*
X44332Y-25516D01*
X44412Y-25502D01*
X44488Y-25472D01*
X44557Y-25428D01*
X44616Y-25372D01*
X44663Y-25306D01*
X44696Y-25231D01*
X44714Y-25152D01*
X44715Y-25059D01*
X44715Y-26059D01*
X44699Y-25979D01*
X44668Y-25904D01*
X44623Y-25836D01*
X44566Y-25778D01*
X44498Y-25733D01*
X44423Y-25702D01*
X44343Y-25685D01*
X44262Y-25685D01*
X44182Y-25700D01*
X44107Y-25731D01*
X44038Y-25775D01*
X43980Y-25832D01*
X43934Y-25899D01*
X43902Y-25974D01*
X43886Y-26054D01*
X43884Y-26135D01*
X43899Y-26215D01*
X43929Y-26291D01*
X43973Y-26359D01*
X44030Y-26418D01*
X44097Y-26464D01*
X44171Y-26497D01*
X44251Y-26514D01*
X44332Y-26516D01*
X44412Y-26502D01*
X44488Y-26472D01*
X44557Y-26428D01*
X44616Y-26372D01*
X44663Y-26306D01*
X44696Y-26231D01*
X44714Y-26152D01*
X44715Y-26059D01*
X44715Y-27059D01*
X44699Y-26979D01*
X44668Y-26904D01*
X44623Y-26836D01*
X44566Y-26778D01*
X44498Y-26733D01*
X44423Y-26702D01*
X44343Y-26685D01*
X44262Y-26685D01*
X44182Y-26700D01*
X44107Y-26731D01*
X44038Y-26775D01*
X43980Y-26832D01*
X43934Y-26899D01*
X43902Y-26974D01*
X43886Y-27054D01*
X43884Y-27135D01*
X43899Y-27215D01*
X43929Y-27291D01*
X43973Y-27359D01*
X44030Y-27418D01*
X44097Y-27464D01*
X44171Y-27497D01*
X44251Y-27514D01*
X44332Y-27516D01*
X44412Y-27502D01*
X44488Y-27472D01*
X44557Y-27428D01*
X44616Y-27372D01*
X44663Y-27306D01*
X44696Y-27231D01*
X44714Y-27152D01*
X44715Y-27059D01*
X44715Y-29560D01*
X43715Y-29560D01*
X43715Y-27059D01*
X43715Y-26059D01*
X43715Y-25059D01*
X43715Y-24059D01*
X43715Y-23059D01*
X43715Y-22059D01*
X43715Y-21059D01*
X43714Y-21054D01*
X43714Y-20389D01*
X43714Y-20362D01*
X43714Y-19811D01*
X43709Y-19784D01*
X43698Y-19759D01*
X43683Y-19736D01*
X43664Y-19717D01*
X43641Y-19702D01*
X43616Y-19691D01*
X43589Y-19686D01*
X43562Y-19686D01*
X43011Y-19686D01*
X42984Y-19691D01*
X42959Y-19702D01*
X42936Y-19717D01*
X42917Y-19736D01*
X42902Y-19759D01*
X42891Y-19784D01*
X42886Y-19811D01*
X42886Y-19838D01*
X42886Y-20389D01*
X42891Y-20416D01*
X42902Y-20441D01*
X42917Y-20464D01*
X42936Y-20483D01*
X42959Y-20498D01*
X42984Y-20509D01*
X43011Y-20514D01*
X43038Y-20514D01*
X43589Y-20514D01*
X43616Y-20509D01*
X43641Y-20498D01*
X43664Y-20483D01*
X43683Y-20464D01*
X43698Y-20441D01*
X43709Y-20416D01*
X43714Y-20389D01*
X43714Y-21054D01*
X43699Y-20979D01*
X43668Y-20904D01*
X43623Y-20836D01*
X43566Y-20778D01*
X43498Y-20733D01*
X43423Y-20702D01*
X43343Y-20685D01*
X43262Y-20685D01*
X43182Y-20700D01*
X43107Y-20731D01*
X43038Y-20775D01*
X42980Y-20832D01*
X42934Y-20899D01*
X42902Y-20974D01*
X42886Y-21054D01*
X42884Y-21135D01*
X42899Y-21215D01*
X42929Y-21291D01*
X42973Y-21359D01*
X43030Y-21418D01*
X43097Y-21464D01*
X43171Y-21497D01*
X43251Y-21514D01*
X43332Y-21516D01*
X43412Y-21502D01*
X43488Y-21472D01*
X43557Y-21428D01*
X43616Y-21372D01*
X43663Y-21306D01*
X43696Y-21231D01*
X43714Y-21152D01*
X43715Y-21059D01*
X43715Y-22059D01*
X43699Y-21979D01*
X43668Y-21904D01*
X43623Y-21836D01*
X43566Y-21778D01*
X43498Y-21733D01*
X43423Y-21702D01*
X43343Y-21685D01*
X43262Y-21685D01*
X43182Y-21700D01*
X43107Y-21731D01*
X43038Y-21775D01*
X42980Y-21832D01*
X42934Y-21899D01*
X42902Y-21974D01*
X42886Y-22054D01*
X42884Y-22135D01*
X42899Y-22215D01*
X42929Y-22291D01*
X42973Y-22359D01*
X43030Y-22418D01*
X43097Y-22464D01*
X43171Y-22497D01*
X43251Y-22514D01*
X43332Y-22516D01*
X43412Y-22502D01*
X43488Y-22472D01*
X43557Y-22428D01*
X43616Y-22372D01*
X43663Y-22306D01*
X43696Y-22231D01*
X43714Y-22152D01*
X43715Y-22059D01*
X43715Y-23059D01*
X43699Y-22979D01*
X43668Y-22904D01*
X43623Y-22836D01*
X43566Y-22778D01*
X43498Y-22733D01*
X43423Y-22702D01*
X43343Y-22685D01*
X43262Y-22685D01*
X43182Y-22700D01*
X43107Y-22731D01*
X43038Y-22775D01*
X42980Y-22832D01*
X42934Y-22899D01*
X42902Y-22974D01*
X42886Y-23054D01*
X42884Y-23135D01*
X42899Y-23215D01*
X42929Y-23291D01*
X42973Y-23359D01*
X43030Y-23418D01*
X43097Y-23464D01*
X43171Y-23497D01*
X43251Y-23514D01*
X43332Y-23516D01*
X43412Y-23502D01*
X43488Y-23472D01*
X43557Y-23428D01*
X43616Y-23372D01*
X43663Y-23306D01*
X43696Y-23231D01*
X43714Y-23152D01*
X43715Y-23059D01*
X43715Y-24059D01*
X43699Y-23979D01*
X43668Y-23904D01*
X43623Y-23836D01*
X43566Y-23778D01*
X43498Y-23733D01*
X43423Y-23702D01*
X43343Y-23685D01*
X43262Y-23685D01*
X43182Y-23700D01*
X43107Y-23731D01*
X43038Y-23775D01*
X42980Y-23832D01*
X42934Y-23899D01*
X42902Y-23974D01*
X42886Y-24054D01*
X42884Y-24135D01*
X42899Y-24215D01*
X42929Y-24291D01*
X42973Y-24359D01*
X43030Y-24418D01*
X43097Y-24464D01*
X43171Y-24497D01*
X43251Y-24514D01*
X43332Y-24516D01*
X43412Y-24502D01*
X43488Y-24472D01*
X43557Y-24428D01*
X43616Y-24372D01*
X43663Y-24306D01*
X43696Y-24231D01*
X43714Y-24152D01*
X43715Y-24059D01*
X43715Y-25059D01*
X43699Y-24979D01*
X43668Y-24904D01*
X43623Y-24836D01*
X43566Y-24778D01*
X43498Y-24733D01*
X43423Y-24702D01*
X43343Y-24685D01*
X43262Y-24685D01*
X43182Y-24700D01*
X43107Y-24731D01*
X43038Y-24775D01*
X42980Y-24832D01*
X42934Y-24899D01*
X42902Y-24974D01*
X42886Y-25054D01*
X42884Y-25135D01*
X42899Y-25215D01*
X42929Y-25291D01*
X42973Y-25359D01*
X43030Y-25418D01*
X43097Y-25464D01*
X43171Y-25497D01*
X43251Y-25514D01*
X43332Y-25516D01*
X43412Y-25502D01*
X43488Y-25472D01*
X43557Y-25428D01*
X43616Y-25372D01*
X43663Y-25306D01*
X43696Y-25231D01*
X43714Y-25152D01*
X43715Y-25059D01*
X43715Y-26059D01*
X43699Y-25979D01*
X43668Y-25904D01*
X43623Y-25836D01*
X43566Y-25778D01*
X43498Y-25733D01*
X43423Y-25702D01*
X43343Y-25685D01*
X43262Y-25685D01*
X43182Y-25700D01*
X43107Y-25731D01*
X43038Y-25775D01*
X42980Y-25832D01*
X42934Y-25899D01*
X42902Y-25974D01*
X42886Y-26054D01*
X42884Y-26135D01*
X42899Y-26215D01*
X42929Y-26291D01*
X42973Y-26359D01*
X43030Y-26418D01*
X43097Y-26464D01*
X43171Y-26497D01*
X43251Y-26514D01*
X43332Y-26516D01*
X43412Y-26502D01*
X43488Y-26472D01*
X43557Y-26428D01*
X43616Y-26372D01*
X43663Y-26306D01*
X43696Y-26231D01*
X43714Y-26152D01*
X43715Y-26059D01*
X43715Y-27059D01*
X43699Y-26979D01*
X43668Y-26904D01*
X43623Y-26836D01*
X43566Y-26778D01*
X43498Y-26733D01*
X43423Y-26702D01*
X43343Y-26685D01*
X43262Y-26685D01*
X43182Y-26700D01*
X43107Y-26731D01*
X43038Y-26775D01*
X42980Y-26832D01*
X42934Y-26899D01*
X42902Y-26974D01*
X42886Y-27054D01*
X42884Y-27135D01*
X42899Y-27215D01*
X42929Y-27291D01*
X42973Y-27359D01*
X43030Y-27418D01*
X43097Y-27464D01*
X43171Y-27497D01*
X43251Y-27514D01*
X43332Y-27516D01*
X43412Y-27502D01*
X43488Y-27472D01*
X43557Y-27428D01*
X43616Y-27372D01*
X43663Y-27306D01*
X43696Y-27231D01*
X43714Y-27152D01*
X43715Y-27059D01*
X43715Y-29560D01*
X41940Y-29560D01*
X41940Y-17640D01*
X58260Y-17640D01*
X58260Y-29560D01*
M02*
