M48
INCH,TZ
T1C0.032
%
G90
G05
T1
X043300Y-020100
X043300Y-021100
X043300Y-022100
X043300Y-023100
X043300Y-024100
X043300Y-025100
X043300Y-026100
X043300Y-027100
X044300Y-020100
X044300Y-021100
X044300Y-022100
X044300Y-023100
X044300Y-024100
X044300Y-025100
X044300Y-026100
X044300Y-027100
X046300Y-020100
X046300Y-027100
X047100Y-022100
X047100Y-025100
X047300Y-020100
X047300Y-027100
X048100Y-022100
X048100Y-025100
X048300Y-020100
X048300Y-027100
X049100Y-022100
X049100Y-025100
X049300Y-020100
X049300Y-027100
X050100Y-022100
X050100Y-025100
X050300Y-020100
X050300Y-027100
X051100Y-022100
X051100Y-025100
X051300Y-020100
X051300Y-027100
X052100Y-022100
X052100Y-025100
X052300Y-020100
X052300Y-027100
X053100Y-022100
X053100Y-025100
X053300Y-020100
X053300Y-027100
X054100Y-022100
X054100Y-025100
X055550Y-023600
X057550Y-022600
X057550Y-024600
T0
M30
