G04 (created by PCBNEW-RS274X (2011-07-08)-stable) date Fri 07 Oct 2011 03:23:04 PM CEST*
G01*
G70*
G90*
%MOIN*%
G04 Gerber Fmt 3.4, Leading zero omitted, Abs format*
%FSLAX34Y34*%
G04 APERTURE LIST*
%ADD10C,0.006000*%
%ADD11C,0.015000*%
%ADD12C,0.012000*%
%ADD13C,0.002600*%
%ADD14C,0.002000*%
%ADD15C,0.004000*%
%ADD16C,0.008000*%
%ADD17R,0.055000X0.055000*%
%ADD18C,0.055000*%
%ADD19R,0.051100X0.059000*%
%ADD20R,0.062900X0.070800*%
%ADD21C,0.060000*%
%ADD22R,0.062000X0.090000*%
%ADD23O,0.062000X0.090000*%
G04 APERTURE END LIST*
G54D10*
G54D11*
X58500Y-29800D02*
X41700Y-29800D01*
X41700Y-17400D02*
X58500Y-17400D01*
X58500Y-29800D02*
X58500Y-17400D01*
G54D12*
X49114Y-27964D02*
X49086Y-27992D01*
X49057Y-27964D01*
X49086Y-27935D01*
X49114Y-27964D01*
X49057Y-27964D01*
X49286Y-27964D02*
X49629Y-27935D01*
X49657Y-27964D01*
X49629Y-27992D01*
X49286Y-27964D01*
X49657Y-27964D01*
X49657Y-28364D02*
X49657Y-28478D01*
X49629Y-28536D01*
X49571Y-28593D01*
X49457Y-28621D01*
X49257Y-28621D01*
X49143Y-28593D01*
X49086Y-28536D01*
X49057Y-28478D01*
X49057Y-28364D01*
X49086Y-28307D01*
X49143Y-28250D01*
X49257Y-28221D01*
X49457Y-28221D01*
X49571Y-28250D01*
X49629Y-28307D01*
X49657Y-28364D01*
X49371Y-28879D02*
X49371Y-29079D01*
X49057Y-29165D02*
X49057Y-28879D01*
X49657Y-28879D01*
X49657Y-29165D01*
X44057Y-28215D02*
X44057Y-27929D01*
X44657Y-27929D01*
X44371Y-28415D02*
X44371Y-28615D01*
X44057Y-28701D02*
X44057Y-28415D01*
X44657Y-28415D01*
X44657Y-28701D01*
X44057Y-28958D02*
X44657Y-28958D01*
X44657Y-29101D01*
X44629Y-29186D01*
X44571Y-29244D01*
X44514Y-29272D01*
X44400Y-29301D01*
X44314Y-29301D01*
X44200Y-29272D01*
X44143Y-29244D01*
X44086Y-29186D01*
X44057Y-29101D01*
X44057Y-28958D01*
X43957Y-18015D02*
X43957Y-17729D01*
X44557Y-17729D01*
X44271Y-18215D02*
X44271Y-18415D01*
X43957Y-18501D02*
X43957Y-18215D01*
X44557Y-18215D01*
X44557Y-18501D01*
X43957Y-18758D02*
X44557Y-18758D01*
X44557Y-18901D01*
X44529Y-18986D01*
X44471Y-19044D01*
X44414Y-19072D01*
X44300Y-19101D01*
X44214Y-19101D01*
X44100Y-19072D01*
X44043Y-19044D01*
X43986Y-18986D01*
X43957Y-18901D01*
X43957Y-18758D01*
G54D11*
X42100Y-27200D02*
X42300Y-27600D01*
X42500Y-27200D02*
X42100Y-27200D01*
X42300Y-27600D02*
X42500Y-27200D01*
X42500Y-20000D02*
X42300Y-19600D01*
X42100Y-20000D02*
X42500Y-20000D01*
X42300Y-19600D02*
X42100Y-20000D01*
X42300Y-27600D02*
X42300Y-25400D01*
X42300Y-19600D02*
X42300Y-21600D01*
G54D12*
X57477Y-17963D02*
X58027Y-17963D01*
X57635Y-18146D01*
X58027Y-18330D01*
X57477Y-18330D01*
X57765Y-18775D02*
X57739Y-18854D01*
X57713Y-18880D01*
X57661Y-18906D01*
X57582Y-18906D01*
X57530Y-18880D01*
X57504Y-18854D01*
X57477Y-18801D01*
X57477Y-18592D01*
X58027Y-18592D01*
X58027Y-18775D01*
X58001Y-18828D01*
X57975Y-18854D01*
X57923Y-18880D01*
X57870Y-18880D01*
X57818Y-18854D01*
X57792Y-18828D01*
X57765Y-18775D01*
X57765Y-18592D01*
X57477Y-19142D02*
X58027Y-19142D01*
X58027Y-19666D02*
X58027Y-19404D01*
X57765Y-19378D01*
X57792Y-19404D01*
X57818Y-19456D01*
X57818Y-19587D01*
X57792Y-19640D01*
X57765Y-19666D01*
X57713Y-19692D01*
X57582Y-19692D01*
X57530Y-19666D01*
X57504Y-19640D01*
X57477Y-19587D01*
X57477Y-19456D01*
X57504Y-19404D01*
X57530Y-19378D01*
X57477Y-20216D02*
X57477Y-19902D01*
X57477Y-20059D02*
X58027Y-20059D01*
X57949Y-20007D01*
X57896Y-19954D01*
X57870Y-19902D01*
X58027Y-20688D02*
X58027Y-20583D01*
X58001Y-20531D01*
X57975Y-20504D01*
X57896Y-20452D01*
X57792Y-20426D01*
X57582Y-20426D01*
X57530Y-20452D01*
X57504Y-20478D01*
X57477Y-20531D01*
X57477Y-20635D01*
X57504Y-20688D01*
X57530Y-20714D01*
X57582Y-20740D01*
X57713Y-20740D01*
X57765Y-20714D01*
X57792Y-20688D01*
X57818Y-20635D01*
X57818Y-20531D01*
X57792Y-20478D01*
X57765Y-20452D01*
X57713Y-20426D01*
X57792Y-21055D02*
X57818Y-21002D01*
X57844Y-20976D01*
X57896Y-20950D01*
X57923Y-20950D01*
X57975Y-20976D01*
X58001Y-21002D01*
X58027Y-21055D01*
X58027Y-21159D01*
X58001Y-21212D01*
X57975Y-21238D01*
X57923Y-21264D01*
X57896Y-21264D01*
X57844Y-21238D01*
X57818Y-21212D01*
X57792Y-21159D01*
X57792Y-21055D01*
X57765Y-21002D01*
X57739Y-20976D01*
X57687Y-20950D01*
X57582Y-20950D01*
X57530Y-20976D01*
X57504Y-21002D01*
X57477Y-21055D01*
X57477Y-21159D01*
X57504Y-21212D01*
X57530Y-21238D01*
X57582Y-21264D01*
X57687Y-21264D01*
X57739Y-21238D01*
X57765Y-21212D01*
X57792Y-21159D01*
X56587Y-19050D02*
X57137Y-19050D01*
X57137Y-19181D01*
X57111Y-19259D01*
X57059Y-19312D01*
X57006Y-19338D01*
X56902Y-19364D01*
X56823Y-19364D01*
X56718Y-19338D01*
X56666Y-19312D01*
X56614Y-19259D01*
X56587Y-19181D01*
X56587Y-19050D01*
X56587Y-19600D02*
X57137Y-19600D01*
X56587Y-19862D02*
X57137Y-19862D01*
X57137Y-20071D01*
X57111Y-20124D01*
X57085Y-20150D01*
X57033Y-20176D01*
X56954Y-20176D01*
X56902Y-20150D01*
X56875Y-20124D01*
X56849Y-20071D01*
X56849Y-19862D01*
X55697Y-17950D02*
X56247Y-17950D01*
X56038Y-17950D02*
X56064Y-18002D01*
X56064Y-18107D01*
X56038Y-18159D01*
X56012Y-18186D01*
X55959Y-18212D01*
X55802Y-18212D01*
X55750Y-18186D01*
X55724Y-18159D01*
X55697Y-18107D01*
X55697Y-18002D01*
X55724Y-17950D01*
X55697Y-18448D02*
X56064Y-18448D01*
X55959Y-18448D02*
X56012Y-18474D01*
X56038Y-18500D01*
X56064Y-18553D01*
X56064Y-18605D01*
X55724Y-18997D02*
X55697Y-18945D01*
X55697Y-18840D01*
X55724Y-18788D01*
X55776Y-18762D01*
X55985Y-18762D01*
X56038Y-18788D01*
X56064Y-18840D01*
X56064Y-18945D01*
X56038Y-18997D01*
X55985Y-19024D01*
X55933Y-19024D01*
X55881Y-18762D01*
X55697Y-19495D02*
X55985Y-19495D01*
X56038Y-19468D01*
X56064Y-19416D01*
X56064Y-19311D01*
X56038Y-19259D01*
X55724Y-19495D02*
X55697Y-19442D01*
X55697Y-19311D01*
X55724Y-19259D01*
X55776Y-19233D01*
X55828Y-19233D01*
X55881Y-19259D01*
X55907Y-19311D01*
X55907Y-19442D01*
X55933Y-19495D01*
X55697Y-19757D02*
X56247Y-19757D01*
X55907Y-19809D02*
X55697Y-19966D01*
X56064Y-19966D02*
X55855Y-19757D01*
X55697Y-20281D02*
X55724Y-20228D01*
X55750Y-20202D01*
X55802Y-20176D01*
X55959Y-20176D01*
X56012Y-20202D01*
X56038Y-20228D01*
X56064Y-20281D01*
X56064Y-20359D01*
X56038Y-20411D01*
X56012Y-20438D01*
X55959Y-20464D01*
X55802Y-20464D01*
X55750Y-20438D01*
X55724Y-20411D01*
X55697Y-20359D01*
X55697Y-20281D01*
X56064Y-20936D02*
X55697Y-20936D01*
X56064Y-20700D02*
X55776Y-20700D01*
X55724Y-20726D01*
X55697Y-20779D01*
X55697Y-20857D01*
X55724Y-20909D01*
X55750Y-20936D01*
X56064Y-21119D02*
X56064Y-21329D01*
X56247Y-21198D02*
X55776Y-21198D01*
X55724Y-21224D01*
X55697Y-21277D01*
X55697Y-21329D01*
X55357Y-18762D02*
X54807Y-18946D01*
X55357Y-19129D01*
X55357Y-19417D02*
X55357Y-19469D01*
X55331Y-19521D01*
X55305Y-19548D01*
X55253Y-19574D01*
X55148Y-19600D01*
X55017Y-19600D01*
X54912Y-19574D01*
X54860Y-19548D01*
X54834Y-19521D01*
X54807Y-19469D01*
X54807Y-19417D01*
X54834Y-19364D01*
X54860Y-19338D01*
X54912Y-19312D01*
X55017Y-19286D01*
X55148Y-19286D01*
X55253Y-19312D01*
X55305Y-19338D01*
X55331Y-19364D01*
X55357Y-19417D01*
X54860Y-19836D02*
X54834Y-19862D01*
X54807Y-19836D01*
X54834Y-19810D01*
X54860Y-19836D01*
X54807Y-19836D01*
X54807Y-20386D02*
X54807Y-20072D01*
X54807Y-20229D02*
X55357Y-20229D01*
X55279Y-20177D01*
X55226Y-20124D01*
X55200Y-20072D01*
G54D11*
X41700Y-17400D02*
X41700Y-29800D01*
G54D12*
X46629Y-18043D02*
X46657Y-17986D01*
X46657Y-17900D01*
X46629Y-17815D01*
X46571Y-17757D01*
X46514Y-17729D01*
X46400Y-17700D01*
X46314Y-17700D01*
X46200Y-17729D01*
X46143Y-17757D01*
X46086Y-17815D01*
X46057Y-17900D01*
X46057Y-17957D01*
X46086Y-18043D01*
X46114Y-18072D01*
X46314Y-18072D01*
X46314Y-17957D01*
X46057Y-18329D02*
X46657Y-18329D01*
X46057Y-18672D01*
X46657Y-18672D01*
X46057Y-18958D02*
X46657Y-18958D01*
X46657Y-19101D01*
X46629Y-19186D01*
X46571Y-19244D01*
X46514Y-19272D01*
X46400Y-19301D01*
X46314Y-19301D01*
X46200Y-19272D01*
X46143Y-19244D01*
X46086Y-19186D01*
X46057Y-19101D01*
X46057Y-18958D01*
X47657Y-17729D02*
X47057Y-17929D01*
X47657Y-18129D01*
X47286Y-18329D02*
X47286Y-18786D01*
X47057Y-18557D02*
X47514Y-18557D01*
X49114Y-17764D02*
X49086Y-17792D01*
X49057Y-17764D01*
X49086Y-17735D01*
X49114Y-17764D01*
X49057Y-17764D01*
X49286Y-17764D02*
X49629Y-17735D01*
X49657Y-17764D01*
X49629Y-17792D01*
X49286Y-17764D01*
X49657Y-17764D01*
X49657Y-18164D02*
X49657Y-18278D01*
X49629Y-18336D01*
X49571Y-18393D01*
X49457Y-18421D01*
X49257Y-18421D01*
X49143Y-18393D01*
X49086Y-18336D01*
X49057Y-18278D01*
X49057Y-18164D01*
X49086Y-18107D01*
X49143Y-18050D01*
X49257Y-18021D01*
X49457Y-18021D01*
X49571Y-18050D01*
X49629Y-18107D01*
X49657Y-18164D01*
X49371Y-18679D02*
X49371Y-18879D01*
X49057Y-18965D02*
X49057Y-18679D01*
X49657Y-18679D01*
X49657Y-18965D01*
X50114Y-18101D02*
X50086Y-18072D01*
X50057Y-17986D01*
X50057Y-17929D01*
X50086Y-17844D01*
X50143Y-17786D01*
X50200Y-17758D01*
X50314Y-17729D01*
X50400Y-17729D01*
X50514Y-17758D01*
X50571Y-17786D01*
X50629Y-17844D01*
X50657Y-17929D01*
X50657Y-17986D01*
X50629Y-18072D01*
X50600Y-18101D01*
X50086Y-18329D02*
X50057Y-18415D01*
X50057Y-18558D01*
X50086Y-18615D01*
X50114Y-18644D01*
X50171Y-18672D01*
X50229Y-18672D01*
X50286Y-18644D01*
X50314Y-18615D01*
X50343Y-18558D01*
X50371Y-18444D01*
X50400Y-18386D01*
X50429Y-18358D01*
X50486Y-18329D01*
X50543Y-18329D01*
X50600Y-18358D01*
X50629Y-18386D01*
X50657Y-18444D01*
X50657Y-18586D01*
X50629Y-18672D01*
X52086Y-17729D02*
X52057Y-17815D01*
X52057Y-17958D01*
X52086Y-18015D01*
X52114Y-18044D01*
X52171Y-18072D01*
X52229Y-18072D01*
X52286Y-18044D01*
X52314Y-18015D01*
X52343Y-17958D01*
X52371Y-17844D01*
X52400Y-17786D01*
X52429Y-17758D01*
X52486Y-17729D01*
X52543Y-17729D01*
X52600Y-17758D01*
X52629Y-17786D01*
X52657Y-17844D01*
X52657Y-17986D01*
X52629Y-18072D01*
X52114Y-18672D02*
X52086Y-18643D01*
X52057Y-18557D01*
X52057Y-18500D01*
X52086Y-18415D01*
X52143Y-18357D01*
X52200Y-18329D01*
X52314Y-18300D01*
X52400Y-18300D01*
X52514Y-18329D01*
X52571Y-18357D01*
X52629Y-18415D01*
X52657Y-18500D01*
X52657Y-18557D01*
X52629Y-18643D01*
X52600Y-18672D01*
X52057Y-18929D02*
X52657Y-18929D01*
X52057Y-19272D02*
X52400Y-19015D01*
X52657Y-19272D02*
X52314Y-18929D01*
X51086Y-17736D02*
X51057Y-17822D01*
X51057Y-17965D01*
X51086Y-18022D01*
X51114Y-18051D01*
X51171Y-18079D01*
X51229Y-18079D01*
X51286Y-18051D01*
X51314Y-18022D01*
X51343Y-17965D01*
X51371Y-17851D01*
X51400Y-17793D01*
X51429Y-17765D01*
X51486Y-17736D01*
X51543Y-17736D01*
X51600Y-17765D01*
X51629Y-17793D01*
X51657Y-17851D01*
X51657Y-17993D01*
X51629Y-18079D01*
X51057Y-18336D02*
X51657Y-18336D01*
X51657Y-18479D01*
X51629Y-18564D01*
X51571Y-18622D01*
X51514Y-18650D01*
X51400Y-18679D01*
X51314Y-18679D01*
X51200Y-18650D01*
X51143Y-18622D01*
X51086Y-18564D01*
X51057Y-18479D01*
X51057Y-18336D01*
X51057Y-18936D02*
X51657Y-18936D01*
X53657Y-18037D02*
X53657Y-17751D01*
X53371Y-17722D01*
X53400Y-17751D01*
X53429Y-17808D01*
X53429Y-17951D01*
X53400Y-18008D01*
X53371Y-18037D01*
X53314Y-18065D01*
X53171Y-18065D01*
X53114Y-18037D01*
X53086Y-18008D01*
X53057Y-17951D01*
X53057Y-17808D01*
X53086Y-17751D01*
X53114Y-17722D01*
X53657Y-18236D02*
X53057Y-18436D01*
X53657Y-18636D01*
X53657Y-28237D02*
X53657Y-27951D01*
X53371Y-27922D01*
X53400Y-27951D01*
X53429Y-28008D01*
X53429Y-28151D01*
X53400Y-28208D01*
X53371Y-28237D01*
X53314Y-28265D01*
X53171Y-28265D01*
X53114Y-28237D01*
X53086Y-28208D01*
X53057Y-28151D01*
X53057Y-28008D01*
X53086Y-27951D01*
X53114Y-27922D01*
X53657Y-28436D02*
X53057Y-28636D01*
X53657Y-28836D01*
X51086Y-27914D02*
X51057Y-28000D01*
X51057Y-28143D01*
X51086Y-28200D01*
X51114Y-28229D01*
X51171Y-28257D01*
X51229Y-28257D01*
X51286Y-28229D01*
X51314Y-28200D01*
X51343Y-28143D01*
X51371Y-28029D01*
X51400Y-27971D01*
X51429Y-27943D01*
X51486Y-27914D01*
X51543Y-27914D01*
X51600Y-27943D01*
X51629Y-27971D01*
X51657Y-28029D01*
X51657Y-28171D01*
X51629Y-28257D01*
X51057Y-28514D02*
X51657Y-28514D01*
X51657Y-28657D01*
X51629Y-28742D01*
X51571Y-28800D01*
X51514Y-28828D01*
X51400Y-28857D01*
X51314Y-28857D01*
X51200Y-28828D01*
X51143Y-28800D01*
X51086Y-28742D01*
X51057Y-28657D01*
X51057Y-28514D01*
X51657Y-29228D02*
X51657Y-29342D01*
X51629Y-29400D01*
X51571Y-29457D01*
X51457Y-29485D01*
X51257Y-29485D01*
X51143Y-29457D01*
X51086Y-29400D01*
X51057Y-29342D01*
X51057Y-29228D01*
X51086Y-29171D01*
X51143Y-29114D01*
X51257Y-29085D01*
X51457Y-29085D01*
X51571Y-29114D01*
X51629Y-29171D01*
X51657Y-29228D01*
X52086Y-27929D02*
X52057Y-28015D01*
X52057Y-28158D01*
X52086Y-28215D01*
X52114Y-28244D01*
X52171Y-28272D01*
X52229Y-28272D01*
X52286Y-28244D01*
X52314Y-28215D01*
X52343Y-28158D01*
X52371Y-28044D01*
X52400Y-27986D01*
X52429Y-27958D01*
X52486Y-27929D01*
X52543Y-27929D01*
X52600Y-27958D01*
X52629Y-27986D01*
X52657Y-28044D01*
X52657Y-28186D01*
X52629Y-28272D01*
X52114Y-28872D02*
X52086Y-28843D01*
X52057Y-28757D01*
X52057Y-28700D01*
X52086Y-28615D01*
X52143Y-28557D01*
X52200Y-28529D01*
X52314Y-28500D01*
X52400Y-28500D01*
X52514Y-28529D01*
X52571Y-28557D01*
X52629Y-28615D01*
X52657Y-28700D01*
X52657Y-28757D01*
X52629Y-28843D01*
X52600Y-28872D01*
X52057Y-29129D02*
X52657Y-29129D01*
X52057Y-29472D02*
X52400Y-29215D01*
X52657Y-29472D02*
X52314Y-29129D01*
X50114Y-28301D02*
X50086Y-28272D01*
X50057Y-28186D01*
X50057Y-28129D01*
X50086Y-28044D01*
X50143Y-27986D01*
X50200Y-27958D01*
X50314Y-27929D01*
X50400Y-27929D01*
X50514Y-27958D01*
X50571Y-27986D01*
X50629Y-28044D01*
X50657Y-28129D01*
X50657Y-28186D01*
X50629Y-28272D01*
X50600Y-28301D01*
X50086Y-28529D02*
X50057Y-28615D01*
X50057Y-28758D01*
X50086Y-28815D01*
X50114Y-28844D01*
X50171Y-28872D01*
X50229Y-28872D01*
X50286Y-28844D01*
X50314Y-28815D01*
X50343Y-28758D01*
X50371Y-28644D01*
X50400Y-28586D01*
X50429Y-28558D01*
X50486Y-28529D01*
X50543Y-28529D01*
X50600Y-28558D01*
X50629Y-28586D01*
X50657Y-28644D01*
X50657Y-28786D01*
X50629Y-28872D01*
X47657Y-27929D02*
X47057Y-28129D01*
X47657Y-28329D01*
X47286Y-28529D02*
X47286Y-28986D01*
X47057Y-28757D02*
X47514Y-28757D01*
X46629Y-28243D02*
X46657Y-28186D01*
X46657Y-28100D01*
X46629Y-28015D01*
X46571Y-27957D01*
X46514Y-27929D01*
X46400Y-27900D01*
X46314Y-27900D01*
X46200Y-27929D01*
X46143Y-27957D01*
X46086Y-28015D01*
X46057Y-28100D01*
X46057Y-28157D01*
X46086Y-28243D01*
X46114Y-28272D01*
X46314Y-28272D01*
X46314Y-28157D01*
X46057Y-28529D02*
X46657Y-28529D01*
X46057Y-28872D01*
X46657Y-28872D01*
X46057Y-29158D02*
X46657Y-29158D01*
X46657Y-29301D01*
X46629Y-29386D01*
X46571Y-29444D01*
X46514Y-29472D01*
X46400Y-29501D01*
X46314Y-29501D01*
X46200Y-29472D01*
X46143Y-29444D01*
X46086Y-29386D01*
X46057Y-29301D01*
X46057Y-29158D01*
X45431Y-24195D02*
X45098Y-24195D01*
X45621Y-24076D02*
X45264Y-23957D01*
X45264Y-24267D01*
X45598Y-25219D02*
X45598Y-24981D01*
X45360Y-24957D01*
X45383Y-24981D01*
X45407Y-25029D01*
X45407Y-25148D01*
X45383Y-25195D01*
X45360Y-25219D01*
X45312Y-25243D01*
X45193Y-25243D01*
X45145Y-25219D01*
X45121Y-25195D01*
X45098Y-25148D01*
X45098Y-25029D01*
X45121Y-24981D01*
X45145Y-24957D01*
X45598Y-27033D02*
X45598Y-27367D01*
X45098Y-27152D01*
X45598Y-26195D02*
X45598Y-26100D01*
X45574Y-26052D01*
X45550Y-26029D01*
X45479Y-25981D01*
X45383Y-25957D01*
X45193Y-25957D01*
X45145Y-25981D01*
X45121Y-26005D01*
X45098Y-26052D01*
X45098Y-26148D01*
X45121Y-26195D01*
X45145Y-26219D01*
X45193Y-26243D01*
X45312Y-26243D01*
X45360Y-26219D01*
X45383Y-26195D01*
X45407Y-26148D01*
X45407Y-26052D01*
X45383Y-26005D01*
X45360Y-25981D01*
X45312Y-25957D01*
X45550Y-21957D02*
X45574Y-21981D01*
X45598Y-22029D01*
X45598Y-22148D01*
X45574Y-22195D01*
X45550Y-22219D01*
X45502Y-22243D01*
X45455Y-22243D01*
X45383Y-22219D01*
X45098Y-21933D01*
X45098Y-22243D01*
X45598Y-22933D02*
X45598Y-23243D01*
X45407Y-23076D01*
X45407Y-23148D01*
X45383Y-23195D01*
X45360Y-23219D01*
X45312Y-23243D01*
X45193Y-23243D01*
X45145Y-23219D01*
X45121Y-23195D01*
X45098Y-23148D01*
X45098Y-23005D01*
X45121Y-22957D01*
X45145Y-22933D01*
X45098Y-21243D02*
X45098Y-20957D01*
X45098Y-21100D02*
X45598Y-21100D01*
X45526Y-21052D01*
X45479Y-21005D01*
X45455Y-20957D01*
X45598Y-20076D02*
X45598Y-20124D01*
X45574Y-20172D01*
X45550Y-20195D01*
X45502Y-20219D01*
X45407Y-20243D01*
X45288Y-20243D01*
X45193Y-20219D01*
X45145Y-20195D01*
X45121Y-20172D01*
X45098Y-20124D01*
X45098Y-20076D01*
X45121Y-20029D01*
X45145Y-20005D01*
X45193Y-19981D01*
X45288Y-19957D01*
X45407Y-19957D01*
X45502Y-19981D01*
X45550Y-20005D01*
X45574Y-20029D01*
X45598Y-20076D01*
X42557Y-21886D02*
X41957Y-22086D01*
X42557Y-22286D01*
X42186Y-22486D02*
X42186Y-22943D01*
X41957Y-22714D02*
X42414Y-22714D01*
X41957Y-23972D02*
X41957Y-23686D01*
X42557Y-23686D01*
X42271Y-24172D02*
X42271Y-24372D01*
X41957Y-24458D02*
X41957Y-24172D01*
X42557Y-24172D01*
X42557Y-24458D01*
X41957Y-24715D02*
X42557Y-24715D01*
X42557Y-24858D01*
X42529Y-24943D01*
X42471Y-25001D01*
X42414Y-25029D01*
X42300Y-25058D01*
X42214Y-25058D01*
X42100Y-25029D01*
X42043Y-25001D01*
X41986Y-24943D01*
X41957Y-24858D01*
X41957Y-24715D01*
X44800Y-19600D02*
X44800Y-27600D01*
X44800Y-27600D02*
X43800Y-27600D01*
X43800Y-27600D02*
X43800Y-19600D01*
X43800Y-19600D02*
X44800Y-19600D01*
X43800Y-20600D02*
X44800Y-20600D01*
X43800Y-19600D02*
X43800Y-27600D01*
X43800Y-27600D02*
X42800Y-27600D01*
X42800Y-27600D02*
X42800Y-19600D01*
X42800Y-19600D02*
X43800Y-19600D01*
X42800Y-20600D02*
X43800Y-20600D01*
X53800Y-20600D02*
X45800Y-20600D01*
X45800Y-20600D02*
X45800Y-19600D01*
X45800Y-19600D02*
X53800Y-19600D01*
X53800Y-19600D02*
X53800Y-20600D01*
X52800Y-19600D02*
X52800Y-20600D01*
X53800Y-27600D02*
X45800Y-27600D01*
X45800Y-27600D02*
X45800Y-26600D01*
X45800Y-26600D02*
X53800Y-26600D01*
X53800Y-26600D02*
X53800Y-27600D01*
X52800Y-26600D02*
X52800Y-27600D01*
G54D13*
X55640Y-25625D02*
X55385Y-25625D01*
X55385Y-25625D02*
X55385Y-26176D01*
X55640Y-26176D02*
X55385Y-26176D01*
X55640Y-25625D02*
X55640Y-26176D01*
X56220Y-25625D02*
X55964Y-25625D01*
X55964Y-25625D02*
X55964Y-26176D01*
X56220Y-26176D02*
X55964Y-26176D01*
X56220Y-25625D02*
X56220Y-26176D01*
X55878Y-25704D02*
X55722Y-25704D01*
X55722Y-25704D02*
X55722Y-26096D01*
X55878Y-26096D02*
X55722Y-26096D01*
X55878Y-25704D02*
X55878Y-26096D01*
G54D10*
X55961Y-26150D02*
X55639Y-26150D01*
X55961Y-25650D02*
X55639Y-25650D01*
G54D14*
X56576Y-26287D02*
X55024Y-26287D01*
X55024Y-26287D02*
X55024Y-25513D01*
X55024Y-25513D02*
X56576Y-25513D01*
X56576Y-25513D02*
X56576Y-26287D01*
G54D13*
X55130Y-27635D02*
X55426Y-27635D01*
X55426Y-27635D02*
X55426Y-26966D01*
X55130Y-26966D02*
X55426Y-26966D01*
X55130Y-27635D02*
X55130Y-26966D01*
X56174Y-27634D02*
X56470Y-27634D01*
X56470Y-27634D02*
X56470Y-26965D01*
X56174Y-26965D02*
X56470Y-26965D01*
X56174Y-27634D02*
X56174Y-26965D01*
X55722Y-27457D02*
X55878Y-27457D01*
X55878Y-27457D02*
X55878Y-27143D01*
X55722Y-27143D02*
X55878Y-27143D01*
X55722Y-27457D02*
X55722Y-27143D01*
G54D14*
X54827Y-26913D02*
X56773Y-26913D01*
X56773Y-27687D02*
X54827Y-27687D01*
X54827Y-27687D02*
X54827Y-26913D01*
X56773Y-26913D02*
X56773Y-27687D01*
G54D15*
X55421Y-26991D02*
X56179Y-26991D01*
X55421Y-27609D02*
X56179Y-27609D01*
G54D13*
X55371Y-28685D02*
X55666Y-28685D01*
X55666Y-28685D02*
X55666Y-28115D01*
X55371Y-28115D02*
X55666Y-28115D01*
X55371Y-28685D02*
X55371Y-28115D01*
X55940Y-28685D02*
X56235Y-28685D01*
X56235Y-28685D02*
X56235Y-28115D01*
X55940Y-28115D02*
X56235Y-28115D01*
X55940Y-28685D02*
X55940Y-28115D01*
X55761Y-28557D02*
X55839Y-28557D01*
X55839Y-28557D02*
X55839Y-28243D01*
X55761Y-28243D02*
X55839Y-28243D01*
X55761Y-28557D02*
X55761Y-28243D01*
G54D14*
X55024Y-28013D02*
X56576Y-28013D01*
X56576Y-28787D02*
X55024Y-28787D01*
X55024Y-28787D02*
X55024Y-28013D01*
G54D15*
X55650Y-28141D02*
X55950Y-28141D01*
X55660Y-28659D02*
X55950Y-28659D01*
G54D14*
X56576Y-28013D02*
X56576Y-28787D01*
G54D16*
X58250Y-23600D02*
X58223Y-23871D01*
X58144Y-24133D01*
X58016Y-24374D01*
X57843Y-24586D01*
X57632Y-24760D01*
X57392Y-24890D01*
X57131Y-24971D01*
X56859Y-24999D01*
X56588Y-24975D01*
X56326Y-24898D01*
X56084Y-24771D01*
X55871Y-24600D01*
X55695Y-24390D01*
X55564Y-24151D01*
X55481Y-23891D01*
X55451Y-23619D01*
X55473Y-23348D01*
X55549Y-23085D01*
X55674Y-22842D01*
X55843Y-22628D01*
X56052Y-22451D01*
X56290Y-22318D01*
X56550Y-22233D01*
X56821Y-22201D01*
X57093Y-22222D01*
X57356Y-22295D01*
X57600Y-22418D01*
X57815Y-22587D01*
X57994Y-22793D01*
X58128Y-23031D01*
X58215Y-23290D01*
X58249Y-23561D01*
X58250Y-23600D01*
G54D11*
X55100Y-24100D02*
X55100Y-24100D01*
X55100Y-24100D02*
X54600Y-24100D01*
X54600Y-24100D02*
X54600Y-23100D01*
X54600Y-23100D02*
X55100Y-23100D01*
X55100Y-24600D02*
X46100Y-24600D01*
X46100Y-24600D02*
X46100Y-22600D01*
X46100Y-22600D02*
X55100Y-22600D01*
X55100Y-22600D02*
X55100Y-24600D01*
G54D12*
X57101Y-26143D02*
X56901Y-25857D01*
X56758Y-26143D02*
X56758Y-25543D01*
X56986Y-25543D01*
X57044Y-25571D01*
X57072Y-25600D01*
X57101Y-25657D01*
X57101Y-25743D01*
X57072Y-25800D01*
X57044Y-25829D01*
X56986Y-25857D01*
X56758Y-25857D01*
X57672Y-26143D02*
X57329Y-26143D01*
X57501Y-26143D02*
X57501Y-25543D01*
X57444Y-25629D01*
X57386Y-25686D01*
X57329Y-25714D01*
X57301Y-27486D02*
X57272Y-27514D01*
X57186Y-27543D01*
X57129Y-27543D01*
X57044Y-27514D01*
X56986Y-27457D01*
X56958Y-27400D01*
X56929Y-27286D01*
X56929Y-27200D01*
X56958Y-27086D01*
X56986Y-27029D01*
X57044Y-26971D01*
X57129Y-26943D01*
X57186Y-26943D01*
X57272Y-26971D01*
X57301Y-27000D01*
X57872Y-27543D02*
X57529Y-27543D01*
X57701Y-27543D02*
X57701Y-26943D01*
X57644Y-27029D01*
X57586Y-27086D01*
X57529Y-27114D01*
X57101Y-28586D02*
X57072Y-28614D01*
X56986Y-28643D01*
X56929Y-28643D01*
X56844Y-28614D01*
X56786Y-28557D01*
X56758Y-28500D01*
X56729Y-28386D01*
X56729Y-28300D01*
X56758Y-28186D01*
X56786Y-28129D01*
X56844Y-28071D01*
X56929Y-28043D01*
X56986Y-28043D01*
X57072Y-28071D01*
X57101Y-28100D01*
X57329Y-28100D02*
X57358Y-28071D01*
X57415Y-28043D01*
X57558Y-28043D01*
X57615Y-28071D01*
X57644Y-28100D01*
X57672Y-28157D01*
X57672Y-28214D01*
X57644Y-28300D01*
X57301Y-28643D01*
X57672Y-28643D01*
%LPC*%
G54D17*
X44300Y-20100D03*
G54D18*
X44300Y-21100D03*
X44300Y-22100D03*
X44300Y-23100D03*
X44300Y-24100D03*
X44300Y-25100D03*
X44300Y-26100D03*
X44300Y-27100D03*
G54D17*
X43300Y-20100D03*
G54D18*
X43300Y-21100D03*
X43300Y-22100D03*
X43300Y-23100D03*
X43300Y-24100D03*
X43300Y-25100D03*
X43300Y-26100D03*
X43300Y-27100D03*
G54D17*
X53300Y-20100D03*
G54D18*
X52300Y-20100D03*
X51300Y-20100D03*
X50300Y-20100D03*
X49300Y-20100D03*
X48300Y-20100D03*
X47300Y-20100D03*
X46300Y-20100D03*
G54D17*
X53300Y-27100D03*
G54D18*
X52300Y-27100D03*
X51300Y-27100D03*
X50300Y-27100D03*
X49300Y-27100D03*
X48300Y-27100D03*
X47300Y-27100D03*
X46300Y-27100D03*
G54D19*
X56174Y-25900D03*
X55426Y-25900D03*
G54D20*
X55249Y-27300D03*
X56351Y-27300D03*
G54D19*
X55426Y-28400D03*
X56174Y-28400D03*
G54D21*
X57200Y-24600D03*
X56200Y-23600D03*
X57200Y-22600D03*
G54D22*
X54100Y-22100D03*
G54D23*
X53100Y-22100D03*
X52100Y-22100D03*
X51100Y-22100D03*
X50100Y-22100D03*
X49100Y-22100D03*
X48100Y-22100D03*
X47100Y-22100D03*
X47100Y-25100D03*
X48100Y-25100D03*
X49100Y-25100D03*
X50100Y-25100D03*
X51100Y-25100D03*
X52100Y-25100D03*
X53100Y-25100D03*
X54100Y-25100D03*
M02*
