G04 (created by PCBNEW-RS274X (2011-07-08)-stable) date Sun 23 Oct 2011 07:01:02 PM CEST*
G01*
G70*
G90*
%MOIN*%
G04 Gerber Fmt 3.4, Leading zero omitted, Abs format*
%FSLAX34Y34*%
G04 APERTURE LIST*
%ADD10C,0.006000*%
%ADD11C,0.015000*%
%ADD12R,0.055000X0.055000*%
%ADD13C,0.055000*%
%ADD14R,0.051100X0.059000*%
%ADD15R,0.062900X0.070800*%
%ADD16C,0.060000*%
%ADD17R,0.062000X0.090000*%
%ADD18O,0.062000X0.090000*%
%ADD19C,0.008000*%
%ADD20C,0.020000*%
%ADD21C,0.080000*%
G04 APERTURE END LIST*
G54D10*
G54D11*
X58500Y-29800D02*
X41700Y-29800D01*
X41700Y-17400D02*
X58500Y-17400D01*
X58500Y-29800D02*
X58500Y-17400D01*
X41700Y-17400D02*
X41700Y-29800D01*
G54D12*
X44300Y-20100D03*
G54D13*
X44300Y-21100D03*
X44300Y-22100D03*
X44300Y-23100D03*
X44300Y-24100D03*
X44300Y-25100D03*
X44300Y-26100D03*
X44300Y-27100D03*
G54D12*
X43300Y-20100D03*
G54D13*
X43300Y-21100D03*
X43300Y-22100D03*
X43300Y-23100D03*
X43300Y-24100D03*
X43300Y-25100D03*
X43300Y-26100D03*
X43300Y-27100D03*
G54D12*
X53300Y-20100D03*
G54D13*
X52300Y-20100D03*
X51300Y-20100D03*
X50300Y-20100D03*
X49300Y-20100D03*
X48300Y-20100D03*
X47300Y-20100D03*
X46300Y-20100D03*
G54D12*
X53300Y-27100D03*
G54D13*
X52300Y-27100D03*
X51300Y-27100D03*
X50300Y-27100D03*
X49300Y-27100D03*
X48300Y-27100D03*
X47300Y-27100D03*
X46300Y-27100D03*
G54D14*
X56174Y-25900D03*
X55426Y-25900D03*
G54D15*
X55249Y-27300D03*
X56351Y-27300D03*
G54D14*
X55426Y-28400D03*
X56174Y-28400D03*
G54D16*
X55550Y-23600D03*
X57550Y-22600D03*
X57550Y-24600D03*
G54D17*
X54100Y-22100D03*
G54D18*
X53100Y-22100D03*
X52100Y-22100D03*
X51100Y-22100D03*
X50100Y-22100D03*
X49100Y-22100D03*
X48100Y-22100D03*
X47100Y-22100D03*
X47100Y-25100D03*
X48100Y-25100D03*
X49100Y-25100D03*
X50100Y-25100D03*
X51100Y-25100D03*
X52100Y-25100D03*
X53100Y-25100D03*
X54100Y-25100D03*
G54D19*
X50300Y-20100D02*
X50300Y-20700D01*
X51100Y-21500D02*
X51100Y-22100D01*
X50300Y-20700D02*
X51100Y-21500D01*
X51100Y-22100D02*
X51100Y-22200D01*
X51600Y-25800D02*
X50300Y-27100D01*
X51600Y-22700D02*
X51600Y-25800D01*
X51100Y-22200D02*
X51600Y-22700D01*
X50600Y-22600D02*
X50600Y-24600D01*
X49300Y-20200D02*
X50600Y-21500D01*
X50600Y-21500D02*
X50600Y-22600D01*
X49300Y-20100D02*
X49300Y-20200D01*
X50600Y-24600D02*
X51100Y-25100D01*
X51100Y-25100D02*
X51100Y-25100D01*
X51100Y-25100D02*
X51100Y-25300D01*
X51100Y-25300D02*
X49300Y-27100D01*
G54D20*
X50100Y-22100D02*
X48700Y-20700D01*
X44900Y-20700D02*
X44300Y-20100D01*
X48700Y-20700D02*
X44900Y-20700D01*
X49100Y-22100D02*
X48000Y-21000D01*
X44200Y-21000D02*
X44300Y-21100D01*
X48000Y-21000D02*
X44200Y-21000D01*
X48100Y-22100D02*
X47300Y-21300D01*
X45100Y-21300D02*
X44300Y-22100D01*
X47300Y-21300D02*
X45100Y-21300D01*
X47100Y-22100D02*
X45300Y-22100D01*
X45300Y-22100D02*
X44300Y-23100D01*
X47100Y-25100D02*
X45300Y-25100D01*
X45300Y-25100D02*
X44300Y-24100D01*
X48100Y-25100D02*
X47300Y-25900D01*
X45100Y-25900D02*
X44300Y-25100D01*
X47300Y-25900D02*
X45100Y-25900D01*
X49100Y-25100D02*
X48000Y-26200D01*
X44200Y-26200D02*
X44300Y-26100D01*
X48000Y-26200D02*
X44200Y-26200D01*
X50100Y-25100D02*
X48700Y-26500D01*
X44900Y-26500D02*
X44300Y-27100D01*
X48700Y-26500D02*
X44900Y-26500D01*
G54D19*
X53100Y-22100D02*
X53100Y-21900D01*
X53100Y-21900D02*
X51300Y-20100D01*
X52100Y-22100D02*
X52100Y-21900D01*
X51800Y-19600D02*
X52300Y-20100D01*
X51000Y-19600D02*
X51800Y-19600D01*
X50800Y-19800D02*
X51000Y-19600D01*
X50800Y-20600D02*
X50800Y-19800D01*
X52100Y-21900D02*
X50800Y-20600D01*
X52600Y-26200D02*
X52600Y-22600D01*
X52300Y-26500D02*
X52600Y-26200D01*
X52300Y-27100D02*
X52300Y-26500D01*
X52600Y-22600D02*
X52100Y-22100D01*
X52100Y-25100D02*
X52100Y-26300D01*
X52100Y-26300D02*
X51300Y-27100D01*
G54D21*
X43300Y-21100D02*
X43300Y-20100D01*
X43300Y-22100D02*
X43300Y-21100D01*
X43300Y-23100D02*
X43300Y-22100D01*
X43300Y-24100D02*
X43300Y-23100D01*
X43300Y-25100D02*
X43300Y-24100D01*
X43300Y-26100D02*
X43300Y-25100D01*
X43300Y-27100D02*
X43300Y-26100D01*
X47300Y-27100D02*
X47300Y-28200D01*
X43300Y-28200D02*
X43300Y-27100D01*
X47300Y-28200D02*
X43300Y-28200D01*
X47300Y-20100D02*
X47300Y-19000D01*
X47300Y-19000D02*
X43300Y-19000D01*
X43300Y-19000D02*
X43300Y-20100D01*
G54D20*
X56351Y-27300D02*
X56351Y-27149D01*
X57550Y-25950D02*
X57550Y-24600D01*
X56351Y-27149D02*
X57550Y-25950D01*
X56174Y-28400D02*
X56174Y-27477D01*
X56174Y-27477D02*
X56351Y-27300D01*
G54D19*
X57550Y-22600D02*
X57550Y-22850D01*
X56174Y-24226D02*
X56174Y-25900D01*
X57550Y-22850D02*
X56174Y-24226D01*
X53100Y-25100D02*
X53100Y-25550D01*
X53450Y-25900D02*
X55426Y-25900D01*
X53100Y-25550D02*
X53450Y-25900D01*
G54D20*
X53300Y-20100D02*
X53800Y-20100D01*
X54900Y-24300D02*
X54100Y-25100D01*
X54900Y-21200D02*
X54900Y-24300D01*
X53800Y-20100D02*
X54900Y-21200D01*
X55249Y-27300D02*
X55249Y-28223D01*
X55249Y-28223D02*
X55426Y-28400D01*
X53300Y-27100D02*
X55049Y-27100D01*
X55049Y-27100D02*
X55249Y-27300D01*
G54D10*
G36*
X50428Y-24652D02*
X50387Y-24611D01*
X50314Y-24562D01*
X50233Y-24528D01*
X50147Y-24510D01*
X50059Y-24510D01*
X49973Y-24526D01*
X49891Y-24559D01*
X49818Y-24607D01*
X49755Y-24669D01*
X49705Y-24741D01*
X49671Y-24822D01*
X49653Y-24908D01*
X49651Y-24996D01*
X49651Y-25209D01*
X49541Y-25319D01*
X49547Y-25292D01*
X49549Y-25204D01*
X49548Y-24914D01*
X49531Y-24828D01*
X49497Y-24747D01*
X49449Y-24673D01*
X49387Y-24611D01*
X49314Y-24562D01*
X49233Y-24528D01*
X49147Y-24510D01*
X49059Y-24510D01*
X48973Y-24526D01*
X48891Y-24559D01*
X48818Y-24607D01*
X48755Y-24669D01*
X48705Y-24741D01*
X48671Y-24822D01*
X48653Y-24908D01*
X48651Y-24996D01*
X48651Y-25209D01*
X48541Y-25319D01*
X48547Y-25292D01*
X48549Y-25204D01*
X48548Y-24914D01*
X48531Y-24828D01*
X48497Y-24747D01*
X48449Y-24673D01*
X48387Y-24611D01*
X48314Y-24562D01*
X48233Y-24528D01*
X48147Y-24510D01*
X48059Y-24510D01*
X47973Y-24526D01*
X47891Y-24559D01*
X47818Y-24607D01*
X47755Y-24669D01*
X47705Y-24741D01*
X47671Y-24822D01*
X47653Y-24908D01*
X47651Y-24996D01*
X47651Y-25208D01*
X47541Y-25319D01*
X47547Y-25292D01*
X47549Y-25204D01*
X47548Y-24914D01*
X47531Y-24828D01*
X47497Y-24747D01*
X47449Y-24673D01*
X47387Y-24611D01*
X47314Y-24562D01*
X47233Y-24528D01*
X47147Y-24510D01*
X47059Y-24510D01*
X46973Y-24526D01*
X46891Y-24559D01*
X46818Y-24607D01*
X46755Y-24669D01*
X46705Y-24741D01*
X46671Y-24822D01*
X46663Y-24860D01*
X45400Y-24860D01*
X44709Y-24169D01*
X44714Y-24152D01*
X44715Y-24059D01*
X44699Y-23979D01*
X44668Y-23904D01*
X44623Y-23836D01*
X44566Y-23778D01*
X44498Y-23733D01*
X44423Y-23702D01*
X44343Y-23685D01*
X44262Y-23685D01*
X44182Y-23700D01*
X44107Y-23731D01*
X44038Y-23775D01*
X43980Y-23832D01*
X43934Y-23899D01*
X43902Y-23974D01*
X43886Y-24054D01*
X43884Y-24135D01*
X43899Y-24215D01*
X43929Y-24291D01*
X43973Y-24359D01*
X44030Y-24418D01*
X44097Y-24464D01*
X44171Y-24497D01*
X44251Y-24514D01*
X44332Y-24516D01*
X44369Y-24509D01*
X45130Y-25270D01*
X45145Y-25282D01*
X45164Y-25298D01*
X45167Y-25299D01*
X45205Y-25321D01*
X45207Y-25321D01*
X45250Y-25335D01*
X45252Y-25335D01*
X45297Y-25340D01*
X45299Y-25340D01*
X45300Y-25340D01*
X46662Y-25340D01*
X46669Y-25372D01*
X46703Y-25453D01*
X46751Y-25527D01*
X46813Y-25589D01*
X46886Y-25638D01*
X46938Y-25660D01*
X45199Y-25660D01*
X44709Y-25170D01*
X44714Y-25152D01*
X44715Y-25059D01*
X44699Y-24979D01*
X44668Y-24904D01*
X44623Y-24836D01*
X44566Y-24778D01*
X44498Y-24733D01*
X44423Y-24702D01*
X44343Y-24685D01*
X44262Y-24685D01*
X44182Y-24700D01*
X44107Y-24731D01*
X44038Y-24775D01*
X43980Y-24832D01*
X43934Y-24899D01*
X43902Y-24974D01*
X43886Y-25054D01*
X43884Y-25135D01*
X43899Y-25215D01*
X43929Y-25291D01*
X43973Y-25359D01*
X44030Y-25418D01*
X44097Y-25464D01*
X44171Y-25497D01*
X44251Y-25514D01*
X44332Y-25516D01*
X44369Y-25509D01*
X44820Y-25960D01*
X44691Y-25960D01*
X44668Y-25904D01*
X44623Y-25836D01*
X44566Y-25778D01*
X44498Y-25733D01*
X44423Y-25702D01*
X44343Y-25685D01*
X44262Y-25685D01*
X44182Y-25700D01*
X44107Y-25731D01*
X44038Y-25775D01*
X43980Y-25832D01*
X43934Y-25899D01*
X43902Y-25974D01*
X43886Y-26054D01*
X43884Y-26135D01*
X43899Y-26215D01*
X43929Y-26291D01*
X43973Y-26359D01*
X44030Y-26418D01*
X44097Y-26464D01*
X44171Y-26497D01*
X44251Y-26514D01*
X44332Y-26516D01*
X44412Y-26502D01*
X44488Y-26472D01*
X44538Y-26440D01*
X44620Y-26440D01*
X44369Y-26690D01*
X44343Y-26685D01*
X44262Y-26685D01*
X44182Y-26700D01*
X44107Y-26731D01*
X44038Y-26775D01*
X43980Y-26832D01*
X43934Y-26899D01*
X43902Y-26974D01*
X43886Y-27054D01*
X43884Y-27135D01*
X43899Y-27215D01*
X43929Y-27291D01*
X43973Y-27359D01*
X44030Y-27418D01*
X44097Y-27464D01*
X44171Y-27497D01*
X44251Y-27514D01*
X44332Y-27516D01*
X44412Y-27502D01*
X44488Y-27472D01*
X44557Y-27428D01*
X44616Y-27372D01*
X44663Y-27306D01*
X44696Y-27231D01*
X44714Y-27152D01*
X44715Y-27059D01*
X44709Y-27030D01*
X44999Y-26740D01*
X45929Y-26740D01*
X45864Y-26805D01*
X45895Y-26836D01*
X45852Y-26848D01*
X45811Y-26939D01*
X45789Y-27038D01*
X45787Y-27138D01*
X45804Y-27237D01*
X45840Y-27331D01*
X45852Y-27352D01*
X45939Y-27376D01*
X46187Y-27128D01*
X46215Y-27100D01*
X46300Y-27015D01*
X46385Y-27100D01*
X46413Y-27128D01*
X46661Y-27376D01*
X46748Y-27352D01*
X46760Y-27325D01*
X46760Y-27660D01*
X46576Y-27660D01*
X46576Y-27461D01*
X46300Y-27185D01*
X46215Y-27270D01*
X46024Y-27461D01*
X46048Y-27548D01*
X46139Y-27589D01*
X46238Y-27611D01*
X46338Y-27613D01*
X46437Y-27596D01*
X46531Y-27560D01*
X46552Y-27548D01*
X46576Y-27461D01*
X46576Y-27660D01*
X43840Y-27660D01*
X43840Y-27108D01*
X43840Y-27100D01*
X43840Y-26108D01*
X43840Y-26100D01*
X43840Y-25108D01*
X43840Y-25100D01*
X43840Y-24108D01*
X43840Y-24100D01*
X43840Y-23108D01*
X43840Y-23100D01*
X43840Y-22108D01*
X43840Y-22100D01*
X43840Y-21108D01*
X43840Y-21100D01*
X43840Y-20108D01*
X43840Y-20100D01*
X43840Y-19540D01*
X46760Y-19540D01*
X46760Y-19869D01*
X46748Y-19848D01*
X46661Y-19824D01*
X46576Y-19909D01*
X46576Y-19739D01*
X46552Y-19652D01*
X46461Y-19611D01*
X46362Y-19589D01*
X46262Y-19587D01*
X46163Y-19604D01*
X46069Y-19640D01*
X46048Y-19652D01*
X46024Y-19739D01*
X46300Y-20015D01*
X46576Y-19739D01*
X46576Y-19909D01*
X46413Y-20072D01*
X46385Y-20100D01*
X46300Y-20185D01*
X46215Y-20100D01*
X46187Y-20072D01*
X45939Y-19824D01*
X45852Y-19848D01*
X45811Y-19939D01*
X45789Y-20038D01*
X45787Y-20138D01*
X45804Y-20237D01*
X45840Y-20331D01*
X45852Y-20352D01*
X45895Y-20363D01*
X45864Y-20395D01*
X45929Y-20460D01*
X44999Y-20460D01*
X44714Y-20174D01*
X44714Y-19811D01*
X44709Y-19784D01*
X44698Y-19759D01*
X44683Y-19736D01*
X44664Y-19717D01*
X44641Y-19702D01*
X44616Y-19691D01*
X44589Y-19686D01*
X44562Y-19686D01*
X44011Y-19686D01*
X43984Y-19691D01*
X43959Y-19702D01*
X43936Y-19717D01*
X43917Y-19736D01*
X43902Y-19759D01*
X43891Y-19784D01*
X43886Y-19811D01*
X43886Y-19838D01*
X43886Y-20389D01*
X43891Y-20416D01*
X43902Y-20441D01*
X43917Y-20464D01*
X43936Y-20483D01*
X43959Y-20498D01*
X43984Y-20509D01*
X44011Y-20514D01*
X44038Y-20514D01*
X44374Y-20514D01*
X44620Y-20760D01*
X44538Y-20760D01*
X44498Y-20733D01*
X44423Y-20702D01*
X44343Y-20685D01*
X44262Y-20685D01*
X44182Y-20700D01*
X44107Y-20731D01*
X44038Y-20775D01*
X43980Y-20832D01*
X43934Y-20899D01*
X43902Y-20974D01*
X43886Y-21054D01*
X43884Y-21135D01*
X43899Y-21215D01*
X43929Y-21291D01*
X43973Y-21359D01*
X44030Y-21418D01*
X44097Y-21464D01*
X44171Y-21497D01*
X44251Y-21514D01*
X44332Y-21516D01*
X44412Y-21502D01*
X44488Y-21472D01*
X44557Y-21428D01*
X44616Y-21372D01*
X44663Y-21306D01*
X44692Y-21240D01*
X44820Y-21240D01*
X44369Y-21690D01*
X44343Y-21685D01*
X44262Y-21685D01*
X44182Y-21700D01*
X44107Y-21731D01*
X44038Y-21775D01*
X43980Y-21832D01*
X43934Y-21899D01*
X43902Y-21974D01*
X43886Y-22054D01*
X43884Y-22135D01*
X43899Y-22215D01*
X43929Y-22291D01*
X43973Y-22359D01*
X44030Y-22418D01*
X44097Y-22464D01*
X44171Y-22497D01*
X44251Y-22514D01*
X44332Y-22516D01*
X44412Y-22502D01*
X44488Y-22472D01*
X44557Y-22428D01*
X44616Y-22372D01*
X44663Y-22306D01*
X44696Y-22231D01*
X44714Y-22152D01*
X44715Y-22059D01*
X44709Y-22030D01*
X45199Y-21540D01*
X46938Y-21540D01*
X46891Y-21559D01*
X46818Y-21607D01*
X46755Y-21669D01*
X46705Y-21741D01*
X46671Y-21822D01*
X46663Y-21860D01*
X45302Y-21860D01*
X45300Y-21860D01*
X45291Y-21860D01*
X45256Y-21864D01*
X45211Y-21877D01*
X45209Y-21877D01*
X45209Y-21878D01*
X45167Y-21900D01*
X45155Y-21909D01*
X45132Y-21928D01*
X45130Y-21930D01*
X44369Y-22690D01*
X44343Y-22685D01*
X44262Y-22685D01*
X44182Y-22700D01*
X44107Y-22731D01*
X44038Y-22775D01*
X43980Y-22832D01*
X43934Y-22899D01*
X43902Y-22974D01*
X43886Y-23054D01*
X43884Y-23135D01*
X43899Y-23215D01*
X43929Y-23291D01*
X43973Y-23359D01*
X44030Y-23418D01*
X44097Y-23464D01*
X44171Y-23497D01*
X44251Y-23514D01*
X44332Y-23516D01*
X44412Y-23502D01*
X44488Y-23472D01*
X44557Y-23428D01*
X44616Y-23372D01*
X44663Y-23306D01*
X44696Y-23231D01*
X44714Y-23152D01*
X44715Y-23059D01*
X44709Y-23030D01*
X45400Y-22340D01*
X46662Y-22340D01*
X46669Y-22372D01*
X46703Y-22453D01*
X46751Y-22527D01*
X46813Y-22589D01*
X46886Y-22638D01*
X46967Y-22672D01*
X47053Y-22690D01*
X47141Y-22690D01*
X47227Y-22674D01*
X47309Y-22641D01*
X47382Y-22593D01*
X47445Y-22531D01*
X47495Y-22459D01*
X47529Y-22378D01*
X47547Y-22292D01*
X47549Y-22204D01*
X47548Y-21914D01*
X47541Y-21880D01*
X47651Y-21990D01*
X47651Y-21996D01*
X47652Y-22286D01*
X47669Y-22372D01*
X47703Y-22453D01*
X47751Y-22527D01*
X47813Y-22589D01*
X47886Y-22638D01*
X47967Y-22672D01*
X48053Y-22690D01*
X48141Y-22690D01*
X48227Y-22674D01*
X48309Y-22641D01*
X48382Y-22593D01*
X48445Y-22531D01*
X48495Y-22459D01*
X48529Y-22378D01*
X48547Y-22292D01*
X48549Y-22204D01*
X48548Y-21914D01*
X48541Y-21880D01*
X48651Y-21990D01*
X48651Y-21996D01*
X48652Y-22286D01*
X48669Y-22372D01*
X48703Y-22453D01*
X48751Y-22527D01*
X48813Y-22589D01*
X48886Y-22638D01*
X48967Y-22672D01*
X49053Y-22690D01*
X49141Y-22690D01*
X49227Y-22674D01*
X49309Y-22641D01*
X49382Y-22593D01*
X49445Y-22531D01*
X49495Y-22459D01*
X49529Y-22378D01*
X49547Y-22292D01*
X49549Y-22204D01*
X49548Y-21914D01*
X49541Y-21880D01*
X49651Y-21990D01*
X49651Y-21996D01*
X49652Y-22286D01*
X49669Y-22372D01*
X49703Y-22453D01*
X49751Y-22527D01*
X49813Y-22589D01*
X49886Y-22638D01*
X49967Y-22672D01*
X50053Y-22690D01*
X50141Y-22690D01*
X50227Y-22674D01*
X50309Y-22641D01*
X50382Y-22593D01*
X50420Y-22555D01*
X50420Y-22597D01*
X50420Y-22600D01*
X50420Y-24598D01*
X50420Y-24600D01*
X50423Y-24635D01*
X50428Y-24652D01*
X50428Y-24652D01*
G37*
G54D19*
X50428Y-24652D02*
X50387Y-24611D01*
X50314Y-24562D01*
X50233Y-24528D01*
X50147Y-24510D01*
X50059Y-24510D01*
X49973Y-24526D01*
X49891Y-24559D01*
X49818Y-24607D01*
X49755Y-24669D01*
X49705Y-24741D01*
X49671Y-24822D01*
X49653Y-24908D01*
X49651Y-24996D01*
X49651Y-25209D01*
X49541Y-25319D01*
X49547Y-25292D01*
X49549Y-25204D01*
X49548Y-24914D01*
X49531Y-24828D01*
X49497Y-24747D01*
X49449Y-24673D01*
X49387Y-24611D01*
X49314Y-24562D01*
X49233Y-24528D01*
X49147Y-24510D01*
X49059Y-24510D01*
X48973Y-24526D01*
X48891Y-24559D01*
X48818Y-24607D01*
X48755Y-24669D01*
X48705Y-24741D01*
X48671Y-24822D01*
X48653Y-24908D01*
X48651Y-24996D01*
X48651Y-25209D01*
X48541Y-25319D01*
X48547Y-25292D01*
X48549Y-25204D01*
X48548Y-24914D01*
X48531Y-24828D01*
X48497Y-24747D01*
X48449Y-24673D01*
X48387Y-24611D01*
X48314Y-24562D01*
X48233Y-24528D01*
X48147Y-24510D01*
X48059Y-24510D01*
X47973Y-24526D01*
X47891Y-24559D01*
X47818Y-24607D01*
X47755Y-24669D01*
X47705Y-24741D01*
X47671Y-24822D01*
X47653Y-24908D01*
X47651Y-24996D01*
X47651Y-25208D01*
X47541Y-25319D01*
X47547Y-25292D01*
X47549Y-25204D01*
X47548Y-24914D01*
X47531Y-24828D01*
X47497Y-24747D01*
X47449Y-24673D01*
X47387Y-24611D01*
X47314Y-24562D01*
X47233Y-24528D01*
X47147Y-24510D01*
X47059Y-24510D01*
X46973Y-24526D01*
X46891Y-24559D01*
X46818Y-24607D01*
X46755Y-24669D01*
X46705Y-24741D01*
X46671Y-24822D01*
X46663Y-24860D01*
X45400Y-24860D01*
X44709Y-24169D01*
X44714Y-24152D01*
X44715Y-24059D01*
X44699Y-23979D01*
X44668Y-23904D01*
X44623Y-23836D01*
X44566Y-23778D01*
X44498Y-23733D01*
X44423Y-23702D01*
X44343Y-23685D01*
X44262Y-23685D01*
X44182Y-23700D01*
X44107Y-23731D01*
X44038Y-23775D01*
X43980Y-23832D01*
X43934Y-23899D01*
X43902Y-23974D01*
X43886Y-24054D01*
X43884Y-24135D01*
X43899Y-24215D01*
X43929Y-24291D01*
X43973Y-24359D01*
X44030Y-24418D01*
X44097Y-24464D01*
X44171Y-24497D01*
X44251Y-24514D01*
X44332Y-24516D01*
X44369Y-24509D01*
X45130Y-25270D01*
X45145Y-25282D01*
X45164Y-25298D01*
X45167Y-25299D01*
X45205Y-25321D01*
X45207Y-25321D01*
X45250Y-25335D01*
X45252Y-25335D01*
X45297Y-25340D01*
X45299Y-25340D01*
X45300Y-25340D01*
X46662Y-25340D01*
X46669Y-25372D01*
X46703Y-25453D01*
X46751Y-25527D01*
X46813Y-25589D01*
X46886Y-25638D01*
X46938Y-25660D01*
X45199Y-25660D01*
X44709Y-25170D01*
X44714Y-25152D01*
X44715Y-25059D01*
X44699Y-24979D01*
X44668Y-24904D01*
X44623Y-24836D01*
X44566Y-24778D01*
X44498Y-24733D01*
X44423Y-24702D01*
X44343Y-24685D01*
X44262Y-24685D01*
X44182Y-24700D01*
X44107Y-24731D01*
X44038Y-24775D01*
X43980Y-24832D01*
X43934Y-24899D01*
X43902Y-24974D01*
X43886Y-25054D01*
X43884Y-25135D01*
X43899Y-25215D01*
X43929Y-25291D01*
X43973Y-25359D01*
X44030Y-25418D01*
X44097Y-25464D01*
X44171Y-25497D01*
X44251Y-25514D01*
X44332Y-25516D01*
X44369Y-25509D01*
X44820Y-25960D01*
X44691Y-25960D01*
X44668Y-25904D01*
X44623Y-25836D01*
X44566Y-25778D01*
X44498Y-25733D01*
X44423Y-25702D01*
X44343Y-25685D01*
X44262Y-25685D01*
X44182Y-25700D01*
X44107Y-25731D01*
X44038Y-25775D01*
X43980Y-25832D01*
X43934Y-25899D01*
X43902Y-25974D01*
X43886Y-26054D01*
X43884Y-26135D01*
X43899Y-26215D01*
X43929Y-26291D01*
X43973Y-26359D01*
X44030Y-26418D01*
X44097Y-26464D01*
X44171Y-26497D01*
X44251Y-26514D01*
X44332Y-26516D01*
X44412Y-26502D01*
X44488Y-26472D01*
X44538Y-26440D01*
X44620Y-26440D01*
X44369Y-26690D01*
X44343Y-26685D01*
X44262Y-26685D01*
X44182Y-26700D01*
X44107Y-26731D01*
X44038Y-26775D01*
X43980Y-26832D01*
X43934Y-26899D01*
X43902Y-26974D01*
X43886Y-27054D01*
X43884Y-27135D01*
X43899Y-27215D01*
X43929Y-27291D01*
X43973Y-27359D01*
X44030Y-27418D01*
X44097Y-27464D01*
X44171Y-27497D01*
X44251Y-27514D01*
X44332Y-27516D01*
X44412Y-27502D01*
X44488Y-27472D01*
X44557Y-27428D01*
X44616Y-27372D01*
X44663Y-27306D01*
X44696Y-27231D01*
X44714Y-27152D01*
X44715Y-27059D01*
X44709Y-27030D01*
X44999Y-26740D01*
X45929Y-26740D01*
X45864Y-26805D01*
X45895Y-26836D01*
X45852Y-26848D01*
X45811Y-26939D01*
X45789Y-27038D01*
X45787Y-27138D01*
X45804Y-27237D01*
X45840Y-27331D01*
X45852Y-27352D01*
X45939Y-27376D01*
X46187Y-27128D01*
X46215Y-27100D01*
X46300Y-27015D01*
X46385Y-27100D01*
X46413Y-27128D01*
X46661Y-27376D01*
X46748Y-27352D01*
X46760Y-27325D01*
X46760Y-27660D01*
X46576Y-27660D01*
X46576Y-27461D01*
X46300Y-27185D01*
X46215Y-27270D01*
X46024Y-27461D01*
X46048Y-27548D01*
X46139Y-27589D01*
X46238Y-27611D01*
X46338Y-27613D01*
X46437Y-27596D01*
X46531Y-27560D01*
X46552Y-27548D01*
X46576Y-27461D01*
X46576Y-27660D01*
X43840Y-27660D01*
X43840Y-27108D01*
X43840Y-27100D01*
X43840Y-26108D01*
X43840Y-26100D01*
X43840Y-25108D01*
X43840Y-25100D01*
X43840Y-24108D01*
X43840Y-24100D01*
X43840Y-23108D01*
X43840Y-23100D01*
X43840Y-22108D01*
X43840Y-22100D01*
X43840Y-21108D01*
X43840Y-21100D01*
X43840Y-20108D01*
X43840Y-20100D01*
X43840Y-19540D01*
X46760Y-19540D01*
X46760Y-19869D01*
X46748Y-19848D01*
X46661Y-19824D01*
X46576Y-19909D01*
X46576Y-19739D01*
X46552Y-19652D01*
X46461Y-19611D01*
X46362Y-19589D01*
X46262Y-19587D01*
X46163Y-19604D01*
X46069Y-19640D01*
X46048Y-19652D01*
X46024Y-19739D01*
X46300Y-20015D01*
X46576Y-19739D01*
X46576Y-19909D01*
X46413Y-20072D01*
X46385Y-20100D01*
X46300Y-20185D01*
X46215Y-20100D01*
X46187Y-20072D01*
X45939Y-19824D01*
X45852Y-19848D01*
X45811Y-19939D01*
X45789Y-20038D01*
X45787Y-20138D01*
X45804Y-20237D01*
X45840Y-20331D01*
X45852Y-20352D01*
X45895Y-20363D01*
X45864Y-20395D01*
X45929Y-20460D01*
X44999Y-20460D01*
X44714Y-20174D01*
X44714Y-19811D01*
X44709Y-19784D01*
X44698Y-19759D01*
X44683Y-19736D01*
X44664Y-19717D01*
X44641Y-19702D01*
X44616Y-19691D01*
X44589Y-19686D01*
X44562Y-19686D01*
X44011Y-19686D01*
X43984Y-19691D01*
X43959Y-19702D01*
X43936Y-19717D01*
X43917Y-19736D01*
X43902Y-19759D01*
X43891Y-19784D01*
X43886Y-19811D01*
X43886Y-19838D01*
X43886Y-20389D01*
X43891Y-20416D01*
X43902Y-20441D01*
X43917Y-20464D01*
X43936Y-20483D01*
X43959Y-20498D01*
X43984Y-20509D01*
X44011Y-20514D01*
X44038Y-20514D01*
X44374Y-20514D01*
X44620Y-20760D01*
X44538Y-20760D01*
X44498Y-20733D01*
X44423Y-20702D01*
X44343Y-20685D01*
X44262Y-20685D01*
X44182Y-20700D01*
X44107Y-20731D01*
X44038Y-20775D01*
X43980Y-20832D01*
X43934Y-20899D01*
X43902Y-20974D01*
X43886Y-21054D01*
X43884Y-21135D01*
X43899Y-21215D01*
X43929Y-21291D01*
X43973Y-21359D01*
X44030Y-21418D01*
X44097Y-21464D01*
X44171Y-21497D01*
X44251Y-21514D01*
X44332Y-21516D01*
X44412Y-21502D01*
X44488Y-21472D01*
X44557Y-21428D01*
X44616Y-21372D01*
X44663Y-21306D01*
X44692Y-21240D01*
X44820Y-21240D01*
X44369Y-21690D01*
X44343Y-21685D01*
X44262Y-21685D01*
X44182Y-21700D01*
X44107Y-21731D01*
X44038Y-21775D01*
X43980Y-21832D01*
X43934Y-21899D01*
X43902Y-21974D01*
X43886Y-22054D01*
X43884Y-22135D01*
X43899Y-22215D01*
X43929Y-22291D01*
X43973Y-22359D01*
X44030Y-22418D01*
X44097Y-22464D01*
X44171Y-22497D01*
X44251Y-22514D01*
X44332Y-22516D01*
X44412Y-22502D01*
X44488Y-22472D01*
X44557Y-22428D01*
X44616Y-22372D01*
X44663Y-22306D01*
X44696Y-22231D01*
X44714Y-22152D01*
X44715Y-22059D01*
X44709Y-22030D01*
X45199Y-21540D01*
X46938Y-21540D01*
X46891Y-21559D01*
X46818Y-21607D01*
X46755Y-21669D01*
X46705Y-21741D01*
X46671Y-21822D01*
X46663Y-21860D01*
X45302Y-21860D01*
X45300Y-21860D01*
X45291Y-21860D01*
X45256Y-21864D01*
X45211Y-21877D01*
X45209Y-21877D01*
X45209Y-21878D01*
X45167Y-21900D01*
X45155Y-21909D01*
X45132Y-21928D01*
X45130Y-21930D01*
X44369Y-22690D01*
X44343Y-22685D01*
X44262Y-22685D01*
X44182Y-22700D01*
X44107Y-22731D01*
X44038Y-22775D01*
X43980Y-22832D01*
X43934Y-22899D01*
X43902Y-22974D01*
X43886Y-23054D01*
X43884Y-23135D01*
X43899Y-23215D01*
X43929Y-23291D01*
X43973Y-23359D01*
X44030Y-23418D01*
X44097Y-23464D01*
X44171Y-23497D01*
X44251Y-23514D01*
X44332Y-23516D01*
X44412Y-23502D01*
X44488Y-23472D01*
X44557Y-23428D01*
X44616Y-23372D01*
X44663Y-23306D01*
X44696Y-23231D01*
X44714Y-23152D01*
X44715Y-23059D01*
X44709Y-23030D01*
X45400Y-22340D01*
X46662Y-22340D01*
X46669Y-22372D01*
X46703Y-22453D01*
X46751Y-22527D01*
X46813Y-22589D01*
X46886Y-22638D01*
X46967Y-22672D01*
X47053Y-22690D01*
X47141Y-22690D01*
X47227Y-22674D01*
X47309Y-22641D01*
X47382Y-22593D01*
X47445Y-22531D01*
X47495Y-22459D01*
X47529Y-22378D01*
X47547Y-22292D01*
X47549Y-22204D01*
X47548Y-21914D01*
X47541Y-21880D01*
X47651Y-21990D01*
X47651Y-21996D01*
X47652Y-22286D01*
X47669Y-22372D01*
X47703Y-22453D01*
X47751Y-22527D01*
X47813Y-22589D01*
X47886Y-22638D01*
X47967Y-22672D01*
X48053Y-22690D01*
X48141Y-22690D01*
X48227Y-22674D01*
X48309Y-22641D01*
X48382Y-22593D01*
X48445Y-22531D01*
X48495Y-22459D01*
X48529Y-22378D01*
X48547Y-22292D01*
X48549Y-22204D01*
X48548Y-21914D01*
X48541Y-21880D01*
X48651Y-21990D01*
X48651Y-21996D01*
X48652Y-22286D01*
X48669Y-22372D01*
X48703Y-22453D01*
X48751Y-22527D01*
X48813Y-22589D01*
X48886Y-22638D01*
X48967Y-22672D01*
X49053Y-22690D01*
X49141Y-22690D01*
X49227Y-22674D01*
X49309Y-22641D01*
X49382Y-22593D01*
X49445Y-22531D01*
X49495Y-22459D01*
X49529Y-22378D01*
X49547Y-22292D01*
X49549Y-22204D01*
X49548Y-21914D01*
X49541Y-21880D01*
X49651Y-21990D01*
X49651Y-21996D01*
X49652Y-22286D01*
X49669Y-22372D01*
X49703Y-22453D01*
X49751Y-22527D01*
X49813Y-22589D01*
X49886Y-22638D01*
X49967Y-22672D01*
X50053Y-22690D01*
X50141Y-22690D01*
X50227Y-22674D01*
X50309Y-22641D01*
X50382Y-22593D01*
X50420Y-22555D01*
X50420Y-22597D01*
X50420Y-22600D01*
X50420Y-24598D01*
X50420Y-24600D01*
X50423Y-24635D01*
X50428Y-24652D01*
G54D10*
G36*
X58260Y-29560D02*
X57990Y-29560D01*
X57990Y-24557D01*
X57990Y-22557D01*
X57973Y-22472D01*
X57940Y-22393D01*
X57893Y-22321D01*
X57832Y-22259D01*
X57760Y-22211D01*
X57681Y-22178D01*
X57596Y-22160D01*
X57510Y-22160D01*
X57425Y-22176D01*
X57345Y-22208D01*
X57273Y-22255D01*
X57211Y-22316D01*
X57163Y-22387D01*
X57129Y-22466D01*
X57111Y-22551D01*
X57109Y-22637D01*
X57125Y-22722D01*
X57157Y-22802D01*
X57203Y-22874D01*
X57236Y-22908D01*
X56053Y-24092D01*
X56048Y-24097D01*
X56025Y-24124D01*
X56009Y-24155D01*
X56008Y-24155D01*
X56008Y-24157D01*
X55997Y-24191D01*
X55994Y-24217D01*
X55994Y-24223D01*
X55994Y-24225D01*
X55994Y-24226D01*
X55994Y-25466D01*
X55990Y-25466D01*
X55990Y-23557D01*
X55973Y-23472D01*
X55940Y-23393D01*
X55893Y-23321D01*
X55832Y-23259D01*
X55760Y-23211D01*
X55681Y-23178D01*
X55596Y-23160D01*
X55510Y-23160D01*
X55425Y-23176D01*
X55345Y-23208D01*
X55273Y-23255D01*
X55211Y-23316D01*
X55163Y-23387D01*
X55140Y-23440D01*
X55140Y-21200D01*
X55137Y-21172D01*
X55136Y-21156D01*
X55135Y-21153D01*
X55123Y-21110D01*
X55122Y-21109D01*
X55103Y-21072D01*
X55101Y-21069D01*
X55100Y-21067D01*
X55077Y-21039D01*
X55071Y-21032D01*
X55070Y-21031D01*
X55069Y-21030D01*
X53971Y-19932D01*
X53970Y-19930D01*
X53954Y-19917D01*
X53936Y-19902D01*
X53895Y-19879D01*
X53850Y-19865D01*
X53803Y-19860D01*
X53801Y-19860D01*
X53800Y-19860D01*
X53714Y-19860D01*
X53714Y-19811D01*
X53709Y-19784D01*
X53698Y-19759D01*
X53683Y-19736D01*
X53664Y-19717D01*
X53641Y-19702D01*
X53616Y-19691D01*
X53589Y-19686D01*
X53562Y-19686D01*
X53011Y-19686D01*
X52984Y-19691D01*
X52959Y-19702D01*
X52936Y-19717D01*
X52917Y-19736D01*
X52902Y-19759D01*
X52891Y-19784D01*
X52886Y-19811D01*
X52886Y-19838D01*
X52886Y-20389D01*
X52891Y-20416D01*
X52902Y-20441D01*
X52917Y-20464D01*
X52936Y-20483D01*
X52959Y-20498D01*
X52984Y-20509D01*
X53011Y-20514D01*
X53038Y-20514D01*
X53589Y-20514D01*
X53616Y-20509D01*
X53641Y-20498D01*
X53664Y-20483D01*
X53683Y-20464D01*
X53698Y-20441D01*
X53709Y-20416D01*
X53714Y-20389D01*
X53714Y-20362D01*
X53714Y-20353D01*
X54660Y-21299D01*
X54660Y-24200D01*
X54650Y-24210D01*
X54650Y-22575D01*
X54650Y-22528D01*
X54650Y-22220D01*
X54650Y-21980D01*
X54650Y-21672D01*
X54650Y-21625D01*
X54641Y-21579D01*
X54622Y-21536D01*
X54596Y-21497D01*
X54563Y-21463D01*
X54524Y-21437D01*
X54480Y-21419D01*
X54434Y-21410D01*
X54220Y-21410D01*
X54160Y-21470D01*
X54160Y-22040D01*
X54590Y-22040D01*
X54650Y-21980D01*
X54650Y-22220D01*
X54590Y-22160D01*
X54160Y-22160D01*
X54160Y-22730D01*
X54220Y-22790D01*
X54434Y-22790D01*
X54480Y-22781D01*
X54524Y-22763D01*
X54563Y-22737D01*
X54596Y-22703D01*
X54622Y-22664D01*
X54641Y-22621D01*
X54650Y-22575D01*
X54650Y-24210D01*
X54303Y-24557D01*
X54233Y-24528D01*
X54147Y-24510D01*
X54059Y-24510D01*
X54040Y-24513D01*
X54040Y-22730D01*
X54040Y-22160D01*
X54040Y-22040D01*
X54040Y-21470D01*
X53980Y-21410D01*
X53766Y-21410D01*
X53720Y-21419D01*
X53676Y-21437D01*
X53637Y-21463D01*
X53604Y-21497D01*
X53578Y-21536D01*
X53559Y-21579D01*
X53550Y-21625D01*
X53550Y-21672D01*
X53550Y-21980D01*
X53610Y-22040D01*
X54040Y-22040D01*
X54040Y-22160D01*
X53610Y-22160D01*
X53550Y-22220D01*
X53550Y-22528D01*
X53550Y-22575D01*
X53559Y-22621D01*
X53578Y-22664D01*
X53604Y-22703D01*
X53637Y-22737D01*
X53676Y-22763D01*
X53720Y-22781D01*
X53766Y-22790D01*
X53980Y-22790D01*
X54040Y-22730D01*
X54040Y-24513D01*
X53973Y-24526D01*
X53891Y-24559D01*
X53818Y-24607D01*
X53755Y-24669D01*
X53705Y-24741D01*
X53671Y-24822D01*
X53653Y-24908D01*
X53651Y-24996D01*
X53652Y-25286D01*
X53669Y-25372D01*
X53703Y-25453D01*
X53751Y-25527D01*
X53813Y-25589D01*
X53886Y-25638D01*
X53967Y-25672D01*
X54053Y-25690D01*
X54141Y-25690D01*
X54227Y-25674D01*
X54309Y-25641D01*
X54382Y-25593D01*
X54445Y-25531D01*
X54495Y-25459D01*
X54529Y-25378D01*
X54547Y-25292D01*
X54549Y-25204D01*
X54548Y-24991D01*
X55068Y-24471D01*
X55069Y-24470D01*
X55071Y-24466D01*
X55098Y-24436D01*
X55099Y-24433D01*
X55121Y-24395D01*
X55121Y-24393D01*
X55135Y-24350D01*
X55135Y-24348D01*
X55140Y-24303D01*
X55140Y-24300D01*
X55140Y-23759D01*
X55157Y-23802D01*
X55203Y-23874D01*
X55263Y-23937D01*
X55334Y-23986D01*
X55413Y-24020D01*
X55498Y-24039D01*
X55584Y-24041D01*
X55669Y-24026D01*
X55749Y-23995D01*
X55822Y-23948D01*
X55885Y-23889D01*
X55934Y-23818D01*
X55969Y-23740D01*
X55989Y-23656D01*
X55990Y-23557D01*
X55990Y-25466D01*
X55905Y-25466D01*
X55878Y-25471D01*
X55853Y-25482D01*
X55830Y-25497D01*
X55811Y-25516D01*
X55800Y-25532D01*
X55789Y-25516D01*
X55770Y-25497D01*
X55747Y-25482D01*
X55722Y-25471D01*
X55695Y-25466D01*
X55668Y-25466D01*
X55157Y-25466D01*
X55130Y-25471D01*
X55105Y-25482D01*
X55082Y-25497D01*
X55063Y-25516D01*
X55048Y-25539D01*
X55037Y-25564D01*
X55032Y-25591D01*
X55032Y-25618D01*
X55032Y-25720D01*
X53524Y-25720D01*
X53389Y-25585D01*
X53445Y-25531D01*
X53495Y-25459D01*
X53529Y-25378D01*
X53547Y-25292D01*
X53549Y-25204D01*
X53548Y-24914D01*
X53531Y-24828D01*
X53497Y-24747D01*
X53449Y-24673D01*
X53387Y-24611D01*
X53314Y-24562D01*
X53233Y-24528D01*
X53147Y-24510D01*
X53059Y-24510D01*
X52973Y-24526D01*
X52891Y-24559D01*
X52818Y-24607D01*
X52780Y-24644D01*
X52780Y-22602D01*
X52780Y-22600D01*
X52777Y-22567D01*
X52777Y-22565D01*
X52771Y-22547D01*
X52813Y-22589D01*
X52886Y-22638D01*
X52967Y-22672D01*
X53053Y-22690D01*
X53141Y-22690D01*
X53227Y-22674D01*
X53309Y-22641D01*
X53382Y-22593D01*
X53445Y-22531D01*
X53495Y-22459D01*
X53529Y-22378D01*
X53547Y-22292D01*
X53549Y-22204D01*
X53548Y-21914D01*
X53531Y-21828D01*
X53497Y-21747D01*
X53449Y-21673D01*
X53387Y-21611D01*
X53314Y-21562D01*
X53233Y-21528D01*
X53147Y-21510D01*
X53059Y-21510D01*
X52979Y-21524D01*
X51692Y-20238D01*
X51696Y-20231D01*
X51714Y-20152D01*
X51715Y-20059D01*
X51699Y-19979D01*
X51668Y-19904D01*
X51623Y-19836D01*
X51567Y-19780D01*
X51726Y-19780D01*
X51907Y-19961D01*
X51902Y-19974D01*
X51886Y-20054D01*
X51884Y-20135D01*
X51899Y-20215D01*
X51929Y-20291D01*
X51973Y-20359D01*
X52030Y-20418D01*
X52097Y-20464D01*
X52171Y-20497D01*
X52251Y-20514D01*
X52332Y-20516D01*
X52412Y-20502D01*
X52488Y-20472D01*
X52557Y-20428D01*
X52616Y-20372D01*
X52663Y-20306D01*
X52696Y-20231D01*
X52714Y-20152D01*
X52715Y-20059D01*
X52699Y-19979D01*
X52668Y-19904D01*
X52623Y-19836D01*
X52566Y-19778D01*
X52498Y-19733D01*
X52423Y-19702D01*
X52343Y-19685D01*
X52262Y-19685D01*
X52182Y-19700D01*
X52162Y-19708D01*
X51933Y-19479D01*
X51929Y-19474D01*
X51927Y-19473D01*
X51902Y-19451D01*
X51900Y-19450D01*
X51871Y-19435D01*
X51870Y-19434D01*
X51869Y-19434D01*
X51835Y-19423D01*
X51809Y-19420D01*
X51803Y-19420D01*
X51801Y-19420D01*
X51800Y-19420D01*
X51002Y-19420D01*
X51000Y-19420D01*
X50965Y-19423D01*
X50931Y-19434D01*
X50900Y-19450D01*
X50879Y-19467D01*
X50874Y-19471D01*
X50873Y-19472D01*
X50872Y-19473D01*
X50679Y-19666D01*
X50674Y-19671D01*
X50651Y-19698D01*
X50635Y-19729D01*
X50634Y-19729D01*
X50634Y-19731D01*
X50623Y-19765D01*
X50620Y-19791D01*
X50620Y-19797D01*
X50620Y-19799D01*
X50620Y-19800D01*
X50620Y-19832D01*
X50566Y-19778D01*
X50498Y-19733D01*
X50423Y-19702D01*
X50343Y-19685D01*
X50262Y-19685D01*
X50182Y-19700D01*
X50107Y-19731D01*
X50038Y-19775D01*
X49980Y-19832D01*
X49934Y-19899D01*
X49902Y-19974D01*
X49886Y-20054D01*
X49884Y-20135D01*
X49899Y-20215D01*
X49929Y-20291D01*
X49973Y-20359D01*
X50030Y-20418D01*
X50097Y-20464D01*
X50120Y-20474D01*
X50120Y-20698D01*
X50120Y-20700D01*
X50123Y-20735D01*
X50132Y-20764D01*
X50133Y-20766D01*
X50134Y-20769D01*
X50145Y-20790D01*
X49661Y-20307D01*
X49663Y-20306D01*
X49696Y-20231D01*
X49714Y-20152D01*
X49715Y-20059D01*
X49699Y-19979D01*
X49668Y-19904D01*
X49623Y-19836D01*
X49566Y-19778D01*
X49498Y-19733D01*
X49423Y-19702D01*
X49343Y-19685D01*
X49262Y-19685D01*
X49182Y-19700D01*
X49107Y-19731D01*
X49038Y-19775D01*
X48980Y-19832D01*
X48934Y-19899D01*
X48902Y-19974D01*
X48886Y-20054D01*
X48884Y-20135D01*
X48899Y-20215D01*
X48929Y-20291D01*
X48973Y-20359D01*
X49030Y-20418D01*
X49097Y-20464D01*
X49171Y-20497D01*
X49251Y-20514D01*
X49332Y-20516D01*
X49357Y-20511D01*
X50420Y-21574D01*
X50420Y-21644D01*
X50387Y-21611D01*
X50314Y-21562D01*
X50233Y-21528D01*
X50147Y-21510D01*
X50059Y-21510D01*
X49973Y-21526D01*
X49896Y-21556D01*
X48871Y-20532D01*
X48870Y-20530D01*
X48854Y-20517D01*
X48836Y-20502D01*
X48795Y-20479D01*
X48750Y-20465D01*
X48703Y-20460D01*
X48701Y-20460D01*
X48700Y-20460D01*
X48506Y-20460D01*
X48557Y-20428D01*
X48616Y-20372D01*
X48663Y-20306D01*
X48696Y-20231D01*
X48714Y-20152D01*
X48715Y-20059D01*
X48699Y-19979D01*
X48668Y-19904D01*
X48623Y-19836D01*
X48566Y-19778D01*
X48498Y-19733D01*
X48423Y-19702D01*
X48343Y-19685D01*
X48262Y-19685D01*
X48182Y-19700D01*
X48107Y-19731D01*
X48038Y-19775D01*
X47980Y-19832D01*
X47934Y-19899D01*
X47902Y-19974D01*
X47886Y-20054D01*
X47884Y-20135D01*
X47899Y-20215D01*
X47929Y-20291D01*
X47973Y-20359D01*
X48030Y-20418D01*
X48091Y-20460D01*
X47699Y-20460D01*
X47746Y-20405D01*
X47796Y-20313D01*
X47828Y-20212D01*
X47840Y-20108D01*
X47840Y-20100D01*
X47840Y-19004D01*
X47840Y-19000D01*
X47830Y-18899D01*
X47830Y-18895D01*
X47812Y-18837D01*
X47801Y-18798D01*
X47799Y-18794D01*
X47791Y-18778D01*
X47752Y-18704D01*
X47750Y-18702D01*
X47750Y-18701D01*
X47722Y-18667D01*
X47686Y-18622D01*
X47684Y-18620D01*
X47683Y-18619D01*
X47644Y-18586D01*
X47605Y-18554D01*
X47603Y-18553D01*
X47602Y-18552D01*
X47538Y-18518D01*
X47513Y-18504D01*
X47512Y-18503D01*
X47509Y-18502D01*
X47412Y-18472D01*
X47409Y-18471D01*
X47347Y-18464D01*
X47308Y-18460D01*
X47304Y-18460D01*
X47300Y-18460D01*
X43304Y-18460D01*
X43300Y-18460D01*
X43195Y-18470D01*
X43137Y-18487D01*
X43098Y-18499D01*
X43094Y-18500D01*
X43094Y-18501D01*
X43078Y-18509D01*
X43004Y-18548D01*
X43002Y-18549D01*
X43001Y-18550D01*
X42967Y-18577D01*
X42922Y-18614D01*
X42920Y-18615D01*
X42919Y-18617D01*
X42886Y-18656D01*
X42854Y-18695D01*
X42853Y-18696D01*
X42852Y-18698D01*
X42818Y-18761D01*
X42804Y-18787D01*
X42803Y-18787D01*
X42802Y-18791D01*
X42771Y-18891D01*
X42764Y-18952D01*
X42760Y-18992D01*
X42760Y-18996D01*
X42760Y-19000D01*
X42760Y-20092D01*
X42760Y-20100D01*
X42760Y-21092D01*
X42760Y-21100D01*
X42760Y-22092D01*
X42760Y-22100D01*
X42760Y-23092D01*
X42760Y-23100D01*
X42760Y-24092D01*
X42760Y-24100D01*
X42760Y-25092D01*
X42760Y-25100D01*
X42760Y-26092D01*
X42760Y-26100D01*
X42760Y-27092D01*
X42760Y-27100D01*
X42760Y-28196D01*
X42760Y-28200D01*
X42770Y-28305D01*
X42787Y-28363D01*
X42799Y-28402D01*
X42800Y-28405D01*
X42801Y-28406D01*
X42809Y-28421D01*
X42848Y-28496D01*
X42849Y-28497D01*
X42850Y-28499D01*
X42877Y-28533D01*
X42914Y-28578D01*
X42915Y-28579D01*
X42917Y-28581D01*
X42956Y-28613D01*
X42995Y-28646D01*
X42996Y-28646D01*
X42998Y-28648D01*
X43061Y-28682D01*
X43087Y-28696D01*
X43091Y-28698D01*
X43188Y-28728D01*
X43191Y-28729D01*
X43252Y-28735D01*
X43292Y-28740D01*
X43296Y-28740D01*
X43300Y-28740D01*
X47296Y-28740D01*
X47300Y-28740D01*
X47401Y-28730D01*
X47405Y-28730D01*
X47463Y-28712D01*
X47502Y-28701D01*
X47505Y-28699D01*
X47506Y-28699D01*
X47521Y-28691D01*
X47596Y-28652D01*
X47597Y-28650D01*
X47599Y-28650D01*
X47633Y-28622D01*
X47678Y-28586D01*
X47679Y-28584D01*
X47681Y-28583D01*
X47713Y-28544D01*
X47746Y-28505D01*
X47746Y-28503D01*
X47748Y-28502D01*
X47782Y-28438D01*
X47796Y-28413D01*
X47796Y-28412D01*
X47798Y-28409D01*
X47828Y-28312D01*
X47829Y-28309D01*
X47835Y-28247D01*
X47840Y-28208D01*
X47840Y-28204D01*
X47840Y-28200D01*
X47840Y-27100D01*
X47830Y-26995D01*
X47799Y-26894D01*
X47750Y-26801D01*
X47700Y-26740D01*
X48092Y-26740D01*
X48038Y-26775D01*
X47980Y-26832D01*
X47934Y-26899D01*
X47902Y-26974D01*
X47886Y-27054D01*
X47884Y-27135D01*
X47899Y-27215D01*
X47929Y-27291D01*
X47973Y-27359D01*
X48030Y-27418D01*
X48097Y-27464D01*
X48171Y-27497D01*
X48251Y-27514D01*
X48332Y-27516D01*
X48412Y-27502D01*
X48488Y-27472D01*
X48557Y-27428D01*
X48616Y-27372D01*
X48663Y-27306D01*
X48696Y-27231D01*
X48714Y-27152D01*
X48715Y-27059D01*
X48699Y-26979D01*
X48668Y-26904D01*
X48623Y-26836D01*
X48566Y-26778D01*
X48508Y-26740D01*
X48698Y-26740D01*
X48700Y-26740D01*
X48708Y-26739D01*
X48744Y-26736D01*
X48747Y-26735D01*
X48789Y-26723D01*
X48791Y-26722D01*
X48831Y-26702D01*
X48833Y-26700D01*
X48868Y-26672D01*
X48869Y-26670D01*
X48870Y-26670D01*
X49896Y-25642D01*
X49967Y-25672D01*
X50053Y-25690D01*
X50141Y-25690D01*
X50227Y-25674D01*
X50309Y-25641D01*
X50382Y-25593D01*
X50445Y-25531D01*
X50495Y-25459D01*
X50529Y-25378D01*
X50547Y-25292D01*
X50549Y-25204D01*
X50548Y-24914D01*
X50531Y-24828D01*
X50499Y-24753D01*
X50653Y-24907D01*
X50653Y-24908D01*
X50651Y-24996D01*
X50652Y-25286D01*
X50669Y-25372D01*
X50699Y-25445D01*
X49437Y-26708D01*
X49423Y-26702D01*
X49343Y-26685D01*
X49262Y-26685D01*
X49182Y-26700D01*
X49107Y-26731D01*
X49038Y-26775D01*
X48980Y-26832D01*
X48934Y-26899D01*
X48902Y-26974D01*
X48886Y-27054D01*
X48884Y-27135D01*
X48899Y-27215D01*
X48929Y-27291D01*
X48973Y-27359D01*
X49030Y-27418D01*
X49097Y-27464D01*
X49171Y-27497D01*
X49251Y-27514D01*
X49332Y-27516D01*
X49412Y-27502D01*
X49488Y-27472D01*
X49557Y-27428D01*
X49616Y-27372D01*
X49663Y-27306D01*
X49696Y-27231D01*
X49714Y-27152D01*
X49715Y-27059D01*
X49699Y-26979D01*
X49692Y-26962D01*
X50980Y-25674D01*
X51053Y-25690D01*
X51141Y-25690D01*
X51227Y-25674D01*
X51309Y-25641D01*
X51382Y-25593D01*
X51420Y-25555D01*
X51420Y-25725D01*
X50437Y-26708D01*
X50423Y-26702D01*
X50343Y-26685D01*
X50262Y-26685D01*
X50182Y-26700D01*
X50107Y-26731D01*
X50038Y-26775D01*
X49980Y-26832D01*
X49934Y-26899D01*
X49902Y-26974D01*
X49886Y-27054D01*
X49884Y-27135D01*
X49899Y-27215D01*
X49929Y-27291D01*
X49973Y-27359D01*
X50030Y-27418D01*
X50097Y-27464D01*
X50171Y-27497D01*
X50251Y-27514D01*
X50332Y-27516D01*
X50412Y-27502D01*
X50488Y-27472D01*
X50557Y-27428D01*
X50616Y-27372D01*
X50663Y-27306D01*
X50696Y-27231D01*
X50714Y-27152D01*
X50715Y-27059D01*
X50699Y-26979D01*
X50692Y-26962D01*
X51725Y-25929D01*
X51726Y-25929D01*
X51726Y-25928D01*
X51727Y-25928D01*
X51749Y-25902D01*
X51750Y-25901D01*
X51765Y-25871D01*
X51766Y-25869D01*
X51771Y-25851D01*
X51776Y-25837D01*
X51776Y-25836D01*
X51780Y-25803D01*
X51780Y-25801D01*
X51780Y-25800D01*
X51780Y-25556D01*
X51813Y-25589D01*
X51886Y-25638D01*
X51920Y-25652D01*
X51920Y-26225D01*
X51437Y-26708D01*
X51423Y-26702D01*
X51343Y-26685D01*
X51262Y-26685D01*
X51182Y-26700D01*
X51107Y-26731D01*
X51038Y-26775D01*
X50980Y-26832D01*
X50934Y-26899D01*
X50902Y-26974D01*
X50886Y-27054D01*
X50884Y-27135D01*
X50899Y-27215D01*
X50929Y-27291D01*
X50973Y-27359D01*
X51030Y-27418D01*
X51097Y-27464D01*
X51171Y-27497D01*
X51251Y-27514D01*
X51332Y-27516D01*
X51412Y-27502D01*
X51488Y-27472D01*
X51557Y-27428D01*
X51616Y-27372D01*
X51663Y-27306D01*
X51696Y-27231D01*
X51714Y-27152D01*
X51715Y-27059D01*
X51699Y-26979D01*
X51692Y-26962D01*
X52120Y-26534D01*
X52120Y-26725D01*
X52107Y-26731D01*
X52038Y-26775D01*
X51980Y-26832D01*
X51934Y-26899D01*
X51902Y-26974D01*
X51886Y-27054D01*
X51884Y-27135D01*
X51899Y-27215D01*
X51929Y-27291D01*
X51973Y-27359D01*
X52030Y-27418D01*
X52097Y-27464D01*
X52171Y-27497D01*
X52251Y-27514D01*
X52332Y-27516D01*
X52412Y-27502D01*
X52488Y-27472D01*
X52557Y-27428D01*
X52616Y-27372D01*
X52663Y-27306D01*
X52696Y-27231D01*
X52714Y-27152D01*
X52715Y-27059D01*
X52699Y-26979D01*
X52668Y-26904D01*
X52623Y-26836D01*
X52566Y-26778D01*
X52498Y-26733D01*
X52480Y-26725D01*
X52480Y-26574D01*
X52720Y-26333D01*
X52726Y-26329D01*
X52727Y-26327D01*
X52746Y-26305D01*
X52749Y-26302D01*
X52750Y-26301D01*
X52765Y-26271D01*
X52766Y-26269D01*
X52776Y-26237D01*
X52777Y-26236D01*
X52779Y-26208D01*
X52780Y-26203D01*
X52780Y-26201D01*
X52780Y-26200D01*
X52780Y-25556D01*
X52813Y-25589D01*
X52886Y-25638D01*
X52967Y-25672D01*
X52968Y-25672D01*
X52971Y-25675D01*
X52972Y-25677D01*
X52973Y-25677D01*
X52977Y-25681D01*
X53320Y-26025D01*
X53321Y-26026D01*
X53322Y-26027D01*
X53326Y-26030D01*
X53348Y-26049D01*
X53349Y-26049D01*
X53379Y-26065D01*
X53381Y-26065D01*
X53413Y-26076D01*
X53414Y-26076D01*
X53447Y-26080D01*
X53449Y-26080D01*
X53450Y-26080D01*
X55032Y-26080D01*
X55032Y-26209D01*
X55037Y-26236D01*
X55048Y-26261D01*
X55063Y-26284D01*
X55082Y-26303D01*
X55105Y-26318D01*
X55130Y-26329D01*
X55157Y-26334D01*
X55184Y-26334D01*
X55695Y-26334D01*
X55722Y-26329D01*
X55747Y-26318D01*
X55770Y-26303D01*
X55789Y-26284D01*
X55800Y-26267D01*
X55811Y-26284D01*
X55830Y-26303D01*
X55853Y-26318D01*
X55878Y-26329D01*
X55905Y-26334D01*
X55932Y-26334D01*
X56443Y-26334D01*
X56470Y-26329D01*
X56495Y-26318D01*
X56518Y-26303D01*
X56537Y-26284D01*
X56552Y-26261D01*
X56563Y-26236D01*
X56568Y-26209D01*
X56568Y-26182D01*
X56568Y-25591D01*
X56563Y-25564D01*
X56552Y-25539D01*
X56537Y-25516D01*
X56518Y-25497D01*
X56495Y-25482D01*
X56470Y-25471D01*
X56443Y-25466D01*
X56416Y-25466D01*
X56354Y-25466D01*
X56354Y-24300D01*
X57620Y-23034D01*
X57669Y-23026D01*
X57749Y-22995D01*
X57822Y-22948D01*
X57885Y-22889D01*
X57934Y-22818D01*
X57969Y-22740D01*
X57989Y-22656D01*
X57990Y-22557D01*
X57990Y-24557D01*
X57973Y-24472D01*
X57940Y-24393D01*
X57893Y-24321D01*
X57832Y-24259D01*
X57760Y-24211D01*
X57681Y-24178D01*
X57596Y-24160D01*
X57510Y-24160D01*
X57425Y-24176D01*
X57345Y-24208D01*
X57273Y-24255D01*
X57211Y-24316D01*
X57163Y-24387D01*
X57129Y-24466D01*
X57111Y-24551D01*
X57109Y-24637D01*
X57125Y-24722D01*
X57157Y-24802D01*
X57203Y-24874D01*
X57263Y-24937D01*
X57310Y-24969D01*
X57310Y-25850D01*
X56353Y-26807D01*
X56023Y-26807D01*
X55996Y-26812D01*
X55971Y-26823D01*
X55948Y-26838D01*
X55929Y-26857D01*
X55914Y-26880D01*
X55903Y-26905D01*
X55898Y-26932D01*
X55898Y-26959D01*
X55898Y-27668D01*
X55903Y-27695D01*
X55914Y-27720D01*
X55929Y-27743D01*
X55934Y-27748D01*
X55934Y-27966D01*
X55905Y-27966D01*
X55878Y-27971D01*
X55853Y-27982D01*
X55830Y-27997D01*
X55811Y-28016D01*
X55800Y-28032D01*
X55789Y-28016D01*
X55770Y-27997D01*
X55747Y-27982D01*
X55722Y-27971D01*
X55695Y-27966D01*
X55668Y-27966D01*
X55489Y-27966D01*
X55489Y-27793D01*
X55577Y-27793D01*
X55604Y-27788D01*
X55629Y-27777D01*
X55652Y-27762D01*
X55671Y-27743D01*
X55686Y-27720D01*
X55697Y-27695D01*
X55702Y-27668D01*
X55702Y-27641D01*
X55702Y-26932D01*
X55697Y-26905D01*
X55686Y-26880D01*
X55671Y-26857D01*
X55652Y-26838D01*
X55629Y-26823D01*
X55604Y-26812D01*
X55577Y-26807D01*
X55550Y-26807D01*
X54921Y-26807D01*
X54894Y-26812D01*
X54869Y-26823D01*
X54846Y-26838D01*
X54827Y-26857D01*
X54825Y-26860D01*
X53714Y-26860D01*
X53714Y-26811D01*
X53709Y-26784D01*
X53698Y-26759D01*
X53683Y-26736D01*
X53664Y-26717D01*
X53641Y-26702D01*
X53616Y-26691D01*
X53589Y-26686D01*
X53562Y-26686D01*
X53011Y-26686D01*
X52984Y-26691D01*
X52959Y-26702D01*
X52936Y-26717D01*
X52917Y-26736D01*
X52902Y-26759D01*
X52891Y-26784D01*
X52886Y-26811D01*
X52886Y-26838D01*
X52886Y-27389D01*
X52891Y-27416D01*
X52902Y-27441D01*
X52917Y-27464D01*
X52936Y-27483D01*
X52959Y-27498D01*
X52984Y-27509D01*
X53011Y-27514D01*
X53038Y-27514D01*
X53589Y-27514D01*
X53616Y-27509D01*
X53641Y-27498D01*
X53664Y-27483D01*
X53683Y-27464D01*
X53698Y-27441D01*
X53709Y-27416D01*
X53714Y-27389D01*
X53714Y-27362D01*
X53714Y-27340D01*
X54796Y-27340D01*
X54796Y-27668D01*
X54801Y-27695D01*
X54812Y-27720D01*
X54827Y-27743D01*
X54846Y-27762D01*
X54869Y-27777D01*
X54894Y-27788D01*
X54921Y-27793D01*
X54948Y-27793D01*
X55009Y-27793D01*
X55009Y-28221D01*
X55009Y-28223D01*
X55009Y-28231D01*
X55013Y-28267D01*
X55014Y-28270D01*
X55026Y-28312D01*
X55027Y-28314D01*
X55032Y-28324D01*
X55032Y-28709D01*
X55037Y-28736D01*
X55048Y-28761D01*
X55063Y-28784D01*
X55082Y-28803D01*
X55105Y-28818D01*
X55130Y-28829D01*
X55157Y-28834D01*
X55184Y-28834D01*
X55695Y-28834D01*
X55722Y-28829D01*
X55747Y-28818D01*
X55770Y-28803D01*
X55789Y-28784D01*
X55800Y-28767D01*
X55811Y-28784D01*
X55830Y-28803D01*
X55853Y-28818D01*
X55878Y-28829D01*
X55905Y-28834D01*
X55932Y-28834D01*
X56443Y-28834D01*
X56470Y-28829D01*
X56495Y-28818D01*
X56518Y-28803D01*
X56537Y-28784D01*
X56552Y-28761D01*
X56563Y-28736D01*
X56568Y-28709D01*
X56568Y-28682D01*
X56568Y-28091D01*
X56563Y-28064D01*
X56552Y-28039D01*
X56537Y-28016D01*
X56518Y-27997D01*
X56495Y-27982D01*
X56470Y-27971D01*
X56443Y-27966D01*
X56416Y-27966D01*
X56414Y-27966D01*
X56414Y-27793D01*
X56679Y-27793D01*
X56706Y-27788D01*
X56731Y-27777D01*
X56754Y-27762D01*
X56773Y-27743D01*
X56788Y-27720D01*
X56799Y-27695D01*
X56804Y-27668D01*
X56804Y-27641D01*
X56804Y-27035D01*
X57718Y-26121D01*
X57719Y-26120D01*
X57721Y-26116D01*
X57748Y-26086D01*
X57749Y-26083D01*
X57771Y-26045D01*
X57771Y-26043D01*
X57785Y-26000D01*
X57785Y-25998D01*
X57790Y-25953D01*
X57790Y-25950D01*
X57790Y-24968D01*
X57822Y-24948D01*
X57885Y-24889D01*
X57934Y-24818D01*
X57969Y-24740D01*
X57989Y-24656D01*
X57990Y-24557D01*
X57990Y-29560D01*
X41940Y-29560D01*
X41940Y-17640D01*
X58260Y-17640D01*
X58260Y-29560D01*
X58260Y-29560D01*
G37*
G54D19*
X58260Y-29560D02*
X57990Y-29560D01*
X57990Y-24557D01*
X57990Y-22557D01*
X57973Y-22472D01*
X57940Y-22393D01*
X57893Y-22321D01*
X57832Y-22259D01*
X57760Y-22211D01*
X57681Y-22178D01*
X57596Y-22160D01*
X57510Y-22160D01*
X57425Y-22176D01*
X57345Y-22208D01*
X57273Y-22255D01*
X57211Y-22316D01*
X57163Y-22387D01*
X57129Y-22466D01*
X57111Y-22551D01*
X57109Y-22637D01*
X57125Y-22722D01*
X57157Y-22802D01*
X57203Y-22874D01*
X57236Y-22908D01*
X56053Y-24092D01*
X56048Y-24097D01*
X56025Y-24124D01*
X56009Y-24155D01*
X56008Y-24155D01*
X56008Y-24157D01*
X55997Y-24191D01*
X55994Y-24217D01*
X55994Y-24223D01*
X55994Y-24225D01*
X55994Y-24226D01*
X55994Y-25466D01*
X55990Y-25466D01*
X55990Y-23557D01*
X55973Y-23472D01*
X55940Y-23393D01*
X55893Y-23321D01*
X55832Y-23259D01*
X55760Y-23211D01*
X55681Y-23178D01*
X55596Y-23160D01*
X55510Y-23160D01*
X55425Y-23176D01*
X55345Y-23208D01*
X55273Y-23255D01*
X55211Y-23316D01*
X55163Y-23387D01*
X55140Y-23440D01*
X55140Y-21200D01*
X55137Y-21172D01*
X55136Y-21156D01*
X55135Y-21153D01*
X55123Y-21110D01*
X55122Y-21109D01*
X55103Y-21072D01*
X55101Y-21069D01*
X55100Y-21067D01*
X55077Y-21039D01*
X55071Y-21032D01*
X55070Y-21031D01*
X55069Y-21030D01*
X53971Y-19932D01*
X53970Y-19930D01*
X53954Y-19917D01*
X53936Y-19902D01*
X53895Y-19879D01*
X53850Y-19865D01*
X53803Y-19860D01*
X53801Y-19860D01*
X53800Y-19860D01*
X53714Y-19860D01*
X53714Y-19811D01*
X53709Y-19784D01*
X53698Y-19759D01*
X53683Y-19736D01*
X53664Y-19717D01*
X53641Y-19702D01*
X53616Y-19691D01*
X53589Y-19686D01*
X53562Y-19686D01*
X53011Y-19686D01*
X52984Y-19691D01*
X52959Y-19702D01*
X52936Y-19717D01*
X52917Y-19736D01*
X52902Y-19759D01*
X52891Y-19784D01*
X52886Y-19811D01*
X52886Y-19838D01*
X52886Y-20389D01*
X52891Y-20416D01*
X52902Y-20441D01*
X52917Y-20464D01*
X52936Y-20483D01*
X52959Y-20498D01*
X52984Y-20509D01*
X53011Y-20514D01*
X53038Y-20514D01*
X53589Y-20514D01*
X53616Y-20509D01*
X53641Y-20498D01*
X53664Y-20483D01*
X53683Y-20464D01*
X53698Y-20441D01*
X53709Y-20416D01*
X53714Y-20389D01*
X53714Y-20362D01*
X53714Y-20353D01*
X54660Y-21299D01*
X54660Y-24200D01*
X54650Y-24210D01*
X54650Y-22575D01*
X54650Y-22528D01*
X54650Y-22220D01*
X54650Y-21980D01*
X54650Y-21672D01*
X54650Y-21625D01*
X54641Y-21579D01*
X54622Y-21536D01*
X54596Y-21497D01*
X54563Y-21463D01*
X54524Y-21437D01*
X54480Y-21419D01*
X54434Y-21410D01*
X54220Y-21410D01*
X54160Y-21470D01*
X54160Y-22040D01*
X54590Y-22040D01*
X54650Y-21980D01*
X54650Y-22220D01*
X54590Y-22160D01*
X54160Y-22160D01*
X54160Y-22730D01*
X54220Y-22790D01*
X54434Y-22790D01*
X54480Y-22781D01*
X54524Y-22763D01*
X54563Y-22737D01*
X54596Y-22703D01*
X54622Y-22664D01*
X54641Y-22621D01*
X54650Y-22575D01*
X54650Y-24210D01*
X54303Y-24557D01*
X54233Y-24528D01*
X54147Y-24510D01*
X54059Y-24510D01*
X54040Y-24513D01*
X54040Y-22730D01*
X54040Y-22160D01*
X54040Y-22040D01*
X54040Y-21470D01*
X53980Y-21410D01*
X53766Y-21410D01*
X53720Y-21419D01*
X53676Y-21437D01*
X53637Y-21463D01*
X53604Y-21497D01*
X53578Y-21536D01*
X53559Y-21579D01*
X53550Y-21625D01*
X53550Y-21672D01*
X53550Y-21980D01*
X53610Y-22040D01*
X54040Y-22040D01*
X54040Y-22160D01*
X53610Y-22160D01*
X53550Y-22220D01*
X53550Y-22528D01*
X53550Y-22575D01*
X53559Y-22621D01*
X53578Y-22664D01*
X53604Y-22703D01*
X53637Y-22737D01*
X53676Y-22763D01*
X53720Y-22781D01*
X53766Y-22790D01*
X53980Y-22790D01*
X54040Y-22730D01*
X54040Y-24513D01*
X53973Y-24526D01*
X53891Y-24559D01*
X53818Y-24607D01*
X53755Y-24669D01*
X53705Y-24741D01*
X53671Y-24822D01*
X53653Y-24908D01*
X53651Y-24996D01*
X53652Y-25286D01*
X53669Y-25372D01*
X53703Y-25453D01*
X53751Y-25527D01*
X53813Y-25589D01*
X53886Y-25638D01*
X53967Y-25672D01*
X54053Y-25690D01*
X54141Y-25690D01*
X54227Y-25674D01*
X54309Y-25641D01*
X54382Y-25593D01*
X54445Y-25531D01*
X54495Y-25459D01*
X54529Y-25378D01*
X54547Y-25292D01*
X54549Y-25204D01*
X54548Y-24991D01*
X55068Y-24471D01*
X55069Y-24470D01*
X55071Y-24466D01*
X55098Y-24436D01*
X55099Y-24433D01*
X55121Y-24395D01*
X55121Y-24393D01*
X55135Y-24350D01*
X55135Y-24348D01*
X55140Y-24303D01*
X55140Y-24300D01*
X55140Y-23759D01*
X55157Y-23802D01*
X55203Y-23874D01*
X55263Y-23937D01*
X55334Y-23986D01*
X55413Y-24020D01*
X55498Y-24039D01*
X55584Y-24041D01*
X55669Y-24026D01*
X55749Y-23995D01*
X55822Y-23948D01*
X55885Y-23889D01*
X55934Y-23818D01*
X55969Y-23740D01*
X55989Y-23656D01*
X55990Y-23557D01*
X55990Y-25466D01*
X55905Y-25466D01*
X55878Y-25471D01*
X55853Y-25482D01*
X55830Y-25497D01*
X55811Y-25516D01*
X55800Y-25532D01*
X55789Y-25516D01*
X55770Y-25497D01*
X55747Y-25482D01*
X55722Y-25471D01*
X55695Y-25466D01*
X55668Y-25466D01*
X55157Y-25466D01*
X55130Y-25471D01*
X55105Y-25482D01*
X55082Y-25497D01*
X55063Y-25516D01*
X55048Y-25539D01*
X55037Y-25564D01*
X55032Y-25591D01*
X55032Y-25618D01*
X55032Y-25720D01*
X53524Y-25720D01*
X53389Y-25585D01*
X53445Y-25531D01*
X53495Y-25459D01*
X53529Y-25378D01*
X53547Y-25292D01*
X53549Y-25204D01*
X53548Y-24914D01*
X53531Y-24828D01*
X53497Y-24747D01*
X53449Y-24673D01*
X53387Y-24611D01*
X53314Y-24562D01*
X53233Y-24528D01*
X53147Y-24510D01*
X53059Y-24510D01*
X52973Y-24526D01*
X52891Y-24559D01*
X52818Y-24607D01*
X52780Y-24644D01*
X52780Y-22602D01*
X52780Y-22600D01*
X52777Y-22567D01*
X52777Y-22565D01*
X52771Y-22547D01*
X52813Y-22589D01*
X52886Y-22638D01*
X52967Y-22672D01*
X53053Y-22690D01*
X53141Y-22690D01*
X53227Y-22674D01*
X53309Y-22641D01*
X53382Y-22593D01*
X53445Y-22531D01*
X53495Y-22459D01*
X53529Y-22378D01*
X53547Y-22292D01*
X53549Y-22204D01*
X53548Y-21914D01*
X53531Y-21828D01*
X53497Y-21747D01*
X53449Y-21673D01*
X53387Y-21611D01*
X53314Y-21562D01*
X53233Y-21528D01*
X53147Y-21510D01*
X53059Y-21510D01*
X52979Y-21524D01*
X51692Y-20238D01*
X51696Y-20231D01*
X51714Y-20152D01*
X51715Y-20059D01*
X51699Y-19979D01*
X51668Y-19904D01*
X51623Y-19836D01*
X51567Y-19780D01*
X51726Y-19780D01*
X51907Y-19961D01*
X51902Y-19974D01*
X51886Y-20054D01*
X51884Y-20135D01*
X51899Y-20215D01*
X51929Y-20291D01*
X51973Y-20359D01*
X52030Y-20418D01*
X52097Y-20464D01*
X52171Y-20497D01*
X52251Y-20514D01*
X52332Y-20516D01*
X52412Y-20502D01*
X52488Y-20472D01*
X52557Y-20428D01*
X52616Y-20372D01*
X52663Y-20306D01*
X52696Y-20231D01*
X52714Y-20152D01*
X52715Y-20059D01*
X52699Y-19979D01*
X52668Y-19904D01*
X52623Y-19836D01*
X52566Y-19778D01*
X52498Y-19733D01*
X52423Y-19702D01*
X52343Y-19685D01*
X52262Y-19685D01*
X52182Y-19700D01*
X52162Y-19708D01*
X51933Y-19479D01*
X51929Y-19474D01*
X51927Y-19473D01*
X51902Y-19451D01*
X51900Y-19450D01*
X51871Y-19435D01*
X51870Y-19434D01*
X51869Y-19434D01*
X51835Y-19423D01*
X51809Y-19420D01*
X51803Y-19420D01*
X51801Y-19420D01*
X51800Y-19420D01*
X51002Y-19420D01*
X51000Y-19420D01*
X50965Y-19423D01*
X50931Y-19434D01*
X50900Y-19450D01*
X50879Y-19467D01*
X50874Y-19471D01*
X50873Y-19472D01*
X50872Y-19473D01*
X50679Y-19666D01*
X50674Y-19671D01*
X50651Y-19698D01*
X50635Y-19729D01*
X50634Y-19729D01*
X50634Y-19731D01*
X50623Y-19765D01*
X50620Y-19791D01*
X50620Y-19797D01*
X50620Y-19799D01*
X50620Y-19800D01*
X50620Y-19832D01*
X50566Y-19778D01*
X50498Y-19733D01*
X50423Y-19702D01*
X50343Y-19685D01*
X50262Y-19685D01*
X50182Y-19700D01*
X50107Y-19731D01*
X50038Y-19775D01*
X49980Y-19832D01*
X49934Y-19899D01*
X49902Y-19974D01*
X49886Y-20054D01*
X49884Y-20135D01*
X49899Y-20215D01*
X49929Y-20291D01*
X49973Y-20359D01*
X50030Y-20418D01*
X50097Y-20464D01*
X50120Y-20474D01*
X50120Y-20698D01*
X50120Y-20700D01*
X50123Y-20735D01*
X50132Y-20764D01*
X50133Y-20766D01*
X50134Y-20769D01*
X50145Y-20790D01*
X49661Y-20307D01*
X49663Y-20306D01*
X49696Y-20231D01*
X49714Y-20152D01*
X49715Y-20059D01*
X49699Y-19979D01*
X49668Y-19904D01*
X49623Y-19836D01*
X49566Y-19778D01*
X49498Y-19733D01*
X49423Y-19702D01*
X49343Y-19685D01*
X49262Y-19685D01*
X49182Y-19700D01*
X49107Y-19731D01*
X49038Y-19775D01*
X48980Y-19832D01*
X48934Y-19899D01*
X48902Y-19974D01*
X48886Y-20054D01*
X48884Y-20135D01*
X48899Y-20215D01*
X48929Y-20291D01*
X48973Y-20359D01*
X49030Y-20418D01*
X49097Y-20464D01*
X49171Y-20497D01*
X49251Y-20514D01*
X49332Y-20516D01*
X49357Y-20511D01*
X50420Y-21574D01*
X50420Y-21644D01*
X50387Y-21611D01*
X50314Y-21562D01*
X50233Y-21528D01*
X50147Y-21510D01*
X50059Y-21510D01*
X49973Y-21526D01*
X49896Y-21556D01*
X48871Y-20532D01*
X48870Y-20530D01*
X48854Y-20517D01*
X48836Y-20502D01*
X48795Y-20479D01*
X48750Y-20465D01*
X48703Y-20460D01*
X48701Y-20460D01*
X48700Y-20460D01*
X48506Y-20460D01*
X48557Y-20428D01*
X48616Y-20372D01*
X48663Y-20306D01*
X48696Y-20231D01*
X48714Y-20152D01*
X48715Y-20059D01*
X48699Y-19979D01*
X48668Y-19904D01*
X48623Y-19836D01*
X48566Y-19778D01*
X48498Y-19733D01*
X48423Y-19702D01*
X48343Y-19685D01*
X48262Y-19685D01*
X48182Y-19700D01*
X48107Y-19731D01*
X48038Y-19775D01*
X47980Y-19832D01*
X47934Y-19899D01*
X47902Y-19974D01*
X47886Y-20054D01*
X47884Y-20135D01*
X47899Y-20215D01*
X47929Y-20291D01*
X47973Y-20359D01*
X48030Y-20418D01*
X48091Y-20460D01*
X47699Y-20460D01*
X47746Y-20405D01*
X47796Y-20313D01*
X47828Y-20212D01*
X47840Y-20108D01*
X47840Y-20100D01*
X47840Y-19004D01*
X47840Y-19000D01*
X47830Y-18899D01*
X47830Y-18895D01*
X47812Y-18837D01*
X47801Y-18798D01*
X47799Y-18794D01*
X47791Y-18778D01*
X47752Y-18704D01*
X47750Y-18702D01*
X47750Y-18701D01*
X47722Y-18667D01*
X47686Y-18622D01*
X47684Y-18620D01*
X47683Y-18619D01*
X47644Y-18586D01*
X47605Y-18554D01*
X47603Y-18553D01*
X47602Y-18552D01*
X47538Y-18518D01*
X47513Y-18504D01*
X47512Y-18503D01*
X47509Y-18502D01*
X47412Y-18472D01*
X47409Y-18471D01*
X47347Y-18464D01*
X47308Y-18460D01*
X47304Y-18460D01*
X47300Y-18460D01*
X43304Y-18460D01*
X43300Y-18460D01*
X43195Y-18470D01*
X43137Y-18487D01*
X43098Y-18499D01*
X43094Y-18500D01*
X43094Y-18501D01*
X43078Y-18509D01*
X43004Y-18548D01*
X43002Y-18549D01*
X43001Y-18550D01*
X42967Y-18577D01*
X42922Y-18614D01*
X42920Y-18615D01*
X42919Y-18617D01*
X42886Y-18656D01*
X42854Y-18695D01*
X42853Y-18696D01*
X42852Y-18698D01*
X42818Y-18761D01*
X42804Y-18787D01*
X42803Y-18787D01*
X42802Y-18791D01*
X42771Y-18891D01*
X42764Y-18952D01*
X42760Y-18992D01*
X42760Y-18996D01*
X42760Y-19000D01*
X42760Y-20092D01*
X42760Y-20100D01*
X42760Y-21092D01*
X42760Y-21100D01*
X42760Y-22092D01*
X42760Y-22100D01*
X42760Y-23092D01*
X42760Y-23100D01*
X42760Y-24092D01*
X42760Y-24100D01*
X42760Y-25092D01*
X42760Y-25100D01*
X42760Y-26092D01*
X42760Y-26100D01*
X42760Y-27092D01*
X42760Y-27100D01*
X42760Y-28196D01*
X42760Y-28200D01*
X42770Y-28305D01*
X42787Y-28363D01*
X42799Y-28402D01*
X42800Y-28405D01*
X42801Y-28406D01*
X42809Y-28421D01*
X42848Y-28496D01*
X42849Y-28497D01*
X42850Y-28499D01*
X42877Y-28533D01*
X42914Y-28578D01*
X42915Y-28579D01*
X42917Y-28581D01*
X42956Y-28613D01*
X42995Y-28646D01*
X42996Y-28646D01*
X42998Y-28648D01*
X43061Y-28682D01*
X43087Y-28696D01*
X43091Y-28698D01*
X43188Y-28728D01*
X43191Y-28729D01*
X43252Y-28735D01*
X43292Y-28740D01*
X43296Y-28740D01*
X43300Y-28740D01*
X47296Y-28740D01*
X47300Y-28740D01*
X47401Y-28730D01*
X47405Y-28730D01*
X47463Y-28712D01*
X47502Y-28701D01*
X47505Y-28699D01*
X47506Y-28699D01*
X47521Y-28691D01*
X47596Y-28652D01*
X47597Y-28650D01*
X47599Y-28650D01*
X47633Y-28622D01*
X47678Y-28586D01*
X47679Y-28584D01*
X47681Y-28583D01*
X47713Y-28544D01*
X47746Y-28505D01*
X47746Y-28503D01*
X47748Y-28502D01*
X47782Y-28438D01*
X47796Y-28413D01*
X47796Y-28412D01*
X47798Y-28409D01*
X47828Y-28312D01*
X47829Y-28309D01*
X47835Y-28247D01*
X47840Y-28208D01*
X47840Y-28204D01*
X47840Y-28200D01*
X47840Y-27100D01*
X47830Y-26995D01*
X47799Y-26894D01*
X47750Y-26801D01*
X47700Y-26740D01*
X48092Y-26740D01*
X48038Y-26775D01*
X47980Y-26832D01*
X47934Y-26899D01*
X47902Y-26974D01*
X47886Y-27054D01*
X47884Y-27135D01*
X47899Y-27215D01*
X47929Y-27291D01*
X47973Y-27359D01*
X48030Y-27418D01*
X48097Y-27464D01*
X48171Y-27497D01*
X48251Y-27514D01*
X48332Y-27516D01*
X48412Y-27502D01*
X48488Y-27472D01*
X48557Y-27428D01*
X48616Y-27372D01*
X48663Y-27306D01*
X48696Y-27231D01*
X48714Y-27152D01*
X48715Y-27059D01*
X48699Y-26979D01*
X48668Y-26904D01*
X48623Y-26836D01*
X48566Y-26778D01*
X48508Y-26740D01*
X48698Y-26740D01*
X48700Y-26740D01*
X48708Y-26739D01*
X48744Y-26736D01*
X48747Y-26735D01*
X48789Y-26723D01*
X48791Y-26722D01*
X48831Y-26702D01*
X48833Y-26700D01*
X48868Y-26672D01*
X48869Y-26670D01*
X48870Y-26670D01*
X49896Y-25642D01*
X49967Y-25672D01*
X50053Y-25690D01*
X50141Y-25690D01*
X50227Y-25674D01*
X50309Y-25641D01*
X50382Y-25593D01*
X50445Y-25531D01*
X50495Y-25459D01*
X50529Y-25378D01*
X50547Y-25292D01*
X50549Y-25204D01*
X50548Y-24914D01*
X50531Y-24828D01*
X50499Y-24753D01*
X50653Y-24907D01*
X50653Y-24908D01*
X50651Y-24996D01*
X50652Y-25286D01*
X50669Y-25372D01*
X50699Y-25445D01*
X49437Y-26708D01*
X49423Y-26702D01*
X49343Y-26685D01*
X49262Y-26685D01*
X49182Y-26700D01*
X49107Y-26731D01*
X49038Y-26775D01*
X48980Y-26832D01*
X48934Y-26899D01*
X48902Y-26974D01*
X48886Y-27054D01*
X48884Y-27135D01*
X48899Y-27215D01*
X48929Y-27291D01*
X48973Y-27359D01*
X49030Y-27418D01*
X49097Y-27464D01*
X49171Y-27497D01*
X49251Y-27514D01*
X49332Y-27516D01*
X49412Y-27502D01*
X49488Y-27472D01*
X49557Y-27428D01*
X49616Y-27372D01*
X49663Y-27306D01*
X49696Y-27231D01*
X49714Y-27152D01*
X49715Y-27059D01*
X49699Y-26979D01*
X49692Y-26962D01*
X50980Y-25674D01*
X51053Y-25690D01*
X51141Y-25690D01*
X51227Y-25674D01*
X51309Y-25641D01*
X51382Y-25593D01*
X51420Y-25555D01*
X51420Y-25725D01*
X50437Y-26708D01*
X50423Y-26702D01*
X50343Y-26685D01*
X50262Y-26685D01*
X50182Y-26700D01*
X50107Y-26731D01*
X50038Y-26775D01*
X49980Y-26832D01*
X49934Y-26899D01*
X49902Y-26974D01*
X49886Y-27054D01*
X49884Y-27135D01*
X49899Y-27215D01*
X49929Y-27291D01*
X49973Y-27359D01*
X50030Y-27418D01*
X50097Y-27464D01*
X50171Y-27497D01*
X50251Y-27514D01*
X50332Y-27516D01*
X50412Y-27502D01*
X50488Y-27472D01*
X50557Y-27428D01*
X50616Y-27372D01*
X50663Y-27306D01*
X50696Y-27231D01*
X50714Y-27152D01*
X50715Y-27059D01*
X50699Y-26979D01*
X50692Y-26962D01*
X51725Y-25929D01*
X51726Y-25929D01*
X51726Y-25928D01*
X51727Y-25928D01*
X51749Y-25902D01*
X51750Y-25901D01*
X51765Y-25871D01*
X51766Y-25869D01*
X51771Y-25851D01*
X51776Y-25837D01*
X51776Y-25836D01*
X51780Y-25803D01*
X51780Y-25801D01*
X51780Y-25800D01*
X51780Y-25556D01*
X51813Y-25589D01*
X51886Y-25638D01*
X51920Y-25652D01*
X51920Y-26225D01*
X51437Y-26708D01*
X51423Y-26702D01*
X51343Y-26685D01*
X51262Y-26685D01*
X51182Y-26700D01*
X51107Y-26731D01*
X51038Y-26775D01*
X50980Y-26832D01*
X50934Y-26899D01*
X50902Y-26974D01*
X50886Y-27054D01*
X50884Y-27135D01*
X50899Y-27215D01*
X50929Y-27291D01*
X50973Y-27359D01*
X51030Y-27418D01*
X51097Y-27464D01*
X51171Y-27497D01*
X51251Y-27514D01*
X51332Y-27516D01*
X51412Y-27502D01*
X51488Y-27472D01*
X51557Y-27428D01*
X51616Y-27372D01*
X51663Y-27306D01*
X51696Y-27231D01*
X51714Y-27152D01*
X51715Y-27059D01*
X51699Y-26979D01*
X51692Y-26962D01*
X52120Y-26534D01*
X52120Y-26725D01*
X52107Y-26731D01*
X52038Y-26775D01*
X51980Y-26832D01*
X51934Y-26899D01*
X51902Y-26974D01*
X51886Y-27054D01*
X51884Y-27135D01*
X51899Y-27215D01*
X51929Y-27291D01*
X51973Y-27359D01*
X52030Y-27418D01*
X52097Y-27464D01*
X52171Y-27497D01*
X52251Y-27514D01*
X52332Y-27516D01*
X52412Y-27502D01*
X52488Y-27472D01*
X52557Y-27428D01*
X52616Y-27372D01*
X52663Y-27306D01*
X52696Y-27231D01*
X52714Y-27152D01*
X52715Y-27059D01*
X52699Y-26979D01*
X52668Y-26904D01*
X52623Y-26836D01*
X52566Y-26778D01*
X52498Y-26733D01*
X52480Y-26725D01*
X52480Y-26574D01*
X52720Y-26333D01*
X52726Y-26329D01*
X52727Y-26327D01*
X52746Y-26305D01*
X52749Y-26302D01*
X52750Y-26301D01*
X52765Y-26271D01*
X52766Y-26269D01*
X52776Y-26237D01*
X52777Y-26236D01*
X52779Y-26208D01*
X52780Y-26203D01*
X52780Y-26201D01*
X52780Y-26200D01*
X52780Y-25556D01*
X52813Y-25589D01*
X52886Y-25638D01*
X52967Y-25672D01*
X52968Y-25672D01*
X52971Y-25675D01*
X52972Y-25677D01*
X52973Y-25677D01*
X52977Y-25681D01*
X53320Y-26025D01*
X53321Y-26026D01*
X53322Y-26027D01*
X53326Y-26030D01*
X53348Y-26049D01*
X53349Y-26049D01*
X53379Y-26065D01*
X53381Y-26065D01*
X53413Y-26076D01*
X53414Y-26076D01*
X53447Y-26080D01*
X53449Y-26080D01*
X53450Y-26080D01*
X55032Y-26080D01*
X55032Y-26209D01*
X55037Y-26236D01*
X55048Y-26261D01*
X55063Y-26284D01*
X55082Y-26303D01*
X55105Y-26318D01*
X55130Y-26329D01*
X55157Y-26334D01*
X55184Y-26334D01*
X55695Y-26334D01*
X55722Y-26329D01*
X55747Y-26318D01*
X55770Y-26303D01*
X55789Y-26284D01*
X55800Y-26267D01*
X55811Y-26284D01*
X55830Y-26303D01*
X55853Y-26318D01*
X55878Y-26329D01*
X55905Y-26334D01*
X55932Y-26334D01*
X56443Y-26334D01*
X56470Y-26329D01*
X56495Y-26318D01*
X56518Y-26303D01*
X56537Y-26284D01*
X56552Y-26261D01*
X56563Y-26236D01*
X56568Y-26209D01*
X56568Y-26182D01*
X56568Y-25591D01*
X56563Y-25564D01*
X56552Y-25539D01*
X56537Y-25516D01*
X56518Y-25497D01*
X56495Y-25482D01*
X56470Y-25471D01*
X56443Y-25466D01*
X56416Y-25466D01*
X56354Y-25466D01*
X56354Y-24300D01*
X57620Y-23034D01*
X57669Y-23026D01*
X57749Y-22995D01*
X57822Y-22948D01*
X57885Y-22889D01*
X57934Y-22818D01*
X57969Y-22740D01*
X57989Y-22656D01*
X57990Y-22557D01*
X57990Y-24557D01*
X57973Y-24472D01*
X57940Y-24393D01*
X57893Y-24321D01*
X57832Y-24259D01*
X57760Y-24211D01*
X57681Y-24178D01*
X57596Y-24160D01*
X57510Y-24160D01*
X57425Y-24176D01*
X57345Y-24208D01*
X57273Y-24255D01*
X57211Y-24316D01*
X57163Y-24387D01*
X57129Y-24466D01*
X57111Y-24551D01*
X57109Y-24637D01*
X57125Y-24722D01*
X57157Y-24802D01*
X57203Y-24874D01*
X57263Y-24937D01*
X57310Y-24969D01*
X57310Y-25850D01*
X56353Y-26807D01*
X56023Y-26807D01*
X55996Y-26812D01*
X55971Y-26823D01*
X55948Y-26838D01*
X55929Y-26857D01*
X55914Y-26880D01*
X55903Y-26905D01*
X55898Y-26932D01*
X55898Y-26959D01*
X55898Y-27668D01*
X55903Y-27695D01*
X55914Y-27720D01*
X55929Y-27743D01*
X55934Y-27748D01*
X55934Y-27966D01*
X55905Y-27966D01*
X55878Y-27971D01*
X55853Y-27982D01*
X55830Y-27997D01*
X55811Y-28016D01*
X55800Y-28032D01*
X55789Y-28016D01*
X55770Y-27997D01*
X55747Y-27982D01*
X55722Y-27971D01*
X55695Y-27966D01*
X55668Y-27966D01*
X55489Y-27966D01*
X55489Y-27793D01*
X55577Y-27793D01*
X55604Y-27788D01*
X55629Y-27777D01*
X55652Y-27762D01*
X55671Y-27743D01*
X55686Y-27720D01*
X55697Y-27695D01*
X55702Y-27668D01*
X55702Y-27641D01*
X55702Y-26932D01*
X55697Y-26905D01*
X55686Y-26880D01*
X55671Y-26857D01*
X55652Y-26838D01*
X55629Y-26823D01*
X55604Y-26812D01*
X55577Y-26807D01*
X55550Y-26807D01*
X54921Y-26807D01*
X54894Y-26812D01*
X54869Y-26823D01*
X54846Y-26838D01*
X54827Y-26857D01*
X54825Y-26860D01*
X53714Y-26860D01*
X53714Y-26811D01*
X53709Y-26784D01*
X53698Y-26759D01*
X53683Y-26736D01*
X53664Y-26717D01*
X53641Y-26702D01*
X53616Y-26691D01*
X53589Y-26686D01*
X53562Y-26686D01*
X53011Y-26686D01*
X52984Y-26691D01*
X52959Y-26702D01*
X52936Y-26717D01*
X52917Y-26736D01*
X52902Y-26759D01*
X52891Y-26784D01*
X52886Y-26811D01*
X52886Y-26838D01*
X52886Y-27389D01*
X52891Y-27416D01*
X52902Y-27441D01*
X52917Y-27464D01*
X52936Y-27483D01*
X52959Y-27498D01*
X52984Y-27509D01*
X53011Y-27514D01*
X53038Y-27514D01*
X53589Y-27514D01*
X53616Y-27509D01*
X53641Y-27498D01*
X53664Y-27483D01*
X53683Y-27464D01*
X53698Y-27441D01*
X53709Y-27416D01*
X53714Y-27389D01*
X53714Y-27362D01*
X53714Y-27340D01*
X54796Y-27340D01*
X54796Y-27668D01*
X54801Y-27695D01*
X54812Y-27720D01*
X54827Y-27743D01*
X54846Y-27762D01*
X54869Y-27777D01*
X54894Y-27788D01*
X54921Y-27793D01*
X54948Y-27793D01*
X55009Y-27793D01*
X55009Y-28221D01*
X55009Y-28223D01*
X55009Y-28231D01*
X55013Y-28267D01*
X55014Y-28270D01*
X55026Y-28312D01*
X55027Y-28314D01*
X55032Y-28324D01*
X55032Y-28709D01*
X55037Y-28736D01*
X55048Y-28761D01*
X55063Y-28784D01*
X55082Y-28803D01*
X55105Y-28818D01*
X55130Y-28829D01*
X55157Y-28834D01*
X55184Y-28834D01*
X55695Y-28834D01*
X55722Y-28829D01*
X55747Y-28818D01*
X55770Y-28803D01*
X55789Y-28784D01*
X55800Y-28767D01*
X55811Y-28784D01*
X55830Y-28803D01*
X55853Y-28818D01*
X55878Y-28829D01*
X55905Y-28834D01*
X55932Y-28834D01*
X56443Y-28834D01*
X56470Y-28829D01*
X56495Y-28818D01*
X56518Y-28803D01*
X56537Y-28784D01*
X56552Y-28761D01*
X56563Y-28736D01*
X56568Y-28709D01*
X56568Y-28682D01*
X56568Y-28091D01*
X56563Y-28064D01*
X56552Y-28039D01*
X56537Y-28016D01*
X56518Y-27997D01*
X56495Y-27982D01*
X56470Y-27971D01*
X56443Y-27966D01*
X56416Y-27966D01*
X56414Y-27966D01*
X56414Y-27793D01*
X56679Y-27793D01*
X56706Y-27788D01*
X56731Y-27777D01*
X56754Y-27762D01*
X56773Y-27743D01*
X56788Y-27720D01*
X56799Y-27695D01*
X56804Y-27668D01*
X56804Y-27641D01*
X56804Y-27035D01*
X57718Y-26121D01*
X57719Y-26120D01*
X57721Y-26116D01*
X57748Y-26086D01*
X57749Y-26083D01*
X57771Y-26045D01*
X57771Y-26043D01*
X57785Y-26000D01*
X57785Y-25998D01*
X57790Y-25953D01*
X57790Y-25950D01*
X57790Y-24968D01*
X57822Y-24948D01*
X57885Y-24889D01*
X57934Y-24818D01*
X57969Y-24740D01*
X57989Y-24656D01*
X57990Y-24557D01*
X57990Y-29560D01*
X41940Y-29560D01*
X41940Y-17640D01*
X58260Y-17640D01*
X58260Y-29560D01*
M02*
