G04 (created by PCBNEW-RS274X (2011-07-08)-stable) date Sun 23 Oct 2011 07:01:02 PM CEST*
G01*
G70*
G90*
%MOIN*%
G04 Gerber Fmt 3.4, Leading zero omitted, Abs format*
%FSLAX34Y34*%
G04 APERTURE LIST*
%ADD10C,0.006000*%
%ADD11C,0.015000*%
%ADD12C,0.012000*%
%ADD13C,0.000100*%
%ADD14C,0.008000*%
%ADD15R,0.055000X0.055000*%
%ADD16C,0.055000*%
%ADD17R,0.040000X0.040000*%
%ADD18C,0.060000*%
%ADD19R,0.062000X0.090000*%
%ADD20O,0.062000X0.090000*%
G04 APERTURE END LIST*
G54D10*
G54D11*
X58500Y-29800D02*
X41700Y-29800D01*
X41700Y-17400D02*
X58500Y-17400D01*
X58500Y-29800D02*
X58500Y-17400D01*
G54D12*
X42675Y-29506D02*
X42701Y-29480D01*
X42727Y-29428D01*
X42727Y-29297D01*
X42701Y-29244D01*
X42675Y-29218D01*
X42623Y-29192D01*
X42570Y-29192D01*
X42492Y-29218D01*
X42177Y-29532D01*
X42177Y-29192D01*
X42727Y-28851D02*
X42727Y-28799D01*
X42701Y-28747D01*
X42675Y-28720D01*
X42623Y-28694D01*
X42518Y-28668D01*
X42387Y-28668D01*
X42282Y-28694D01*
X42230Y-28720D01*
X42204Y-28747D01*
X42177Y-28799D01*
X42177Y-28851D01*
X42204Y-28904D01*
X42230Y-28930D01*
X42282Y-28956D01*
X42387Y-28982D01*
X42518Y-28982D01*
X42623Y-28956D01*
X42675Y-28930D01*
X42701Y-28904D01*
X42727Y-28851D01*
X42177Y-28144D02*
X42177Y-28458D01*
X42177Y-28301D02*
X42727Y-28301D01*
X42649Y-28353D01*
X42596Y-28406D01*
X42570Y-28458D01*
X42177Y-27620D02*
X42177Y-27934D01*
X42177Y-27777D02*
X42727Y-27777D01*
X42649Y-27829D01*
X42596Y-27882D01*
X42570Y-27934D01*
X42387Y-26965D02*
X42387Y-26546D01*
X42177Y-25865D02*
X42727Y-25865D01*
X42518Y-25865D02*
X42544Y-25813D01*
X42544Y-25708D01*
X42518Y-25656D01*
X42492Y-25629D01*
X42439Y-25603D01*
X42282Y-25603D01*
X42230Y-25629D01*
X42204Y-25656D01*
X42177Y-25708D01*
X42177Y-25813D01*
X42204Y-25865D01*
X42177Y-25288D02*
X42204Y-25341D01*
X42256Y-25367D01*
X42727Y-25367D01*
X42177Y-25000D02*
X42204Y-25053D01*
X42230Y-25079D01*
X42282Y-25105D01*
X42439Y-25105D01*
X42492Y-25079D01*
X42518Y-25053D01*
X42544Y-25000D01*
X42544Y-24922D01*
X42518Y-24870D01*
X42492Y-24843D01*
X42439Y-24817D01*
X42282Y-24817D01*
X42230Y-24843D01*
X42204Y-24870D01*
X42177Y-24922D01*
X42177Y-25000D01*
X42544Y-24345D02*
X42099Y-24345D01*
X42046Y-24372D01*
X42020Y-24398D01*
X41994Y-24450D01*
X41994Y-24529D01*
X42020Y-24581D01*
X42204Y-24345D02*
X42177Y-24398D01*
X42177Y-24502D01*
X42204Y-24555D01*
X42230Y-24581D01*
X42282Y-24607D01*
X42439Y-24607D01*
X42492Y-24581D01*
X42518Y-24555D01*
X42544Y-24502D01*
X42544Y-24398D01*
X42518Y-24345D01*
X42230Y-24083D02*
X42204Y-24057D01*
X42177Y-24083D01*
X42204Y-24109D01*
X42230Y-24083D01*
X42177Y-24083D01*
X42204Y-23847D02*
X42177Y-23795D01*
X42177Y-23690D01*
X42204Y-23638D01*
X42256Y-23612D01*
X42282Y-23612D01*
X42335Y-23638D01*
X42361Y-23690D01*
X42361Y-23769D01*
X42387Y-23821D01*
X42439Y-23847D01*
X42465Y-23847D01*
X42518Y-23821D01*
X42544Y-23769D01*
X42544Y-23690D01*
X42518Y-23638D01*
X42544Y-23376D02*
X41994Y-23376D01*
X42518Y-23376D02*
X42544Y-23324D01*
X42544Y-23219D01*
X42518Y-23167D01*
X42492Y-23140D01*
X42439Y-23114D01*
X42282Y-23114D01*
X42230Y-23140D01*
X42204Y-23167D01*
X42177Y-23219D01*
X42177Y-23324D01*
X42204Y-23376D01*
X42177Y-22878D02*
X42544Y-22878D01*
X42727Y-22878D02*
X42701Y-22904D01*
X42675Y-22878D01*
X42701Y-22852D01*
X42727Y-22878D01*
X42675Y-22878D01*
X42544Y-22695D02*
X42544Y-22485D01*
X42727Y-22616D02*
X42256Y-22616D01*
X42204Y-22590D01*
X42177Y-22537D01*
X42177Y-22485D01*
X42544Y-22354D02*
X42544Y-22066D01*
X42177Y-22354D01*
X42177Y-22066D01*
X42204Y-21648D02*
X42177Y-21700D01*
X42177Y-21805D01*
X42204Y-21857D01*
X42256Y-21883D01*
X42465Y-21883D01*
X42518Y-21857D01*
X42544Y-21805D01*
X42544Y-21700D01*
X42518Y-21648D01*
X42465Y-21621D01*
X42413Y-21621D01*
X42361Y-21883D01*
X42544Y-21386D02*
X42177Y-21386D01*
X42492Y-21386D02*
X42518Y-21360D01*
X42544Y-21307D01*
X42544Y-21229D01*
X42518Y-21177D01*
X42465Y-21150D01*
X42177Y-21150D01*
X42544Y-20888D02*
X41994Y-20888D01*
X42518Y-20888D02*
X42544Y-20836D01*
X42544Y-20731D01*
X42518Y-20679D01*
X42492Y-20652D01*
X42439Y-20626D01*
X42282Y-20626D01*
X42230Y-20652D01*
X42204Y-20679D01*
X42177Y-20731D01*
X42177Y-20836D01*
X42204Y-20888D01*
X42544Y-20469D02*
X42544Y-20259D01*
X42177Y-20390D02*
X42649Y-20390D01*
X42701Y-20364D01*
X42727Y-20311D01*
X42727Y-20259D01*
X42204Y-19867D02*
X42177Y-19919D01*
X42177Y-20024D01*
X42204Y-20076D01*
X42256Y-20102D01*
X42465Y-20102D01*
X42518Y-20076D01*
X42544Y-20024D01*
X42544Y-19919D01*
X42518Y-19867D01*
X42465Y-19840D01*
X42413Y-19840D01*
X42361Y-20102D01*
X42177Y-19605D02*
X42544Y-19605D01*
X42727Y-19605D02*
X42701Y-19631D01*
X42675Y-19605D01*
X42701Y-19579D01*
X42727Y-19605D01*
X42675Y-19605D01*
X42177Y-19264D02*
X42204Y-19317D01*
X42256Y-19343D01*
X42727Y-19343D01*
X42230Y-19055D02*
X42204Y-19029D01*
X42177Y-19055D01*
X42204Y-19081D01*
X42230Y-19055D01*
X42177Y-19055D01*
X42177Y-18714D02*
X42204Y-18767D01*
X42230Y-18793D01*
X42282Y-18819D01*
X42439Y-18819D01*
X42492Y-18793D01*
X42518Y-18767D01*
X42544Y-18714D01*
X42544Y-18636D01*
X42518Y-18584D01*
X42492Y-18557D01*
X42439Y-18531D01*
X42282Y-18531D01*
X42230Y-18557D01*
X42204Y-18584D01*
X42177Y-18636D01*
X42177Y-18714D01*
X42177Y-18295D02*
X42544Y-18295D01*
X42439Y-18295D02*
X42492Y-18269D01*
X42518Y-18243D01*
X42544Y-18190D01*
X42544Y-18138D01*
X42544Y-17719D02*
X42099Y-17719D01*
X42046Y-17746D01*
X42020Y-17772D01*
X41994Y-17824D01*
X41994Y-17903D01*
X42020Y-17955D01*
X42204Y-17719D02*
X42177Y-17772D01*
X42177Y-17876D01*
X42204Y-17929D01*
X42230Y-17955D01*
X42282Y-17981D01*
X42439Y-17981D01*
X42492Y-17955D01*
X42518Y-17929D01*
X42544Y-17876D01*
X42544Y-17772D01*
X42518Y-17719D01*
G54D11*
X41700Y-17400D02*
X41700Y-29800D01*
G54D13*
G36*
X44317Y-28824D02*
X44321Y-28852D01*
X44330Y-28879D01*
X44336Y-28890D01*
X44352Y-28914D01*
X44373Y-28933D01*
X44397Y-28947D01*
X44422Y-28957D01*
X44450Y-28961D01*
X44477Y-28960D01*
X44505Y-28953D01*
X44531Y-28941D01*
X44543Y-28933D01*
X44556Y-28921D01*
X44568Y-28908D01*
X44577Y-28896D01*
X44579Y-28892D01*
X44590Y-28868D01*
X44596Y-28843D01*
X44597Y-28815D01*
X44597Y-28806D01*
X44595Y-28790D01*
X44591Y-28776D01*
X44585Y-28762D01*
X44576Y-28746D01*
X44558Y-28723D01*
X44536Y-28704D01*
X44510Y-28690D01*
X44498Y-28686D01*
X44484Y-28683D01*
X44473Y-28681D01*
X44472Y-28681D01*
X44471Y-28680D01*
X44477Y-28679D01*
X44478Y-28679D01*
X44496Y-28675D01*
X44515Y-28668D01*
X44531Y-28660D01*
X44552Y-28644D01*
X44571Y-28623D01*
X44586Y-28598D01*
X44595Y-28570D01*
X44598Y-28541D01*
X44598Y-28533D01*
X44595Y-28511D01*
X44589Y-28490D01*
X44587Y-28485D01*
X44574Y-28462D01*
X44557Y-28441D01*
X44536Y-28423D01*
X44512Y-28410D01*
X44487Y-28403D01*
X44486Y-28402D01*
X44479Y-28401D01*
X44476Y-28400D01*
X44476Y-28400D01*
X44480Y-28399D01*
X44487Y-28397D01*
X44490Y-28397D01*
X44514Y-28389D01*
X44538Y-28375D01*
X44559Y-28357D01*
X44573Y-28340D01*
X44587Y-28316D01*
X44595Y-28289D01*
X44598Y-28259D01*
X44596Y-28238D01*
X44589Y-28210D01*
X44577Y-28185D01*
X44559Y-28162D01*
X44536Y-28144D01*
X44533Y-28142D01*
X44523Y-28135D01*
X44514Y-28131D01*
X44507Y-28129D01*
X44495Y-28125D01*
X44483Y-28122D01*
X44473Y-28120D01*
X44472Y-28120D01*
X44472Y-28120D01*
X44478Y-28119D01*
X44493Y-28115D01*
X44512Y-28108D01*
X44529Y-28100D01*
X44552Y-28083D01*
X44571Y-28062D01*
X44586Y-28037D01*
X44595Y-28009D01*
X44598Y-27980D01*
X44596Y-27954D01*
X44588Y-27926D01*
X44575Y-27901D01*
X44555Y-27879D01*
X44543Y-27868D01*
X44527Y-27857D01*
X44510Y-27849D01*
X44495Y-27844D01*
X44467Y-27839D01*
X44439Y-27840D01*
X44413Y-27846D01*
X44389Y-27857D01*
X44367Y-27872D01*
X44348Y-27891D01*
X44333Y-27914D01*
X44323Y-27940D01*
X44318Y-27968D01*
X44318Y-27971D01*
X44319Y-28000D01*
X44325Y-28026D01*
X44338Y-28052D01*
X44344Y-28061D01*
X44360Y-28080D01*
X44380Y-28096D01*
X44401Y-28108D01*
X44409Y-28111D01*
X44421Y-28115D01*
X44433Y-28118D01*
X44443Y-28119D01*
X44448Y-28119D01*
X44443Y-28120D01*
X44439Y-28121D01*
X44426Y-28123D01*
X44412Y-28127D01*
X44400Y-28132D01*
X44387Y-28138D01*
X44364Y-28156D01*
X44345Y-28177D01*
X44330Y-28202D01*
X44320Y-28230D01*
X44319Y-28235D01*
X44318Y-28254D01*
X44318Y-28274D01*
X44321Y-28293D01*
X44327Y-28311D01*
X44341Y-28338D01*
X44360Y-28361D01*
X44361Y-28362D01*
X44382Y-28378D01*
X44405Y-28390D01*
X44429Y-28398D01*
X44430Y-28398D01*
X44437Y-28399D01*
X44439Y-28400D01*
X44437Y-28401D01*
X44431Y-28402D01*
X44429Y-28402D01*
X44415Y-28406D01*
X44399Y-28412D01*
X44384Y-28420D01*
X44367Y-28433D01*
X44347Y-28454D01*
X44331Y-28479D01*
X44321Y-28507D01*
X44320Y-28512D01*
X44318Y-28531D01*
X44318Y-28551D01*
X44320Y-28569D01*
X44325Y-28585D01*
X44337Y-28611D01*
X44354Y-28634D01*
X44375Y-28654D01*
X44400Y-28668D01*
X44408Y-28671D01*
X44421Y-28675D01*
X44433Y-28678D01*
X44443Y-28680D01*
X44444Y-28680D01*
X44444Y-28680D01*
X44439Y-28681D01*
X44438Y-28681D01*
X44420Y-28686D01*
X44401Y-28693D01*
X44385Y-28701D01*
X44379Y-28705D01*
X44358Y-28723D01*
X44340Y-28745D01*
X44327Y-28769D01*
X44320Y-28796D01*
X44317Y-28824D01*
X44317Y-28824D01*
G37*
G36*
X44598Y-27689D02*
X44599Y-27706D01*
X44600Y-27723D01*
X44605Y-27741D01*
X44617Y-27768D01*
X44633Y-27791D01*
X44654Y-27811D01*
X44679Y-27825D01*
X44705Y-27835D01*
X44734Y-27839D01*
X44762Y-27837D01*
X44789Y-27829D01*
X44814Y-27817D01*
X44837Y-27799D01*
X44855Y-27776D01*
X44860Y-27769D01*
X44872Y-27742D01*
X44879Y-27714D01*
X44879Y-27685D01*
X44873Y-27656D01*
X44863Y-27633D01*
X44847Y-27609D01*
X44826Y-27588D01*
X44801Y-27572D01*
X44773Y-27562D01*
X44759Y-27559D01*
X44741Y-27558D01*
X44723Y-27559D01*
X44708Y-27561D01*
X44702Y-27562D01*
X44674Y-27573D01*
X44649Y-27590D01*
X44629Y-27611D01*
X44612Y-27637D01*
X44607Y-27649D01*
X44602Y-27665D01*
X44599Y-27680D01*
X44598Y-27689D01*
X44598Y-27689D01*
G37*
G36*
X44598Y-29105D02*
X44602Y-29134D01*
X44612Y-29162D01*
X44628Y-29188D01*
X44632Y-29193D01*
X44652Y-29213D01*
X44677Y-29228D01*
X44704Y-29238D01*
X44719Y-29241D01*
X44737Y-29242D01*
X44755Y-29241D01*
X44770Y-29239D01*
X44776Y-29237D01*
X44804Y-29226D01*
X44828Y-29210D01*
X44848Y-29190D01*
X44864Y-29166D01*
X44874Y-29139D01*
X44879Y-29109D01*
X44879Y-29099D01*
X44876Y-29070D01*
X44867Y-29044D01*
X44853Y-29020D01*
X44835Y-29000D01*
X44813Y-28983D01*
X44789Y-28971D01*
X44762Y-28963D01*
X44732Y-28962D01*
X44715Y-28963D01*
X44700Y-28967D01*
X44683Y-28973D01*
X44662Y-28984D01*
X44640Y-29002D01*
X44622Y-29024D01*
X44608Y-29049D01*
X44600Y-29076D01*
X44598Y-29105D01*
X44598Y-29105D01*
G37*
G36*
X44880Y-27410D02*
X44880Y-27429D01*
X44882Y-27447D01*
X44888Y-27467D01*
X44901Y-27493D01*
X44920Y-27516D01*
X44938Y-27531D01*
X44962Y-27546D01*
X44989Y-27555D01*
X45001Y-27557D01*
X45017Y-27558D01*
X45034Y-27557D01*
X45049Y-27555D01*
X45057Y-27553D01*
X45085Y-27542D01*
X45109Y-27526D01*
X45130Y-27505D01*
X45145Y-27479D01*
X45150Y-27470D01*
X45156Y-27452D01*
X45159Y-27434D01*
X45159Y-27412D01*
X45158Y-27399D01*
X45156Y-27384D01*
X45152Y-27370D01*
X45145Y-27355D01*
X45141Y-27346D01*
X45123Y-27322D01*
X45101Y-27303D01*
X45076Y-27288D01*
X45047Y-27279D01*
X45041Y-27278D01*
X45024Y-27277D01*
X45007Y-27278D01*
X44992Y-27279D01*
X44982Y-27282D01*
X44954Y-27293D01*
X44930Y-27309D01*
X44910Y-27329D01*
X44894Y-27354D01*
X44883Y-27383D01*
X44882Y-27391D01*
X44880Y-27410D01*
X44880Y-27410D01*
G37*
G36*
X44879Y-28536D02*
X44881Y-28565D01*
X44889Y-28591D01*
X44896Y-28607D01*
X44913Y-28631D01*
X44934Y-28651D01*
X44958Y-28666D01*
X44986Y-28676D01*
X44991Y-28677D01*
X45014Y-28681D01*
X45036Y-28680D01*
X45060Y-28674D01*
X45088Y-28663D01*
X45111Y-28646D01*
X45131Y-28625D01*
X45146Y-28600D01*
X45156Y-28572D01*
X45161Y-28554D01*
X45162Y-28563D01*
X45162Y-28566D01*
X45168Y-28586D01*
X45177Y-28607D01*
X45190Y-28626D01*
X45192Y-28629D01*
X45213Y-28650D01*
X45236Y-28665D01*
X45262Y-28675D01*
X45290Y-28680D01*
X45317Y-28679D01*
X45345Y-28673D01*
X45371Y-28661D01*
X45372Y-28660D01*
X45395Y-28643D01*
X45414Y-28622D01*
X45427Y-28598D01*
X45436Y-28572D01*
X45440Y-28545D01*
X45438Y-28518D01*
X45431Y-28492D01*
X45419Y-28466D01*
X45402Y-28443D01*
X45388Y-28431D01*
X45368Y-28417D01*
X45346Y-28407D01*
X45325Y-28402D01*
X45320Y-28401D01*
X45317Y-28400D01*
X45319Y-28399D01*
X45325Y-28398D01*
X45344Y-28394D01*
X45364Y-28385D01*
X45383Y-28373D01*
X45392Y-28366D01*
X45411Y-28345D01*
X45426Y-28321D01*
X45436Y-28294D01*
X45440Y-28265D01*
X45438Y-28236D01*
X45434Y-28219D01*
X45422Y-28192D01*
X45406Y-28169D01*
X45385Y-28149D01*
X45361Y-28134D01*
X45333Y-28124D01*
X45319Y-28121D01*
X45291Y-28120D01*
X45263Y-28125D01*
X45236Y-28135D01*
X45213Y-28151D01*
X45192Y-28171D01*
X45176Y-28196D01*
X45171Y-28207D01*
X45166Y-28220D01*
X45163Y-28232D01*
X45161Y-28241D01*
X45161Y-28242D01*
X45160Y-28242D01*
X45159Y-28236D01*
X45155Y-28222D01*
X45148Y-28203D01*
X45140Y-28187D01*
X45134Y-28178D01*
X45117Y-28160D01*
X45097Y-28143D01*
X45076Y-28131D01*
X45053Y-28124D01*
X45028Y-28120D01*
X45003Y-28120D01*
X44998Y-28121D01*
X44969Y-28129D01*
X44944Y-28142D01*
X44920Y-28161D01*
X44907Y-28177D01*
X44891Y-28202D01*
X44882Y-28230D01*
X44881Y-28241D01*
X44880Y-28256D01*
X44881Y-28272D01*
X44882Y-28287D01*
X44884Y-28298D01*
X44887Y-28307D01*
X44901Y-28335D01*
X44919Y-28358D01*
X44942Y-28377D01*
X44953Y-28384D01*
X44972Y-28392D01*
X44990Y-28398D01*
X44992Y-28398D01*
X44998Y-28399D01*
X45001Y-28400D01*
X45001Y-28400D01*
X45038Y-28400D01*
X45038Y-28400D01*
X45042Y-28399D01*
X45049Y-28398D01*
X45051Y-28397D01*
X45076Y-28389D01*
X45099Y-28375D01*
X45120Y-28357D01*
X45138Y-28336D01*
X45150Y-28312D01*
X45151Y-28311D01*
X45155Y-28298D01*
X45158Y-28287D01*
X45160Y-28274D01*
X45162Y-28286D01*
X45166Y-28303D01*
X45178Y-28328D01*
X45194Y-28351D01*
X45214Y-28370D01*
X45236Y-28385D01*
X45248Y-28391D01*
X45263Y-28396D01*
X45275Y-28398D01*
X45280Y-28399D01*
X45283Y-28400D01*
X45281Y-28401D01*
X45275Y-28402D01*
X45264Y-28404D01*
X45250Y-28409D01*
X45236Y-28415D01*
X45222Y-28423D01*
X45201Y-28441D01*
X45183Y-28463D01*
X45170Y-28488D01*
X45162Y-28514D01*
X45160Y-28527D01*
X45158Y-28514D01*
X45157Y-28512D01*
X45154Y-28500D01*
X45150Y-28488D01*
X45149Y-28485D01*
X45136Y-28462D01*
X45119Y-28441D01*
X45097Y-28423D01*
X45074Y-28410D01*
X45049Y-28403D01*
X45048Y-28402D01*
X45041Y-28401D01*
X45038Y-28400D01*
X45001Y-28400D01*
X45001Y-28400D01*
X44998Y-28401D01*
X44990Y-28402D01*
X44972Y-28407D01*
X44947Y-28419D01*
X44925Y-28436D01*
X44906Y-28457D01*
X44892Y-28482D01*
X44892Y-28482D01*
X44883Y-28508D01*
X44879Y-28536D01*
X44879Y-28536D01*
G37*
G36*
X44880Y-29372D02*
X44880Y-29395D01*
X44883Y-29416D01*
X44887Y-29429D01*
X44900Y-29456D01*
X44917Y-29479D01*
X44938Y-29497D01*
X44963Y-29511D01*
X44990Y-29520D01*
X45020Y-29523D01*
X45031Y-29523D01*
X45060Y-29517D01*
X45087Y-29506D01*
X45112Y-29489D01*
X45118Y-29484D01*
X45134Y-29464D01*
X45148Y-29440D01*
X45156Y-29415D01*
X45156Y-29415D01*
X45159Y-29394D01*
X45159Y-29371D01*
X45156Y-29350D01*
X45154Y-29342D01*
X45143Y-29316D01*
X45127Y-29292D01*
X45108Y-29273D01*
X45085Y-29258D01*
X45059Y-29248D01*
X45032Y-29243D01*
X45004Y-29243D01*
X44975Y-29249D01*
X44954Y-29259D01*
X44930Y-29275D01*
X44909Y-29296D01*
X44894Y-29320D01*
X44884Y-29347D01*
X44883Y-29351D01*
X44880Y-29372D01*
X44880Y-29372D01*
G37*
G36*
X45721Y-27984D02*
X45724Y-28011D01*
X45734Y-28038D01*
X45740Y-28051D01*
X45749Y-28064D01*
X45761Y-28077D01*
X45777Y-28091D01*
X45800Y-28106D01*
X45828Y-28116D01*
X45835Y-28117D01*
X45854Y-28119D01*
X45874Y-28119D01*
X45891Y-28117D01*
X45914Y-28109D01*
X45939Y-28096D01*
X45960Y-28079D01*
X45963Y-28076D01*
X45973Y-28063D01*
X45983Y-28048D01*
X45991Y-28034D01*
X45993Y-28029D01*
X45996Y-28018D01*
X45999Y-28006D01*
X46001Y-27998D01*
X46001Y-27993D01*
X46002Y-27998D01*
X46004Y-28005D01*
X46006Y-28014D01*
X46009Y-28024D01*
X46019Y-28045D01*
X46032Y-28066D01*
X46047Y-28083D01*
X46050Y-28085D01*
X46074Y-28102D01*
X46101Y-28114D01*
X46129Y-28119D01*
X46157Y-28119D01*
X46164Y-28118D01*
X46193Y-28110D01*
X46218Y-28097D01*
X46241Y-28078D01*
X46256Y-28061D01*
X46271Y-28037D01*
X46280Y-28009D01*
X46281Y-28004D01*
X46282Y-27985D01*
X46282Y-27965D01*
X46279Y-27947D01*
X46274Y-27931D01*
X46262Y-27905D01*
X46244Y-27883D01*
X46223Y-27864D01*
X46199Y-27850D01*
X46172Y-27842D01*
X46168Y-27841D01*
X46162Y-27839D01*
X46159Y-27838D01*
X46162Y-27837D01*
X46168Y-27837D01*
X46180Y-27834D01*
X46192Y-27829D01*
X46204Y-27824D01*
X46212Y-27820D01*
X46236Y-27803D01*
X46256Y-27781D01*
X46270Y-27757D01*
X46279Y-27729D01*
X46282Y-27699D01*
X46281Y-27676D01*
X46274Y-27649D01*
X46262Y-27624D01*
X46252Y-27610D01*
X46231Y-27590D01*
X46208Y-27574D01*
X46182Y-27563D01*
X46154Y-27558D01*
X46126Y-27559D01*
X46100Y-27565D01*
X46073Y-27576D01*
X46049Y-27593D01*
X46030Y-27614D01*
X46015Y-27640D01*
X46005Y-27669D01*
X46001Y-27684D01*
X46000Y-27675D01*
X45999Y-27669D01*
X45992Y-27647D01*
X45981Y-27625D01*
X45966Y-27604D01*
X45948Y-27588D01*
X45934Y-27578D01*
X45914Y-27568D01*
X45896Y-27562D01*
X45881Y-27559D01*
X45863Y-27558D01*
X45845Y-27559D01*
X45830Y-27561D01*
X45814Y-27566D01*
X45787Y-27579D01*
X45764Y-27597D01*
X45745Y-27619D01*
X45731Y-27645D01*
X45723Y-27675D01*
X45722Y-27682D01*
X45721Y-27699D01*
X45722Y-27717D01*
X45725Y-27733D01*
X45729Y-27745D01*
X45741Y-27771D01*
X45759Y-27794D01*
X45780Y-27813D01*
X45805Y-27827D01*
X45833Y-27836D01*
X45836Y-27837D01*
X45842Y-27838D01*
X45841Y-27839D01*
X45880Y-27839D01*
X45881Y-27838D01*
X45887Y-27836D01*
X45888Y-27836D01*
X45907Y-27831D01*
X45927Y-27822D01*
X45945Y-27811D01*
X45955Y-27802D01*
X45975Y-27781D01*
X45990Y-27755D01*
X45999Y-27727D01*
X46002Y-27713D01*
X46004Y-27723D01*
X46005Y-27731D01*
X46008Y-27740D01*
X46010Y-27746D01*
X46022Y-27771D01*
X46040Y-27794D01*
X46061Y-27813D01*
X46086Y-27827D01*
X46112Y-27836D01*
X46119Y-27837D01*
X46123Y-27839D01*
X46121Y-27840D01*
X46112Y-27842D01*
X46111Y-27842D01*
X46096Y-27846D01*
X46080Y-27853D01*
X46065Y-27862D01*
X46056Y-27869D01*
X46042Y-27882D01*
X46029Y-27896D01*
X46020Y-27909D01*
X46020Y-27910D01*
X46010Y-27932D01*
X46003Y-27955D01*
X46001Y-27964D01*
X46000Y-27953D01*
X45992Y-27928D01*
X45979Y-27903D01*
X45962Y-27881D01*
X45941Y-27863D01*
X45933Y-27858D01*
X45920Y-27852D01*
X45906Y-27846D01*
X45893Y-27842D01*
X45883Y-27840D01*
X45883Y-27840D01*
X45880Y-27839D01*
X45841Y-27839D01*
X45841Y-27840D01*
X45835Y-27841D01*
X45827Y-27843D01*
X45818Y-27845D01*
X45804Y-27851D01*
X45779Y-27865D01*
X45758Y-27883D01*
X45742Y-27905D01*
X45730Y-27930D01*
X45723Y-27956D01*
X45721Y-27984D01*
X45721Y-27984D01*
G37*
G36*
X45721Y-28828D02*
X45725Y-28856D01*
X45735Y-28882D01*
X45750Y-28906D01*
X45769Y-28926D01*
X45792Y-28943D01*
X45818Y-28955D01*
X45827Y-28957D01*
X45835Y-28959D01*
X45837Y-28959D01*
X45842Y-28961D01*
X45842Y-28961D01*
X45881Y-28961D01*
X45885Y-28960D01*
X45895Y-28957D01*
X45911Y-28952D01*
X45936Y-28940D01*
X45958Y-28923D01*
X45976Y-28901D01*
X45990Y-28876D01*
X45999Y-28849D01*
X46002Y-28836D01*
X46004Y-28845D01*
X46004Y-28846D01*
X46010Y-28869D01*
X46020Y-28891D01*
X46026Y-28900D01*
X46038Y-28914D01*
X46051Y-28927D01*
X46065Y-28938D01*
X46077Y-28945D01*
X46095Y-28953D01*
X46112Y-28958D01*
X46119Y-28960D01*
X46123Y-28961D01*
X46121Y-28962D01*
X46112Y-28964D01*
X46094Y-28970D01*
X46068Y-28982D01*
X46045Y-29001D01*
X46027Y-29022D01*
X46012Y-29048D01*
X46004Y-29077D01*
X46002Y-29087D01*
X45999Y-29073D01*
X45996Y-29060D01*
X45984Y-29033D01*
X45967Y-29009D01*
X45945Y-28989D01*
X45937Y-28983D01*
X45924Y-28976D01*
X45909Y-28970D01*
X45899Y-28966D01*
X45888Y-28964D01*
X45888Y-28964D01*
X45882Y-28962D01*
X45881Y-28961D01*
X45842Y-28961D01*
X45841Y-28962D01*
X45834Y-28964D01*
X45824Y-28966D01*
X45803Y-28974D01*
X45783Y-28985D01*
X45772Y-28993D01*
X45751Y-29014D01*
X45736Y-29039D01*
X45725Y-29067D01*
X45723Y-29080D01*
X45721Y-29099D01*
X45722Y-29119D01*
X45725Y-29136D01*
X45725Y-29138D01*
X45737Y-29166D01*
X45753Y-29191D01*
X45774Y-29212D01*
X45798Y-29227D01*
X45827Y-29238D01*
X45839Y-29241D01*
X45859Y-29242D01*
X45879Y-29241D01*
X45896Y-29238D01*
X45911Y-29233D01*
X45931Y-29223D01*
X45948Y-29212D01*
X45962Y-29199D01*
X45976Y-29182D01*
X45987Y-29164D01*
X45990Y-29157D01*
X45995Y-29144D01*
X45999Y-29131D01*
X46001Y-29121D01*
X46001Y-29120D01*
X46002Y-29123D01*
X46005Y-29131D01*
X46010Y-29148D01*
X46017Y-29166D01*
X46026Y-29181D01*
X46028Y-29184D01*
X46045Y-29203D01*
X46065Y-29219D01*
X46086Y-29231D01*
X46096Y-29235D01*
X46124Y-29241D01*
X46153Y-29242D01*
X46181Y-29237D01*
X46187Y-29235D01*
X46213Y-29223D01*
X46236Y-29206D01*
X46255Y-29184D01*
X46270Y-29159D01*
X46280Y-29132D01*
X46280Y-29128D01*
X46282Y-29108D01*
X46282Y-29088D01*
X46279Y-29069D01*
X46278Y-29065D01*
X46267Y-29037D01*
X46251Y-29012D01*
X46230Y-28992D01*
X46204Y-28976D01*
X46196Y-28972D01*
X46183Y-28967D01*
X46171Y-28964D01*
X46162Y-28963D01*
X46161Y-28963D01*
X46159Y-28962D01*
X46163Y-28960D01*
X46171Y-28958D01*
X46191Y-28953D01*
X46215Y-28941D01*
X46237Y-28924D01*
X46256Y-28903D01*
X46270Y-28879D01*
X46270Y-28878D01*
X46279Y-28852D01*
X46282Y-28824D01*
X46280Y-28796D01*
X46273Y-28769D01*
X46266Y-28754D01*
X46249Y-28730D01*
X46228Y-28710D01*
X46204Y-28694D01*
X46176Y-28685D01*
X46170Y-28683D01*
X46148Y-28680D01*
X46126Y-28681D01*
X46100Y-28687D01*
X46073Y-28699D01*
X46049Y-28715D01*
X46030Y-28737D01*
X46015Y-28762D01*
X46005Y-28791D01*
X46003Y-28797D01*
X46001Y-28802D01*
X46001Y-28802D01*
X46000Y-28793D01*
X45995Y-28777D01*
X45988Y-28760D01*
X45978Y-28744D01*
X45966Y-28728D01*
X45945Y-28708D01*
X45919Y-28693D01*
X45915Y-28691D01*
X45888Y-28683D01*
X45859Y-28680D01*
X45830Y-28684D01*
X45803Y-28693D01*
X45790Y-28699D01*
X45777Y-28708D01*
X45764Y-28720D01*
X45763Y-28721D01*
X45744Y-28744D01*
X45731Y-28769D01*
X45723Y-28797D01*
X45722Y-28800D01*
X45721Y-28828D01*
X45721Y-28828D01*
G37*
G36*
X44416Y-18036D02*
X44422Y-18048D01*
X44438Y-18073D01*
X44462Y-18110D01*
X44491Y-18153D01*
X44521Y-18197D01*
X44545Y-18232D01*
X44561Y-18257D01*
X44566Y-18268D01*
X44564Y-18273D01*
X44554Y-18294D01*
X44539Y-18324D01*
X44530Y-18341D01*
X44518Y-18369D01*
X44516Y-18382D01*
X44519Y-18385D01*
X44540Y-18395D01*
X44576Y-18410D01*
X44624Y-18431D01*
X44679Y-18455D01*
X44739Y-18480D01*
X44800Y-18506D01*
X44859Y-18530D01*
X44911Y-18551D01*
X44954Y-18568D01*
X44983Y-18580D01*
X44996Y-18584D01*
X44999Y-18583D01*
X45012Y-18569D01*
X45030Y-18545D01*
X45072Y-18493D01*
X45136Y-18442D01*
X45209Y-18411D01*
X45289Y-18400D01*
X45364Y-18409D01*
X45436Y-18439D01*
X45500Y-18489D01*
X45548Y-18549D01*
X45579Y-18620D01*
X45588Y-18700D01*
X45580Y-18776D01*
X45551Y-18849D01*
X45502Y-18914D01*
X45470Y-18941D01*
X45405Y-18979D01*
X45335Y-19000D01*
X45317Y-19003D01*
X45240Y-18999D01*
X45167Y-18977D01*
X45101Y-18936D01*
X45047Y-18880D01*
X45041Y-18873D01*
X45022Y-18846D01*
X45008Y-18829D01*
X44997Y-18815D01*
X44761Y-18913D01*
X44724Y-18929D01*
X44659Y-18956D01*
X44604Y-18979D01*
X44560Y-18998D01*
X44530Y-19011D01*
X44518Y-19017D01*
X44518Y-19018D01*
X44516Y-19026D01*
X44523Y-19044D01*
X44539Y-19077D01*
X44550Y-19099D01*
X44562Y-19124D01*
X44566Y-19135D01*
X44561Y-19145D01*
X44546Y-19169D01*
X44522Y-19204D01*
X44493Y-19246D01*
X44466Y-19286D01*
X44442Y-19323D01*
X44425Y-19350D01*
X44418Y-19363D01*
X44418Y-19365D01*
X44424Y-19377D01*
X44442Y-19398D01*
X44472Y-19430D01*
X44517Y-19476D01*
X44524Y-19483D01*
X44562Y-19520D01*
X44594Y-19550D01*
X44616Y-19571D01*
X44627Y-19578D01*
X44627Y-19578D01*
X44640Y-19571D01*
X44666Y-19554D01*
X44704Y-19530D01*
X44748Y-19500D01*
X44861Y-19422D01*
X44968Y-19465D01*
X45001Y-19478D01*
X45041Y-19495D01*
X45069Y-19507D01*
X45082Y-19513D01*
X45086Y-19525D01*
X45093Y-19554D01*
X45102Y-19597D01*
X45111Y-19648D01*
X45120Y-19696D01*
X45128Y-19739D01*
X45134Y-19771D01*
X45137Y-19785D01*
X45139Y-19789D01*
X45146Y-19791D01*
X45161Y-19793D01*
X45187Y-19794D01*
X45229Y-19795D01*
X45289Y-19795D01*
X45296Y-19795D01*
X45354Y-19794D01*
X45399Y-19793D01*
X45429Y-19792D01*
X45441Y-19790D01*
X45441Y-19790D01*
X45444Y-19776D01*
X45451Y-19745D01*
X45459Y-19702D01*
X45469Y-19650D01*
X45470Y-19646D01*
X45480Y-19595D01*
X45489Y-19551D01*
X45496Y-19521D01*
X45500Y-19508D01*
X45504Y-19505D01*
X45524Y-19495D01*
X45556Y-19480D01*
X45595Y-19463D01*
X45636Y-19446D01*
X45672Y-19431D01*
X45700Y-19421D01*
X45712Y-19418D01*
X45712Y-19419D01*
X45725Y-19426D01*
X45752Y-19444D01*
X45789Y-19469D01*
X45833Y-19500D01*
X45836Y-19502D01*
X45880Y-19532D01*
X45917Y-19556D01*
X45944Y-19572D01*
X45956Y-19578D01*
X45956Y-19578D01*
X45969Y-19568D01*
X45994Y-19546D01*
X46028Y-19514D01*
X46066Y-19475D01*
X46078Y-19463D01*
X46120Y-19421D01*
X46147Y-19391D01*
X46162Y-19373D01*
X46165Y-19364D01*
X46165Y-19363D01*
X46157Y-19350D01*
X46139Y-19323D01*
X46113Y-19285D01*
X46083Y-19241D01*
X46081Y-19238D01*
X46051Y-19194D01*
X46026Y-19157D01*
X46009Y-19131D01*
X46002Y-19120D01*
X46002Y-19118D01*
X46008Y-19100D01*
X46019Y-19069D01*
X46033Y-19031D01*
X46050Y-18990D01*
X46065Y-18954D01*
X46078Y-18926D01*
X46085Y-18913D01*
X46086Y-18913D01*
X46101Y-18908D01*
X46134Y-18900D01*
X46179Y-18891D01*
X46233Y-18881D01*
X46242Y-18879D01*
X46294Y-18869D01*
X46337Y-18861D01*
X46367Y-18855D01*
X46379Y-18852D01*
X46381Y-18844D01*
X46383Y-18819D01*
X46384Y-18780D01*
X46384Y-18733D01*
X46384Y-18684D01*
X46383Y-18635D01*
X46381Y-18594D01*
X46379Y-18564D01*
X46377Y-18552D01*
X46376Y-18552D01*
X46360Y-18547D01*
X46327Y-18540D01*
X46282Y-18531D01*
X46228Y-18520D01*
X46218Y-18518D01*
X46166Y-18509D01*
X46124Y-18500D01*
X46094Y-18494D01*
X46083Y-18490D01*
X46080Y-18486D01*
X46071Y-18464D01*
X46056Y-18429D01*
X46039Y-18386D01*
X45998Y-18286D01*
X46083Y-18163D01*
X46090Y-18151D01*
X46120Y-18107D01*
X46145Y-18071D01*
X46161Y-18046D01*
X46167Y-18035D01*
X46166Y-18034D01*
X46156Y-18022D01*
X46133Y-17998D01*
X46100Y-17964D01*
X46062Y-17926D01*
X46033Y-17897D01*
X45999Y-17863D01*
X45976Y-17842D01*
X45961Y-17830D01*
X45952Y-17826D01*
X45946Y-17827D01*
X45933Y-17835D01*
X45906Y-17853D01*
X45869Y-17878D01*
X45825Y-17908D01*
X45789Y-17933D01*
X45748Y-17959D01*
X45718Y-17977D01*
X45704Y-17983D01*
X45698Y-17981D01*
X45674Y-17973D01*
X45637Y-17958D01*
X45594Y-17940D01*
X45497Y-17897D01*
X45484Y-17833D01*
X45477Y-17794D01*
X45467Y-17740D01*
X45457Y-17689D01*
X45441Y-17608D01*
X45145Y-17605D01*
X45139Y-17617D01*
X45136Y-17629D01*
X45129Y-17659D01*
X45121Y-17702D01*
X45111Y-17752D01*
X45103Y-17795D01*
X45095Y-17839D01*
X45089Y-17870D01*
X45086Y-17884D01*
X45082Y-17887D01*
X45061Y-17898D01*
X45027Y-17913D01*
X44987Y-17930D01*
X44946Y-17948D01*
X44907Y-17963D01*
X44878Y-17974D01*
X44863Y-17978D01*
X44852Y-17972D01*
X44826Y-17955D01*
X44790Y-17931D01*
X44747Y-17902D01*
X44704Y-17873D01*
X44667Y-17848D01*
X44641Y-17831D01*
X44629Y-17823D01*
X44620Y-17827D01*
X44600Y-17844D01*
X44566Y-17877D01*
X44518Y-17925D01*
X44511Y-17933D01*
X44474Y-17971D01*
X44444Y-18004D01*
X44424Y-18026D01*
X44416Y-18036D01*
X44416Y-18036D01*
G37*
G54D14*
X56600Y-21800D02*
X55250Y-21800D01*
X55250Y-21800D02*
X55200Y-21800D01*
X55200Y-21800D02*
X55200Y-21000D01*
X55200Y-21000D02*
X56600Y-21000D01*
X56600Y-21000D02*
X56600Y-21800D01*
%LPC*%
G54D15*
X44300Y-20100D03*
G54D16*
X44300Y-21100D03*
X44300Y-22100D03*
X44300Y-23100D03*
X44300Y-24100D03*
X44300Y-25100D03*
X44300Y-26100D03*
X44300Y-27100D03*
G54D15*
X43300Y-20100D03*
G54D16*
X43300Y-21100D03*
X43300Y-22100D03*
X43300Y-23100D03*
X43300Y-24100D03*
X43300Y-25100D03*
X43300Y-26100D03*
X43300Y-27100D03*
G54D15*
X53300Y-20100D03*
G54D16*
X52300Y-20100D03*
X51300Y-20100D03*
X50300Y-20100D03*
X49300Y-20100D03*
X48300Y-20100D03*
X47300Y-20100D03*
X46300Y-20100D03*
G54D15*
X53300Y-27100D03*
G54D16*
X52300Y-27100D03*
X51300Y-27100D03*
X50300Y-27100D03*
X49300Y-27100D03*
X48300Y-27100D03*
X47300Y-27100D03*
X46300Y-27100D03*
G54D17*
X55625Y-21400D03*
X56175Y-21400D03*
G54D18*
X55550Y-23600D03*
X57550Y-22600D03*
X57550Y-24600D03*
G54D19*
X54100Y-22100D03*
G54D20*
X53100Y-22100D03*
X52100Y-22100D03*
X51100Y-22100D03*
X50100Y-22100D03*
X49100Y-22100D03*
X48100Y-22100D03*
X47100Y-22100D03*
X47100Y-25100D03*
X48100Y-25100D03*
X49100Y-25100D03*
X50100Y-25100D03*
X51100Y-25100D03*
X52100Y-25100D03*
X53100Y-25100D03*
X54100Y-25100D03*
M02*
